<?xml version="1.0" standalone="no"?>
<!DOCTYPE svg PUBLIC "-//W3C//DTD SVG 20010904//EN"
 "http://www.w3.org/TR/2001/REC-SVG-20010904/DTD/svg10.dtd">
<svg version="1.0" xmlns="http://www.w3.org/2000/svg"
 width="522.000000pt" height="522.000000pt" viewBox="0 0 522.000000 522.000000"
 preserveAspectRatio="xMidYMid meet">
<metadata>
Created by potrace 1.14, written by Peter Selinger 2001-2017
</metadata>
<g transform="translate(0.000000,522.000000) scale(0.100000,-0.100000)"
fill="#000000" stroke="none">
<path d="M3960 4426 c-151 -31 -230 -131 -235 -293 -3 -124 32 -201 120 -263
108 -75 301 -74 407 1 134 96 151 355 31 474 -75 75 -199 106 -323 81z"/>
<path d="M4738 4424 c-141 -36 -218 -132 -224 -280 -4 -94 20 -180 62 -221 7
-7 14 -16 16 -20 1 -5 17 -17 33 -29 116 -79 298 -81 410 -4 116 80 153 253
87 405 -30 70 -95 120 -190 149 -40 13 -146 13 -194 0z"/>
<path d="M1607 4203 c-1 -1 -31 -4 -67 -7 -36 -3 -87 -10 -115 -16 -27 -5 -61
-11 -75 -14 -14 -2 -32 -7 -40 -10 -8 -3 -26 -7 -40 -10 -92 -15 -389 -144
-466 -203 -17 -12 -36 -23 -42 -23 -7 0 -12 -4 -12 -10 0 -5 -6 -10 -14 -10
-8 0 -16 -4 -18 -8 -2 -4 -32 -30 -68 -57 -165 -126 -346 -344 -449 -540 -60
-116 -131 -303 -145 -385 -3 -14 -5 -25 -6 -25 -2 0 -7 -24 -15 -69 -4 -21 -8
-48 -11 -60 -22 -114 -22 -445 1 -508 2 -7 7 -29 9 -48 3 -19 10 -55 16 -80 5
-25 12 -55 15 -67 3 -12 19 -62 36 -110 198 -562 663 -973 1248 -1103 47 -10
106 -22 131 -26 25 -4 469 -9 988 -11 l943 -3 -4 948 c-1 521 -6 961 -10 977
-4 17 -10 46 -13 65 -12 70 -16 86 -34 155 -32 117 -114 326 -132 333 -4 2 -8
9 -8 15 0 6 -19 43 -42 81 -36 61 -67 106 -138 200 -59 78 -195 206 -340 319
-14 11 -172 106 -214 129 -30 16 -179 79 -196 83 -8 2 -27 8 -43 14 -30 12
-165 47 -212 55 -16 3 -39 8 -51 10 -61 12 -358 28 -367 19z"/>
<path d="M3899 3388 c-6 -12 -3 -401 3 -404 4 -2 26 -7 50 -10 24 -3 54 -8 68
-10 14 -3 54 -7 89 -10 36 -3 68 -7 72 -10 8 -5 105 -17 132 -16 9 1 18 -2 18
-6 6 -33 2 -1595 -4 -1599 -4 -2 -24 -6 -45 -9 -20 -2 -56 -6 -79 -9 -24 -3
-62 -7 -85 -10 -24 -3 -61 -7 -83 -10 -22 -3 -60 -8 -85 -10 -24 -3 -47 -10
-50 -15 -4 -7 -6 -381 -1 -400 0 -3 297 -5 659 -5 l657 0 3 208 c2 162 0 207
-10 208 -7 0 -22 2 -33 4 -11 2 -47 7 -80 10 -33 4 -63 9 -66 10 -3 2 -30 6
-60 10 -30 3 -63 7 -74 9 -11 3 -29 5 -40 5 -20 1 -20 8 -19 1036 l1 1035
-469 0 c-257 0 -469 -1 -469 -2z"/>
</g>
</svg>
