<svg id="Capa_1" data-name="Capa 1" xmlns="http://www.w3.org/2000/svg" viewBox="0 0 841.89 595.28"><defs><style>.cls-1,.cls-27,.cls-28{font-size:37.47px;fill:#f1cd00;}.cls-1{font-family:MarekSlab-Regular, Marek Slab;}.cls-2{letter-spacing:-0.02em;}.cls-3{letter-spacing:-0.01em;}.cls-4{letter-spacing:0em;}.cls-5{letter-spacing:0em;}.cls-6{letter-spacing:0em;}.cls-7{letter-spacing:0em;}.cls-8{letter-spacing:-0.02em;}.cls-9{letter-spacing:-0.01em;}.cls-10{letter-spacing:-0.02em;}.cls-11{letter-spacing:0.01em;}.cls-12{letter-spacing:-0.03em;}.cls-13{letter-spacing:0em;}.cls-14{letter-spacing:-0.01em;}.cls-15{letter-spacing:-0.01em;}.cls-16{letter-spacing:-0.02em;}.cls-17{letter-spacing:-0.03em;}.cls-18{letter-spacing:0em;}.cls-19{letter-spacing:-0.02em;}.cls-20{letter-spacing:-0.01em;}.cls-21{letter-spacing:0.01em;}.cls-22{letter-spacing:-0.05em;}.cls-23{letter-spacing:0em;}.cls-24{letter-spacing:0.01em;}.cls-25{letter-spacing:0.03em;}.cls-26{letter-spacing:0.01em;}.cls-27{font-family:ChunkFiveEx, ChunkFive Ex;}.cls-28{font-family:GeosansLight;}.cls-29{letter-spacing:-0.14em;}.cls-30{letter-spacing:-0.05em;}.cls-31{letter-spacing:-0.05em;}.cls-32{letter-spacing:-0.05em;}.cls-33{letter-spacing:-0.05em;}.cls-34{letter-spacing:-0.02em;}.cls-35{letter-spacing:0.04em;}.cls-36{letter-spacing:-0.03em;}.cls-37{letter-spacing:-0.06em;}.cls-38{letter-spacing:-0.05em;}.cls-39{letter-spacing:-0.06em;}.cls-40{letter-spacing:-0.05em;}.cls-41{letter-spacing:-0.04em;}.cls-42{letter-spacing:-0.05em;}.cls-43{letter-spacing:-0.17em;}.cls-44{letter-spacing:-0.06em;}.cls-45{letter-spacing:-0.04em;}.cls-46{letter-spacing:-0.07em;}.cls-47{letter-spacing:-0.06em;}.cls-48{font-size:12px;fill:#080c0f;font-family:ArialMT, Arial;}</style></defs><title>Polinizee Nova Marca 2021 v3</title><text class="cls-1" transform="translate(50.63 135.18)"><tspan class="cls-2">P</tspan><tspan class="cls-3" x="19.78" y="0">o</tspan><tspan x="39.83" y="0">li</tspan><tspan class="cls-4" x="62.39" y="0">n</tspan><tspan class="cls-5" x="86.18" y="0">iz</tspan><tspan class="cls-6" x="115.11" y="0">e</tspan><tspan class="cls-7" x="133.47" y="0">e</tspan><tspan class="cls-8" x="0" y="44.96">a</tspan><tspan x="18.51" y="44.96">b</tspan><tspan class="cls-9" x="39.04" y="44.96">c</tspan><tspan class="cls-10" x="56.13" y="44.96">d</tspan><tspan class="cls-11" x="76.96" y="44.96">e</tspan><tspan class="cls-12" x="95.4" y="44.96">f</tspan><tspan class="cls-13" x="107.99" y="44.96">g</tspan><tspan x="125.56" y="44.96">h</tspan><tspan class="cls-14" x="149.51" y="44.96">i</tspan><tspan x="160.45" y="44.96">jk</tspan><tspan class="cls-15" x="191.55" y="44.96">l</tspan><tspan class="cls-5" x="202.19" y="44.96">m</tspan><tspan class="cls-16" x="239.4" y="44.96">n</tspan><tspan class="cls-17" x="262.44" y="44.96">o</tspan><tspan class="cls-18" x="281.63" y="44.96">pq</tspan><tspan class="cls-19" x="324.2" y="44.96">r</tspan><tspan class="cls-20" x="337.87" y="44.96">s</tspan><tspan class="cls-21" x="353.13" y="44.96">t</tspan><tspan class="cls-22" x="365.64" y="44.96">u</tspan><tspan class="cls-23" x="386.74" y="44.96">vxyz </tspan><tspan class="cls-16" x="476.74" y="44.96">1</tspan><tspan class="cls-23" x="488.43" y="44.96">2</tspan><tspan class="cls-24" x="505.11" y="44.96">3</tspan><tspan class="cls-25" x="523.92" y="44.96">4</tspan><tspan class="cls-10" x="544.07" y="44.96">5</tspan><tspan class="cls-26" x="561.54" y="44.96">6789</tspan><tspan x="638.54" y="44.96">0</tspan></text><text class="cls-27" transform="translate(50.63 285.54)">Polinizee<tspan x="0" y="44.96">abcdefghijklmnopqrstuvxyz 1234567890</tspan></text><text class="cls-28" transform="translate(50.63 454.1)"><tspan class="cls-29">P<tspan class="cls-5" x="13.11" y="0">o</tspan><tspan class="cls-30" x="31.77" y="0">l</tspan><tspan class="cls-31" x="37.06" y="0">i</tspan><tspan class="cls-32" x="42.15" y="0">n</tspan><tspan class="cls-33" x="57.1" y="0">i</tspan><tspan class="cls-34" x="62.09" y="0">z</tspan><tspan class="cls-35" x="78.35" y="0">e</tspan><tspan class="cls-7" x="98.17" y="0">e</tspan></tspan><tspan x="0" y="44.96">ab</tspan><tspan class="cls-36" x="38.48" y="44.96">c</tspan><tspan x="53.92" y="44.96">d</tspan><tspan class="cls-37" x="73.44" y="44.96">e</tspan><tspan class="cls-38" x="89.59" y="44.96">f</tspan><tspan x="97.72" y="44.96">g</tspan><tspan class="cls-39" x="116.83" y="44.96">h</tspan><tspan class="cls-5" x="131.82" y="44.96">ijk</tspan><tspan class="cls-40" x="161.27" y="44.96">l</tspan><tspan class="cls-41" x="166.48" y="44.96">m</tspan><tspan x="188.89" y="44.96">nopq</tspan><tspan class="cls-42" x="262.48" y="44.96">r</tspan><tspan x="272.34" y="44.96">stuvxyz </tspan><tspan class="cls-43" x="383.36" y="44.96">1</tspan><tspan class="cls-44" x="397.26" y="44.96">2</tspan><tspan class="cls-45" x="415.47" y="44.96">3</tspan><tspan x="434.36" y="44.96">45</tspan><tspan class="cls-45" x="475.2" y="44.96">6</tspan><tspan class="cls-46" x="494.09" y="44.96">7</tspan><tspan class="cls-47" x="511.89" y="44.96">8</tspan><tspan class="cls-18" x="530.02" y="44.96">90</tspan></text><text class="cls-48" transform="translate(50.63 88.41)">Marek Slab Regular</text><text class="cls-48" transform="translate(50.63 237.74)">ChunkFive Ex</text><text class="cls-48" transform="translate(50.63 406.29)">Geosans Light</text></svg>