<svg id="Capa_1" data-name="Capa 1" xmlns="http://www.w3.org/2000/svg" viewBox="0 0 400 400"><defs><style>.cls-1{fill:#0c0c0c;}.cls-2{fill:#f1cd00;}.cls-3{fill:#535252;}.cls-4{fill:#c5cbce;}</style></defs><title>Polinizee Nova Marca 2021 Set Icons</title><path class="cls-1" d="M128.7,300.92c0-7.16-.07-14.32,0-21.47.31-26.75,4.77-54.69-21.33-73.8C54.12,122.3,104.69,19.22,203.45,12.42c46.81-3.23,84.91,17.11,110,56.78,25.59,40.45,27.53,83.26,4.36,126.11-3.16,5.84-6,12.83-11,16.54-17,12.59-17.21,29.77-16.81,48.32.74,33.86.19,67.75.22,101.62,0,6.34.2,12.8-7,15.73-6.73,2.73-10.66-2.36-14.77-6.13-16.17-14.83-32.55-29.46-48.13-44.9-6.45-6.38-10.43-6.83-17.31-.48-17.17,15.83-35.13,30.83-52.9,46-4.23,3.62-8.46,8.2-15.12,5.11-6.5-3-6.33-8.85-6.33-14.66Q128.72,331.7,128.7,300.92Zm21,41.4c6.93-.41,9.85-4.41,13.4-7.45,13-11.13,26.1-22.09,38.94-33.38,7.85-6.92,14-6.9,21.87,1,13.89,14.05,29,26.94,45,41.72v-100c-39.89,18.88-79.38,18.43-119.25,0Zm-43.42-206c-1.83,53.41,40.85,103.11,102.55,104C263.11,241,316,198,313.24,127.64,311.33,78.73,263.18,32,210.86,31.36,154.45,30.72,102.43,80.2,106.26,136.34Z"/><path class="cls-2" d="M149.68,342.32V244.24c39.87,18.47,79.36,18.92,119.25,0v100c-16.09-14.78-31.15-27.67-45-41.72-7.82-7.92-14-7.94-21.87-1-12.84,11.29-26,22.25-38.94,33.38C159.53,337.91,156.61,341.91,149.68,342.32Z"/><path class="cls-2" d="M106.26,136.34c-3.83-56.14,48.19-105.62,104.6-105,52.32.59,100.47,47.37,102.38,96.28C316,198,263.11,241,208.81,240.29,147.11,239.45,104.43,189.75,106.26,136.34Zm197.79.09c2.48-52.09-42.57-94.37-90.8-96.27C158.47,38,114.57,85,114.4,134.62c-.18,54.31,40.95,96.67,94.89,96.86C262.3,231.67,305.37,190.35,304.05,136.43Z"/><path class="cls-1" d="M304.05,136.43c1.32,53.92-41.75,95.24-94.76,95-53.94-.19-95.07-42.55-94.89-96.86C114.57,85,158.47,38,213.25,40.16,261.48,42.06,306.53,84.34,304.05,136.43Zm-19.7,7.1c.76-2.14,2.24-4.31,2.17-6.43-1.8-52.54-45.84-83-82.91-76.15-43-.25-76,42.35-68.7,88.85,5.68,36.42,40.19,63.83,78.42,62.28C250.49,210.58,281.85,180.31,284.35,143.53Z"/><path class="cls-3" d="M284.35,143.53c-2.5,36.78-33.86,67.05-71,68.55-38.23,1.55-72.74-25.86-78.42-62.28-7.25-46.5,25.69-89.1,68.7-88.85.8,6.55,7,5.84,10.94,7.52C241,79.85,260.75,98,274.17,123.54,277.66,130.16,277.47,138.68,284.35,143.53Z"/><path class="cls-4" d="M284.35,143.53c-6.88-4.85-6.69-13.37-10.18-20C260.75,98,241,79.85,214.55,68.47c-3.9-1.68-10.14-1-10.94-7.52,37.07-6.87,81.11,23.61,82.91,76.15C286.59,139.22,285.11,141.39,284.35,143.53Z"/><path class="cls-2" d="M209.31,87.64a43.46,43.46,0,0,1,43.46,43.46v43.47H209.31a43.47,43.47,0,1,1,0-86.93Z"/></svg>