<svg id="Capa_1" data-name="Capa 1" xmlns="http://www.w3.org/2000/svg" xmlns:xlink="http://www.w3.org/1999/xlink" viewBox="0 0 400 400"><defs><style>.cls-1{fill:none;}.cls-2{clip-path:url(#clip-path);}.cls-3{fill:#0c0c0c;}.cls-4{fill:#f1cd00;}.cls-5{fill:#fff;}</style><clipPath id="clip-path"><rect class="cls-1" x="-2.9" y="2.4" width="400" height="400"/></clipPath></defs><title>Polinizee Nova Marca 2021 Set Icons</title><g class="cls-2"><g class="cls-2"><path class="cls-3" d="M148.45,249.84c-9.56,0-19.15.36-28.69-.09C103.22,249,94,239.24,95.37,222.84A458.85,458.85,0,0,1,101.73,176c2.14-11.42,9.65-18.75,21.87-19,17.2-.34,34.42-.42,51.6.15,11.45.38,18.76,7.24,20.66,18.37,2.75,16,5.28,32.1,6.54,48.26,1.24,15.78-7.86,24.9-23.82,26-1,.07-1.92,0-2.87,0q-13.64,0-27.26,0"/><path class="cls-4" d="M147.13,70.79a39.09,39.09,0,0,1,39.09,39.09V149H147.13a39.09,39.09,0,0,1,0-78.18"/><path class="cls-4" d="M171.48,174.43c4.89,0,9.94,2.61,9.94,9.78,0,7-5,9.78-9.94,9.78-5,0-10.1-2.77-10.1-9.78,0-7.17,5.05-9.78,10.1-9.78"/><path class="cls-4" d="M171.48,196.49c4.89,0,9.94,2.61,9.94,9.78,0,7-5,9.77-9.94,9.77-5,0-10.1-2.77-10.1-9.77,0-7.17,5.05-9.78,10.1-9.78"/><path class="cls-3" d="M269.75,249.84c-9.56,0-19.14.36-28.69-.09-16.54-.79-25.75-10.51-24.39-26.91A461.66,461.66,0,0,1,223,176c2.14-11.42,9.65-18.75,21.87-19,17.2-.34,34.42-.42,51.6.15,11.45.38,18.76,7.24,20.67,18.37,2.74,16,5.27,32.1,6.53,48.26,1.24,15.78-7.86,24.9-23.82,26-1,.07-1.92,0-2.87,0q-13.63,0-27.26,0"/><path class="cls-4" d="M268.43,70.79a39.09,39.09,0,0,1,39.09,39.09V149H268.43a39.09,39.09,0,0,1,0-78.18"/><path class="cls-4" d="M292.78,174.43c4.89,0,9.94,2.61,9.94,9.78,0,7-5.05,9.78-9.94,9.78-5,0-10.1-2.77-10.1-9.78,0-7.17,5.05-9.78,10.1-9.78"/><path class="cls-4" d="M292.78,196.49c4.89,0,9.94,2.61,9.94,9.78,0,7-5.05,9.77-9.94,9.77-5,0-10.1-2.77-10.1-9.77,0-7.17,5.05-9.78,10.1-9.78"/><path class="cls-4" d="M111.22,240a45.09,45.09,0,1,1,45.09-45.09V240Z"/><path class="cls-5" d="M111.22,155.79a39.09,39.09,0,0,1,39.09,39.09V234H111.22a39.09,39.09,0,0,1,0-78.18m0-12a51.09,51.09,0,0,0,0,102.18h51.09V194.88a51.15,51.15,0,0,0-51.09-51.09"/><path class="cls-3" d="M94.8,339c-4.29,0-7.83-.07-11.14-.23-9.47-.44-17.08-3.65-22-9.27-4.78-5.44-6.92-13-6.18-22a468.61,468.61,0,0,1,6.41-47.23c2.61-13.88,12-22,25.73-22.26,9.15-.18,17.3-.26,24.93-.26,9.62,0,18.41.13,26.88.41,13.07.43,22.22,8.55,24.48,21.7,2.65,15.47,5.28,32.06,6.58,48.61.66,8.4-1.38,15.6-5.88,20.84-4.78,5.55-12.27,8.84-21.65,9.51-.49,0-1,0-1.47,0h-6.33q-11.31,0-22.62,0H112c-2.85,0-5.71,0-8.56.07s-5.77.06-8.65.06"/><path class="cls-5" d="M112.54,241.76c8.92,0,17.84.12,26.75.41,11.45.38,18.75,7.24,20.66,18.37,2.74,16,5.27,32.1,6.54,48.26,1.24,15.78-7.86,24.9-23.83,26-.39,0-.78,0-1.17,0l-1.7,0h-5.13q-11.05,0-22.12,0H112c-5.73,0-11.47.13-17.2.13-3.66,0-7.31-.05-11-.22C67.31,334,58.1,324.24,59.46,307.84A458.85,458.85,0,0,1,65.82,261c2.14-11.42,9.64-18.75,21.87-19q12.42-.24,24.85-.26m0-8c-7.65,0-15.83.08-25,.26C72,234.33,60.89,243.87,58,259.54a471,471,0,0,0-6.47,47.64c-.83,10,1.65,18.65,7.17,24.93,5.66,6.45,14.24,10.13,24.82,10.63,3.38.16,7,.23,11.33.23,2.91,0,5.85,0,8.69-.06s5.69-.07,8.51-.07h.53q11.07,0,22.13,0h6.83c.65,0,1.2,0,1.74-.06,10.48-.75,18.91-4.51,24.4-10.89,5.22-6.06,7.58-14.28,6.84-23.76-1.32-16.72-4-33.42-6.63-49-2.6-15.16-13.18-24.52-28.28-25-8.52-.28-17.36-.41-27-.41"/><path class="cls-4" d="M135.57,259.43c4.89,0,9.94,2.61,9.94,9.78,0,7-5,9.78-9.94,9.78-5,0-10.1-2.77-10.1-9.78,0-7.17,5.05-9.78,10.1-9.78"/><path class="cls-4" d="M135.57,281.49c4.89,0,9.94,2.61,9.94,9.78,0,7-5,9.77-9.94,9.77-5,0-10.1-2.77-10.1-9.77,0-7.17,5.05-9.78,10.1-9.78"/><path class="cls-4" d="M299.9,240A45.09,45.09,0,1,1,345,194.88V240Z"/><path class="cls-5" d="M299.9,155.79A39.09,39.09,0,0,1,339,194.88V234H299.9a39.09,39.09,0,1,1,0-78.18m0-12a51.09,51.09,0,1,0,0,102.18H351V194.88a51.15,51.15,0,0,0-51.09-51.09"/><path class="cls-3" d="M283.47,339c-4.28,0-7.82-.07-11.13-.23-9.47-.44-17.08-3.65-22-9.27-4.78-5.44-6.92-13-6.18-22a463,463,0,0,1,6.41-47.23c2.6-13.88,12-22,25.73-22.26,9.14-.18,17.3-.26,24.92-.26,9.62,0,18.42.13,26.89.41,13.07.43,22.22,8.55,24.47,21.7,2.65,15.46,5.28,32,6.58,48.61.66,8.4-1.37,15.6-5.87,20.84-4.78,5.55-12.27,8.84-21.66,9.51-.48,0-1,0-1.46,0h-6.33q-11.31,0-22.62,0h-.52c-2.85,0-5.71,0-8.57.07s-5.76.06-8.65.06"/><path class="cls-5" d="M301.22,241.76c8.92,0,17.84.12,26.75.41,11.45.38,18.75,7.24,20.66,18.37,2.74,16,5.27,32.1,6.54,48.26,1.24,15.78-7.86,24.9-23.83,26-.39,0-.78,0-1.17,0l-1.7,0h-5.13q-11.07,0-22.13,0h-.53c-5.73,0-11.47.13-17.21.13-3.65,0-7.3-.05-10.94-.22-16.54-.79-25.75-10.51-24.4-26.91A461.66,461.66,0,0,1,254.49,261c2.14-11.42,9.65-18.75,21.87-19q12.42-.24,24.86-.26m0-8c-7.65,0-15.83.08-25,.26-15.58.31-26.64,9.85-29.58,25.52a471,471,0,0,0-6.47,47.64c-.83,10,1.65,18.65,7.16,24.93,5.67,6.45,14.25,10.13,24.83,10.63,3.37.16,7,.23,11.32.23,2.92,0,5.85,0,8.7-.06s5.69-.07,8.51-.07h.52q11.07,0,22.14,0h6.83c.65,0,1.2,0,1.74-.06,10.47-.75,18.91-4.51,24.4-10.89,5.21-6.06,7.58-14.28,6.83-23.76-1.31-16.72-4-33.42-6.63-49-2.6-15.16-13.17-24.52-28.28-25-8.51-.28-17.35-.41-27-.41"/><path class="cls-4" d="M324.25,259.43c4.89,0,9.94,2.61,9.94,9.78,0,7-5.05,9.78-9.94,9.78-5.05,0-10.1-2.77-10.1-9.78,0-7.17,5.05-9.78,10.1-9.78"/><path class="cls-4" d="M207.78,258a45.09,45.09,0,1,1,45.09-45.09V258Z"/><path class="cls-5" d="M207.78,173.79a39.09,39.09,0,0,1,39.09,39.09V252H207.78a39.09,39.09,0,0,1,0-78.18m0-12a51.09,51.09,0,1,0,0,102.18h51.09V212.88a51.15,51.15,0,0,0-51.09-51.09"/><path class="cls-3" d="M190,357c-4.28,0-7.82-.07-11.13-.23-9.47-.44-17.08-3.65-22-9.27-4.78-5.44-6.92-13-6.18-22a463.33,463.33,0,0,1,6.41-47.23c2.61-13.88,12-22,25.73-22.26,9.15-.18,17.3-.26,24.93-.26,9.61,0,18.41.13,26.88.41,13.07.43,22.22,8.55,24.47,21.7,2.66,15.47,5.29,32.06,6.59,48.61.66,8.4-1.38,15.6-5.88,20.84-4.78,5.55-12.27,8.84-21.65,9.51-.49,0-1,0-1.47,0h-6.33q-11.31,0-22.62,0h-.52c-2.85,0-5.71,0-8.56.07s-5.77.06-8.66.06"/><path class="cls-5" d="M207.74,259.76c8.92,0,17.84.12,26.75.41,11.45.38,18.75,7.24,20.66,18.37,2.74,16,5.27,32.1,6.54,48.26,1.24,15.78-7.86,24.9-23.83,26-.39,0-.78,0-1.17,0l-1.7,0h-5.13q-11.06,0-22.13,0h-.53c-5.73,0-11.47.13-17.21.13-3.65,0-7.3-.05-10.94-.22-16.54-.79-25.75-10.51-24.4-26.91A461.66,461.66,0,0,1,161,279c2.15-11.42,9.65-18.75,21.87-19q12.44-.24,24.86-.26m0-8c-7.65,0-15.83.08-25,.26-15.58.31-26.64,9.85-29.58,25.52a471,471,0,0,0-6.47,47.64c-.83,10,1.65,18.65,7.16,24.93,5.67,6.45,14.25,10.13,24.83,10.63,3.37.16,7,.23,11.32.23,2.92,0,5.86,0,8.7-.06s5.69-.07,8.51-.07h.52q11.07,0,22.14,0h6.83c.65,0,1.2,0,1.74-.06,10.47-.75,18.91-4.51,24.4-10.89,5.21-6.06,7.58-14.28,6.83-23.76-1.31-16.72-4-33.42-6.63-49-2.6-15.16-13.17-24.52-28.28-25-8.51-.28-17.35-.41-27-.41"/><path class="cls-4" d="M232.13,277.43c4.89,0,9.94,2.61,9.94,9.78,0,7-5,9.78-9.94,9.78-5,0-10.1-2.77-10.1-9.78,0-7.17,5.05-9.78,10.1-9.78"/><path class="cls-4" d="M232.13,299.49c4.89,0,9.94,2.61,9.94,9.78,0,7-5,9.77-9.94,9.77-5,0-10.1-2.77-10.1-9.77,0-7.17,5.05-9.78,10.1-9.78"/><path class="cls-4" d="M324.25,281.49c4.89,0,9.94,2.61,9.94,9.78,0,7-5.05,9.77-9.94,9.77-5.05,0-10.1-2.77-10.1-9.77,0-7.17,5.05-9.78,10.1-9.78"/></g></g></svg>