<svg id="Capa_1" data-name="Capa 1" xmlns="http://www.w3.org/2000/svg" viewBox="0 0 400 400"><defs><style>.cls-1{fill:#0c0c0c;}.cls-2{fill:#fefefc;stroke:#c88b26;stroke-miterlimit:10;stroke-width:0.5px;}.cls-3{fill:#f1cd00;}.cls-4{fill:#b8b8b8;}.cls-5{fill:#a28814;}.cls-6{fill:#c5cbce;}.cls-7{fill:#eeca78;}</style></defs><title>Polinizee Nova Marca 2021 Set Icons</title><path class="cls-1" d="M188.24,374.41q-70.34,0-140.68,0c-16.72,0-18.11-1.42-18.12-18.5-.05-55.72.12-111.43-.16-167.15-.05-8.88,1.37-16.42,8.61-22.18,1.79-1.43,3-3.64,4.72-5.09C66,142.39,78,118.81,72.31,87.9,70.93,80.45,74.53,74.72,80,69.58Q104,47.26,127.26,24.26c5-4.9,10.28-7,17.3-6.93,47.36.23,94.72.35,142.08,0C298.85,17.2,303.15,22.4,303,34c-.33,28.32.09,56.65-.25,85-.08,7.38.82,13.78,7.24,18.18,33.17,22.72,42.44,53.86,39.09,93.32-3.44,40.56-.75,81.65-.77,122.51,0,21.19-.22,21.4-20.8,21.41Zm116.39-59,4,3.62,19.07,20.36V201.18l-75.17,36c-1.8.41-3.64.72-5.4,1.26-12.14,3.75-12.39,8.4-3,17.13,20.37,19,39.71,39.06,59.47,58.7A1.91,1.91,0,0,0,304.63,315.46ZM130.15,238.8l-79.8-37.63V339.6L77.65,311q28-27.45,56-54.9C144.93,245,144.85,245,130.15,238.8Zm53.11-4.05L62.52,354.32h250.2c-.12-.84,0-1.46-.27-1.73Q253.64,292.29,194.81,232C189.19,226.24,186.14,229.76,183.26,234.75Zm72.57-22c7.16-3,14.32-6.05,21.5-9,5-2.06,6.24-5.72,6.22-11q-.27-73,0-146c0-6.88-1.64-10-9.28-9.89-39.38.3-78.77.1-118.16.19-3.81,0-9.11-1.4-8.28,5.69-.18,11.13-.75,22.27-.43,33.39.3,10.28-4.35,14.24-14.24,13.91-10.2-.33-20.46.45-30.63-.23-8.46-.56-11.35,2-11,10.78.67,19,.2,38.07.2,57.11,0,41.6,0,41.6,37.72,59.39,27.83,13.12,27.83,13.12,50.45-7.15.35-.31.64-.67,1-1,6-5.87,11.25-5.92,17.86.16,22.64,20.86,22.85,20.65,51.3,7C252,215.19,253.89,213.87,255.83,212.71Zm-204-32.1c8,2.87,14.19,10.5,20,7,5.06-3,1.4-12,1.79-18.32.19-2.93,1.46-6.56-3.29-9.42ZM303.07,159.5v30.79c8.14-2,14.7-5.31,22-10.14ZM109.4,69.33c20.81,1.88,20.81,1.88,16.69-15.64Z"/><path class="cls-2" d="M255.83,212.71c-1.94,1.16-3.81,2.48-5.84,3.45-28.45,13.61-28.66,13.82-51.3-7-6.61-6.08-11.85-6-17.86-.16-.33.33-.62.69-1,1-22.62,20.27-22.62,20.27-50.45,7.15-37.72-17.79-37.72-17.79-37.72-59.39,0-19,.47-38.09-.2-57.11-.31-8.81,2.58-11.34,11-10.78,10.17.68,20.43-.1,30.63.23,9.89.33,14.54-3.63,14.24-13.91-.32-11.12.25-22.26.43-33.39q42.31-.1,84.63-.2c21.08,0,26,4.85,26.07,26.23.11,40.7-.07,81.4.12,122.1A77.67,77.67,0,0,1,255.83,212.71Z"/><path class="cls-3" d="M303.19,354.32H62.52L183.26,234.75c4.83,8.05,12,14,18.87,20C237.76,286,272,318.59,303.19,354.32Z"/><path class="cls-3" d="M77.65,311,50.35,339.6V201.17l79.8,37.63c-14.22,17.91-28.55,35.73-42.61,53.77C83.23,298.09,75.46,302,77.65,311Z"/><path class="cls-3" d="M252.5,237.2l75.17-36V339.44L308.6,319.08c-.31-2.32.06-5.38-4-3.62a1.91,1.91,0,0,1-1.09-1.17c2.78-3.16,1.44-5.78-.82-8.57-11.59-14.34-23.73-28.31-34.38-43.33C262.65,254.37,252.6,248.79,252.5,237.2Z"/><path class="cls-4" d="M255.83,212.71a77.67,77.67,0,0,0,2.82-21.82c-.19-40.7,0-81.4-.12-122.1-.06-21.38-5-26.23-26.07-26.23q-42.32,0-84.63.2c-.83-7.09,4.47-5.68,8.28-5.69,39.39-.09,78.78.11,118.16-.19,7.64-.06,9.31,3,9.28,9.89q-.3,73,0,146c0,5.24-1.25,8.9-6.22,11C270.15,206.66,263,209.7,255.83,212.71Z"/><path class="cls-5" d="M303.19,354.32C272,318.59,237.76,286,202.13,254.77c-6.87-6-14-12-18.87-20,2.88-5,5.93-8.51,11.55-2.74q58.79,60.33,117.64,120.58c.26.27.15.89.27,1.73Z"/><path class="cls-5" d="M252.5,237.2c.1,11.59,10.15,17.17,15.84,25.19,10.65,15,22.79,29,34.38,43.33,2.26,2.79,3.6,5.41.82,8.57-19.76-19.64-39.1-39.71-59.47-58.7-9.36-8.73-9.11-13.38,3-17.13C248.86,237.92,250.7,237.61,252.5,237.2Z"/><path class="cls-5" d="M77.65,311c-2.19-9.07,5.58-12.94,9.89-18.46,14.06-18,28.39-35.86,42.61-53.77,14.7,6.16,14.78,6.24,3.53,17.33Q105.75,283.66,77.65,311Z"/><path class="cls-3" d="M51.83,180.61l18.52-20.74c4.75,2.86,3.48,6.49,3.29,9.42-.39,6.32,3.27,15.28-1.79,18.32C66,191.11,59.82,183.48,51.83,180.61Z"/><path class="cls-3" d="M303.07,159.5l22,20.65c-7.3,4.83-13.86,8.13-22,10.14Z"/><path class="cls-6" d="M109.4,69.33l16.69-15.64C130.21,71.21,130.21,71.21,109.4,69.33Z"/><path class="cls-7" d="M304.63,315.46c4-1.76,3.66,1.3,4,3.62Z"/><path class="cls-1" d="M180,57.32c7.51,0,15.26,4,15.26,15,0,10.75-7.75,15-15.26,15-7.75,0-15.5-4.25-15.5-15C164.46,61.32,172.21,57.32,180,57.32Z"/><path class="cls-3" d="M217.68,57.32c7.5,0,15.25,4,15.25,15,0,10.75-7.75,15-15.25,15-7.75,0-15.51-4.25-15.51-15C202.17,61.32,209.93,57.32,217.68,57.32Z"/></svg>