<svg id="Capa_1" data-name="Capa 1" xmlns="http://www.w3.org/2000/svg" viewBox="0 0 400 400"><defs><style>.cls-1{fill:#0c0c0c;}.cls-2{fill:#f1cd00;}.cls-3{fill:#a28814;}.cls-4{fill:#78227e;}</style></defs><title>Polinizee Nova Marca 2021 Set Icons</title><path class="cls-1" d="M17.53,59.74c0-18.13,2.15-20.25,19.64-20.26q112.35-.09,224.71,0c17.54,0,20.07,2.54,20.21,19.85.12,13.45.57,26.92-.16,40.33-.49,9.17,2,12.45,11.73,12.15,24-.72,48,.11,72-.37C379,111.17,384.74,116,384.63,130c-.45,61,.05,122-.28,182.94-.2,37.38-25.68,63.7-63.14,64.11-96,1-192.06,1.21-288.09,2-12.94.1-17.86-5.27-17.75-18.19m1.15-151.25h0M312.38,353c26.61,6.53,49-10.18,49.28-38.3.58-56.9.11-113.82.38-170.72,0-7.25-1.74-10.3-9.53-9.89-13.35.7-26.74.49-40.12.67-7.18-.15-14.4.05-21.54-.54-7.47-.61-9.88,2.08-9.84,9.7.29,56.11-.11,112.22.31,168.32C281.48,334,292.82,347.83,312.38,353ZM240.29,62.48h-.07q-95.7-.23-191.39-.56c-6.82,0-10.24.89-10.23,9.15.1,92.06-.2,184.12-.39,276.18a1.1,1.1,0,0,1-.07.36c-4.66,11.8,4.8,8.49,9.92,8.5q108.76.22,217.54,0c2.38,0,5.33,1.31,8.07-2.12a1,1,0,0,0,0-1.25c-13.53-16.55-13.33-36.77-13.24-57.29.33-71.55.13-143.11.13-214.66C260.55,61.1,260.55,61.08,240.29,62.48Z"/><path class="cls-2" d="M38.21,347.44c.19-92.12.49-184.24.39-276.36,0-8.26,3.41-9.19,10.23-9.15q95.72.49,191.43.56l.12,123.09q-88.32-.36-176.65-.67a46.21,46.21,0,0,0-5.68.73c-4.42.56-6.76,3.5-7.65,7.43-1.09,4.74,1.09,8.2,5,10.92,4.8,3.32,10.16,2.24,15.32,2.25q83.31.09,166.63,0c5.88,6.78,1.9,14.73,2.64,22.12-2.82-.48-5.64-1.38-8.46-1.38q-82.56-.13-165.12,0a31.93,31.93,0,0,0-9.73,1.8c-4.57,1.53-6.8,5-6.55,9.93.22,4.33,2.76,6.82,6.47,8.65,4.56,2.24,9.36,1.67,14.1,1.67,34.94,0,69.88.31,104.81-.08,21.49-.24,43,1.8,64.47-1.28-.7,7.39,3.29,15.36-2.72,22.1q-84,0-168-.07c-2.86,0-5.85-.32-8.58.35-5.93,1.43-10.88,4.34-10.42,11.54.42,6.47,5,8.88,10.7,9.45,4.27.42,8.6.42,12.9.42q81.14.12,162.29.18c9.18,6.44,0,14,1.33,21-10,.09-20.09.26-30.14.27q-71.07,0-142.13,0c-8.08,0-14.91,2-14.8,11.31S58,333.78,65,333.84c3.83,0,7.66,0,11.49,0l140.66.47c-5.5,12.3-17.14,13-27.81,13.12C139,347.85,88.58,347.52,38.21,347.44Z"/><path class="cls-3" d="M312.39,134.78c13.38-.18,26.77,0,40.12-.67,7.79-.41,9.57,2.64,9.53,9.89-.27,56.9.2,113.82-.38,170.72-.3,28.12-22.67,44.83-49.28,38.3Q312.38,243.9,312.39,134.78Z"/><path class="cls-3" d="M237.48,312.65c-1.32-6.94,7.85-14.55-1.33-21,13.09-8.22,13.28-11.81,1.15-21.87,6-6.74,2-14.71,2.72-22.1q12.06-9.66,0-19.31c-.74-7.39,3.24-15.34-2.64-22.12,9.18-5.71,12-12.34,3-20.68l-.12-123.09c20.29-1.41,20.29-1.41,20.29,18.29,0,71.55.2,143.11-.13,214.66-.09,20.77-.29,41.22,13.73,57.88-2.87,4.25-6,2.78-8.55,2.78q-108.77.18-217.54,0c-5.14,0-14.67,3.34-9.85-8.68,50.37.08,100.75.41,151.12,0,10.67-.08,22.31-.82,27.81-13.12,4.28-.35,8.55-1,12.82-1,6.39,0,13,.35,15.57-7.1C248,319.08,241.69,316.29,237.48,312.65Z"/><path class="cls-3" d="M312.39,134.78q0,109.11,0,218.24c-19.56-5.19-30.9-19.06-31.06-40.76-.42-56.1,0-112.21-.31-168.32,0-7.62,2.37-10.31,9.84-9.7C298,134.83,305.21,134.63,312.39,134.78Z"/><path class="cls-1" d="M240,228.38q12,9.66,0,19.31c-21.43,3.08-43,1-64.47,1.28-34.93.39-69.87.12-104.81.08-4.74,0-9.54.57-14.1-1.67-3.71-1.83-6.25-4.32-6.47-8.65-.25-4.9,2-8.4,6.55-9.93a31.93,31.93,0,0,1,9.73-1.8q82.56-.15,165.12,0C234.39,227,237.21,227.9,240,228.38Z"/><path class="cls-1" d="M237.3,269.79c12.13,10.06,11.94,13.65-1.15,21.87q-81.15-.07-162.29-.18c-4.3,0-8.63,0-12.9-.42-5.69-.57-10.28-3-10.7-9.45-.46-7.2,4.49-10.11,10.42-11.54,2.73-.67,5.72-.35,8.58-.35Q153.29,269.74,237.3,269.79Z"/><path class="cls-1" d="M237.48,312.65c4.21,3.64,10.48,6.43,8.05,13.58-2.53,7.45-9.18,7.12-15.57,7.1-4.27,0-8.54.64-12.82,1l-140.66-.47c-3.83,0-7.66,0-11.49,0-7-.06-14.46-.47-14.58-9.64s6.72-11.33,14.8-11.31q71.07.14,142.13,0C217.39,312.91,227.43,312.74,237.48,312.65Z"/><path class="cls-1" d="M240.38,185.58c9,8.34,6.19,15-3,20.68q-83.31,0-166.63,0c-5.16,0-10.52,1.07-15.32-2.25-3.95-2.72-6.13-6.18-5-10.92.89-3.93,3.23-6.87,7.65-7.43a46.21,46.21,0,0,1,5.68-.73Q152.05,185.2,240.38,185.58Z"/><path class="cls-1" d="M89.54,83.37A39.42,39.42,0,0,1,129,122.79v39.42H89.54a39.42,39.42,0,0,1,0-78.84Z"/><path class="cls-4" d="M89.54,98.86a23.92,23.92,0,0,1,23.92,23.93v23.92H89.54a23.93,23.93,0,1,1,0-47.85Z"/></svg>