<svg id="Capa_1" data-name="Capa 1" xmlns="http://www.w3.org/2000/svg" xmlns:xlink="http://www.w3.org/1999/xlink" viewBox="0 0 400 400"><defs><style>.cls-1{fill:none;}.cls-2{clip-path:url(#clip-path);}.cls-3{fill:#252424;}.cls-4{fill:#f1cd00;}.cls-5{fill:#a38926;}.cls-6{fill:#525a68;}</style><clipPath id="clip-path"><rect class="cls-1" x="-2.9" y="2.4" width="400" height="400"/></clipPath></defs><title>Polinizee Nova Marca 2021 Set Icons</title><g class="cls-2"><g class="cls-2"><path class="cls-3" d="M185.86,368.25q-76.38,0-152.76,0c-16.24,0-18.66-2.43-18.67-18.48q0-111.88,0-223.77c0-15.88,1.82-17.61,17.84-17.67,20.55-.06,41.1-.29,61.64.14,7,.15,9.31-1.74,9.08-8.92-.51-16.06.1-32.16-.24-48.23-.22-10.19,4.32-14.86,14.33-14.85q69,0,138,0c10.14,0,14.35,5,14.1,15.08-.36,14.28,1,28.68-.4,42.84-1.21,12.65,3.73,14.66,14.84,14.17,19.62-.88,39.3,0,58.95-.36,11-.21,15.06,4.67,15,15.34q-.27,114.57,0,229.13c0,12.94-6.61,15.74-17.72,15.69-51.36-.23-102.73-.1-154.09-.1M35.79,129.91l0-.06c-5.46,17.37-.86,35.24-2.59,52.78-1,9.79,3.38,11.85,12.33,11.82q145.22-.45,290.43-.29c5.05-21.38,3.88-42.82.51-64.27-4-4.3-9.22-2.55-13.9-2.56q-136.47-.15-272.93,0c-4.64,0-9.91-2-13.82,2.56m.39,184.93c-.28,6.65-.09,13.36-1,19.93-1.3,9.83,2,12.72,12.23,12.67q138.35-.66,276.7,0c9.65,0,13-1.89,12.74-12.28-.77-30.28-.27-60.59-.27-90.89,0-31.67,0-31.67-32.5-28.91-24.34-3.54-48.82-.59-73.21-1.54-6.47-.25-6.9,3.93-6.84,8.83.11,10.25-.48,20.53.16,30.74.73,11.78-3.1,17.29-15.88,16.53-15.1-.89-30.31-.67-45.44-.05-10.79.45-15.74-3.26-15.17-14.48.55-10.67-.15-21.4.2-32.08.22-6.6-1.59-9.69-8.92-9.63-32.08.29-64.17.21-96.26.06-5.61,0-8.15,1.89-8,7.69.86,31.14-1.66,62.34,1.41,93.45M187.09,108.3c17.38,0,34.76-.31,52.12.15,7,.19,9.4-2,9.06-9a250.17,250.17,0,0,1,.07-32c.72-8.87-2.89-10.16-10.63-10-24.94.45-49.9-.14-74.84.3-12.75.22-30.21-5.81-36.94,2.46-6.39,7.84-1.8,24.63-2,37.48a21.61,21.61,0,0,1,0,2.67c-.92,6.61,2.23,8.24,8.42,8.13,18.26-.34,36.53-.12,54.79-.12"/><path class="cls-4" d="M36.18,314.84c-3.07-31.11-.55-62.31-1.41-93.45-.16-5.8,2.38-7.72,8-7.69,32.09.15,64.18.23,96.26-.06,7.33-.06,9.14,3,8.92,9.63-.35,10.68.35,21.41-.2,32.07-.57,11.23,4.38,14.94,15.17,14.49,15.13-.62,30.34-.84,45.44.05,12.78.76,16.61-4.75,15.88-16.53-.64-10.21,0-20.49-.16-30.74-.06-4.9.37-9.08,6.84-8.83,24.39.95,48.87-2,73.21,1.54-.09,21.37-.22,42.74-.26,64.1-.06,31.9-14.32,46.08-46.64,46.11-51.65,0-103.3-.29-154.94.15-22.78.19-45.24,0-66.1-10.84"/><path class="cls-4" d="M335.93,194.16q-145.21.06-290.43.29c-9,0-13.29-2-12.33-11.82,1.73-17.54-2.87-35.41,2.59-52.78,0,7.33,0,14.67,0,24.23,16.7-12.57,33.57-13.7,51.23-13.55q86.79.74,173.61.05c30.78-.26,44.21.67,43.19,41.25-.19,7.69,2.92,9.83,10.22,10s15.11-2.82,21.91,2.32"/><path class="cls-4" d="M36.18,314.84c20.86,10.8,43.32,11,66.1,10.84,51.64-.44,103.29-.11,154.94-.15,32.32,0,46.58-14.21,46.64-46.11,0-21.36.17-42.73.26-64.1,32.5-2.76,32.5-2.76,32.5,28.91,0,30.29-.5,60.61.27,90.89.26,10.39-3.09,12.32-12.74,12.28q-138.34-.54-276.7,0c-10.26.05-13.53-2.84-12.23-12.67.87-6.57.68-13.28,1-19.93"/><path class="cls-5" d="M335.93,194.16c-6.8-5.14-14.62-2.14-21.91-2.32s-10.41-2.32-10.22-10c1-40.58-12.41-41.51-43.19-41.25q-86.8.71-173.61-.05c-17.66-.15-34.53,1-51.23,13.55,0-9.56,0-16.9,0-24.23l0,.06,300.65,0c3.37,21.45,4.54,42.89-.51,64.27"/><path class="cls-6" d="M336.44,129.89l-300.65,0c3.91-4.52,9.18-2.56,13.82-2.56q136.47-.18,272.93,0c4.68,0,9.91-1.74,13.9,2.56"/><path class="cls-4" d="M185.47,213.22A21.56,21.56,0,0,1,207,234.79v21.56H185.47a21.57,21.57,0,1,1,0-43.13"/></g></g></svg>