<svg id="Capa_1" data-name="Capa 1" xmlns="http://www.w3.org/2000/svg" xmlns:xlink="http://www.w3.org/1999/xlink" viewBox="0 0 400 400"><defs><style>.cls-1{fill:none;}.cls-2{clip-path:url(#clip-path);}.cls-3{fill:#262524;}.cls-4{fill:#2a2a28;}.cls-5{fill:#2e5932;}.cls-6{fill:#325932;}.cls-7{fill:#f1cd00;}.cls-8{fill:#a38926;}.cls-9{fill:#252424;}</style><clipPath id="clip-path"><rect class="cls-1" x="1.75" y="-4.14" width="400" height="400"/></clipPath></defs><title>Polinizee Nova Marca 2021 Set Icons</title><g class="cls-2"><g class="cls-2"><path class="cls-3" d="M141.65,15.72c13.15,0,26.3,0,39.45,0,8.74,0,14,4.09,12.21,12.93-5,24.56-6.69,49.54-14.4,73.93-4,12.5-5.24,29.81,7.68,43.7,8.77,9.44,6.21,24.35.93,35.74a29.45,29.45,0,0,0-3,15.66c1.93,25.28,3.8,50.57,5.94,75.83a44.33,44.33,0,0,1-5.17,25.62c-11.45,21.48-22.06,43.42-33,65.17-2.72,5.41-4.82,11.93-12.32,11.84-6.69-.07-9-5.89-11.67-10.86-12.39-23.12-24.63-46.33-37.22-69.34-3.56-6.51-4.42-12.83-3.58-20.21,6.22-54.56,12.35-109.13,17.73-163.78,1.37-13.88-7.87-26.21-8.59-40.35-.65-13-4.08-25.91-6.23-38.86-2.18-13.13.91-16.81,14.64-17,12.21-.16,24.42,0,36.64,0M140,346.94c9.1-18.13,16.84-34.34,25.34-50.15,4.34-8.08,6.6-15.8,5.59-25.26-2.57-24.2-4.95-48.5-5.45-72.81-.24-11.77-4-14-14.68-13.58-25.48,1-25.49.53-25.23-24.77a24.11,24.11,0,0,0,0-2.82c-1-9.57,4.09-13.66,12.91-14.67,7.36-.84,17.51,3.63,21.35-2.22,3.3-5,0-14.42-.4-21.87-.17-3.29-.17-6.58-.5-9.85a6,6,0,0,0-3.73-5.37c-16.3-7.53-30.71,1.41-32.45,19.12-4,41-9.33,81.86-12.93,122.88-1.17,13.38-7.67,27.55-2.19,40.14,8.85,20.38,20.67,39.47,32.38,61.23M142.81,35.2c-33.16,0-32.74-.06-28.32,31.39,1.85,13.14,6.87,20,20.94,17a20.92,20.92,0,0,1,4.19,0c25.31,0,25.31,0,30.32-24.37,4.93-24,4.93-24-20.12-24h-7M144,164.53c8.82,4.68,17.7,4.28,26.62.29-8.84-3.39-17.72-2.94-26.62-.29"/><path class="cls-4" d="M292.68,15.71c12.68,0,25.37.13,38,0,10.92-.15,16.1,4.62,13.43,15.65-5.78,23.92-7.65,48.45-14.39,72.47-5,17.91,1.07,39,2.6,58.65q4.51,58.28,9.54,116.5c.51,5.94-1.12,11.05-3.7,16.15-11.83,23.41-23.56,46.87-35.41,70.26-2.54,5-5,10.85-11.69,10.81s-9-5.76-11.71-10.76C267,342.28,254.9,319,242,296.16c-4.84-8.59-3.9-17.13-3-25.93,5.66-53.2,11.65-106.36,17-159.58,1.27-12.58-7.33-23.43-8.11-36.15-.85-14-4.24-27.78-6.66-41.63C239.22,21,243.1,15,256.05,15.59c12.19.58,24.42.12,36.63.12m21.78,20c-12.18-.17-24.41.24-36.53-.65s-17.84-.38-14.79,15.69c6.45,33.93,5.12,34.18,39.95,32.34,9,2.11,14.76.63,15.42-10.51.59-10.08,2.63-20.11,4.59-30.06,1.71-8.64-3-8.06-8.64-6.81m-16.9,67.9c-4.68-.15-9.36-.11-14-.48-6-.47-7.93,2-8.55,8-5.35,51.53-11.25,103-16.42,154.56-.81,8-2.89,16.44,1.95,24.61,8,13.51,15.14,27.54,22.63,41.34a33.2,33.2,0,0,0,8.28,14.22c8.66-16.94,16.6-33.62,25.63-49.7,6.11-10.88,6.31-21.94,5.07-33.73-1.95-18.58-3.26-37.22-4.84-55.83-2.7-31.65-5.79-63.28-7.86-95-.62-9.53-5.38-9.12-11.87-8"/><path class="cls-5" d="M140,346.94c-11.71-21.76-23.53-40.85-32.38-61.23-5.48-12.59,1-26.76,2.19-40.14,3.6-41,8.91-81.89,12.93-122.88C124.46,105,138.87,96,155.17,103.57a6,6,0,0,1,3.73,5.37c.33,3.27.33,6.56.5,9.85.38,7.45,3.7,16.83.4,21.87-3.84,5.85-14,1.38-21.35,2.22-8.82,1-13.91,5.1-12.91,14.67a24.11,24.11,0,0,1,0,2.82c-.26,25.3-.25,25.78,25.23,24.77,10.68-.43,14.44,1.81,14.68,13.58.5,24.31,2.88,48.61,5.45,72.81,1,9.46-1.25,17.18-5.59,25.26-8.5,15.81-16.24,32-25.34,50.15"/><path class="cls-6" d="M142.81,35.2h7c25,0,25,0,20.12,24-5,24.39-5,24.39-30.32,24.37a20.92,20.92,0,0,0-4.19,0c-14.07,3-19.09-3.86-20.94-17-4.42-31.45-4.84-31.39,28.32-31.39"/><path class="cls-7" d="M144,164.53c8.9-2.65,17.78-3.1,26.62.29-8.92,4-17.8,4.39-26.62-.29"/><path class="cls-7" d="M283.15,331.61c-7.49-13.8-14.62-27.83-22.63-41.34-4.84-8.17-2.76-16.58-1.95-24.61,5.17-51.55,11.07-103,16.42-154.56.62-5.94,2.6-8.46,8.55-8,4.66.37,9.34.33,14,.48l-.27,28.6c-6.61-5.46-13.2-8.9-16.72,2.67-1.45,4.75,1.77,8.5,6.42,9.19,7.11,1,9.71-3.91,10.8-10,5.38,9.59,1.5,19.9,2.35,29.84-5.46.89-10.78,2.8-9.86,9.38.94,6.76,5.78,9.19,12.49,7.06,1,16.26-.68,32.69,3.27,48.75-10.28,5.92-9.51,11.79.07,17.63,1.29,13-2.06,25.67-3.25,38.49-10.74,2.25-12.18,7.61-5.26,15.76-4.46,10.38-7.14,21.6-14.45,30.63M281.43,259c-.26-4.71-2.95-8-8.67-7.68-4.88.32-7.93,3.73-7.85,8.24.09,5.13,3,8.82,9,8.14,4.59-.53,8.05-2.43,7.53-8.7m7.7-52.75c-.32-4.85-2.8-7.84-7.77-8-5.61-.13-8.79,3.2-8.56,8.53s3.89,8.83,9.2,8.17c4.26-.53,7.5-3.56,7.13-8.74"/><path class="cls-8" d="M300.14,163.91c-.85-9.94,3-20.25-2.35-29.84a1.57,1.57,0,0,1-.5-1.88l.27-28.6c6.49-1.11,11.25-1.52,11.87,8,2.07,31.69,5.16,63.32,7.86,95,1.58,18.61,2.89,37.25,4.84,55.83,1.24,11.79,1,22.85-5.07,33.73-9,16.08-17,32.76-25.63,49.7a33.2,33.2,0,0,1-8.28-14.22c7.31-9,10-20.25,14.44-30.63,4.45,0,9.53,1.1,11.15-4.94,1.42-5.3-1.37-8.6-5.88-10.82,1.19-12.82,4.54-25.46,3.24-38.49,4.17-2.43,9.35-3.89,8.46-10.57-.69-5.23-4.53-6.11-8.52-7.06-4-16.06-2.28-32.49-3.27-48.75,5.48-6.49,4.88-12-2.63-16.44"/><path class="cls-7" d="M303.09,83.07c-34.83,1.84-33.5,1.59-39.95-32.34C260.09,34.66,265.8,34.15,277.93,35s24.35.48,36.53.65c-4.1,15.72-10.06,31-11.37,47.38"/><path class="cls-8" d="M303.09,83.07c1.31-16.39,7.27-31.66,11.37-47.38,5.64-1.25,10.35-1.83,8.64,6.81-2,10-4,20-4.59,30.06-.66,11.14-6.46,12.62-15.42,10.51"/><path class="cls-9" d="M281.43,259c.52,6.27-2.95,8.17-7.53,8.7-5.95.68-8.9-3-9-8.14-.08-4.51,3-7.92,7.85-8.24,5.72-.37,8.41,3,8.67,7.68"/><path class="cls-9" d="M300.14,163.91c7.51,4.42,8.11,10,2.63,16.44-6.71,2.13-11.55-.3-12.49-7.06-.92-6.58,4.4-8.49,9.86-9.38"/><path class="cls-9" d="M297.29,132.19a1.57,1.57,0,0,0,.5,1.88c-1.09,6.07-3.69,11-10.8,10-4.65-.68-7.87-4.43-6.42-9.18,3.52-11.57,10.11-8.13,16.72-2.67"/><path class="cls-9" d="M289.13,206.28c.37,5.17-2.87,8.2-7.13,8.73-5.31.66-9-2.86-9.2-8.17s2.95-8.66,8.56-8.53c5,.12,7.45,3.11,7.77,8"/><path class="cls-9" d="M306,229.1c4,1,7.83,1.83,8.52,7.06.89,6.68-4.29,8.14-8.46,10.57-9.57-5.84-10.35-11.71-.06-17.63"/><path class="cls-9" d="M302.86,285.22c4.51,2.22,7.31,5.52,5.88,10.82-1.62,6-6.7,4.92-11.14,4.94-6.92-8.15-5.48-13.51,5.26-15.76"/></g></g></svg>