<svg id="Capa_1" data-name="Capa 1" xmlns="http://www.w3.org/2000/svg" xmlns:xlink="http://www.w3.org/1999/xlink" viewBox="0 0 400 400"><defs><style>.cls-1{fill:none;}.cls-2{clip-path:url(#clip-path);}.cls-3{fill:#78227e;}.cls-4{fill:#f1cd00;}</style><clipPath id="clip-path"><rect class="cls-1" x="4.81" y="3.08" width="400" height="400"/></clipPath></defs><title>Polinizee Nova Marca 2021 Set Icons</title><g class="cls-2"><g class="cls-2"><path class="cls-3" d="M259.55,231.89V181.6a7.07,7.07,0,0,0-3.53-6.12l-43.56-25.15a7.08,7.08,0,0,0-7.07,0l-43.55,25.15a7,7,0,0,0-3.53,6.12v50.29a7.06,7.06,0,0,0,3.53,6.12l43.55,25.15a7.08,7.08,0,0,0,7.07,0L256,238a7.08,7.08,0,0,0,3.53-6.12"/><path class="cls-4" d="M147,234.65V184.36a7.07,7.07,0,0,0-3.53-6.12L99.86,153.09a7.08,7.08,0,0,0-7.07,0L49.24,178.24a7,7,0,0,0-3.53,6.12v50.29a7.06,7.06,0,0,0,3.53,6.12l43.55,25.15a7.08,7.08,0,0,0,7.07,0l43.56-25.15a7.08,7.08,0,0,0,3.53-6.12"/><path class="cls-4" d="M202.08,330V279.68a7.07,7.07,0,0,0-3.53-6.12L155,248.41a7.07,7.07,0,0,0-7.06,0l-43.56,25.15a7,7,0,0,0-3.53,6.12V330a7.06,7.06,0,0,0,3.53,6.12l43.56,25.15a7.07,7.07,0,0,0,7.06,0l43.56-25.15a7.08,7.08,0,0,0,3.53-6.12"/><path class="cls-4" d="M316.79,330V279.68a7,7,0,0,0-3.53-6.12L269.7,248.41a7.07,7.07,0,0,0-7.06,0l-43.56,25.15a7.07,7.07,0,0,0-3.53,6.12V330a7.08,7.08,0,0,0,3.53,6.12l43.56,25.15a7.07,7.07,0,0,0,7.06,0l43.56-25.15a7.06,7.06,0,0,0,3.53-6.12"/><path class="cls-4" d="M372.15,234.65V184.36a7.07,7.07,0,0,0-3.53-6.12l-43.56-25.15a7.07,7.07,0,0,0-7.06,0l-43.56,25.15a7,7,0,0,0-3.53,6.12v50.29a7.06,7.06,0,0,0,3.53,6.12L318,265.92a7.07,7.07,0,0,0,7.06,0l43.56-25.15a7.08,7.08,0,0,0,3.53-6.12"/><path class="cls-4" d="M316.79,137.27V87a7.07,7.07,0,0,0-3.53-6.12L269.7,55.71a7.07,7.07,0,0,0-7.06,0L219.08,80.85A7.09,7.09,0,0,0,215.55,87v50.3a7.09,7.09,0,0,0,3.53,6.12l43.56,25.14a7,7,0,0,0,7.06,0l43.56-25.14a7.07,7.07,0,0,0,3.53-6.12"/><path class="cls-4" d="M202.08,137.27V87a7.09,7.09,0,0,0-3.53-6.12L155,55.71a7.07,7.07,0,0,0-7.06,0L104.37,80.85A7.07,7.07,0,0,0,100.84,87v50.3a7.07,7.07,0,0,0,3.53,6.12l43.56,25.14a7,7,0,0,0,7.06,0l43.56-25.14a7.09,7.09,0,0,0,3.53-6.12"/></g></g></svg>