<svg id="Capa_1" data-name="Capa 1" xmlns="http://www.w3.org/2000/svg" viewBox="0 0 400 400"><defs><style>.cls-1{fill:#0c0c0c;}.cls-2{fill:#f1cd00;}.cls-3{fill:#a28814;}.cls-4{fill:#355830;}.cls-5{fill:#78227e;}</style></defs><title>Polinizee Nova Marca 2021 Set Icons</title><path class="cls-1" d="M200.47,13c103,.29,187.21,85.21,186.49,188.16-.72,102.5-85,186-187.42,185.76-103-.28-187.21-85.2-186.5-188.15C13.76,96.3,98.05,12.76,200.47,13ZM91.7,77.11C43,119.78,26.53,174,39.77,235.91,53.58,300.5,95.26,343.28,158.44,359.16s120.13,0,164.45-50.86a175.59,175.59,0,0,0,40.44-83.6c1.92-10.24-2.35-13.42-12.66-13.32-46.64.46-93.29.25-139.94.18-18.39,0-22.26-3.85-22.29-22.1-.07-46.65-.38-93.3.22-139.94.16-11.75-4.43-14.74-14.61-12.67C143.12,43.13,115.41,56,91.7,77.11ZM220.52,188.28c46.62,0,90.79-.17,135,.16,8.22.06,8.61-4.05,7.6-10-7.29-42.77-26.42-78.76-60.48-106.39-5.59-4.53-8.32-4.09-12.09,2.13C267.89,111.55,244.89,148.66,220.52,188.28Zm-9-34.06,2.77.9c19.29-31.19,38.48-62.45,57.95-93.53,3.37-5.38,2.86-7.84-3.2-10.48a200.22,200.22,0,0,0-48.74-14c-5.6-.89-9-.72-8.92,6.71C211.72,80.64,211.55,117.43,211.55,154.22Z"/><path class="cls-2" d="M91.7,77.11c23.71-21.08,51.42-34,82.35-40.26,10.18-2.07,14.77.92,14.61,12.67-.6,46.64-.29,93.29-.22,139.94,0,18.25,3.9,22.07,22.29,22.1,46.65.07,93.3.28,139.94-.18,10.31-.1,14.58,3.08,12.66,13.32a175.51,175.51,0,0,1-40.44,83.59c-3.43-.21-6.58.09-9.71,2.09-33.19,21.23-70.74,26.26-107.83,20.3C97.68,313.35,40.56,205.37,80,106.29,83.86,96.56,91.83,88.41,91.7,77.11Z"/><path class="cls-3" d="M91.7,77.11c.13,11.3-7.84,19.45-11.71,29.18C40.56,205.37,97.68,313.35,205.35,330.68c37.09,6,74.64.93,107.83-20.3,3.13-2,6.28-2.3,9.71-2.09C278.57,359.18,221.58,375,158.44,359.16S53.58,300.5,39.77,235.91C26.53,174,43,119.78,91.7,77.11Z"/><path class="cls-4" d="M220.52,188.28c24.37-39.62,47.37-76.73,70-114.07,3.77-6.22,6.5-6.66,12.09-2.13,34.06,27.63,53.19,63.62,60.48,106.39,1,5.92.62,10-7.6,10C311.31,188.11,267.14,188.28,220.52,188.28Z"/><path class="cls-5" d="M211.55,154.22c0-36.79.17-73.58-.14-110.36-.06-7.43,3.32-7.6,8.92-6.71a200.22,200.22,0,0,1,48.74,14c6.06,2.64,6.57,5.1,3.2,10.48-19.47,31.08-38.66,62.34-57.95,93.53Z"/></svg>