<svg id="Capa_1" data-name="Capa 1" xmlns="http://www.w3.org/2000/svg" xmlns:xlink="http://www.w3.org/1999/xlink" viewBox="0 0 400 400"><defs><style>.cls-1{fill:none;}.cls-2{clip-path:url(#clip-path);}.cls-3{fill:#f1cd00;}</style><clipPath id="clip-path"><rect class="cls-1" x="4.81" y="3.08" width="400" height="400"/></clipPath></defs><title>Polinizee Nova Marca 2021 Set Icons</title><g class="cls-2"><g class="cls-2"><path class="cls-3" d="M119.55,45.85a78,78,0,0,1,78,78v78h-78a78,78,0,1,1,0-156"/><path class="cls-3" d="M287.84,45.85a78,78,0,0,0-78,78v78h78a78,78,0,0,0,0-156"/><path class="cls-3" d="M118.29,371.09a78,78,0,0,0,78-78v-78h-78a78,78,0,1,0,0,156"/><path class="cls-3" d="M286.58,371.09a78,78,0,0,1-78-78v-78h78a78,78,0,0,1,0,156"/></g></g></svg>