<svg id="Capa_1" data-name="Capa 1" xmlns="http://www.w3.org/2000/svg" xmlns:xlink="http://www.w3.org/1999/xlink" viewBox="0 0 400 400"><defs><style>.cls-1,.cls-4{fill:none;}.cls-2{clip-path:url(#clip-path);}.cls-3{fill:#f1cd00;}.cls-4{stroke:#252424;stroke-linejoin:round;stroke-width:20px;}</style><clipPath id="clip-path"><rect class="cls-1" width="400" height="400"/></clipPath></defs><title>Polinizee Nova Marca 2021 Set Icons</title><g class="cls-2"><g class="cls-2"><path class="cls-3" d="M286.81,147.87a2.35,2.35,0,0,0,.19.25s0-.11-.19-.25"/><path class="cls-4" d="M286.81,147.87a2.35,2.35,0,0,0,.19.25S287,148,286.81,147.87Z"/><path class="cls-3" d="M339.33,180.54a3.72,3.72,0,0,0-2.8-1.14c-11.44-1.2-25.12-2.89-36.58-4.09,0,0,0-.11-.15-.24-.66-.58-.61-2.81-.8-3.67-1.88-8.89-6.49-16.08-12-23.28-.07.06-.35,0-.29-.21.64-1.93,2.79-3.75,4.17-5.25Q303.35,129,316,115.55c-7.82-7-15.4-14-22.91-21.18-4.39-4.17-8.75-8.36-12.76-12.88-10,9.68-19.85,19.86-30.58,28.65-7.2-5.87-15.36-12.52-24.35-14.11a357.45,357.45,0,0,1,.22-38.6c-.5-.28-.59-.28-.68-.28q-23.46-.7-46.93,0c.05-.14,0-.41-.24-.35s-.37.57-.37.94c0,15.23-.07,24-.07,40.8-5.9.4-23.95,6.54-31.09,12.73C140,103.86,132.79,95,126.33,88.48c-2.47-2.5-.19-.22-5.54-6.11a377.53,377.53,0,0,0-35.66,33.49c.26-.19-.29-.63-.44-.34s.16.59.36.84c11,13.25,16.18,19.56,26.79,31.17-7.2,7.87-10.52,18.1-13.66,28A255.89,255.89,0,0,0,61,173.77q-1.17,25.36-.59,50.78,20.87-.57,41.71.8a53,53,0,0,0,11.78,26.15c-10,10.93-18.71,20.74-27.41,30.56a2.28,2.28,0,0,0-.66,1.1c-.13.74.46,1.4,1,1.92L118.2,315.4c12.41-7.82,24.68-17.42,37-27a42.84,42.84,0,0,0,20.18,13.91q-.15,19.58.63,39.14a400.41,400.41,0,0,1,47.23,1.8c0-15,.54-27.35,1.33-40.94,12-1.58,19.48-3.81,27.59-9.76l28.42,24.32c1.62-.18,2.91-1.37,4.09-2.49l11.05-10.6,18.23-17.48c.6-.57,2.73-1.94,2.92-2.75.29-1.19,1.68-1.48.84-2.37-11.88-12.66-20.55-21.45-31.82-35.08a54.57,54.57,0,0,0,15.35-21.81c17.15,1,22.39.8,37,1.67q.76-21.56,1.52-43.11a3.78,3.78,0,0,0-.42-2.28M233,233.5H200c-18.23,0-33-15-33-33.5s14.77-33.5,33-33.5,33,15,33,33.5Z"/><path class="cls-4" d="M339.33,180.54a3.72,3.72,0,0,0-2.8-1.14c-11.44-1.2-25.12-2.89-36.58-4.09,0,0,0-.11-.15-.24-.66-.58-.61-2.81-.8-3.67-1.88-8.89-6.49-16.08-12-23.28-.07.06-.35,0-.29-.21.64-1.93,2.79-3.75,4.17-5.25Q303.35,129,316,115.55c-7.82-7-15.4-14-22.91-21.18-4.39-4.17-8.75-8.36-12.76-12.88-10,9.68-19.85,19.86-30.58,28.65-7.2-5.87-15.36-12.52-24.35-14.11a357.45,357.45,0,0,1,.22-38.6c-.5-.28-.59-.28-.68-.28q-23.46-.7-46.93,0c.05-.14,0-.41-.24-.35s-.37.57-.37.94c0,15.23-.07,24-.07,40.8-5.9.4-23.95,6.54-31.09,12.73C140,103.86,132.79,95,126.33,88.48c-2.47-2.5-.19-.22-5.54-6.11a377.53,377.53,0,0,0-35.66,33.49c.26-.19-.29-.63-.44-.34s.16.59.36.84c11,13.25,16.18,19.56,26.79,31.17-7.2,7.87-10.52,18.1-13.66,28A255.89,255.89,0,0,0,61,173.77q-1.17,25.36-.59,50.78,20.87-.57,41.71.8a53,53,0,0,0,11.78,26.15c-10,10.93-18.71,20.74-27.41,30.56a2.28,2.28,0,0,0-.66,1.1c-.13.74.46,1.4,1,1.92L118.2,315.4c12.41-7.82,24.68-17.42,37-27a42.84,42.84,0,0,0,20.18,13.91q-.15,19.58.63,39.14a400.41,400.41,0,0,1,47.23,1.8c0-15,.54-27.35,1.33-40.94,12-1.58,19.48-3.81,27.59-9.76l28.42,24.32c1.62-.18,2.91-1.37,4.09-2.49l11.05-10.6,18.23-17.48c.6-.57,2.73-1.94,2.92-2.75.29-1.19,1.68-1.48.84-2.37-11.88-12.66-20.55-21.45-31.82-35.08a54.57,54.57,0,0,0,15.35-21.81c17.15,1,22.39.8,37,1.67q.76-21.56,1.52-43.11A3.78,3.78,0,0,0,339.33,180.54ZM233,233.5H200c-18.23,0-33-15-33-33.5s14.77-33.5,33-33.5,33,15,33,33.5Z"/></g></g></svg>