<svg id="Capa_1" data-name="Capa 1" xmlns="http://www.w3.org/2000/svg" viewBox="0 0 400 400"><defs><style>.cls-1{fill:#0c0c0c;}.cls-2{fill:#f1cd00;}</style></defs><title>Polinizee Nova Marca 2021 Set Icons</title><path class="cls-1" d="M192,238.59c0-11.42.12-19.07,0-26.72-.15-7.21,2.8-12.89,10.1-13.06s10.39,5.36,10.3,12.68c-.17,13.39.45,26.8-.2,40.16-.46,9.23,2,16.23,8.79,22.78,10.3,9.95,19.57,21,29.38,31.41,4.65,5,8,10.52,2.36,16.22-6.1,6.18-12.17,3.15-17.28-2.33-8.8-9.44-18.11-18.48-26.11-28.57-6-7.5-9.53-6.09-15.11.12-8.3,9.24-17.48,17.67-26.28,26.45-5.21,5.19-11.18,8.77-17.24,2.2-5.25-5.69-2.47-11.39,2.53-16.26,5.82-5.67,11-12.1,17.32-17.15C187.28,273.1,192,261.58,192,238.59Z"/><path class="cls-1" d="M72.83,379.18c-9.57,0-19.15.35-28.69-.1-16.54-.78-25.75-10.51-24.4-26.91a461.09,461.09,0,0,1,6.36-46.82c2.15-11.43,9.65-18.76,21.88-19,17.19-.33,34.41-.42,51.6.15,11.45.38,18.75,7.25,20.66,18.38,2.74,16,5.27,32.09,6.54,48.25,1.24,15.78-7.86,24.9-23.83,26-1,.07-1.91,0-2.87,0Z"/><path class="cls-2" d="M71.51,200.13a39.09,39.09,0,0,1,39.09,39.09v39.09H71.51a39.09,39.09,0,0,1,0-78.18Z"/><path class="cls-2" d="M95.86,303.77c4.89,0,9.94,2.6,9.94,9.77,0,7-5,9.78-9.94,9.78-5,0-10.1-2.77-10.1-9.78C85.76,306.37,90.81,303.77,95.86,303.77Z"/><path class="cls-2" d="M95.86,325.82c4.89,0,9.94,2.61,9.94,9.78,0,7-5,9.78-9.94,9.78-5,0-10.1-2.77-10.1-9.78C85.76,328.43,90.81,325.82,95.86,325.82Z"/><path class="cls-1" d="M327.2,379.05c-9.56,0-19.14.36-28.68-.1-16.54-.78-25.75-10.51-24.4-26.9a461.28,461.28,0,0,1,6.36-46.83c2.14-11.42,9.65-18.75,21.87-19,17.2-.34,34.42-.42,51.61.15,11.45.37,18.75,7.24,20.66,18.37,2.74,16,5.27,32.09,6.54,48.25,1.23,15.78-7.86,24.9-23.83,26-.95.07-1.91,0-2.87,0Z"/><path class="cls-2" d="M325.89,200A39.09,39.09,0,0,1,365,239.09v39.09H325.89a39.09,39.09,0,1,1,0-78.18Z"/><path class="cls-2" d="M350.24,303.64c4.89,0,9.94,2.6,9.94,9.78,0,7-5.05,9.77-9.94,9.77-5.05,0-10.11-2.77-10.11-9.77C340.13,306.24,345.19,303.64,350.24,303.64Z"/><path class="cls-2" d="M350.24,325.7c4.89,0,9.94,2.6,9.94,9.77,0,7-5.05,9.78-9.94,9.78-5.05,0-10.11-2.77-10.11-9.78C340.13,328.3,345.19,325.7,350.24,325.7Z"/><path class="cls-1" d="M201.32,185.59c-9.56,0-19.14.36-28.69-.09-16.53-.79-25.74-10.51-24.39-26.91a461.28,461.28,0,0,1,6.36-46.83c2.14-11.42,9.65-18.75,21.87-19,17.2-.34,34.42-.42,51.61.15,11.44.38,18.75,7.24,20.66,18.37,2.74,16,5.27,32.09,6.54,48.25,1.23,15.79-7.86,24.91-23.83,26.05-.95.06-1.91,0-2.87,0Q214.95,185.61,201.32,185.59Z"/><path class="cls-2" d="M200,6.54a39.1,39.1,0,0,1,39.1,39.09V84.72H200a39.09,39.09,0,0,1,0-78.18Z"/><path class="cls-2" d="M224.36,110.18c4.88,0,9.94,2.61,9.94,9.78,0,7-5.06,9.77-9.94,9.77-5.06,0-10.11-2.77-10.11-9.77C214.25,112.79,219.3,110.18,224.36,110.18Z"/><path class="cls-2" d="M224.36,132.24c4.88,0,9.94,2.6,9.94,9.78,0,7-5.06,9.77-9.94,9.77-5.06,0-10.11-2.77-10.11-9.77C214.25,134.84,219.3,132.24,224.36,132.24Z"/></svg>