<svg id="Capa_1" data-name="Capa 1" xmlns="http://www.w3.org/2000/svg" xmlns:xlink="http://www.w3.org/1999/xlink" viewBox="0 0 400 400"><defs><style>.cls-1{fill:none;}.cls-2{clip-path:url(#clip-path);}.cls-3{fill:#252424;}.cls-4{fill:#355830;}.cls-5{fill:#f1cd00;}</style><clipPath id="clip-path"><rect class="cls-1" x="2.05" y="0.2" width="400" height="400"/></clipPath></defs><title>Polinizee Nova Marca 2021 Set Icons</title><g class="cls-2"><g class="cls-2"><path class="cls-3" d="M199.87,61.24c52.57,0,105.14.33,157.7-.23,13.08-.14,17.66,4,17.54,17.31q-.8,93.24,0,186.5c.12,13.25-4.33,17.42-17.47,17.37q-158.38-.6-316.78,0c-13.06.05-17.65-4-17.54-17.31q.81-93.24,0-186.49C23.21,65.13,27.65,60.86,40.8,61c53,.57,106.05.24,159.07.24M42.61,81l0,0c-3.91,3.11-2.56,7.52-2.56,11.43q-.14,79.2,0,158.4c0,3.92-1.35,8.32,2.56,11.44l0-.05c3.45,4.52,8.4,2.63,12.67,2.63q144.16.18,288.32,0c4.37,0,9.23,1.45,12.83-2.66,2.84-3.06,2-6.87,2-10.43q.06-80.16,0-160.31c0-3.57.82-7.38-2-10.43-4.07-4.4-9.41-2.65-14.2-2.65q-142.79-.15-285.58,0c-4.7,0-10.11-2.16-14,2.61"/><path class="cls-4" d="M356.43,81c2.84,3.06,2,6.87,2,10.44q.06,80.14,0,160.3c0,3.57.82,7.38-2,10.44H42.61l0,.05c.76-4.79-1.2-9.9,1.66-14.65,17.57,6.69,35.77,2.41,53.63,3.55l3,.37c2.81,3.36,6.69,2.29,10.2,2.29q86.78.09,173.55,0c3.5,0,7.39,1.09,10.19-2.29a10.41,10.41,0,0,0,6.22-8.37q5-31.48,36.6-36.14c6.65-1,7.05-6.1,7.05-11.35,0-13.67-.85-27.41.28-41,1-11.78-4.38-16.25-14.69-18.5C315.18,132.86,306,123.59,303.13,108c-1.09-6-1.41-13-8.31-16.26-2.8-3.38-6.69-2.28-10.19-2.29q-86.74-.09-173.5,0c-3.5,0-7.38-1.07-10.21,2.26l-6,5.84c-15.24.33-30.52.2-45.71,1.23-5.37.37-6.28-1.45-6.35-5.63S42.7,85,42.65,81l0,0H356.43"/><path class="cls-4" d="M42.65,81q.08,6.06.17,12.13c.07,4.18,1,6,6.35,5.63,15.19-1,30.47-.9,45.71-1.23-1.28,22.08-9.91,33.33-31.07,39-9.26,2.47-13.8,6.63-13,17.07,1,13.18.53,26.49.13,39.73-.25,8.46,1.69,13,11.42,14.85,16.27,3.09,28.16,12.25,30.83,30.29.64,4.38,3.14,8.49,4.78,12.72-17.86-1.14-36.06,3.14-53.63-3.55-2.86,4.75-.9,9.86-1.66,14.65-3.91-3.12-2.56-7.52-2.56-11.44q-.14-79.2,0-158.4c0-3.92-1.35-8.32,2.56-11.43"/><path class="cls-4" d="M356.43,81H42.61c3.93-4.77,9.34-2.61,14-2.61q142.79-.21,285.58,0c4.79,0,10.13-1.75,14.2,2.64"/><path class="cls-4" d="M42.61,262.19H356.42c-3.59,4.11-8.45,2.66-12.82,2.66q-144.15.12-288.32,0c-4.27,0-9.22,1.89-12.67-2.63"/><path class="cls-3" d="M97.94,251.14c-1.64-4.23-4.14-8.34-4.78-12.71-2.67-18.05-14.56-27.21-30.83-30.3-9.73-1.85-11.67-6.39-11.42-14.85.4-13.24.85-26.55-.13-39.73-.77-10.44,3.77-14.59,13-17.07,21.16-5.65,29.79-16.9,31.07-39l6-5.83,193.9,0C301.72,95,302,102,303.14,108c2.88,15.64,12,24.91,27.15,28.22,10.31,2.26,15.68,6.72,14.69,18.5-1.13,13.57-.28,27.31-.28,41,0,5.25-.4,10.38-7.05,11.35q-31.63,4.63-36.6,36.14a10.42,10.42,0,0,1-6.21,8.37H100.89l-3-.37m189.18-129c.37-7.68-2.41-11.83-11-11.79q-78.07.27-156.14,0c-6.07,0-9.51,2.19-11.05,7.66-5,17.66-16.71,28.76-33.75,34.3-5.81,1.89-8,4.86-7.66,10.8a139.22,139.22,0,0,1,0,19.16c-.44,5.43,1.55,9,6.54,10.19,16.27,3.88,25.65,15.76,34.26,28.65.14,8.48,4.08,11.54,12.85,11.48q76.56-.56,153.15,0c7.34,0,11.32-1.51,13.81-9.31,4.5-14.09,14.59-24.73,28.54-29,10.26-3.15,12.4-8.44,11.45-17.57a71.66,71.66,0,0,1,0-13.66c.48-5.29-1.17-8.93-6.46-10.25-16.84-4.21-26.57-16.38-34.53-30.58"/><path class="cls-4" d="M294.82,91.69l-193.9,0c2.83-3.34,6.71-2.27,10.21-2.27q86.76-.08,173.5,0c3.5,0,7.39-1.09,10.19,2.29"/><path class="cls-4" d="M100.89,251.51h194c-2.81,3.38-6.7,2.28-10.2,2.29q-86.77.09-173.55,0c-3.51,0-7.39,1.07-10.2-2.29"/><path class="cls-4" d="M287.12,122.18c8,14.2,17.69,26.37,34.53,30.58,5.29,1.32,6.94,5,6.46,10.25a71.66,71.66,0,0,0,0,13.66c.95,9.13-1.19,14.42-11.45,17.57-13.95,4.27-24,14.91-28.54,29-2.49,7.8-6.47,9.35-13.81,9.31q-76.57-.41-153.15,0c-8.77.06-12.71-3-12.85-11.48,2.44-1.35,2.29-3.2,1.77-5.73-2.49-12-11.33-19.39-19.3-27.52-11.18-11.42-9.87-21.12,3.63-28.66,10.32-5.77,18.77-13.64,21.62-25.26,2.51-10.24,8.29-12.1,17.77-12,51.1.42,102.21.23,153.31.26M199,127.46c-25.36-.12-46.34,20.67-46.24,45.81a46,46,0,0,0,92.07.42c.43-25-20.52-46.1-45.83-46.23"/><path class="cls-4" d="M287.12,122.18c-51.1,0-102.21.16-153.31-.26-9.48-.08-15.26,1.78-17.77,12-2.85,11.62-11.3,19.49-21.62,25.26-13.5,7.54-14.81,17.24-3.63,28.66,8,8.13,16.81,15.51,19.3,27.52.52,2.53.67,4.38-1.77,5.73-8.61-12.89-18-24.77-34.26-28.65-5-1.2-7-4.76-6.54-10.19a139.22,139.22,0,0,0,0-19.16c-.36-5.94,1.85-8.91,7.66-10.8,17-5.54,28.79-16.64,33.75-34.3,1.54-5.47,5-7.69,11.05-7.66q78.07.34,156.14,0c8.56,0,11.34,4.11,11,11.79"/><path class="cls-3" d="M199,127.46c25.31.13,46.26,21.26,45.83,46.23a46,46,0,0,1-92.07-.42c-.1-25.14,20.88-45.93,46.24-45.81"/><path class="cls-5" d="M199.21,149.9a21.57,21.57,0,0,1,21.57,21.57V193H199.21a21.57,21.57,0,0,1,0-43.14"/></g></g></svg>