<svg id="Capa_1" data-name="Capa 1" xmlns="http://www.w3.org/2000/svg" xmlns:xlink="http://www.w3.org/1999/xlink" viewBox="0 0 400 400"><defs><style>.cls-1{fill:none;}.cls-2{clip-path:url(#clip-path);}.cls-3{fill:#f1cd00;}.cls-4{fill:#090c0f;}.cls-5{fill:#fefefc;}</style><clipPath id="clip-path"><rect class="cls-1" x="-2.33" y="0.13" width="400" height="400"/></clipPath></defs><title>Polinizee Nova Marca 2021 Set Icons</title><g class="cls-2"><g class="cls-2"><path class="cls-3" d="M183.31,27.14A166.49,166.49,0,0,1,349.8,193.63v166.5H183.31a166.5,166.5,0,1,1,0-333"/><polygon class="cls-4" points="211.46 295.19 240.76 299.21 240.76 330.92 139.2 330.92 139.2 299.21 172.92 295.19 172.92 172.36 139.2 167.94 139.2 136.63 211.46 136.63 211.46 295.19"/><path class="cls-4" d="M150.75,56.35c12,0,24.48,6.42,24.48,24.08,0,17.27-12.44,24.09-24.48,24.09-12.45,0-24.89-6.82-24.89-24.09,0-17.66,12.44-24.08,24.89-24.08"/><path class="cls-5" d="M211.29,56.35c12.05,0,24.49,6.42,24.49,24.08,0,17.27-12.44,24.09-24.49,24.09-12.44,0-24.89-6.82-24.89-24.09,0-17.66,12.45-24.08,24.89-24.08"/></g></g></svg>