<svg id="Capa_1" data-name="Capa 1" xmlns="http://www.w3.org/2000/svg" xmlns:xlink="http://www.w3.org/1999/xlink" viewBox="0 0 400 400"><defs><style>.cls-1{fill:none;}.cls-2{clip-path:url(#clip-path);}.cls-3{fill:#f1cd00;}.cls-4{fill:#b8b8b8;}</style><clipPath id="clip-path"><rect class="cls-1" x="4.81" y="3.08" width="400" height="400"/></clipPath></defs><title>Polinizee Nova Marca 2021 Set Icons</title><g class="cls-2"><g class="cls-2"><path class="cls-3" d="M293.32,375.15H86.73A8.78,8.78,0,0,1,78,366.4V330a8.78,8.78,0,0,1,8.76-8.75H293.32a8.78,8.78,0,0,1,8.75,8.75v36.4a8.78,8.78,0,0,1-8.75,8.75"/><path class="cls-3" d="M314.33,317.1H65.72A9.17,9.17,0,0,1,56.58,308V272.34a9.17,9.17,0,0,1,9.14-9.14H314.33a9.16,9.16,0,0,1,9.13,9.14V308a9.16,9.16,0,0,1-9.13,9.14"/><path class="cls-3" d="M326.86,259.05H53.18a9.16,9.16,0,0,1-9.13-9.13V214.29a9.16,9.16,0,0,1,9.13-9.14H326.86a9.16,9.16,0,0,1,9.14,9.14v35.63a9.16,9.16,0,0,1-9.14,9.13"/><path class="cls-4" d="M314.33,201H65.72a9.17,9.17,0,0,1-9.14-9.13V156.24a9.17,9.17,0,0,1,9.14-9.14H314.33a9.16,9.16,0,0,1,9.13,9.14v35.63a9.16,9.16,0,0,1-9.13,9.13"/><path class="cls-4" d="M293.7,143H86.35A8.4,8.4,0,0,1,78,134.58V97.43a8.4,8.4,0,0,1,8.38-8.38H293.7a8.4,8.4,0,0,1,8.37,8.38v37.15A8.4,8.4,0,0,1,293.7,143"/><path class="cls-4" d="M265.08,84.91H115a7.2,7.2,0,0,1-7.18-7.17V38.18A7.19,7.19,0,0,1,115,31H265.08a7.19,7.19,0,0,1,7.17,7.17V77.74a7.2,7.2,0,0,1-7.17,7.17"/></g></g></svg>