<svg id="Capa_1" data-name="Capa 1" xmlns="http://www.w3.org/2000/svg" viewBox="0 0 400 400"><defs><style>.cls-1{fill:#f1cd00;}</style></defs><title>Polinizee Nova Marca 2021 Set Icons</title><path class="cls-1" d="M370.26,237.55c0-66.17-16.87-98.48-113.14-98.33,0,54.6-.23,107.7.12,160.81.06,9.53,6.22,16.35,11.47,20.29,8,6,22.58,10.52,32,10.52,9.88,0,22.06-3.15,30-9.78,9.09-7.58,9-13.64,14.25-13.84,17.54-.64,25.53-13.27,25.42-34.76C370.34,260.85,370.26,249.19,370.26,237.55Zm-68,78.3a31.7,31.7,0,1,1,31.7-31.7A31.7,31.7,0,0,1,302.28,315.85Z"/><path class="cls-1" d="M245.75,117.82c.07-18.18-8.28-28.94-26.14-29.13q-77.58-.85-155.16,0c-17.63.23-26,10.11-25.17,29.16,1.15,25.71.29,51.51.29,77.26,0,27.42.57,54.86-.19,82.26-.56,20.26,1.57,26.93,20.34,29.19,4.12.49,12.17,0,19.13,0s12.29,10,15.23,13.6c11.29,13.9,43.78,14.49,59.58.14,4.68-4.25,11.38-13.74,22.91-13.74,8.41,0,3.3-.76,15.5,0,10.63.66,14.77-.1,25.44,0,19.54.21,28.29-9.79,28.23-29.24Q245.47,197.6,245.75,117.82ZM125,315.85a31.7,31.7,0,1,1,31.71-31.7A31.7,31.7,0,0,1,125,315.85Zm57.74-101.06H138a44.72,44.72,0,1,1,44.72-44.71Z"/></svg>