<svg id="Capa_1" data-name="Capa 1" xmlns="http://www.w3.org/2000/svg" xmlns:xlink="http://www.w3.org/1999/xlink" viewBox="0 0 400 400"><defs><style>.cls-1{fill:none;}.cls-2{clip-path:url(#clip-path);}.cls-3{fill:#f1cd00;}.cls-4{fill:#252424;}</style><clipPath id="clip-path"><rect class="cls-1" x="-2.9" y="2.4" width="400" height="400"/></clipPath></defs><title>Polinizee Nova Marca 2021 Set Icons</title><g class="cls-2"><path class="cls-3" d="M252.3,127.47l-40.18-.54-8.69,107-25.53.28-3-42.9-68.7,44-3-41-71.14,47L34,361l234.32-1.9ZM80.76,328.06l-21.33-.5.5-28.48,21.33.26Zm0-46.18-21.33-.5.5-28.47,21.33.25Zm44.58,46.18-21.33-.5.51-28.48,21.32.26Zm0-46.18-21.33-.5.51-28.47,21.32.25Zm44.59,46.18-21.33-.5.5-28.48,21.33.26Zm0-46.18-21.33-.5.5-28.47,21.33.25Z"/><g class="cls-2"><path class="cls-3" d="M218,79.49a25.35,25.35,0,1,1,25.35,25.34A25.34,25.34,0,0,1,218,79.49"/><path class="cls-4" d="M277.1,79.49a25.34,25.34,0,1,1,25.34,25.34A25.34,25.34,0,0,1,277.1,79.49"/><path class="cls-4" d="M257.68,129.42c-.29-6.2-8.59-6.3-8.59-6.3s-35.2-1.26-37.43-.76c-5.37,1.19-5.07,7.59-5.07,7.59s-8.55,93.54-8.55,96a7.08,7.08,0,0,1-1.69,4.27s-7.81-.14-10.07.38c-5.39,1.26-4.08-5.27-4.08-5.27s-.7-29.29-1.57-36c-1.13-8.66-11.55-3.14-11.55-3.14s-41,29.37-55.66,35.87c-6.44,2.85-3.75-22.71-4.2-30.58-.53-9.34-11.3-2.32-11.3-2.32s-58.67,38.31-66.57,43.1a12.32,12.32,0,0,0-6.25,9.9l.24,55.64s-.07,59-.07,61.92c0,9.94,10.2,12.85,10.2,12.85s223.8-3,229.68-3.65c8.5-.95,8.42-10.6,8.42-10.6s-15.74-225.64-15.89-228.88m-7,222.65c-5.27,0-180.72,5.51-201.81,5.67-.94,0-4.3.17-5.2-1.6s-1-4.39-1-10c0-2.71-.44-45.59-.44-45.59l-1-35.95c0-1.34-.4-8.65-.25-10,.35-3.22,1.49-6.39,6.63-10.29,6.93-5.27,40.46-27.61,40.46-27.61s7.9-4.87,7.9,3.94c0,22.65,3.28,21.81,7.45,21.81,9.81,0,23-9.19,49.8-27l.24-.18c1.17-1.09,11.77-10.65,12.77-3,.82,6.29,0,19.39,0,19.39s-1.85,12.28,8.84,13.72c1.45.19,20.5.1,25.23.32,4.91.23,12-5.91,13.08-11.31.24-1.22,1.51-17.33,1.51-18.15,0-2.27,4.26-62.14,4.26-62.14s-.39-10.82,3.83-10c2.12.39,17.77.1,17.77.1s2.5.69,2.5,5.68c0,3.06,13.2,194.87,13.2,194.87s3.05,7.17-5.84,7.24"/><path class="cls-4" d="M77.32,250.05c-4.1,0-16.22.36-16.22.36s-4.9.36-4.9,7V278s-.49,6.71,5.51,6.71c5.51,0,17-.49,17-.49s4.12.54,4.12-5.1.26-22.9.26-22.9,0-6.12-5.73-6.12M73.65,272c0,2.2-1.34,2-1.34,2s-3.73.19-5.53.19c-2,0-1.79-2.62-1.79-2.62v-8c0-2.58,1.6-2.72,1.6-2.72s3.94-.14,5.28-.14c1.88,0,1.87,2.39,1.87,2.39s-.09,6.72-.09,8.93"/><path class="cls-4" d="M124.08,250.05c-4.11,0-16.23.36-16.23.36s-4.9.36-4.9,7V278s-.48,6.71,5.51,6.71c5.51,0,17-.49,17-.49s4.12.54,4.12-5.1.26-22.9.26-22.9,0-6.12-5.72-6.12M120.4,272c0,2.2-1.34,2-1.34,2s-3.73.19-5.53.19c-2,0-1.79-2.62-1.79-2.62v-8c0-2.58,1.6-2.72,1.6-2.72s4-.14,5.28-.14c1.88,0,1.87,2.39,1.87,2.39s-.09,6.72-.09,8.93"/><path class="cls-4" d="M167,250.05c-4.11,0-16.23.36-16.23.36s-4.9.36-4.9,7V278s-.48,6.71,5.51,6.71c5.51,0,17-.49,17-.49s4.12.54,4.12-5.1.26-22.9.26-22.9,0-6.12-5.72-6.12M163.27,272c0,2.2-1.34,2-1.34,2s-3.73.19-5.53.19c-2,0-1.79-2.62-1.79-2.62v-8c0-2.58,1.6-2.72,1.6-2.72s3.95-.14,5.28-.14c1.88,0,1.87,2.39,1.87,2.39s-.09,6.72-.09,8.93"/><path class="cls-4" d="M167,294.54c-4.11,0-16.23.36-16.23.36s-4.9.37-4.9,7v20.57s-.48,6.71,5.51,6.71c5.51,0,17-.49,17-.49s4.12.54,4.12-5.11.26-22.89.26-22.89,0-6.13-5.72-6.13m-3.68,21.95c0,2.21-1.34,2-1.34,2s-3.73.2-5.53.2c-2,0-1.79-2.62-1.79-2.62v-8c0-2.58,1.6-2.72,1.6-2.72s3.95-.14,5.28-.14c1.88,0,1.87,2.39,1.87,2.39s-.09,6.72-.09,8.92"/><path class="cls-4" d="M123.5,294.54c-4.1,0-16.22.36-16.22.36s-4.91.37-4.91,7v20.57s-.48,6.71,5.51,6.71c5.52,0,17-.49,17-.49s4.13.54,4.13-5.11.25-22.89.25-22.89,0-6.13-5.72-6.13m-3.67,21.95c0,2.21-1.35,2-1.35,2s-3.73.2-5.52.2c-1.95,0-1.8-2.62-1.8-2.62v-8c0-2.58,1.6-2.72,1.6-2.72s3.95-.14,5.29-.14c1.87,0,1.86,2.39,1.86,2.39s-.08,6.72-.08,8.92"/><path class="cls-4" d="M76.3,294.54c-4.1,0-16.22.36-16.22.36s-4.91.37-4.91,7v20.57s-.48,6.71,5.51,6.71c5.52,0,17-.49,17-.49s4.13.54,4.13-5.11.25-22.89.25-22.89,0-6.13-5.72-6.13m-3.67,21.95c0,2.21-1.35,2-1.35,2s-3.73.2-5.52.2c-2,0-1.8-2.62-1.8-2.62v-8c0-2.58,1.6-2.72,1.6-2.72s4-.14,5.29-.14c1.87,0,1.86,2.39,1.86,2.39s-.08,6.72-.08,8.92"/></g></g></svg>