<svg id="Capa_1" data-name="Capa 1" xmlns="http://www.w3.org/2000/svg" viewBox="0 0 400 400"><defs><style>.cls-1{fill:#0c0c0c;}.cls-2{fill:#f1cd00;}.cls-3{fill:#355830;}</style></defs><title>Polinizee Nova Marca 2021 Set Icons</title><path class="cls-1" d="M383.11,187.24c0,43.72-1.29,87.45-1.38,131.18,0,19.66-5.31,23.34-23.4,16.37-35.31-13.59-70.69-27-105.74-41.22-8.18-3.32-12.71-2.15-18.08,4.58C215,322.56,195,346.52,175.19,370.64c-4.27,5.2-8.43,11.68-16.35,9.1-8.45-2.76-8.46-10.5-8.44-18,.11-30.76-.42-61.52.32-92.26.24-10-2.38-14.12-12.45-16.14C102.55,246.2,67,238,31.44,230.27c-7.22-1.57-14.93-3.26-15.88-12.06C14.68,210.09,21.47,207,27.64,204Q194.29,121.05,360.93,38.11c15.72-7.81,23.5-2.72,23.54,15.06.08,44.69-1.36,89.38-1.36,134.07Zm-92-88.75Q182.91,152,74.94,206c-3.46,1.72-8,2.27-10.59,7.67,30,6.72,59.42,13.12,88.72,20,6.44,1.52,9.75-1.77,13.63-5.47,19.46-18.56,39.31-36.74,58.46-55.62m135.7-78.9-2.65-.76c-32.59,56.38-65.07,112.82-97.91,169-4.1,7-2.78,9.35,4.48,12.06C293,284.58,321.13,295.46,349,306.88c9.67,4,10.06-.26,10.13-7.92.4-43.66,1.23-87.32,1.67-131C361.07,143.22,360.86,118.46,360.86,93.7ZM171.4,337.33C238.1,273.38,272.74,192,316.85,116.57c-23.61,23.55-49.08,44.69-72.75,67.77-19.91,19.43-38.44,40.29-60.26,57.76-4.31,3.45-9.89,6.93-10.14,13.38C172.63,282.08,174.9,308.71,171.4,337.33Z"/><path class="cls-2" d="M360.86,93.7c0,24.76.21,49.52-.05,74.28-.44,43.66-1.27,87.32-1.67,131-.07,7.66-.46,11.89-10.13,7.92-27.88-11.42-56-22.3-84.23-32.84-7.26-2.71-8.58-5.05-4.48-12.06,32.84-56.22,65.32-112.66,97.91-169Z"/><path class="cls-2" d="M303.62,92.39c-24.38,27.78-52.2,54.33-78.46,80.21-19.15,18.88-39,37.06-58.46,55.62-3.88,3.7-7.19,7-13.63,5.47-29.3-6.91-58.73-13.31-88.72-20,2.63-5.4,7.13-5.95,10.59-7.67,72-36,156.52-78,228.68-113.6"/><path class="cls-3" d="M171.4,337.33c3.5-28.62,1.23-55.25,2.3-81.85.25-6.45,5.83-9.93,10.14-13.38,21.82-17.47,40.35-38.33,60.26-57.76,23.67-23.08,49.14-44.22,72.75-67.77C272.74,192,238.1,273.38,171.4,337.33Z"/></svg>