<svg id="Capa_1" data-name="Capa 1" xmlns="http://www.w3.org/2000/svg" xmlns:xlink="http://www.w3.org/1999/xlink" viewBox="0 0 400 400"><defs><style>.cls-1{fill:none;}.cls-2{clip-path:url(#clip-path);}.cls-3{fill:#a38926;}.cls-4{fill:#f1cd00;}.cls-5{fill:#252424;}.cls-6{fill:#78227e;}.cls-7{fill:#0c0c0c;}</style><clipPath id="clip-path"><rect class="cls-1" x="0.09" width="400" height="400"/></clipPath></defs><title>Polinizee Nova Marca 2021 Set Icons</title><g class="cls-2"><g class="cls-2"><path class="cls-3" d="M149.16,208.24c12.64.35,27.45,5.13,40.29,2.83,20.77,0,31.87.23,49.52-2.09,28.65-1.95,50.49-.73,75.61-13.62,3,31.09-1,32.76-.18,63.88.13,4.73-1.74,7.08-6.55,6.94-1.89-.06-3.79,0-5.68,0-23.92.41-24.1.42-25.57-23.33-.6-9.63-4-14.41-14.65-14.31q-66.67.61-133.34,0c-11.89-.11-16.29,5.11-15.8,16.19.18,4.25-.33,8.55.1,12.76.71,6.91-2.25,8.55-8.87,8.85-27.83,1.24-28.15,1.48-27.73-25.6.43-26.87-3.48-18.79-.39-45.61,9.19,3.65,19.36,4,29.32,5.91"/><path class="cls-4" d="M74.18,196.91c-4.13-46.31-.15-93-2.85-139.41-.48-8.2-.53-17.87,6-22.79,4-3,9.37-3.24,14.37-3.34,71.9-1.53,143.82.8,215.71,3.12,2.53.08,5.17.19,7.42,1.36,5.59,2.91,6.21,10.51,6.1,16.81Q319.84,119,318.63,185.4a34,34,0,0,1-.88,8.54c-2.05,7.32-8.77,12.41-15.71,15.52-10.09,4.53-21.24,6-32.25,7-31.75,2.92-63.72,2.17-95.59.94-25.66-1-51.52-2.31-76.38-8.74-9.13-2.36-18.81-6-23.64-11.8"/><path class="cls-5" d="M194.81,18.26c40.25,0,80.51.42,120.75-.24,13.77-.22,18.34,5,18.29,18.3q-.51,115.79,0,231.57c.05,13.06-3.92,18.78-18,18.41-31.23-.84-62.51-.45-93.76-.09-5.58.06-14.6-3.79-16.18,3.52-1.95,9-4.67,19.73,3.76,28.12q21.66,21.52,43.19,43.18c3.64,3.65,8,7.11,6.7,13.19-1.84,8.7-11,10.56-18.81,3.14q-20-19.11-39.15-39.19c-5-5.26-8.21-5.72-13.48-.1-12.31,13.1-25.34,25.55-38.09,38.24-5.13,5.09-10.71,8.73-17,2-5.67-6.07-2.13-11.34,2.5-16,13.69-13.78,26.84-28.17,41.4-40.95,10.69-9.36,7.52-20.58,7.12-31.43-.23-6.4-6.61-3.76-10.25-3.78-33.15-.21-66.3-.57-99.44.1-13.06.26-17.61-4.64-17.57-17.39q.47-116.49,0-233C56.7,22.16,62.16,17.83,75.48,18c39.77.62,79.56.22,119.33.22m118.24,147.6c.1-38.82,0-77.64.46-116.45.1-8.35-1.86-11.34-11-11.29q-107.24.6-214.47,0c-9.1,0-11.07,2.94-11,11.29.46,36.92.37,73.84.48,110.77-3.09,26.82-.84,53.74-1.27,80.61-.42,27.08-.1,26.84,27.73,25.6,6.62-.3,9.58-1.94,8.87-8.85-.43-4.21.08-8.51-.1-12.76-.49-11.08,3.91-16.3,15.8-16.19q66.66.6,133.34,0c10.67-.1,14.05,4.68,14.65,14.31,1.46,23.75,1.65,23.74,25.57,23.33,1.89,0,3.79-.1,5.68,0,4.81.14,6.68-2.21,6.55-6.94-.82-31.12,1.64-62.29-1.35-93.38M192.5,265.92c17.92,0,35.84-.08,53.76,0,6.23,0,9.69-2,9.65-8.92,0-7.12-3.91-8.64-9.94-8.63q-51.63.12-103.28,0c-5.84,0-9.91.78-10.09,8.23-.19,7.89,3.6,9.5,10.39,9.4,16.5-.26,33-.09,49.51-.1"/><path class="cls-6" d="M192.5,265.92c-16.5,0-33-.16-49.51.1-6.79.1-10.58-1.51-10.39-9.4.18-7.45,4.25-8.24,10.09-8.23q51.65.15,103.28,0c6,0,9.9,1.51,9.94,8.63,0,6.95-3.42,9-9.65,8.92-17.92-.12-35.84,0-53.76,0"/><path class="cls-7" d="M185.66,124.93c-2.39,7.75,3.68,12.36,9,16.85,9.24,8.16,10.12,10,18.32,8.86,10.7-1.44,13.73-5,17.59-12.08,7.58-13.89,15.27-27.72,23.19-41.43,2.14-3.72,2.36-6.28-.31-10.1C247,77.78,247.91,67.69,255,59.5c6.11-7.11,17.47-9.67,25.65-5.76,9.59,4.56,15.27,14.86,13.46,24.4a23,23,0,0,1-20.81,18.39c-4.19.25-6.11,1.87-8,5.26-9.46,17.21-19.12,34.31-28.79,51.4-2,3.46-2.66,6.32-.82,10.53,4.37,10,1.46,19.57-6.66,26s-17.46,6.88-26,1.12c-8.74-5.87-12.53-15.1-9-25.23,1.68-4.81.48-6.78-2.87-10.23-1.31-1.35-11.94-16.45-13.63-15-3.41,3-10.54,5.48-19,5.88-1,0-2.25,2.4-3.06,3.88-2.8,5.14-5.3,10.47-8.24,15.53-2.35,4.05-3.21,7.1,0,11.75,6,8.76,4.2,20.1-3.09,27.44-6.59,6.65-17.23,8.58-25.18,4.56-9.55-4.82-15-15.08-13-24.64a22.48,22.48,0,0,1,21.2-17.9c4.81-.13,6.75-2.2,8.47-5.84,1.51-3.18,3.16-6.3,5-9.31,4.11-6.86,7.24-13,1.74-21.41-4.46-6.83-.84-17.22,5.69-23.11,6.93-6.24,15-8.06,23.67-4.58s14.26,12.37,14,22.3m28.28,36.9c-6.14.59-10.13,4-10.31,10s3.71,10.15,9.77,10.28,10.11-3.61,10.27-9.76-3.81-9.46-9.73-10.5M126.26,179c-5.59.24-9.43,3.57-9.59,9.64s3.41,9.89,9.68,10.12,10-3.68,10.18-9.59-3.13-9.87-10.27-10.17m25.32-55.41c.69,5.5,3.65,9.59,9.87,9.76s9.91-3.61,10.13-9.73-3.41-10-9.61-10.15-9.6,3.46-10.39,10.12"/><path class="cls-4" d="M213.94,161.83c5.92,1,9.9,4.34,9.73,10.5s-4.26,9.89-10.27,9.76-10-4.22-9.77-10.28,4.17-9.39,10.31-10"/><path class="cls-4" d="M126.25,179c7.15.3,10.42,4.31,10.28,10.17s-3.79,9.83-10.19,9.59-9.83-4.08-9.67-10.12,4-9.4,9.58-9.64"/><path class="cls-4" d="M151.58,123.57c.79-6.66,4.27-10.25,10.39-10.12s9.83,3.92,9.61,10.15-3.91,9.89-10.13,9.73-9.18-4.26-9.87-9.76"/><path class="cls-6" d="M270.37,49.8a24.35,24.35,0,0,1,24.34,24.35V98.49H270.37a24.35,24.35,0,1,1,0-48.69"/></g></g></svg>