<svg id="Capa_1" data-name="Capa 1" xmlns="http://www.w3.org/2000/svg" xmlns:xlink="http://www.w3.org/1999/xlink" viewBox="0 0 400 400"><defs><style>.cls-1{fill:none;}.cls-2{clip-path:url(#clip-path);}.cls-3{fill:#f1cd00;}.cls-4{fill:#252424;}</style><clipPath id="clip-path"><rect class="cls-1" x="-1.3" width="400" height="400"/></clipPath></defs><title>Polinizee Nova Marca 2021 Set Icons</title><g class="cls-2"><g class="cls-2"><path class="cls-3" d="M209,39.6c-5.23-.67-17.59-2.65-23.11,2.85s-7.71,14-2,19.3,13.9,5.44,21.78,5.44c10,0,17.68.21,34.54,5.17C260,78.15,270.47,82,282.51,98.7,272.1,108,266.27,116.5,254,127.51c28.32,0,48.22.82,81.81.82-.19-26.12-.75-52.24-1.88-77.72-13.57,11.12-19.34,16.62-31.81,26.85C286.81,62.14,271,52.77,252.22,47.12s-12.23-3.85-28.6-6.21"/><path class="cls-3" d="M331.71,222.65c.54-6.1-.13-9.27-.13-17.69,0-6.12-1.3-8.45-.42-14.51s3.78-7.41,9.61-9.27c4.83-1.54,13.41.49,15.21,5.22,2.67,7,2.88,14.27,2.88,18.16,0,10.84-.05,13.32-2,25-5.65,34.18-16.77,57.06-39.47,80.68a3.67,3.67,0,0,0-1.23,2.05c-.07,1,.73,1.77,1.36,2.53,9.39,11.23,13.41,16.16,24.53,27.56-27.79,0-45.68-.3-74.39-.3,0-30.23.6-48,.6-77.21,11.32,9.74,19.38,18.43,30.4,27.92,9.88-14.6,20.83-31.32,27.07-47.81,7.43-19.59,5.08-12.49,6-22.37"/><path class="cls-3" d="M197.3,341.8c3.13,0,6.38-.8,9.26.44,3.67,1.57,5.83,5.48,6.72,9.37s.66,8.25-1.69,11.46S205,368.23,200.94,369c-18,3.4-28.43-.36-46-4.74-25.83-6.44-45.42-16.07-69.56-37.17a353.62,353.62,0,0,1-27.68,27.75c-1-22.56-1.39-50.41-1.39-74.15,25.46,0,52.53-1.52,78.91-1-9.49,10.58-19.58,20.6-29,30.73,8.88,6.08,14.72,8.7,23.79,14.5,4.8,3.07,16.87,8.56,22.18,10.62,6.79,2.65,17.33,3.55,24.57,4.43s6.59,1.82,20.54,1.82"/><path class="cls-3" d="M32.55,181.18C30.85,191.44,31,211,35.86,221c3.25,6.59,7.36,7.36,9.57,7,5.73-.95,9.78-1.83,12.14-3.51,3.91-2.78,4.3-5.33,4.3-16.31,0-3.47-3.41-8.31-3.41-16.27,0-5.91.77-6.05,5.08-26.58,4-19,15.15-35.92,28.81-49.65,1.84,3.21,9.55,8.89,12.39,11.26,7.83,6.53,9.35,6.49,17.76,13.64,0-16.16-.65-31.08-.76-45.51-.1-11.51.72-10.86.72-30.76-24.55.27-53.11-1.08-77.83-.68,9,10.88,17.53,20.71,27.47,30.65C54.18,114,45.81,129.42,37.87,154.86c-2.45,7.84-3.6,15.93-5.32,26.32"/><path class="cls-4" d="M141.26,58.79a16.34,16.34,0,1,1,16.33,16.33,16.33,16.33,0,0,1-16.33-16.33"/><path class="cls-4" d="M326.18,157.46a16.34,16.34,0,1,1,16.34,16.34,16.35,16.35,0,0,1-16.34-16.34"/><path class="cls-4" d="M219.21,352.69A16.34,16.34,0,1,1,235.55,369a16.35,16.35,0,0,1-16.34-16.34"/><path class="cls-4" d="M34.43,249.05a16.34,16.34,0,1,1,16.34,16.34,16.34,16.34,0,0,1-16.34-16.34"/></g></g></svg>