<svg id="Capa_1" data-name="Capa 1" xmlns="http://www.w3.org/2000/svg" viewBox="0 0 400 400"><defs><style>.cls-1{fill:#0c0c0c;}.cls-2{fill:#f1cd00;}.cls-3{fill:#a28814;}</style></defs><title>Polinizee Nova Marca 2021 Set Icons</title><path class="cls-1" d="M378.8,184.6q0,75.29,0,150.57c0,17.25-1.88,19.21-18.82,19.22-77.92.06-155.83-.15-233.75.2-12.46.06-19.41-3.51-18.22-17,.55-6.27-2.55-8.38-8.54-8.2-9.07.28-18.16.07-27.24,0-9.8,0-15.84-4.35-14.66-14.77,1-9-3.49-9.79-10.76-9.63-38.9.83-35.23,1.75-35.24-35.81q0-91.77,0-183.56c0-20,1.47-21.51,20.92-21.57,4.3,0,8.64-.35,12.9.07,8.32.82,13.56-.49,12.26-11-1.1-8.91,4.63-13,13.1-13.26,9.08-.22,18.18-.46,27.24,0,7.23.34,10.72-1.9,10.1-9.63-1-12,5.42-15.58,16.66-15.55q118.3.39,236.62,0c13.09-.06,17.71,5.12,17.61,17.93C378.56,83.26,378.8,133.93,378.8,184.6ZM129.86,64.29q0,130.36.11,260.71c-2.46,11.44,6.25,8.37,11.57,8.38,67.32.17,134.63-.15,201.94.38,11,.08,13.51-3.21,13.46-13.73q-.58-135.33.07-270.68c.08-12.11-4.26-13.89-14.82-13.82-62.06.43-124.12.22-186.18.22C128,35.75,128,35.75,129.86,64.29Zm-50,119.52c0,37.21.41,74.43-.25,111.63-.19,10.73,3.86,13.11,13.29,12.2,7.67-.74,15.86,2.47,15.75-11.28q-.87-111.65,0-223.28c.11-13.57-7.75-10.85-15.58-11.48-9.14-.73-13.7,1-13.49,12C80.3,110.32,79.87,147.07,79.87,183.81Zm-22.44,1.45c0-29.1-.27-58.21.18-87.3.13-8.31-1.38-12.21-10.81-11.52-7.69.56-13.08-.15-13,11,.61,58.2.51,116.41.06,174.61-.08,9.48,3.56,10.65,11.64,10.83,9,.2,12.37-1.91,12.14-11.7C57,242.52,57.43,213.88,57.43,185.26Z"/><path class="cls-2" d="M130,325q-.06-130.35-.11-260.71c11.87-8.42,25.24-9.21,39.32-9.07,48.72.46,97.45.15,146.17.19,22.56,0,31.9,9.35,31.91,32q.08,108.9,0,217.82c0,18.23-4.62,22.84-22.84,22.85q-79.55.08-159.07,0C153.45,328.17,141.54,328.6,130,325Zm112.27-49h31.48c17.64,0,35.29.27,52.93-.2,6.33-.17,12.38-2.29,12.43-10.73s-6-9.95-12.28-11a42.47,42.47,0,0,0-7.14-.11q-78,0-155.94.07a63.36,63.36,0,0,0-12.59,1.66c-4.84,1-7.31,4.76-7.36,9.25s2.56,7.71,7.14,9.54S160.27,276,165,276Q203.62,276,242.24,276Zm-1.32-79.85c27.64,0,55.28,0,82.92,0,7.59,0,14.94-.29,15.18-10.43.25-10.8-7.72-10.12-15-10.12q-82.21,0-164.41-.07c-7.72,0-15.67.79-15.6,10.12.06,8.78,7.35,10.65,15.42,10.57C186.59,196,213.75,196.14,240.92,196.14Zm.34,40.11H323c8.07,0,16.11-.56,15.89-11.48s-8.93-9.53-15.82-9.54q-81-.22-162.08-.08c-7.75,0-17.1-.27-17,10.25.11,9.76,8.61,11,16.9,10.91C187.71,236.15,214.49,236.25,241.26,236.25Zm-.56,78.51c27.73,0,55.45.08,83.18-.06,7.14,0,15.48.51,15.06-10.32-.37-9.81-7.72-10.72-15.33-10.73q-81.74,0-163.49,0c-8.41,0-16.49,1.88-16.09,11.75.38,9.54,9.08,9.37,16.36,9.38Q200.55,314.81,240.7,314.76Z"/><path class="cls-3" d="M130,325c11.57,3.6,23.48,3.17,35.38,3.15q79.53-.07,159.07,0c18.22,0,22.83-4.62,22.84-22.85q.06-108.91,0-217.82c0-22.68-9.35-32-31.91-32-48.72,0-97.45.27-146.17-.19-14.08-.14-27.45.65-39.32,9.07C128,35.75,128,35.75,156,35.75c62.06,0,124.12.21,186.18-.22,10.56-.07,14.9,1.71,14.82,13.82q-.83,135.33-.07,270.68c.05,10.52-2.46,13.81-13.46,13.73-67.31-.53-134.62-.21-201.94-.38C136.22,333.37,127.51,336.44,130,325Z"/><path class="cls-2" d="M79.87,183.81c0-36.74.43-73.49-.26-110.21-.21-11,4.35-12.73,13.49-12,7.83.63,15.69-2.09,15.58,11.48q-.92,111.63,0,223.28c.11,13.75-8.08,10.54-15.75,11.28-9.43.91-13.48-1.47-13.29-12.2C80.28,258.24,79.87,221,79.87,183.81Z"/><path class="cls-2" d="M57.43,185.26c0,28.62-.43,57.26.24,85.87.23,9.79-3.13,11.9-12.14,11.7-8.08-.18-11.72-1.35-11.64-10.83.45-58.2.55-116.41-.06-174.61-.11-11.1,5.28-10.39,13-11,9.43-.69,10.94,3.21,10.81,11.52C57.16,127.05,57.43,156.16,57.43,185.26Z"/><path class="cls-1" d="M242.24,276q-38.62,0-77.25,0c-4.72,0-9.42.34-14.08-1.52s-7.19-5-7.14-9.54,2.52-8.25,7.36-9.25A63.36,63.36,0,0,1,163.72,254q78-.17,155.94-.07a42.47,42.47,0,0,1,7.14.11c6.31,1.08,12.34,2.6,12.28,11s-6.1,10.56-12.43,10.73c-17.64.47-35.29.19-52.93.2Z"/><path class="cls-1" d="M240.92,196.14c-27.17,0-54.33-.16-81.49.1-8.07.08-15.36-1.79-15.42-10.57-.07-9.33,7.88-10.13,15.6-10.12q82.2.18,164.41.07c7.28,0,15.25-.68,15,10.12-.24,10.14-7.59,10.45-15.18,10.43C296.2,196.1,268.56,196.14,240.92,196.14Z"/><path class="cls-1" d="M241.26,236.25c-26.77,0-53.55-.1-80.32.05-8.29,0-16.79-1.15-16.9-10.91-.13-10.52,9.22-10.24,17-10.25q81,0,162.08.08c6.89,0,15.59-1.32,15.82,9.54s-7.82,11.48-15.89,11.48Z"/><path class="cls-1" d="M240.7,314.76q-40.15,0-80.31,0c-7.28,0-16,.16-16.36-9.38-.4-9.87,7.68-11.75,16.09-11.75q81.75.09,163.49,0c7.61,0,15,.92,15.33,10.73.42,10.83-7.92,10.28-15.06,10.32C296.15,314.84,268.43,314.76,240.7,314.76Z"/><path class="cls-1" d="M186.73,67.06a42.7,42.7,0,0,1,42.7,42.7v42.69h-42.7a42.7,42.7,0,1,1,0-85.39Z"/><path class="cls-2" d="M186.73,83.84a25.91,25.91,0,0,1,25.92,25.92v25.91H186.73a25.92,25.92,0,0,1,0-51.83Z"/></svg>