<svg id="Capa_1" data-name="Capa 1" xmlns="http://www.w3.org/2000/svg" viewBox="0 0 400 400"><defs><style>.cls-1{fill:#0c0c0c;}.cls-2{fill:#f1cd00;}.cls-3{fill:#a28814;}.cls-4{fill:#e8ebed;}</style></defs><title>Polinizee Nova Marca 2021 Set Icons</title><path class="cls-1" d="M222.52,159.59a126.65,126.65,0,0,1,12.3,7.25c16.25,9.54,15.86,4.2,24.24-5.87a47.93,47.93,0,0,1,71.47-3.3c6.73,6.82,8.05,12.62.51,19.6-6,5.54-15,11.06-16.14,17.74-1.32,7.43,9.53,12,14.89,17.91,5.78,6.4,4.61,11.12-1.42,16.52-21.22,19-55.76,15.14-72.36-8.38-1.85-2.61-3.59-5.3-5.44-8-9,6.44-13.59,9.77-23.52,17.39.15.85,0,1.74.43,2.15,14.05,14.92,14.05,15.06-1.58,28.23C179.4,300,104.66,280.56,81.83,223.31c-1.2-3-2.28-6.1-4.26-11.4-13,13.37-25.11,25.92-37.34,38.33-3.35,3.4-6.54,7.89-12.44,5.38-5.57-2.37-5.62-7.35-5.61-12.42q.08-48.51,0-97c0-4.7.32-9.26,5.28-11.39s8.59.94,11.81,4.23c11.4,11.68,22.76,23.42,35.55,36.59,4.8-14.83,8.52-27.86,16.25-39.3,33-48.88,102.89-55.08,143.85-12.5,11.45,11.9,11.54,14.51,0,25.91C231.74,152.87,227.91,155.34,222.52,159.59Zm-1.15-20.4c4.79-3.78,0-5.39-1.89-7.1-23.57-20.82-50.44-25.65-79.68-14.82-40,14.8-60.37,65.32-41.17,100.56,15.87,43.8,74.37,61.41,112,34,6.08-4.43,5.59-7,.59-11.75-12.09-11.55-23.41-23.92-35.52-35.45-7.33-7-7-12.39.17-19.34C191.36,170.25,206.25,154.6,221.37,139.19Zm97.18,29.88c-16.87-12.39-28.43-12.8-41.86-2.95-12.53,9.2-16.68,23-11.3,37.65s17,22,33.1,21.5c5-.18,11.12-.52,12.91-4.79,1.89-4.48-4.73-6.59-7.29-10a42.18,42.18,0,0,0-6-6.09c-6.65-5.84-6.67-11.53,0-17.34S311.55,175.24,318.55,169.07Zm-278.8-7.56v68.05c10.68-11.14,19.08-20.46,28.12-29.12,4.68-4.49,3.08-7-.69-10.71C58.47,181.19,50.16,172.27,39.75,161.51Zm180.89,65.63v-65c-10.23,10.91-18,19.77-26.49,28-4,3.85-3.56,6.14.07,9.72C202.67,208.17,210.75,216.87,220.64,227.14Z"/><path class="cls-2" d="M221.37,139.19c-15.12,15.41-30,31.06-45.48,46.11-7.14,6.95-7.5,12.37-.17,19.34,12.11,11.53,23.43,23.9,35.52,35.45,5,4.78,5.49,7.32-.59,11.75-37.65,27.4-96.15,9.79-112-34,2.77-2.09,2.64-5.19,2-7.86-3.54-13.78.39-26.57,5-39.2,8.43-23.05,36-45.33,55.61-43.48-2.15,3.86-4.75,7.55-2.4,12.37,1.94,4,5,6.42,9.3,6.63,4.93.24,8.52-2.31,10.36-6.81,2.67-6.5-1.1-10.64-5.79-14.29C191.12,122.11,206.79,128.77,221.37,139.19Z"/><path class="cls-2" d="M318.55,169.07c-7,6.17-13.67,12.13-20.42,18s-6.68,11.5,0,17.34a58.57,58.57,0,0,1,6,6.09c2.75,3.24,9.18,5.51,7.29,10-1.79,4.27-7.92,4.61-12.91,4.79-16.12.55-27.73-6.9-33.1-21.5s-1.23-28.45,11.3-37.65C290.12,156.27,301.68,156.68,318.55,169.07Z"/><path class="cls-3" d="M161.19,127.29c-19.61-1.85-47.18,20.43-55.61,43.48-4.61,12.63-8.54,25.42-5,39.2.69,2.67.82,5.77-2,7.86-19.2-35.24,1.19-85.76,41.17-100.56,29.24-10.83,56.11-6,79.68,14.82,1.94,1.71,6.68,3.32,1.89,7.1-14.58-10.42-30.25-17.08-48.71-14C168.52,124.15,164.92,126.08,161.19,127.29Z"/><path class="cls-2" d="M39.75,161.51c10.41,10.76,18.72,19.68,27.43,28.22,3.77,3.7,5.37,6.22.69,10.71-9,8.66-17.44,18-28.12,29.12Z"/><path class="cls-4" d="M220.64,227.14c-9.89-10.27-18-19-26.42-27.29-3.63-3.58-4-5.87-.07-9.72,8.44-8.25,16.26-17.11,26.49-28Z"/><path class="cls-1" d="M161.19,127.29c3.73-1.21,7.33-3.14,11.47-2.1,4.69,3.65,8.46,7.79,5.79,14.29-1.84,4.5-5.43,7.05-10.36,6.81-4.34-.21-7.36-2.66-9.3-6.63C156.44,134.84,159,131.15,161.19,127.29Z"/><path class="cls-1" d="M357.94,166.68a28.89,28.89,0,0,1,28.89,28.89v28.9H357.94a28.9,28.9,0,0,1,0-57.79Z"/><path class="cls-2" d="M357.94,178a17.53,17.53,0,0,1,17.54,17.53v17.54H357.94a17.54,17.54,0,1,1,0-35.07Z"/></svg>