<svg id="Capa_1" data-name="Capa 1" xmlns="http://www.w3.org/2000/svg" viewBox="0 0 400 400"><defs><style>.cls-1{fill:#0c0c0c;}.cls-2{fill:#f1cd00;}.cls-3{fill:#fff;}</style></defs><title>Polinizee Nova Marca 2021 Set Icons</title><path class="cls-1" d="M305.51,208.26c3.51,2.62,7.6,1.21,11.39,1.46,18.55,1.21,31.29,13.06,32,31.58.76,19.69.62,39.43.36,59.14-.3,22.35-13.69,35.85-36.27,35.69-10.32-.08-17,1.4-22.42,12.07-7.6,14.92-22.22,22.22-39.08,22.42-38.55.44-77.12.68-115.68.14-28.42-.39-46.9-21-47.33-52-.46-32.86-.29-65.73-.42-98.6,0-5.91,1.36-12-6.13-15.54-3.81-1.82-3.21-6.83-2-10.76s4.52-5,8.26-5.16q3.94-.12,7.89-.14,97.28-.36,194.55-.69C309.51,187.84,311.84,191.11,305.51,208.26Zm-111.82-.08v.18c-24.95,0-49.91.3-74.86-.16-8.16-.16-10.39,2.56-10.29,10.5.39,32,1.24,64-.18,95.87-1.15,25.81,12.6,37.38,37.36,37,33.7-.56,67.41-.71,101.11-1.27,22.06-.36,32.48-10.88,32.64-33.39.23-32.4-.36-64.81.1-97.2.14-9.61-3.53-11.82-12.33-11.66C242.74,208.48,218.21,208.18,193.69,208.18Zm135.58,65.19h-.11c0-10.08.63-20.22-.15-30.24-1.13-14.45-12.29-13.19-22.58-13.54-11.93-.41-7.71,8.3-7.8,13.76-.36,21-.14,42.09,0,63.14,0,2.95-1.2,6.47,1.64,8.66,8.55,6.6,28.12-1.91,28.89-12.85C329.8,292.7,329.27,283,329.27,273.37Z"/><path class="cls-1" d="M191.8,110.32c-9.2,0-18.41.25-27.6-.07-19.85-.7-35.7-15.22-37.27-33.78-1.74-20.51,9.92-36,30.81-40.75,16-3.64,32.3-1.22,48.45-1.63,5.85-.15,10.16,3,10.57,9.36.48,7.21-4.19,10.58-10.5,10.85-12.24.52-24.52.18-36.79.39-14.67.24-21.75,5.74-22,16.79-.29,11.84,7,18.14,21.89,18.28,16.65.16,33.3-.25,49.95-.05,24.29.3,41.59,16.17,41.83,38S244.28,165.47,220,166c-14.7.3-30.17-2.45-39.22,14.3-2.49,4.6-8.16,5-12.68,1.25-4.23-3.48-5.21-7.89-2.65-12.91,6.16-12.07,15.46-20.11,29.25-21.52,9.13-.94,18.38-.63,27.53-1.42,11-.95,18.52-6.62,17.92-18.37-.59-11.51-8.14-16.83-19.38-17C211.08,110.24,201.44,110.33,191.8,110.32Z"/><path class="cls-2" d="M193.69,208.18c24.52,0,49.05.3,73.55-.17,8.8-.16,12.47,2.05,12.33,11.66-.46,32.39.13,64.8-.1,97.2-.16,22.51-10.58,33-32.64,33.39-33.7.56-67.41.71-101.11,1.27-24.76.42-38.51-11.15-37.36-37,1.42-31.9.57-63.91.18-95.87-.1-7.94,2.13-10.66,10.29-10.5,25,.46,49.91.16,74.86.16Z"/><path class="cls-3" d="M329.27,273.37c0,9.65.53,19.33-.14,28.93-.77,10.94-20.34,19.45-28.89,12.85-2.84-2.19-1.62-5.71-1.64-8.66-.11-21.05-.33-42.1,0-63.14.09-5.46-4.13-14.17,7.8-13.76,10.29.35,21.45-.91,22.58,13.54.78,10,.15,20.16.15,30.24Z"/><path class="cls-2" d="M231.15,33.68c5.23,0,10.63,2.78,10.63,10.45,0,7.49-5.4,10.45-10.63,10.45-5.4,0-10.8-3-10.8-10.45C220.35,36.46,225.75,33.68,231.15,33.68Z"/><path class="cls-1" d="M256.69,33.68c5.22,0,10.62,2.78,10.62,10.45,0,7.49-5.4,10.45-10.62,10.45-5.4,0-10.8-3-10.8-10.45C245.89,36.46,251.29,33.68,256.69,33.68Z"/></svg>