<svg id="Capa_1" data-name="Capa 1" xmlns="http://www.w3.org/2000/svg" viewBox="0 0 841.89 595.28"><defs><style>.cls-1{fill:#f1cd00;}.cls-2{fill:#090c0f;}.cls-3{fill:#535252;}.cls-4{fill:#78227e;}.cls-5{fill:#355830;}.cls-6{fill:#b8b8b8;}.cls-7{fill:#fefefc;}</style></defs><title>Polinizee Nova Marca 2021 v3</title><path class="cls-1" d="M179.21,91.44a41.18,41.18,0,0,1,41.18,41.18V173.8H179.21a41.18,41.18,0,0,1,0-82.36Z"/><polygon class="cls-2" points="250.6 163.08 259.39 164.29 259.39 173.8 228.93 173.8 228.93 164.29 239.04 163.08 239.04 126.24 228.93 124.91 228.93 115.52 250.6 115.52 250.6 163.08"/><path class="cls-2" d="M232.39,91.44c3.61,0,7.34,1.93,7.34,7.22s-3.73,7.23-7.34,7.23-7.47-2-7.47-7.23S228.65,91.44,232.39,91.44Z"/><path class="cls-1" d="M250.55,91.44c3.61,0,7.34,1.93,7.34,7.22s-3.73,7.23-7.34,7.23-7.47-2-7.47-7.23S246.82,91.44,250.55,91.44Z"/><path class="cls-1" d="M704.44,472.54v-29.9a14.11,14.11,0,0,0-7-12.2l-25.9-14.95a14.11,14.11,0,0,0-14.08,0l-25.9,14.95a14.11,14.11,0,0,0-7,12.2v29.9a14.11,14.11,0,0,0,7,12.2l25.9,14.95a14.11,14.11,0,0,0,14.08,0l25.9-14.95A14.11,14.11,0,0,0,704.44,472.54Z"/><path class="cls-2" d="M132,276h14.12a6.66,6.66,0,0,0,5.77-3.33l7.06-12.24a6.64,6.64,0,0,0,0-6.65l-7.06-12.24a6.68,6.68,0,0,0-5.77-3.32H132a6.68,6.68,0,0,0-5.77,3.32l-7.06,12.24a6.64,6.64,0,0,0,0,6.65l7.06,12.24A6.66,6.66,0,0,0,132,276Z"/><path class="cls-2" d="M132,316.36h14.12a6.66,6.66,0,0,0,5.77-3.32l7.06-12.24a6.64,6.64,0,0,0,0-6.65l-7.06-12.24a6.66,6.66,0,0,0-5.77-3.32H132a6.66,6.66,0,0,0-5.77,3.32l-7.06,12.24a6.64,6.64,0,0,0,0,6.65L126.22,313A6.66,6.66,0,0,0,132,316.36Z"/><path class="cls-2" d="M167.46,296.14h14.13a6.64,6.64,0,0,0,5.76-3.33l7.07-12.23a6.66,6.66,0,0,0,0-6.66l-7.07-12.23a6.64,6.64,0,0,0-5.76-3.33H167.46a6.66,6.66,0,0,0-5.76,3.33l-7.06,12.23a6.66,6.66,0,0,0,0,6.66l7.06,12.23A6.66,6.66,0,0,0,167.46,296.14Z"/><path class="cls-1" d="M193,348.79h14.12a6.66,6.66,0,0,0,5.77-3.33l7.06-12.23a6.66,6.66,0,0,0,0-6.66l-7.06-12.23a6.66,6.66,0,0,0-5.77-3.33H193a6.66,6.66,0,0,0-5.77,3.33l-7.06,12.23a6.66,6.66,0,0,0,0,6.66l7.06,12.23A6.66,6.66,0,0,0,193,348.79Z"/><path class="cls-1" d="M157.53,420.12a41.18,41.18,0,0,1,41.18,41.18v41.18H157.53a41.18,41.18,0,1,1,0-82.36Z"/><path class="cls-3" d="M219.34,421.25a29.17,29.17,0,0,1,0,41.25l-20.63,20.63-20.63-20.62h0a29.18,29.18,0,0,1,41.26-41.26Z"/><path class="cls-1" d="M356.4,190.65a41.18,41.18,0,0,0,41.18-41.18V108.29H356.4a41.18,41.18,0,1,0,0,82.36Z"/><path class="cls-1" d="M482.13,190.65A41.18,41.18,0,0,1,441,149.47V108.29h41.18a41.18,41.18,0,0,1,0,82.36Z"/><polygon class="cls-2" points="427.79 155.85 436.57 157.05 436.57 166.56 406.11 166.56 406.11 157.05 416.23 155.85 416.23 119 406.11 117.68 406.11 108.29 427.79 108.29 427.79 155.85"/><path class="cls-2" d="M409.57,84.2c3.62,0,7.35,1.93,7.35,7.23s-3.73,7.22-7.35,7.22-7.46-2-7.46-7.22S405.84,84.2,409.57,84.2Z"/><path class="cls-1" d="M427.73,84.2c3.62,0,7.35,1.93,7.35,7.23s-3.73,7.22-7.35,7.22-7.46-2-7.46-7.22S424,84.2,427.73,84.2Z"/><path class="cls-4" d="M356.56,302.27v-15a7.08,7.08,0,0,0-3.54-6.13l-13-7.5a7.08,7.08,0,0,0-7.07,0l-13,7.5a7.1,7.1,0,0,0-3.53,6.13v15a7.08,7.08,0,0,0,3.53,6.12l13,7.5a7.08,7.08,0,0,0,7.07,0l13-7.5A7.07,7.07,0,0,0,356.56,302.27Z"/><path class="cls-1" d="M311.94,303.36v-15a7.06,7.06,0,0,0-3.54-6.12l-13-7.5a7.07,7.07,0,0,0-7.06,0l-13,7.5a7.07,7.07,0,0,0-3.53,6.12v15a7.07,7.07,0,0,0,3.53,6.12l13,7.5a7.07,7.07,0,0,0,7.06,0l13-7.5A7.06,7.06,0,0,0,311.94,303.36Z"/><path class="cls-1" d="M333.78,341.13v-15a7.06,7.06,0,0,0-3.53-6.12l-13-7.5a7.08,7.08,0,0,0-7.07,0l-13,7.5a7.06,7.06,0,0,0-3.53,6.12v15a7,7,0,0,0,3.53,6.12l13,7.5a7,7,0,0,0,7.07,0l13-7.5A7,7,0,0,0,333.78,341.13Z"/><path class="cls-1" d="M379.24,341.13v-15a7.08,7.08,0,0,0-3.53-6.12l-13-7.5a7.07,7.07,0,0,0-7.06,0l-13,7.5a7.07,7.07,0,0,0-3.54,6.12v15a7.06,7.06,0,0,0,3.54,6.12l13,7.5a7,7,0,0,0,7.06,0l13-7.5A7.07,7.07,0,0,0,379.24,341.13Z"/><path class="cls-1" d="M401.18,303.36v-15a7.06,7.06,0,0,0-3.54-6.12l-13-7.5a7.08,7.08,0,0,0-7.07,0l-13,7.5a7,7,0,0,0-3.53,6.12v15a7,7,0,0,0,3.53,6.12l13,7.5a7.08,7.08,0,0,0,7.07,0l13-7.5A7.06,7.06,0,0,0,401.18,303.36Z"/><path class="cls-1" d="M379.24,264.77v-15a7.08,7.08,0,0,0-3.53-6.12l-13-7.5a7.07,7.07,0,0,0-7.06,0l-13,7.5a7.07,7.07,0,0,0-3.54,6.12v15a7.06,7.06,0,0,0,3.54,6.12l13,7.5a7,7,0,0,0,7.06,0l13-7.5A7.07,7.07,0,0,0,379.24,264.77Z"/><path class="cls-1" d="M333.78,264.77v-15a7.06,7.06,0,0,0-3.53-6.12l-13-7.5a7.08,7.08,0,0,0-7.07,0l-13,7.5a7.06,7.06,0,0,0-3.53,6.12v15a7,7,0,0,0,3.53,6.12l13,7.5a7,7,0,0,0,7.07,0l13-7.5A7,7,0,0,0,333.78,264.77Z"/><path class="cls-1" d="M307.13,392.65a31.15,31.15,0,0,1,31.15,31.15V455H307.13a31.16,31.16,0,0,1,0-62.31Z"/><path class="cls-1" d="M374.34,392.65a31.16,31.16,0,0,0-31.16,31.15V455h31.16a31.16,31.16,0,0,0,0-62.31Z"/><path class="cls-1" d="M306.63,522.53a31.15,31.15,0,0,0,31.15-31.15V460.22H306.63a31.16,31.16,0,1,0,0,62.31Z"/><path class="cls-1" d="M373.83,522.53a31.15,31.15,0,0,1-31.15-31.15V460.22h31.15a31.16,31.16,0,1,1,0,62.31Z"/><path class="cls-1" d="M619.9,276.39h-9.7l-.81-1.31a11.76,11.76,0,0,0,2.52-1.38c6.54-5.85,13-11.8,19.55-17.63,1.33-1.18,1.8-2.27,1.2-4a39.23,39.23,0,0,1-1.29-4.9c-1.22-5.62,1.87-10,7.61-10.11,9.82-.23,19.65-.13,29.47-.1q11,0,22.09.21c5.44.09,8.18,4.78,7.32,9.45a10.06,10.06,0,0,1-.64,2.58c-1.85,3.82-.53,6.34,2.65,8.95,6,5,11.63,10.41,17.44,15.63a15.94,15.94,0,0,0,2.22,1.44l-.53,1h-9.49a7.83,7.83,0,0,0,0,1.82c3.1,9.83,1.59,19.25-2.52,28.44-4.78,10.65-11.25,20.24-18.51,29.33A8.93,8.93,0,0,1,681,339.1c-9.08,0-18.17,0-27.25-.08-2.31,0-4.62-.13-6.92-.19a8.2,8.2,0,0,1-6.91-3.78c-5-7.48-10.12-14.88-14.83-22.54a67.24,67.24,0,0,1-5-11.23,34.88,34.88,0,0,1-.86-22.07C619.48,278.46,619.61,277.69,619.9,276.39Zm84.64-5.14c-4.51-4.05-8.83-8-13.24-11.83a3.42,3.42,0,0,0-2.07-.39q-24.65-.07-49.3-.1a3.77,3.77,0,0,0-2.29.45c-4.41,3.86-8.73,7.82-13.21,11.86,1.15,1,2.08,1.71,3,2.48,4.46,3.77,7.17,3.63,11.77.13a21.17,21.17,0,0,1,7.4-3.76c4.82-1.2,8.94.78,12.57,4s6.81,3.15,10.59.07c.62-.51,1.24-1,1.87-1.52a13.58,13.58,0,0,1,16.81-.2c1.17.86,2.22,1.87,3.41,2.69a6.77,6.77,0,0,0,7.93,0C701.33,274,702.76,272.71,704.54,271.25ZM664.6,243.6v-.09h-6c-6,0-12.07,0-18.11,0-2.72,0-3.1.55-2.46,3.21a22.16,22.16,0,0,1,.79,3c.19,2.29,1.42,2.79,3.55,2.77,13.92-.13,27.83-.08,41.75-.2,6.5-.06,5,1.24,6.83-5.32.81-2.93.42-3.39-2.67-3.4C680.37,243.59,672.48,243.6,664.6,243.6Z"/><path class="cls-5" d="M704.54,271.25c-1.78,1.46-3.21,2.75-4.77,3.86a6.77,6.77,0,0,1-7.93,0c-1.19-.82-2.24-1.83-3.41-2.69a13.58,13.58,0,0,0-16.81.2c-.63.49-1.25,1-1.87,1.52-3.78,3.08-7,3.15-10.59-.07s-7.75-5.22-12.57-4a21.17,21.17,0,0,0-7.4,3.76c-4.6,3.5-7.31,3.64-11.77-.13-.91-.77-1.84-1.52-3-2.48,4.48-4,8.8-8,13.21-11.86a3.77,3.77,0,0,1,2.29-.45q24.66,0,49.3.1a3.42,3.42,0,0,1,2.07.39C695.71,263.27,700,267.2,704.54,271.25Z"/><path class="cls-5" d="M664.6,243.6c7.88,0,15.77,0,23.65,0,3.09,0,3.48.47,2.67,3.4-1.81,6.56-.33,5.26-6.83,5.32-13.92.12-27.83.07-41.75.2-2.13,0-3.36-.48-3.55-2.77a22.16,22.16,0,0,0-.79-3c-.64-2.66-.26-3.19,2.46-3.21,6,0,12.07,0,18.11,0h6Z"/><path class="cls-1" d="M553.5,326.67a7.65,7.65,0,0,1-4.51,7c-2.78,1.15-5.09.3-7.12-1.74q-17.24-17.28-34.49-34.53c-3.17-3.17-6.4-6.29-9.52-9.52-1.26-1.31-2.15-1.61-3.63-.16a9.46,9.46,0,0,1-7.4,2.77,4.56,4.56,0,0,1-3.88-1.89c-.91-1.4-1.7-1.69-3.37-1-4,1.7-9,.17-8.77-5.08.06-1.26-.7-1.22-1.6-1.34-4.75-.61-6.73-3.84-5-8.43.62-1.66.84-2.69-.91-3.88-2.2-1.49-2.28-4-1.66-6.36a13.28,13.28,0,0,1,3.83-6.1q5.26-5.24,10.5-10.53a13.27,13.27,0,0,1,6.69-3.84,5.44,5.44,0,0,1,5.8,1.87c1,1.33,1.74,1.59,3.4,1,5-1.89,7.79-.22,8.81,5.06.2,1.06.58,1.3,1.57,1.45,4.82.73,6.6,3.76,5,8.4-.53,1.5-.84,2.5.84,3.73,2.86,2.08,2.94,6.9-.19,10.3-2.4,2.61-1.36,3.83.59,5.76q21.12,20.94,42.09,42C552,323.16,553.63,324.66,553.5,326.67Zm-51-46.53a4.9,4.9,0,0,0-2.64,2.15c-.7,1,.34,1.5.89,2q21.88,21.93,43.79,43.84c1.06,1.06,2.06,2,3.54.6s.55-2.62-.57-3.74q-21.91-21.9-43.82-43.83C503.29,280.83,502.87,280.48,502.49,280.14ZM477,283.76a8.36,8.36,0,0,0,4.24-2.5q5.34-5.34,10.68-10.68c3.35-3.37,6.74-6.71,10-10.17,1-1.06,2.08-2.74,1-4s-2.75-.13-4,.66a10.61,10.61,0,0,0-1.71,1.44q-9.51,9.47-19,19a11.08,11.08,0,0,0-2.79,4.14C474.84,283,475.41,283.74,477,283.76Zm-7.08-7.08a8.35,8.35,0,0,0,4.46-2.7c5.62-5.59,11.27-11.16,16.81-16.83,1.68-1.71,3.68-3.22,4.65-5.54a2.21,2.21,0,0,0,0-2.38c-.67-.84-1.52-.35-2.32-.12a7.9,7.9,0,0,0-3.25,2.11c-6.47,6.45-13,12.88-19.42,19.36a8.51,8.51,0,0,0-2.59,4.23C468,276.1,468.42,276.82,469.87,276.68Zm-2.47-10.8a8.86,8.86,0,0,0,4.07-2.3c4-3.94,7.95-7.85,11.82-11.88,1.24-1.3,2.95-3.24,1.34-4.8-1.45-1.4-3.19.46-4.61,1.45a5.51,5.51,0,0,0-.62.57q-5.62,5.63-11.25,11.25a7.66,7.66,0,0,0-2.14,3.55C465.73,264.82,465.9,265.8,467.4,265.88ZM487.72,286a6.2,6.2,0,0,0,4-2c3.91-3.88,7.78-7.8,11.64-11.72a7.15,7.15,0,0,0,2-3.33c.44-1.8-.36-2.53-2.11-2a10,10,0,0,0-3.94,2.6c-3.5,3.49-7,7-10.5,10.48a7.65,7.65,0,0,0-2.52,4.26C486.1,285.51,486.66,286,487.72,286Z"/><path class="cls-4" d="M489,332.79a13.19,13.19,0,0,0,0-18.65l-9.32-9.33-9.33,9.33h0A13.19,13.19,0,1,0,489,332.79Z"/><rect class="cls-1" x="467.48" y="497.65" width="75.96" height="18.27" rx="8.75"/><rect class="cls-1" x="460.23" y="477.97" width="90.47" height="18.27" rx="9.14"/><rect class="cls-1" x="455.98" y="458.29" width="98.97" height="18.27" rx="9.14"/><rect class="cls-6" x="460.23" y="438.62" width="90.47" height="18.27" rx="9.14"/><rect class="cls-6" x="467.48" y="418.94" width="75.96" height="18.27" rx="8.37"/><rect class="cls-6" x="477.59" y="399.26" width="55.75" height="18.27" rx="7.17"/><path class="cls-1" d="M641.26,91.44a46,46,0,0,1,46,46v46h-46a46,46,0,0,1,0-92Z"/><polygon class="cls-2" points="649.04 165.47 657.13 166.58 657.13 175.34 629.08 175.34 629.08 166.58 638.39 165.47 638.39 131.55 629.08 130.33 629.08 121.68 649.04 121.68 649.04 165.47"/><path class="cls-2" d="M632.27,99.51c3.33,0,6.76,1.77,6.76,6.65s-3.43,6.65-6.76,6.65-6.88-1.88-6.88-6.65S628.83,99.51,632.27,99.51Z"/><path class="cls-7" d="M649,99.51c3.33,0,6.76,1.77,6.76,6.65s-3.43,6.65-6.76,6.65-6.87-1.88-6.87-6.65S645.55,99.51,649,99.51Z"/></svg>