<svg id="Capa_1" data-name="Capa 1" xmlns="http://www.w3.org/2000/svg" viewBox="0 0 400 400"><defs><style>.cls-1{fill:#0c0c0c;}.cls-2{fill:#f1cd00;}</style></defs><title>Polinizee Nova Marca 2021 Set Icons</title><path class="cls-1" d="M275.68,88.25c-3.53-1-8.42-.84-7.83-6.47.57-5.4-2.57-11.36,5-15.51,11.7-6.38,15.48-16.51,12.27-27.23C281.62,27.3,273.26,21.12,259.83,21q-23.2-.32-46.42,0c-13.39.16-22.24,6.57-25.47,17.93-3.05,10.67.9,21.18,12.21,27.45,7.45,4.14,4.64,10.07,5.08,15.57.45,5.67-4.43,5.36-7.93,6.4-26.94,8.06-50,22.23-68.24,43.75-4.06,4.79-8.37,6.66-14.49,6.51-13.35-.32-26.72-.14-40.08-.08-4.69,0-8.7,1.58-8.48,7,.21,5.12,3.77,7.08,8.7,7,7-.08,14.07,0,21.1,0,16.83,0,16-.27,10.47,15.41-3.33,9.4-8.09,12-17.63,11.66-20-.78-40.08-.23-60.13-.29-4.44,0-8.67.9-11.16,4.67-2.94,4.45,1.7,6.68,3.72,9.61,2.68,3.38,6.55,1.91,9.72,1.86,16.85-.26,33.7,0,50.54-.1,7.54-.07,17.55-2.63,11.45,11.27-.34.78.44,2,.63,3,1.16,6.19-1.41,9.19-7.72,9.52-6.67.34-13.31.61-20,.32-5.61-.25-9.91,1.82-10.28,8s3.62,8.48,9.17,9.31a99.62,99.62,0,0,0,10.48.77c5.22.22,10.83-2.93,15.5-.06,5,3.05,1,9.61,3.9,14.3,3.52,5.68.89,9-5.93,9-10.89,0-21.77.09-32.65,0-6.23-.06-10.57,2.41-10.61,8.85,0,6.08,4.25,7.92,10,8.11,10.17.35,20.34.21,30.45-.29s18.69.2,22.06,11.67a51.11,51.11,0,0,1,3,4.17c32.15,54.36,79.64,79.4,142.64,74,21.34-1.81,41-9.42,59.14-20.74,3.93-2.44,6.72-5.66,4-10.41-2.64-4.55-6.76-4.42-11-2.17-1.85,1-3.57,2.25-5.41,3.28-29.91,16.64-61.68,21-94.76,12.77a128.13,128.13,0,0,1-94.11-152.35c15.2-67.6,81.45-111.35,148.81-98.28C329.45,113,374.59,177.58,363.22,246.86A130,130,0,0,1,346.09,293c-2.51,4.2-4.72,8.61.4,12,5.51,3.63,9.14-.15,12-4.58,1-1.47,1.72-3.06,2.57-4.6C406.17,214.3,365.24,114.87,275.68,88.25ZM245,83.42a84,84,0,0,0-9.39-.06c0-.11,0-.22,0-.33-3.13.18-6.28.15-9.37.57-5.18.7-6.68-1.63-6.72-6.51S220,69,226,69.24a187.58,187.58,0,0,0,19.84,0c5.88-.35,7.91,1.74,7.89,7.71C253.74,83.93,250,84,245,83.42ZM212.43,54.75c-6,0-10.35-2.6-10.5-9.27-.16-7.25,4.47-9.85,10.88-10,8.08-.17,16.17,0,24.25,0v0c7.74,0,15.47,0,23.2,0,6.51.06,11.22,2.92,11.17,9.84,0,6.32-4.46,9.36-10.49,9.41Q236.69,55,212.43,54.75Z"/><path class="cls-1" d="M236.82,116a109.91,109.91,0,0,0-109.95,110.1c.08,59.49,49.3,109.13,108.6,109.51,60.74.4,110.6-48.71,110.82-109.14C346.51,165.41,297.6,116.05,236.82,116Zm-6.71,204.88c-35.1-2-70.49-27.51-80.77-58.29-4-16.31-9.78-32.4-6.26-49.67,1.86-39.61,39.69-77.27,82.21-81.84C282,125,330.46,167.21,331.74,223.84,333,279.64,286.49,324,230.11,320.86Z"/><path class="cls-1" d="M229.16,299.2c.08-7.3,1.76-11.73,7.6-11.4,6.2.35,7.73,5.12,7.43,10.65s-1.82,10.33-8.27,9.76S229,302.28,229.16,299.2Z"/><path class="cls-1" d="M164.33,233c-5.07.16-10.06-.88-10.19-7.37-.13-6,4.55-7.27,9.49-7.31s10.56.28,10.94,6.9S170,233.07,164.33,233Z"/><path class="cls-1" d="M309,218.89c4.74,0,9.72.33,10,6.5.28,6.69-4.76,7.71-10,7.72s-10.19-1.05-9.92-7.79C299.24,218.93,304.3,219,309,218.89Z"/><path class="cls-1" d="M291.08,171.26c-4.7-4.79-8.83-1.44-12.54,2.3Q265.2,187,251.75,200.29c-2.16,2.14-3.85,4.85-7.75,4.59-11.27-.73-23,.05-29.83-11.86-.81-1.42-2.51-2.47-4-3.34-3-1.75-5.95-2-8.65.67-3,3-3.12,6.39-.67,9.43a86.16,86.16,0,0,0,9.51,9.79c3.87,3.49,7,7,4.68,12.12-1.25,10.21,2,18,10.39,22.93a21,21,0,0,0,23-.4c8.18-5.17,11.75-13.05,9.66-22.6-1.08-4.89.57-7.83,3.84-11,9.06-8.78,17.85-17.82,26.76-26.75C292.35,180.18,295.72,176,291.08,171.26ZM237,233.51c-4.33-.53-7.4-2.46-7.75-7.1-.39-5.14,2.49-8.1,7.3-8.27,4.26-.15,7.48,2.44,7.85,6.89C244.78,230.08,241.56,232.57,237,233.51Z"/><circle class="cls-2" cx="27.75" cy="269.43" r="8.57"/><circle class="cls-2" cx="333.19" cy="321.02" r="8.57"/><path class="cls-2" d="M236.61,136.47a18.88,18.88,0,0,1,18.88,18.88v18.87H236.61a18.88,18.88,0,1,1,0-37.75Z"/></svg>