<svg id="Capa_1" data-name="Capa 1" xmlns="http://www.w3.org/2000/svg" xmlns:xlink="http://www.w3.org/1999/xlink" viewBox="0 0 400 400"><defs><style>.cls-1{fill:none;}.cls-2{clip-path:url(#clip-path);}.cls-3{fill:#0c0c0c;}.cls-4{fill:#f1cd00;}.cls-5{fill:#252424;}</style><clipPath id="clip-path"><rect class="cls-1" x="-2.9" y="2.4" width="400" height="400"/></clipPath></defs><title>Polinizee Nova Marca 2021 Set Icons</title><g class="cls-2"><g class="cls-2"><path class="cls-3" d="M120.82,295.21A39.76,39.76,0,0,1,160.57,335v39.77H120.82a39.77,39.77,0,0,1,0-79.53"/><path class="cls-4" d="M120.82,310.84A24.14,24.14,0,0,1,145,335v24.14H120.82a24.14,24.14,0,1,1,0-48.27"/><path class="cls-3" d="M275.62,295.21A39.76,39.76,0,0,1,315.38,335v39.77H275.62a39.77,39.77,0,0,1,0-79.53"/><path class="cls-4" d="M275.62,310.84A24.13,24.13,0,0,1,299.75,335v24.14H275.62a24.14,24.14,0,0,1,0-48.27"/><path class="cls-4" d="M48.7,86.66,49.34,55l52-.37,11.4,33.68,225.14.65.06,22.4a11.32,11.32,0,0,1-1,4.79L289.36,219l-148.15,1.29-19.73,27.17L310,247.7l-.2,29.82-186.62.36a26.33,26.33,0,0,1-15.35-5.05l-2.69-2a31.39,31.39,0,0,1-12.89-25.74,26.38,26.38,0,0,1,6.48-17l21.79-25L79.75,86.62Z"/><path class="cls-5" d="M51.39,48l45.08-1.11s10.78,1.44,12.82,6c2.95,6.59,8.5,25.36,8.5,25.36s0,.93,5,.93c3.32,0,210.63,1.63,210.63,1.63s12.9-.79,13.37,9.18c.31,6.28.39,17.34.39,17.34s.86,4-3.18,13.45-44.24,94.47-44.24,94.47-2,10.4-14.66,11c-11.64.57-114.94.46-131.21.19a13,13,0,0,0-5.83,1.26,17.66,17.66,0,0,0-5.31,4.12c-1.4,1.58-3.66,4.78-3.51,7.17.09,1.53.94,2.65,3.11,2.65,5.75,0,162.79-.75,162.79-.75s12.14-1.29,12.55,7.65c.57,12.55.25,23.59.25,23.59s0,13.29-11.29,13.29-185-.68-185-.68-19.3.35-32.79-22c-4.75-7.88-5.56-24.94.86-35.28,3.58-5.76,21.13-25,21.13-25s2.25-4.15-.5-11C108.06,185.6,77,98.16,77,98.16s-1.26-6.24-7-5.63-18.55.69-18.55.69-11.52-.28-11.27-7-.41-29.13-.41-29.13.2-8.59,11.66-9.13"/><path class="cls-4" d="M56.32,74.74l-.76-7.65s1.77-6.46,5.56-6.67,30.56-.62,30.56-.62,6.27-1.6,7.71,3c.9,2.88,6.55,19.28,6.55,19.28s4.63,8.62,8.48,8.62,207.85,3.36,207.85,3.36,8.21,0,8.58,3.44,0,12.09,0,12.09-.2,5.4-1.75,8.12-40.19,86.1-40.19,86.1-4.48,6.59-9.29,6.15-124.34,0-124.34,0-9.16,1.91-12.69,4.28c-7.06,4.75-11.85,12.63-11.85,12.63s-5.69,6.94-5.69,12.29c0,10.5,4,13.48,7.88,15.22,3.24,1.48,19.67.1,19.67.1l144-1.94s6.45-.36,6.69,4.63c.18,3.48-.43,13.69-.43,13.69a5.42,5.42,0,0,1-5.69,5c-3.26,0-169.45-4-169.45-4s-17.82.13-26.8-19.32,19.41-38.93,23.17-45.12,2.58-16.36.35-20.85S92.78,92.75,92.78,92.75,90,79.1,79.41,79.1c-4.94,0-19,.25-19,.25s-4-.62-4.13-4.61"/></g></g></svg>