<svg id="Capa_1" data-name="Capa 1" xmlns="http://www.w3.org/2000/svg" xmlns:xlink="http://www.w3.org/1999/xlink" viewBox="0 0 400 400"><defs><style>.cls-1{fill:none;}.cls-2{clip-path:url(#clip-path);}.cls-3{fill:#252424;}.cls-4{fill:#f1cd00;}.cls-5{fill:#a38926;}.cls-6{fill:#355830;}</style><clipPath id="clip-path"><rect class="cls-1" y="-4.14" width="400" height="400"/></clipPath></defs><title>Polinizee Nova Marca 2021 Set Icons</title><g class="cls-2"><g class="cls-2"><path class="cls-3" d="M221.67,22.5q69.39,0,138.78,0c16.93,0,18.47,1.56,18.48,18.5q.06,105.14,0,210.27c0,17-1.55,18.43-18.43,18.56h-2.81c-20.08,0-20.08,0-20.11,19.68,0,21.09-.81,21.85-22.38,21.85-68.69,0-137.38.25-206.06-.26-10.34-.08-17.39,3-24.24,10.35-13.05,14-26.93,27.25-40.5,40.78C39.82,366.81,35.49,373,27.88,370c-8-3.19-7.7-11-7.69-18,0-21,.58-42.05.6-63.07q.13-102.35.05-204.67c0-19,1.69-20.55,21-20.62,4.21,0,8.45-.33,12.61.06,6.28.6,7.49-2.27,7.85-8.06,2-33.14,2.2-33.13,36.06-33.13ZM274.8,289.93c9.14,2.77,18.56.27,27.74,1.39,11.27,1.38,15.11-2.28,15-14.35q-1-89.51,0-179c.1-10.94-2.72-13.79-13.71-13.73-79.26.5-158.52.27-237.79.27-25.32,0-25.32,0-23.16,25.33-.3,5.11-.84,10.22-.85,15.33-.06,56.06-.17,112.12.06,168.18.06,13.26-3.38,26.56,1.78,41.63A324.52,324.52,0,0,0,76.66,301c6.27-7.39,13.51-9.87,23.17-9.79,51.38.42,102.77.24,154.15.14,7,0,14,1.17,20.82-1.42M220.43,42.84H97.1c-7.23,0-14.77-2.23-14.72,10.32,0,11.88,6.55,10.94,14.38,10.93,74.28-.1,148.56.16,222.83-.26,13.25-.08,18.11,4.23,18,17.8-.59,51.84-.11,103.7-.37,155.56,0,8.17.71,12.83,11,12.68,9.61-.13,10.36-4.4,10.33-12-.19-61.2-.29-122.4.09-183.6.05-9.39-3-11.74-12.06-11.65-42,.46-84.08.2-126.13.2"/><path class="cls-4" d="M274.8,289.93c-6.79,2.59-13.87,1.4-20.82,1.42-51.38.1-102.77.28-154.15-.14-9.66-.08-16.9,2.4-23.17,9.79a324.52,324.52,0,0,1-32.85,33.94c-5.16-15.07-1.72-28.37-1.78-41.63-.23-56.06-.12-112.12-.06-168.18,0-5.11.55-10.22.85-15.33,5.47-1,10.94-2.75,16.41-2.76q99.5-.32,199-.06c14.3,0,25.84,10.68,25.09,24.76-2.85,52.72,8.82,106.26-8.5,158.19m-97.32-113q-39.22,0-78.43,0c-7.09,0-15.09-1-15.17,9.46-.08,9.93,7.26,10.3,14.72,10.29q79.14-.09,158.27,0c7.42,0,15-.4,15.34-9.84.34-10-7.57-10-14.89-9.94-26.62.07-53.23,0-79.84,0M177,237.69c-26.63,0-53.26-.07-79.88.05-6.12,0-12.84,0-13.2,8.77-.39,9.53,6.6,10.16,13.36,10.17q80.58.15,161.16,0c6.53,0,13.94-.07,13.89-9.62s-7.56-9.27-14.05-9.3c-27.09-.14-54.19-.06-81.28-.06"/><path class="cls-4" d="M274.8,289.93c17.32-51.93,5.65-105.47,8.5-158.19.75-14.08-10.79-24.71-25.09-24.76q-99.48-.37-199,.06c-5.47,0-10.94,1.8-16.41,2.76C40.66,84.47,40.66,84.47,66,84.47c79.27,0,158.53.23,237.79-.27,11-.06,13.81,2.79,13.71,13.73q-.84,89.52,0,179c.14,12.07-3.7,15.73-15,14.35-9.18-1.12-18.6,1.38-27.74-1.39"/><path class="cls-5" d="M220.43,42.84c42.05,0,84.09.26,126.13-.2,9.07-.09,12.11,2.26,12.06,11.65-.38,61.2-.28,122.4-.09,183.6,0,7.59-.72,11.86-10.33,12-10.31.15-11.06-4.51-11-12.68.26-51.86-.22-103.72.37-155.56.15-13.57-4.71-17.88-18-17.8-74.27.42-148.55.16-222.83.26-7.83,0-14.34,1-14.38-10.93,0-12.55,7.49-10.32,14.72-10.32H220.43"/><path class="cls-3" d="M148.82,120.63H205c4.29,0,8.91-.29,9.3,8.3.39,8.78-4,11.33-8.83,11.35q-56.68.31-113.38,0c-4.41,0-8.39-2.43-8.27-10.57.13-8.57,4.23-9.12,8.76-9.1,18.74.07,37.48,0,56.21,0"/><path class="cls-3" d="M177.48,176.92c26.61,0,53.22,0,79.83,0,7.33,0,15.23-.08,14.9,9.94-.32,9.44-7.92,9.85-15.34,9.84q-79.14-.1-158.27,0c-7.46,0-14.8-.36-14.72-10.29C84,175.91,92,176.9,99,176.91q39.22,0,78.44,0"/><path class="cls-3" d="M177,237.69c27.09,0,54.19-.08,81.28.06,6.49,0,14-.36,14.05,9.3s-7.36,9.6-13.89,9.62q-80.58.18-161.16,0c-6.76,0-13.75-.65-13.36-10.18.36-8.75,7.08-8.74,13.2-8.77,26.62-.12,53.25-.05,79.88-.05"/><path class="cls-6" d="M223.45,130.51a9.92,9.92,0,1,1,9.92,9.92,9.92,9.92,0,0,1-9.92-9.92"/><path class="cls-5" d="M252.38,130.51a9.92,9.92,0,1,1,9.92,9.92,9.92,9.92,0,0,1-9.92-9.92"/></g></g></svg>