<svg id="Capa_1" data-name="Capa 1" xmlns="http://www.w3.org/2000/svg" viewBox="0 0 400 400"><defs><style>.cls-1{fill:#0c0c0c;}.cls-2{fill:#f1cd00;}.cls-3{fill:#a28814;}.cls-4{fill:#b8b8b8;}</style></defs><title>Polinizee Nova Marca 2021 Set Icons</title><path class="cls-1" d="M319.44,143.78c-1.63,33.44-15.92,65.8-47,89.27-7.76,5.87-11,11.77-10.11,21.13,1.17,13,.31,25.73,4.05,39,3.45,12.2,1.13,26.49.4,39.67-.67,12-10.33,18.81-22.72,19.13-6.75.17-10.86.79-12.93,9-3.85,15.28-16.24,19.4-30.73,19.36-18.45,0-27.87-4.82-32.27-19.25-2.23-7.35-5.44-9-12.66-9.15-20.51-.45-30.43-13.51-25.29-32.84,1.17-4.4,1.35-7.77-.18-12.08-2.46-6.86-2.21-14.15,2-20.44,2.86-4.25,2.86-8.74,3.22-13.47,1.52-20.21-2.08-35.79-19.39-51.44-41-37-45.95-98.63-16.7-148.31,25-42.46,81.24-65.71,128.76-53.21C282.43,34.45,319.41,82.42,319.44,143.78ZM292,173.36c15.63-44.47,2-90.26-34.94-117.27-32.82-24-81.21-24-114,0-36.9,27-50.46,72.57-34.9,117.24,4.68,15.89,13.13,30.62,26.61,39,18,11.17,23.25,25.39,20.3,44.75-.35,2.31,0,4.72,0,7.08-.05,3.34,1.42,5.63,4.84,5.64,9.91,0,20.9,2.36,29.37-1.21,6.16-2.6,2.57-13.88,2.28-21.14-1.1-28.18-3.15-56.38,24.44-78.55-8.48,0-14.86-.11-21.23,0-2.6.07-4.85-.3-4.84,4.39,0,17.12-3,18.75-18.1,11-5.14-5.5-10.23-11.05-15.43-16.49-3.46-3.61-6-7.71-4.21-12.71,2-5.63,7.14-7.31,12.61-7.34q37.59-.14,75.17,0c4.87,0,9.41,1.51,11.69,6.48,2.62,5.72-.32,10-4,14-5.76,6.22-11.61,12.37-17.42,18.56-7.4,6.76-18.1,11.39-18.52,23.14-.62,17.39-.18,34.82-.13,52.24,0,3.18-.36,6.16,4.08,7.67,16.9,5.73,27.81-1.17,26.58-18.87-1.05-15.16,3.15-25.18,16.77-33.43C275.44,207.67,286.19,192,292,173.36ZM200.06,295c-14.62,0-29.24-.07-43.86.06-2.95,0-7.37-1.15-6.89,4.28.32,3.63,3.43,4,6.34,4q42.45,0,84.89,0c3.48,0,7.37-.55,7-4.82-.36-4.62-4.85-3.49-7.9-3.52C226.47,295,213.27,295,200.06,295Zm-.35,28.43c-14.61,0-29.23,0-43.84,0-2.68,0-6.12-.45-6.5,3.48-.47,4.91,3.31,4.9,6.64,4.9q42.44.06,84.86,0c2.92,0,6.3-.29,6.67-3.7.52-4.83-3.58-4.67-6.81-4.69C227.06,323.43,213.39,323.47,199.71,323.47ZM185.88,352.2c9.9,11.53,20.31,11.09,25.49,0Z"/><path class="cls-2" d="M230.24,186.86c5.81-6.19,11.66-12.34,17.42-18.56,3.66-4,6.6-8.24,4-14-2.28-5-6.82-6.45-11.69-6.48q-37.57-.2-75.17,0c-5.47,0-10.57,1.71-12.61,7.34-1.82,5,.75,9.1,4.21,12.71,5.2,5.44,10.29,11,15.43,16.48-4.53,4.4-9.47,1.86-14.59,1.38-17-1.63-31.79-12-49.07-12.39-15.56-44.67-2-90.22,34.9-117.24,32.81-24,81.2-24,114,0,36.93,27,50.57,72.8,34.94,117.27-7.34-1.21-13.6,2.2-20,4.83C258.63,183.71,244.86,187.29,230.24,186.86Z"/><path class="cls-3" d="M108.15,173.35c17.28.41,32,10.76,49.07,12.39,5.12.48,10.06,3,14.59-1.38,15.05,7.76,18.12,6.13,18.1-11,0-4.69,2.24-4.32,4.84-4.39,6.37-.16,12.75,0,21.23,0-27.59,22.17-25.54,50.37-24.44,78.55.29,7.26,3.88,18.54-2.28,21.14-8.47,3.57-19.46,1.23-29.37,1.21-3.42,0-4.89-2.3-4.84-5.64,0-2.36-.34-4.77,0-7.08,2.95-19.36-2.34-33.58-20.3-44.75C121.28,204,112.83,189.24,108.15,173.35Z"/><path class="cls-3" d="M230.24,186.86c14.62.43,28.39-3.15,41.79-8.67,6.38-2.63,12.64-6,20-4.83-5.82,18.62-16.57,34.31-33,44.25-13.62,8.25-17.82,18.27-16.77,33.43,1.23,17.7-9.68,24.6-26.58,18.87-4.44-1.51-4.07-4.49-4.08-7.67-.05-17.42-.49-34.85.13-52.24C212.14,198.25,222.84,193.62,230.24,186.86Z"/><path class="cls-4" d="M200.06,295c13.21,0,26.41-.08,39.62,0,3,0,7.54-1.1,7.9,3.52.33,4.27-3.56,4.82-7,4.82q-42.43,0-84.89,0c-2.91,0-6-.4-6.34-4-.48-5.43,3.94-4.25,6.89-4.28C170.82,295,185.44,295,200.06,295Z"/><path class="cls-4" d="M199.71,323.47c13.68,0,27.35,0,41,0,3.23,0,7.33-.14,6.81,4.69-.37,3.41-3.75,3.7-6.67,3.7q-42.42,0-84.86,0c-3.33,0-7.11,0-6.64-4.9.38-3.93,3.82-3.47,6.5-3.48C170.48,323.43,185.1,323.47,199.71,323.47Z"/><path class="cls-4" d="M185.88,352.2h25.49C206.19,363.29,195.78,363.73,185.88,352.2Z"/></svg>