<svg id="Capa_1" data-name="Capa 1" xmlns="http://www.w3.org/2000/svg" xmlns:xlink="http://www.w3.org/1999/xlink" viewBox="0 0 400 400"><defs><style>.cls-1{fill:none;}.cls-2{clip-path:url(#clip-path);}.cls-3{fill:#f1cd00;}.cls-4{fill:#355830;}</style><clipPath id="clip-path"><rect class="cls-1" x="4.81" y="3.08" width="400" height="400"/></clipPath></defs><title>Polinizee Nova Marca 2021 Set Icons</title><g class="cls-2"><g class="cls-2"><path class="cls-3" d="M65,165.49H33.66l-2.61-4.22c2.74-1.46,5.9-2.44,8.14-4.45,21.1-18.91,41.93-38.11,63.11-56.93,4.28-3.81,5.8-7.31,3.87-12.79A129.59,129.59,0,0,1,102,71.28c-3.92-18.13,6-32.21,24.58-32.64,31.7-.73,63.43-.4,95.14-.32q35.66.07,71.31.67c17.58.32,26.41,15.45,23.63,30.54-.52,2.81-.84,5.79-2.05,8.3-6,12.36-1.72,20.48,8.54,28.92,19.45,16,37.56,33.61,56.32,50.45,2.09,1.88,4.76,3.12,7.16,4.66-.57,1.09-1.13,2.18-1.69,3.27H354.3c0,2.94-.36,4.52.05,5.84,10,31.75,5.14,62.17-8.15,91.83-15.41,34.4-36.32,65.36-59.73,94.72-6.09,7.63-14.57,10.5-24.18,10.46-29.33-.11-58.67-.13-88-.28-7.45,0-14.9-.42-22.35-.62-9.52-.25-17.05-4.37-22.28-12.19-16.14-24.14-32.7-48-47.89-72.76-6.86-11.18-11.34-23.92-16-36.28-8.9-23.34-9.34-47.2-2.78-71.25.66-2.43,1.11-4.92,2-9.11m273.27-16.58c-14.54-13.08-28.51-25.78-42.73-38.2-1.48-1.29-4.42-1.25-6.68-1.26q-79.59-.26-159.17-.32c-2.51,0-5.75,0-7.4,1.45C108,123,94.06,135.82,79.6,148.88c3.72,3.08,6.72,5.5,9.66,8,14.39,12.18,23.16,11.74,38,.42,7-5.35,15.4-10,23.87-12.12,15.58-3.88,28.85,2.5,40.59,13s22,10.17,34.19.22c2-1.65,4-3.33,6.05-4.93,16.37-12.72,37.48-13,54.26-.63,3.76,2.77,7.18,6,11,8.69a21.87,21.87,0,0,0,25.59-.12c5-3.61,9.64-7.78,15.4-12.47m-129-89.26v-.31H189.81c-19.48,0-39-.06-58.45,0-8.79,0-10,1.77-8,10.36.78,3.28,2.26,6.47,2.55,9.78.64,7.39,4.59,9,11.47,8.93,44.93-.41,89.87-.26,134.8-.63,21-.18,16.2,4,22.06-17.18,2.62-9.46,1.34-11-8.63-11-25.46-.06-50.91,0-76.36,0"/><path class="cls-4" d="M338.24,148.91c-5.76,4.69-10.37,8.86-15.4,12.47a21.87,21.87,0,0,1-25.59.12c-3.84-2.66-7.26-5.92-11-8.69-16.78-12.36-37.89-12.09-54.26.63-2.05,1.6-4,3.28-6.05,4.93-12.2,9.95-22.56,10.16-34.19-.22s-25-16.86-40.59-13c-8.47,2.12-16.85,6.77-23.87,12.12-14.85,11.32-23.62,11.76-38-.42-2.94-2.49-5.94-4.91-9.66-8C94.05,135.82,108,123,122.26,110.58c1.65-1.44,4.89-1.45,7.39-1.45q79.59,0,159.18.32c2.26,0,5.2,0,6.68,1.26,14.22,12.42,28.19,25.12,42.73,38.2"/><path class="cls-4" d="M209.29,59.65c25.45,0,50.9,0,76.36,0,10,0,11.25,1.51,8.63,11-5.86,21.18-1.09,17-22.06,17.18-44.93.37-89.87.22-134.8.63-6.88.07-10.83-1.54-11.47-8.93-.29-3.31-1.77-6.5-2.55-9.78-2.06-8.59-.83-10.32,8-10.36,19.49-.1,39,0,58.45,0h19.48v.31"/></g></g></svg>