<svg id="Capa_1" data-name="Capa 1" xmlns="http://www.w3.org/2000/svg" viewBox="0 0 400 400"><defs><style>.cls-1{fill:#0c0c0c;}.cls-2{fill:#f1cd00;}</style></defs><title>Polinizee Nova Marca 2021 Set Icons</title><path class="cls-1" d="M197.06,141.46a35.27,35.27,0,0,1,35.27,35.27V212H197.06a35.27,35.27,0,0,1,0-70.54Z"/><path class="cls-2" d="M96.18,359.89c0-17.14,1.17-31.93-.26-46.47-2.55-25.95-12.94-49-27.37-70.89C26,177.9,41.1,57.19,148.51,31.71c70.94-16.83,156.17,7.15,179,101.55,4.57,18.86,18.51,35.52,28.52,53C367.32,205.89,366,215.16,345.8,226c-13.2,7.06-17.59,16-15.9,30,.91,7.54.41,15.31-.07,22.94-1.52,24.2-17.41,42.42-41.29,45.77-19.47,2.73-36.69,7-41.3,30-.45,2.21-5.61,4.93-8.6,4.95C192.28,360,145.92,359.89,96.18,359.89ZM217.37,259.1c8.74-30,8.67-28.81,38.71-27.06,5.77.34,12.57-13,18.49-20.4s4.66-13.11-3.68-18.77c-4.76-3.24-8-9.42-10.69-14.88-8-16.34,10.15-18.55,16.53-28.8l-18.4-32.31c-33.18,13.52-35.61,12.22-41.65-21.35H179.41c-6.54,11.12-9.73,23.83-17.13,27.13-7.85,3.51-19.69-1.9-30.87-3.58a43.38,43.38,0,0,0-3.7,5.54c-4.42,8.7-11.54,17.39-11.83,26.28-.17,5,13.57,9.31,16.39,15.91,2.89,6.76,1.87,16.61-.82,23.84-1.89,5.06-9.47,8-14.88,12.19L135,236c34.89-12.42,35.31-12.2,42.61,21.95a82.9,82.9,0,0,0,9.16,1.1C197.12,259.19,207.45,259.1,217.37,259.1Z"/><path class="cls-1" d="M366.48,184c-3.51-6.31-12.63-21.75-18.94-30.87s-8-13.4-9.43-19-4.8-19.23-9.71-31.4-14.47-26.84-20.78-34.56-37.26-28.68-48.48-33.59-35-12.7-55.32-13.4-48.29.74-65.08,5.9C120.9,32.52,97.63,45,88.6,52.1,72.3,65,62,80.15,54.27,93.48S36.73,146.1,36.73,156.62s4.92,51.22,8.77,61.26a211.76,211.76,0,0,0,24.21,43.86c11.22,15.32,18.94,41.51,18.94,52V361.2l-.35,5.2h143c4.8,0,15.19-2.61,18.09-5.2a22.26,22.26,0,0,0,5.41-7.22,85.86,85.86,0,0,1,5-9.05c2.31-3.77,9.85-5.8,13.91-7.25s17.09-3.19,21.73-4.63,15.07-6.67,17.68-8.12,11.88-11.3,14.2-14.78,6.95-11.59,8.11-15.36,1.16-11.3,1.16-14.78.58-15.07,0-18.27-.58-12.74.58-16.22,5.22-7.24,7-8.69,9.85-5.22,12.46-7.24,10.52-7,12.63-11.71,2.8-10,3.51-15.26S370,190.3,366.48,184Zm-7.57,15.07c-.64,4.82-1.29,9.77-3.23,14.09S346.42,222.07,344,224s-9.9,5.35-11.51,6.69-5.35,4.81-6.42,8-1.07,12-.54,15,0,13.65,0,16.86,0,10.17-1.07,13.65-5.35,11-7.49,14.18-10.7,12.31-13.11,13.64-12,6.16-16.32,7.5-16.32,2.94-20.07,4.28-10.7,3.21-12.84,6.68a50.81,50.81,0,0,0-3.94,8.55c-.53,1.33-2.73,8.7-5.4,11.09S232.86,356,228.42,356s-130.07.31-130.07.31l.33.4s-1.39-48.52-1.39-58.24-8.34-28-18.2-44.84c-8.84-15.15-18.79-31.22-22.35-40.5s-8.09-46.84-8.09-56.56,9.07-46,16.19-58.29S81.48,72,96.53,60.08C104.87,53.5,126.35,42,142.83,37c15.5-4.76,41.3-6.09,60.08-5.45S243.62,39.34,254,43.88s38.93,23.88,44.76,31,14.65,20.68,19.18,31.91a227.45,227.45,0,0,1,9,29c1.3,5.19,2.88,9.14,8.71,17.56s14.25,22.67,17.48,28.5S359.56,194.23,358.91,199.05Z"/><path class="cls-1" d="M279.11,195.68c-1.28-1.07-6.13-4.42-8.61-7-3-3.07-7.47-13.37-7.89-14.86s-1.17-3.83-.32-5.32a36.25,36.25,0,0,1,5.43-6.81c1.49-1.17,14.24-12.57,14.24-12.57l-21.91-35.76s-18.07,6.34-19.92,6.9a25.87,25.87,0,0,1-7.8.65,7.7,7.7,0,0,1-6.66-3.62c-1.72-2.46-5.33-17.56-5.65-20.44s-.74-6-.74-6h-43l-10.54,21s-1.71,4.37-3.94,6.07-3.51,2.45-6.6,1.92-24.59-6.18-24.59-6.18l-.78,1.68s-15.38,24.22-15.89,26.08-2.82,5.7-2.82,9,2.61,5.64,4.76,7.44,12.42,7.68,13.95,10.76,1.59,7.35,1.28,10.25c-.73,7.15-1.13,9.39-2.56,11.28-1,1.31-17.43,11.28-17.43,11.28l22.3,38.7s21.08-7.52,24.87-8.2c2.71-.48,5.21-1.3,7.24.4s3.51,3.09,4.26,6.18,3,9.79,3.3,12.56,2.44,10.54,2.44,10.54l45,.75,6.06-19.49a55.16,55.16,0,0,1,3.2-6.49c1.27-1.92,5-1.92,7.45-1.81s19.48.75,20.33.75a14.23,14.23,0,0,0,6.28-3c1.6-1.59,15.44-21.5,16-22.46s2.56-5.21,2-7.77S280.38,196.74,279.11,195.68ZM272.47,207c-.49.88-12.59,18.42-14,19.87s-5.25,2-6,2-16.3-.58-18.53-.68-7.27-.1-8.44,1.64-3.64,8.67-3.64,8.67l-5.2,16.32-37-.68s-1.76-6.49-2.42-9.75c-.51-2.49-2.41-9-3.09-11.78a12.94,12.94,0,0,0-3.93-6.85c-1.84-1.55-7.64-1.7-10.11-1.25-3.45.62-22.58,7.33-22.58,7.33l-17.3-30s15.58-9.35,16.48-10.55c1.3-1.72,1.2-6.25,1.87-12.75.27-2.65-.25-8.86-1.65-11.66S127,157,125.08,155.33s-4.51-4.44-4.51-7.47,2.9-7.23,2-5.74c-1.4,2.24,10.91-17.45,11.14-17.93l.71-1.53s19.6,5.15,22.41,5.63a10.14,10.14,0,0,0,9.23-3.87c1.48-2.08,4-6.24,4-6.24l9.39-19.66h35.62s.66,3.8,1.19,6.38c.77,3.8,4.05,17.08,5.61,19.32a9.71,9.71,0,0,0,7,4.1,39.73,39.73,0,0,0,9.18-.64c1.68-.51,17.65-6.58,17.65-6.58l17.21,28.08s-11.7,9.81-13.06,10.88-4.62,4.61-5,7c-.48,3.37,1,5.56,1.37,6.92s4.18,11.38,6.42,14.56a31.2,31.2,0,0,0,6.13,6.28c1.17,1,3.73,2.84,4.21,5.17A15,15,0,0,1,272.47,207Z"/><path class="cls-2" d="M196.54,148.53a28.14,28.14,0,0,1,28.14,28.14v28.15H196.54a28.15,28.15,0,1,1,0-56.29Z"/></svg>