<svg id="Capa_1" data-name="Capa 1" xmlns="http://www.w3.org/2000/svg" xmlns:xlink="http://www.w3.org/1999/xlink" viewBox="0 0 400 400"><defs><style>.cls-1{fill:none;}.cls-2{clip-path:url(#clip-path);}.cls-3{fill:#f1cd00;}.cls-4{fill:#090c0f;}</style><clipPath id="clip-path"><rect class="cls-1" x="-2.33" y="0.13" width="400" height="400"/></clipPath></defs><title>Polinizee Nova Marca 2021 Set Icons</title><g class="cls-2"><g class="cls-2"><path class="cls-3" d="M133.45,81.58A118.55,118.55,0,0,1,252,200.13V318.67H133.45a118.55,118.55,0,1,1,0-237.09"/><polygon class="cls-4" points="338.95 287.82 364.25 291.29 364.25 318.67 276.56 318.67 276.56 291.29 305.67 287.82 305.67 181.76 276.56 177.94 276.56 150.91 338.95 150.91 338.95 287.82"/><path class="cls-4" d="M286.53,81.58c10.4,0,21.14,5.54,21.14,20.8,0,14.9-10.74,20.8-21.14,20.8-10.75,0-21.49-5.9-21.49-20.8,0-15.26,10.74-20.8,21.49-20.8"/><path class="cls-3" d="M338.81,81.58c10.4,0,21.14,5.54,21.14,20.8,0,14.9-10.74,20.8-21.14,20.8-10.75,0-21.49-5.9-21.49-20.8,0-15.26,10.74-20.8,21.49-20.8"/></g></g></svg>