<svg id="Capa_1" data-name="Capa 1" xmlns="http://www.w3.org/2000/svg" xmlns:xlink="http://www.w3.org/1999/xlink" viewBox="0 0 400 400"><defs><style>.cls-1{fill:none;}.cls-2{clip-path:url(#clip-path);}.cls-3{fill:#252424;}.cls-4{fill:#f1cd00;}.cls-5{fill:#a38926;}</style><clipPath id="clip-path"><rect class="cls-1" y="-4.14" width="400" height="400"/></clipPath></defs><title>Polinizee Nova Marca 2021 Set Icons</title><g class="cls-2"><g class="cls-2"><path class="cls-3" d="M390.57,195.24c.38,101.68-83,185.26-184.68,185.2-101.15-.06-184.11-82.79-184.48-184C21,94.8,104.39,11.21,206.09,11.28c101.16.06,184.11,82.78,184.48,184M130.33,308.73q4.89,16.29,9.81,32.6c1.64,5.41,5.25,8.4,10.76,10.23q55.36,18.4,110.55-.14c4.22-1.42,8-3.24,9.43-7.83,3.7-11.67,10-22.59,10.15-35.28,3.32-4.93,4.55-9.11-3.87-8.36-6.1.55-12.13,1.92-18.22,2.58-40.23,4.35-80.39,4.23-120.47-1.91-9.57-1.46-9.6-1.22-8.14,8.11m74.72-23.36c26.24.53,51.52-.86,76.59-5.65,4.82-.92,7.25-1.49,8.17-7.24a474.52,474.52,0,0,0-.07-153c-.7-4.3-1.36-6.57-6.43-7.38a483.09,483.09,0,0,0-154.42,0c-4.93.79-5.93,2.72-6.65,7.18a474.52,474.52,0,0,0-.08,153c.89,5.54,2.89,6.52,7.92,7.45a363.29,363.29,0,0,0,75,5.65M102.19,117.68c-14,3-26,7.3-38.2,11.18-8.34,2.66-12,7.33-14.76,15.27-8.29,23.61-9.39,47.94-7.1,72.24,3.63,38.5,9.49,44.55,45.67,54.3,15.2,4.1,15.7,3.34,13.63-12.28-3.92-29.47-6.66-59-3.61-88.8,1.74-17,2.89-34.06,4.37-51.91M284.18,92C281.11,78,276.83,66,273,53.77c-2.66-8.39-7.43-11.93-15.33-14.7C234,30.78,209.7,29.68,185.4,32c-38.5,3.67-44.44,9.44-54.23,45.76-4.08,15.15-3.33,15.62,12.37,13.53,29.47-3.91,59-6.64,88.81-3.59,17,1.74,34,2.82,51.83,4.26m25.21,25.6c8.41,53.06,7.86,104.31.23,157.11,13.76-4.49,24.95-8.74,36.47-11.71,9.43-2.43,14-7.78,16.77-17a171.52,171.52,0,0,0,7-66.7c-4.14-43.53-7.64-47.31-49.87-58.6-2.76-.74-5.48-1.6-10.63-3.11m-13.6,216c21.13-12.73,39.78-32,46.61-47.78-38.29,6.24-41.47,9.43-46.61,47.78M68.4,285.36C79.69,305.3,98.27,323.69,116,332.83c-3.89-36.3-7.57-40.08-47.55-47.47m-.17-179.44c39.06-6.25,42.68-9.9,47.63-47.8a152.22,152.22,0,0,0-47.63,47.8m227.86-48c5.07,38.16,8.59,41.72,47.73,48a155.69,155.69,0,0,0-47.73-48"/><path class="cls-4" d="M205.05,285.37a363.29,363.29,0,0,1-75-5.65c-5-.93-7-1.91-7.92-7.45a474.52,474.52,0,0,1,.08-153c.72-4.46,1.72-6.39,6.65-7.18a483.09,483.09,0,0,1,154.42,0c5.07.81,5.73,3.08,6.43,7.38a474.46,474.46,0,0,1,.07,153c-.92,5.76-3.35,6.33-8.17,7.25-25.07,4.78-50.35,6.18-76.59,5.65m.63-14.52c11.43-.76,39.77-8.9,51.41-21.76,11.8-13,22-35.19,22.08-52.57s-9.9-40.11-21.93-52.56-35.25-21.5-52.66-21.55S163.77,131.57,152,144s-22.06,35.19-21.94,52.53,10.38,39.43,22.2,52.53C163.92,262,190,268.48,205.68,270.85"/><path class="cls-4" d="M102.19,117.68c-1.48,17.85-2.63,34.91-4.37,51.91-3,29.79-.31,59.33,3.61,88.8C103.51,274,103,274.77,87.8,270.67c-36.18-9.75-42-15.8-45.67-54.3-2.29-24.3-1.19-48.63,7.1-72.24C52,136.2,55.65,131.52,64,128.86c12.2-3.88,24.24-8.13,38.2-11.18"/><path class="cls-4" d="M284.18,92c-17.82-1.44-34.86-2.52-51.83-4.26-29.8-3-59.34-.32-88.81,3.59-15.7,2.09-16.45,1.62-12.37-13.53C141,41.43,146.9,35.66,185.4,32c24.3-2.31,48.63-1.21,72.23,7.08,7.9,2.77,12.67,6.31,15.33,14.7C276.83,66,281.11,78,284.18,92"/><path class="cls-4" d="M309.39,117.55c5.15,1.51,7.87,2.37,10.63,3.11,42.23,11.29,45.73,15.07,49.87,58.6a171.52,171.52,0,0,1-7,66.7c-2.79,9.21-7.34,14.56-16.77,17-11.52,3-22.71,7.22-36.47,11.71,7.63-52.8,8.18-104-.23-157.11"/><path class="cls-5" d="M281,308.31c-.15,12.69-6.45,23.62-10.15,35.29-1.45,4.58-5.21,6.4-9.43,7.82q-55.26,18.63-110.55.14c-5.52-1.83-9.12-4.82-10.76-10.23q-4.95-16.29-9.81-32.6c32,5.75,63.81,10.3,96.79,6.38,18-2.13,35.54-8,53.91-6.8"/><path class="cls-4" d="M281,308.31c-18.37-1.19-35.94,4.67-53.91,6.8-33,3.92-64.78-.63-96.79-6.38-1.46-9.33-1.43-9.57,8.14-8.11,40.08,6.14,80.24,6.26,120.47,1.91,6.09-.66,12.12-2,18.22-2.58,8.42-.75,7.19,3.43,3.87,8.36"/><path class="cls-5" d="M295.79,333.54c5.14-38.35,8.32-41.54,46.61-47.78-6.83,15.74-25.48,35.05-46.61,47.78"/><path class="cls-5" d="M68.4,285.36c40,7.39,43.66,11.17,47.55,47.47-17.68-9.14-36.26-27.53-47.55-47.47"/><path class="cls-4" d="M68.23,105.92a152.08,152.08,0,0,1,47.63-47.79c-5,37.89-8.57,41.54-47.63,47.79"/><path class="cls-4" d="M296.09,57.94a155.69,155.69,0,0,1,47.73,48c-39.14-6.27-42.66-9.83-47.73-48"/><path class="cls-3" d="M204.61,270.85c-14.78-.81-40.69-8.86-52.36-21.79-11.82-13.1-22.07-35.18-22.2-52.53s10-40,21.94-52.53,35.2-21.64,52.59-21.59,40.7,9.17,52.66,21.55,22,35.16,21.93,52.56-10.28,39.54-22.08,52.57c-11.64,12.86-37.42,21.76-52.48,21.76"/><path class="cls-3" d="M206.54,224.56c-14.89.34-29.18-13.14-29.23-27.55-.05-14.82,13.44-28.85,28.05-29.16,13.51-.3,28.68,14.69,29.07,28.72.36,12.88-14.39,27.68-27.89,28m6.51-26.22c-.19-7-3-9.42-7.21-9.48-5-.06-8.07,3.2-7.86,8a7.33,7.33,0,0,0,7.4,7.13c4.91.07,7.37-3.29,7.67-5.61"/><path class="cls-4" d="M224.69,163.48a18,18,0,0,1,8-6.53c1.88-.77,4.09-1.2,5.9-.28a6.6,6.6,0,0,1,2.28,2.12,12.17,12.17,0,0,1-4.16,17.77,25.49,25.49,0,0,1,4.34,10.53,28.22,28.22,0,0,1,7.9.39,9.65,9.65,0,0,1,6.34,4.39,11.26,11.26,0,0,1,1.14,5.09,7,7,0,0,1-.7,3.73c-.93,1.6-2.83,2.34-4.61,2.83a36.48,36.48,0,0,1-10.39,1.3A22.37,22.37,0,0,1,237,215.37a22.83,22.83,0,0,1,5.34,5.76,9.24,9.24,0,0,1,1.08,7.57c-1,3-4,5-7.06,5.93a5.39,5.39,0,0,1-2.34.35,5.53,5.53,0,0,1-1.94-.74,36.9,36.9,0,0,1-8.21-6.75c-2.56.83-4.73,2.77-7.38,3.21-1.29.22-2.69.08-3.2.55.61,4,1.14,8.38-1,11.84a9,9,0,0,1-10.85,3.53,10.68,10.68,0,0,1-5.68-6.36,18.13,18.13,0,0,1-.58-8.7c-3.62-1-7.3-2.05-10.49-4.07l-4,4.09a13.44,13.44,0,0,1-2.8,2.37,7.51,7.51,0,0,1-5.52.72,9,9,0,0,1-4.7-3,9.18,9.18,0,0,1-1-10.19,14.72,14.72,0,0,1,2.1-2.62c1.32-1.39,2.68-2.74,4.1-4,0,.15-.26,0-.33-.11a44,44,0,0,1-3.82-10.38c-1.66.07-3.32.09-5,.07a16.72,16.72,0,0,1-4-.4,9.28,9.28,0,0,1-6.67-11.39,7.89,7.89,0,0,1,1.38-2.82,8.59,8.59,0,0,1,3.85-2.59,21.55,21.55,0,0,1,4.59-1,17.74,17.74,0,0,1,5.77,0,25.75,25.75,0,0,1,4-10.13L167.77,171a9.92,9.92,0,0,1-1.71-2.17,8.46,8.46,0,0,1-.7-2.15A10.8,10.8,0,0,1,165,164a7.21,7.21,0,0,1,1.61-4.12,10.74,10.74,0,0,1,3.49-2.78,7,7,0,0,1,4.55-.92,12.26,12.26,0,0,1,7.16,3.5,31.53,31.53,0,0,1,3.08,3.89,6.14,6.14,0,0,1,2-1.27,50.25,50.25,0,0,1,9-3.11,40.2,40.2,0,0,1,.05-7.52,9.59,9.59,0,0,1,.52-2.5,8.58,8.58,0,0,1,1.66-2.47,11.35,11.35,0,0,1,3.59-2.85,5.74,5.74,0,0,1,4.48-.27,8.21,8.21,0,0,1,4.45,2.77,10.15,10.15,0,0,1,2.45,4.18,12.17,12.17,0,0,1,.31,3,39.76,39.76,0,0,1-.32,5.45c.71.26,1.41.54,2.11.82l4.07,1.61c1.78.7,3.56,1.4,5.38,2.14"/></g></g></svg>