<svg id="Capa_1" data-name="Capa 1" xmlns="http://www.w3.org/2000/svg" viewBox="0 0 400 400"><defs><style>.cls-1{fill:#0c0c0c;}.cls-2{fill:#f1cd00;}.cls-3{fill:#a28814;}.cls-4{fill:#eeca78;}.cls-5{fill:#080c0f;}</style></defs><title>Polinizee Nova Marca 2021 Set Icons</title><path class="cls-1" d="M218.15,360c1.54,15.31-5.82,18.38-17.94,18.28-50.94-.43-101.89-.15-152.84-.2-16.23,0-18.45-2.26-18.46-19q-.09-104,0-208c0-17.58,1.84-19.27,19.53-19.34,4.25,0,8.49,0,12.74,0,18.9,0,18.9,0,18.91-19.58,0-19.82,0-19.82-20.21-19.83-5.66,0-11.33-.23-17,0-9.65.48-13.92-4.41-14-13.55Q28.81,54,29,29.22c.06-9.1,4.37-13.71,14-13.68q80.67.23,161.33,0c10.38,0,14.27,4.94,14,14.87-.33,12.26.21,24.54-.19,36.79-.21,6.18,1.84,8.36,8,8.1,9.42-.4,18.87.09,28.3-.15,9.74-.25,15.13,3.39,15,13.94q-.41,24.76,0,49.53c.14,9.73-4.45,13.64-13.86,13.31-8-.28-16-.08-24,0-11.62.05-18.67,12-13,22.56,3.45,6.41,7.44.19,10.42-.95,38-14.49,73.27-9.85,105,15.53,41.07,32.89,50.15,88.85,22.78,134.71C331.39,366,276.34,383.6,229.21,364.42,226.21,363.2,223.19,362,218.15,360Zm-51.1-69.61c-1.25-23-1.25-23-24.23-23H68.1c-19.1,0-19.1,0-17.6,20.17-2.74,9.76-.68,14.41,11.08,14.16,32.89-.69,65.81-.47,98.71-.1C170.31,301.76,172.16,298.59,167.05,290.4Zm4.74-56.74c1.5-3.42,2.45-7.24,4.6-10.2C184,213,181.52,210,168.8,210.21c-33.22.63-66.47.21-99.71.21C49,210.42,49,210.42,50.5,231c-2.9,10.54-.26,15.22,12,14.93,31.54-.77,63.12-.65,94.67,0C166.77,246.1,171.09,242.73,171.79,233.66ZM189.51,336c-4.17-10.1-11.63-12.71-22.39-12.48-32.53.73-65.09.27-97.64.27-20.5,0-20.5,0-19,20.46-3.07,10.37.29,14.09,11.51,13.94,41.9-.55,83.81-.16,125.71-.26,10.27,0,13.75-6,8.67-15.05C194.86,340.12,191.84,338.23,189.51,336Zm-139-161.61c-3,10.12-.14,14.2,11.28,14,37.09-.61,74.2-.23,111.3-.23,25.77,0,25.29,0,25.16-26.29,0-9.57-3.54-11.45-11.62-9.38l-133.08,0c-1.65-.48-2.78-.19-2.74,1.84C49.16,160.93,49.58,167.64,50.52,174.35ZM237.94,96.22c-42.4-.2-84.79-.27-127.18-.71-7.18-.08-10.68,1.91-9.81,9.51.48,4.19.5,8.43.73,12.65-3.25,11.07.55,14.53,12.24,14.3,36.63-.73,73.28-.27,109.91-.27,26.71,0,26.3,0,25.42-27.31C249,95.16,245.1,94.24,237.94,96.22Zm-187.41-38c-3.6,11.65,1.41,14.26,12.53,14.08,36.59-.61,73.2-.23,109.8-.23,25.93,0,25.51,0,25.38-26-.05-9.09-2.84-12-11.35-9.57-41.17-.18-82.35.07-123.5-.82-11.45-.25-15.2,3.5-13.58,14.19C50.23,52.65,50.3,55.46,50.53,58.25Zm300,197.92c-3.77-31.29-21.78-52.43-49.73-64.05s-55.56-9.63-80.11,10.39c-27.64,19.79-40.56,54-32.31,85.57,11.62,44.4,52.26,70.56,96.64,62.19C328.72,342,356.08,302.73,350.5,256.17Z"/><path class="cls-2" d="M350.5,256.17c5.58,46.56-21.78,85.85-65.51,94.1-44.38,8.37-85-17.79-96.64-62.19-8.25-31.55,4.67-65.78,32.31-85.57,20.12-.54,39.93.33,59.4,6.87C307.87,218.73,330.16,235.85,350.5,256.17Z"/><path class="cls-2" d="M50.53,58.25c-.23-2.79-.3-5.6-.72-8.35-1.62-10.69,2.13-14.44,13.58-14.19,41.15.89,82.33.64,123.49.82,4.94,15.17-.48,24.35-16.41,24.12C130.49,60.07,90.41,63.78,50.53,58.25Z"/><path class="cls-2" d="M101.68,117.67c-.23-4.22-.25-8.46-.73-12.65-.87-7.6,2.63-9.59,9.81-9.51,42.39.44,84.78.51,127.17.71,5.1,16-1.08,24.33-19.43,24C179.55,119.56,140.51,123,101.68,117.67Z"/><path class="cls-2" d="M53.56,152.42l133.08,0c4.76,15.56-.2,24.49-15.78,24.28-40.12-.54-80.33,3.18-120.34-2.39-.94-6.71-1.36-13.42.3-20.09Z"/><path class="cls-2" d="M50.5,344.21c-1.52-20.46-1.52-20.46,19-20.46,32.55,0,65.11.46,97.64-.27,10.76-.23,18.22,2.38,22.39,12.48-1.64,9.65-8.43,11.08-16.72,11.05q-54.31-.22-108.64,0A31.36,31.36,0,0,1,50.5,344.21Z"/><path class="cls-2" d="M50.5,231C49,210.42,49,210.42,69.09,210.42c33.24,0,66.49.42,99.71-.21,12.72-.25,15.2,2.77,7.59,13.25-2.15,3-3.1,6.78-4.6,10.2-18.39,0-36.79.43-55.17-.1C94.57,232.94,72.36,236.22,50.5,231Z"/><path class="cls-2" d="M50.5,287.58C49,267.42,49,267.41,68.1,267.41h74.72c23,0,23,0,24.23,23q-49.35,0-98.68-.07C62.25,290.33,56.13,290.59,50.5,287.58Z"/><path class="cls-3" d="M350.5,256.17c-20.34-20.32-42.63-37.44-70.44-46.79-19.47-6.54-39.28-7.41-59.4-6.87,24.55-20,52.17-22,80.11-10.39S346.73,224.88,350.5,256.17Z"/><path class="cls-3" d="M101.68,117.67c38.83,5.35,77.87,1.89,116.82,2.56,18.35.32,24.53-8,19.43-24,7.17-2,11-1.06,11.32,8.17.88,27.33,1.29,27.31-25.42,27.31-36.63,0-73.28-.46-109.91.27C102.23,132.2,98.43,128.74,101.68,117.67Z"/><path class="cls-3" d="M50.52,174.35c40,5.57,80.22,1.85,120.34,2.39,15.58.21,20.54-8.72,15.78-24.28,8.08-2.07,11.58-.19,11.62,9.38.13,26.3.61,26.29-25.16,26.29-37.1,0-74.21-.38-111.3.23C50.38,188.55,47.52,184.47,50.52,174.35Z"/><path class="cls-3" d="M50.53,58.25c39.88,5.53,80,1.82,119.94,2.4,15.93.23,21.35-8.95,16.41-24.12,8.52-2.39,11.31.48,11.36,9.57.13,26,.55,26-25.38,26-36.6,0-73.21-.38-109.8.23C51.94,72.51,46.93,69.9,50.53,58.25Z"/><path class="cls-3" d="M50.5,344.21A31.36,31.36,0,0,0,64.15,347q54.32-.17,108.64,0c8.29,0,15.08-1.4,16.72-11.05,2.33,2.27,5.35,4.16,6.88,6.88,5.08,9,1.6,15-8.67,15.05-41.9.1-83.81-.29-125.71.26C50.79,358.3,47.43,354.58,50.5,344.21Z"/><path class="cls-3" d="M50.5,231c21.86,5.22,44.07,1.94,66.12,2.56,18.38.53,36.78.1,55.17.1-.7,9.07-5,12.44-14.61,12.25-31.55-.63-63.13-.75-94.67,0C50.24,246.22,47.6,241.54,50.5,231Z"/><path class="cls-3" d="M50.5,287.58c5.63,3,11.75,2.75,17.87,2.75q49.34,0,98.68.07c5.11,8.19,3.26,11.36-6.76,11.24-32.9-.37-65.82-.59-98.71.1C49.82,302,47.76,297.34,50.5,287.58Z"/><path class="cls-4" d="M53.56,152.42l-2.74,1.84C50.78,152.23,51.91,151.94,53.56,152.42Z"/><path class="cls-5" d="M310.69,252.69c0-14.71-8.47-25.84-20.06-28.87v-3.91a4.56,4.56,0,0,0-9.11,0V223h-3.7v-3.08a4.56,4.56,0,0,0-9.11,0V223H238.94v12.06l11.15,1.81v69.19l-11.15,1.36v12.06h38.29V307.41l-12.66-1.36V281.93h4.14v4.75a4.56,4.56,0,0,0,9.11,0v-4.75h3.7v4.75a4.56,4.56,0,0,0,9.11,0V281.2C302.22,278.51,310.69,268.42,310.69,252.69Zm-46.12,18.84V235.05h4.14v36.48Zm13.25,0V235.05h3.7v36.48Zm12.81-1.66v-32.8c4.77,3.06,7.85,9.3,7.85,16.52C298.48,261.28,295.6,267.15,290.63,269.87Z"/></svg>