<svg id="Capa_1" data-name="Capa 1" xmlns="http://www.w3.org/2000/svg" xmlns:xlink="http://www.w3.org/1999/xlink" viewBox="0 0 400 400"><defs><style>.cls-1{fill:none;}.cls-2{clip-path:url(#clip-path);}.cls-3{fill:#f1cd00;}.cls-4{fill:#252424;}</style><clipPath id="clip-path"><rect class="cls-1" x="-0.28" width="400" height="400"/></clipPath></defs><title>Polinizee Nova Marca 2021 Set Icons</title><g class="cls-2"><g class="cls-2"><path class="cls-3" d="M275.73,87s1.58,30.42-20.94,30.42-111.58-1.37-111.58-1.37-21.45,1.41-21.45-14-.17-15.2-.17-15.2l-18.6.28.07,247.89,192.15.36.16-248.79Zm-7,188.76H205.63v-16.6h63.09Zm0-89.54H205.63v-16.6h63.09Z"/><path class="cls-4" d="M338.18,63.88l-.12,293.72s.68,21-19.9,21H84.26s-24.09.2-24.09-23.76c0-18.72-.56-292.91-.56-292.91s-.22-18.55,24.6-18.55H122.5V73l-34.94.3.28,277.35,221.73-.55-.06-277.24-33.89.1,0-29.5s36.31-.06,48.21-.06c14.27,0,14.31,10.61,14.31,20.45"/><path class="cls-4" d="M136.28,38.33l.2,53.83s-.86,7.57,6.87,7.57l111.91,0s6.75-.37,6.75-6.25.21-56.63.21-56.63.14-5.69-6.76-6.15-112.55-.2-112.55-.2-7-.32-6.63,7.88"/><path class="cls-4" d="M152.76,145.47A27.26,27.26,0,0,1,180,172.73V200H152.76a27.27,27.27,0,1,1,0-54.53"/><path class="cls-4" d="M152.76,240.3A27.27,27.27,0,0,1,180,267.57v27.26H152.76a27.27,27.27,0,1,1,0-54.53"/></g></g></svg>