<svg id="Capa_1" data-name="Capa 1" xmlns="http://www.w3.org/2000/svg" xmlns:xlink="http://www.w3.org/1999/xlink" viewBox="0 0 400 400"><defs><style>.cls-1{fill:none;}.cls-2{clip-path:url(#clip-path);}.cls-3{fill:#090c0f;}.cls-4{fill:#f1cd00;}</style><clipPath id="clip-path"><rect class="cls-1" x="-2.33" y="0.13" width="400" height="400"/></clipPath></defs><title>Polinizee Nova Marca 2021 Set Icons</title><g class="cls-2"><g class="cls-2"><path class="cls-3" d="M73.13,147.5H131a6.66,6.66,0,0,0,5.77-3.32l28.92-50.1a6.66,6.66,0,0,0,0-6.66l-28.92-50.1A6.68,6.68,0,0,0,131,34H73.13a6.68,6.68,0,0,0-5.77,3.32L38.44,87.42a6.66,6.66,0,0,0,0,6.66l28.92,50.1a6.66,6.66,0,0,0,5.77,3.32"/><path class="cls-3" d="M73.13,268.82H131a6.66,6.66,0,0,0,5.77-3.32l28.92-50.1a6.66,6.66,0,0,0,0-6.66l-28.92-50.1a6.68,6.68,0,0,0-5.77-3.32H73.13a6.68,6.68,0,0,0-5.77,3.32l-28.92,50.1a6.66,6.66,0,0,0,0,6.66l28.92,50.1a6.66,6.66,0,0,0,5.77,3.32"/><path class="cls-3" d="M179.72,208.05h57.85a6.67,6.67,0,0,0,5.76-3.32l28.92-50.1a6.66,6.66,0,0,0,0-6.66l-28.92-50.1a6.65,6.65,0,0,0-5.76-3.32H179.72A6.66,6.66,0,0,0,174,97.87L145,148a6.66,6.66,0,0,0,0,6.66L174,204.73a6.68,6.68,0,0,0,5.77,3.32"/><path class="cls-4" d="M256.31,366.26h57.85a6.65,6.65,0,0,0,5.76-3.33l28.93-50.1a6.69,6.69,0,0,0,0-6.65l-28.93-50.1a6.65,6.65,0,0,0-5.76-3.33H256.31a6.66,6.66,0,0,0-5.77,3.33l-28.92,50.1a6.64,6.64,0,0,0,0,6.65l28.92,50.1a6.66,6.66,0,0,0,5.77,3.33"/></g></g></svg>