<svg id="Capa_1" data-name="Capa 1" xmlns="http://www.w3.org/2000/svg" xmlns:xlink="http://www.w3.org/1999/xlink" viewBox="0 0 400 400"><defs><style>.cls-1{fill:none;}.cls-2{clip-path:url(#clip-path);}.cls-3{fill:#f1cd00;}.cls-4{fill:#78227e;}</style><clipPath id="clip-path"><rect class="cls-1" width="400" height="400"/></clipPath></defs><title>Polinizee Nova Marca 2021 Set Icons</title><g class="cls-2"><g class="cls-2"><path class="cls-3" d="M348.53,313.59a23.18,23.18,0,0,1-13.69,21.21c-8.43,3.51-15.44.93-21.62-5.27Q260.9,277.06,208.51,224.67c-9.64-9.64-19.45-19.1-28.9-28.9-3.85-4-6.55-4.89-11.05-.5a28.77,28.77,0,0,1-22.47,8.44c-4.85-.3-9.16-1.69-11.78-5.74-2.76-4.27-5.17-5.14-10.22-3-12.06,5.18-27.4.52-26.64-15.42.18-3.81-2.11-3.71-4.86-4.07-14.42-1.86-20.41-11.65-15.25-25.6,1.86-5,2.54-8.15-2.78-11.78-6.66-4.53-6.92-12-5-19.3s6.3-13.23,11.62-18.52q16-15.91,31.9-32c5.72-5.81,12.25-9.89,20.32-11.68,7.14-1.58,13.33.25,17.6,5.69,3.17,4,5.29,4.82,10.31,2.92,15.2-5.73,23.68-.66,26.76,15.39.61,3.21,1.75,3.94,4.77,4.39,14.63,2.21,20,11.42,15,25.52-1.6,4.54-2.56,7.57,2.56,11.3,8.68,6.34,8.93,21-.58,31.29-7.29,7.92-4.13,11.62,1.79,17.48q64.13,63.58,127.81,127.61c4.65,4.65,9.49,9.21,9.1,15.33M193.64,172.29c-3.9,1.12-6.09,3.86-8,6.54-2.12,3,1,4.56,2.7,6.22q66.45,66.58,133,133.1c3.22,3.23,6.25,6.09,10.73,1.84,4.94-4.68,1.68-7.95-1.72-11.35Q263.78,242.1,197.26,175.56c-1.17-1.18-2.46-2.23-3.62-3.27m-77.53,11c5.1-1,9.2-3.95,12.86-7.6q16.23-16.2,32.43-32.43c10.18-10.24,20.48-20.37,30.37-30.88,3-3.22,6.31-8.32,2.94-12.15-3.6-4.09-8.34-.41-12.12,2a32,32,0,0,0-5.18,4.35q-28.87,28.77-57.71,57.58a34.16,34.16,0,0,0-8.46,12.56c-1.53,4.26.19,6.51,4.87,6.57M94.59,161.78c5.61-.91,9.72-4.39,13.54-8.19,17.09-17,34.24-33.88,51.07-51.1,5.09-5.21,11.15-9.76,14.11-16.81,1-2.37,1.94-5,.12-7.24-2-2.55-4.62-1.06-7-.35-3.94,1.16-7,3.56-9.87,6.39-19.66,19.59-39.38,39.12-59,58.78-3.58,3.6-6.81,7.65-7.88,12.87-.81,3.91.53,6.09,4.91,5.65M87.1,129a26.55,26.55,0,0,0,12.36-7c12-11.94,24.15-23.83,35.88-36.07,3.77-3.94,9-9.81,4.08-14.55-4.41-4.26-9.68,1.4-14,4.4a14.44,14.44,0,0,0-1.88,1.71q-17.1,17.07-34.18,34.18a23.52,23.52,0,0,0-6.5,10.76c-.84,3.36-.32,6.32,4.23,6.56m61.7,61c5.09-.35,8.85-3,12.08-6.19,11.88-11.76,23.62-23.68,35.36-35.58a21.86,21.86,0,0,0,6.08-10.1c1.3-5.48-1.12-7.69-6.41-6-4.67,1.46-8.52,4.45-12,7.89-10.65,10.59-21.35,21.13-31.89,31.83-3.56,3.62-6.89,7.47-7.64,12.92-.53,3.85,1.16,5.21,4.39,5.27"/><path class="cls-4" d="M152.78,332.15a40,40,0,0,0,0-56.63l-28.31-28.31L96.16,275.52a40,40,0,1,0,56.62,56.63"/></g></g></svg>