<svg id="Capa_1" data-name="Capa 1" xmlns="http://www.w3.org/2000/svg" viewBox="0 0 400 400"><defs><style>.cls-1{fill:#0c0c0c;}.cls-2{fill:#f1cd00;}.cls-3{fill:#a28814;}.cls-4{fill:#355830;}.cls-5{fill:#78227e;}</style></defs><title>Polinizee Nova Marca 2021 Set Icons</title><path class="cls-1" d="M208.19,338q-74.22,0-148.45,0c-17.56,0-19.76-2.32-19.87-20.11-.06-9.71-.08-19.43,0-29.14.1-8.58,3.49-14.81,13.12-13.87,8.36.81,8.42-3.53,8.37-9.81-.25-31.44-.49-62.9.11-94.33.18-9-2.9-11.37-11-10.37-4.1.5-8.32-.07-12.47.11-11.86.51-16.41-5.11-16.21-16.87.46-27.27.54-54.57,0-81.84-.27-12.94,5.56-17.12,17.58-17q52.71.45,105.44,0c11.16-.08,18.36,3.41,17,15.81-1,9.36,4.5,9.1,11,9.09q73.53-.19,147.06-.06c28.27,0,37.46,9.12,37.48,37.2,0,52.26.15,104.52-.14,156.77,0,7.41-.06,12,9.67,11.55,8-.41,10.62,5.95,10.57,13.34-.07,10.64-.57,21.31.13,31.9.89,13.58-5.49,17.86-18.2,17.78C309,337.77,258.6,338,208.19,338Zm147.05-41.21.14.15a516.28,516.28,0,0,0-116.56-.12c-20.34,5.53-40.7,4.29-61.06.11-1.52-.86-3-2.48-4.57-2.48q-54.42-.15-108.86.1c-1.06,0-2.11,1.45-3.17,2.22,2.16,6.92-7,19.06,8.63,19.75,22,1,44,1.4,65.94,2.06q105.42.24,210.83.48c3.22,0,6.56.28,8.68-3C359.27,309.61,359.14,303.18,355.24,296.75Zm-275-230.3c-9.7-.16-19.43,0-29.1-.57-7.45-.46-9.54,2.55-9.33,9.66.43,15.26,0,30.54.15,45.82.14,20.07-2.45,16.79,17.61,18s43.67-8.79,57,16.32c4.57-5.31,7.63-12.37,11.85-13.14,17.34-3.19,12.91-15.31,12.45-26.12.16-14.2.13-28.41.55-42.6.17-5.71-1.41-8.34-7.64-8.17C116,66.17,98.11,66.22,80.25,66.45Zm3,186c-.33,7.41-4.24,15.94,3.16,21.37,3,2.19,9.83,2.23,13.14.26,6-3.56,2.11-10.55,2.5-16.09.13-12.95.66-25.91.26-38.84-.35-10.84,4.45-15.06,14.9-14.75,11.1.34,22.22.37,33.32,0,10.25-.35,13.85,4.19,13.49,14.23-.52,14.32-.32,28.7.36,43,.22,4.76-4.24,13.1,6.83,12.84,10.33-.24,5.63-8.05,5.74-12.22.58-23.12.37-46.27.46-69.41.07-16.21,2-18,18.65-18.11,8.79,0,17.61.37,26.37-.1,11.64-.63,16.83,3.73,16.56,16-.53,24,0,48.12.17,72.18.05,5.55-2.2,12.19,8.15,11.83,9.77-.34,6.92-6.86,7-11.63.32-38.4.58-76.81.38-115.21-.05-10.71,4.28-15.23,14.85-14.84,9.71.36,19.46.56,29.14,0,13.38-.83,18,5.2,17.85,18.15-.35,34.69.1,69.39.24,104.09.49,6.47-3.78,14.56,2.67,19,7.87,5.41,16.58-1,16.6-11.59.09-52.58-.31-105.18.3-157.76.14-12-4.21-14.68-15.22-14.57-48,.46-96,1-143.91-.24-15.65-.4-18.17,5.51-15.68,18.23-.18,10.58-1.09,21.21-.34,31.72.89,12.71-1.72,21-16.8,19.32-2.91-.33-5.35,1-7.36,3.12-6.45,6.76-9.14,19.41-19.91,19.12-10.28-.27-14.21-12-20.65-18.94-2.85-3.07-6.32-3.63-10.07-3.1-4.4.63-4.25,4.17-4.18,7.42C82.81,195.38,80.86,223.92,83.29,252.41Zm191.34-39.3c0,17.12.36,34.25-.15,51.35-.24,7.8,2.06,10.75,10.09,10.23,6.82-.44,12.52.42,12.37-9.74-.52-33.77-.43-67.55-.06-101.32.09-8.58-2.92-11.09-11.26-11.13-8.12-.05-11.61,1.63-11.22,10.65C275.11,179.78,274.6,196.45,274.63,213.11ZM197,234.44c0,10.59.4,21.19-.12,31.75-.48,9.88,6.12,8.1,12,8.37,6,.28,10.58.16,10.39-8.32q-.74-31.74,0-63.51c.2-8.35-4.19-8.73-10.32-8.43-5.86.29-12.45-1.41-12,8.39C197.4,213.25,197.05,223.85,197,234.44ZM144.11,249.9c0-4.13-.19-8.27,0-12.39.44-7.72,1-13.92-10.66-13.74-10.57.16-12.13,4.45-11.51,13.19a181.06,181.06,0,0,1,0,24.76c-.59,8.88,1.43,13,11.83,13.21,10.7.17,10.78-5.17,10.32-12.65C143.9,258.17,144.1,254,144.11,249.9Z"/><path class="cls-2" d="M316.77,255.16c-.14-34.7-.59-69.4-.24-104.09.14-12.95-4.47-19-17.85-18.15-9.68.6-19.43.4-29.14,0-10.57-.39-14.9,4.13-14.85,14.84.2,38.4-.06,76.81-.38,115.21,0,4.77,2.81,11.29-7,11.63-10.35.36-8.1-6.28-8.15-11.83-.2-24.06-.7-48.14-.17-72.18.27-12.3-4.92-16.66-16.56-16-8.76.47-17.58.06-26.37.1-16.7.08-18.58,1.9-18.65,18.11-.09,23.14.12,46.29-.46,69.41-.11,4.17,4.59,12-5.74,12.22-11.07.26-6.61-8.08-6.83-12.84-.68-14.32-.88-28.7-.36-43,.36-10-3.24-14.58-13.49-14.23-11.1.38-22.22.35-33.32,0-10.45-.31-15.25,3.91-14.9,14.75.4,12.93-.13,25.89-.26,38.84-7.47,2.24-12.28-4.56-18.8-5.54-2.43-28.49-.48-57-1.07-85.54-.07-3.25-.22-6.79,4.18-7.42,3.75-.53,7.22,0,10.07,3.1,6.44,6.95,10.37,18.67,20.65,18.94,10.77.29,13.46-12.36,19.91-19.12,2-2.11,4.45-3.45,7.36-3.12,15.08,1.72,17.69-6.61,16.8-19.32-.75-10.51.16-21.14.34-31.72q70-.08,140-.11c14.88,0,20.39,5.25,20.44,19.6q.22,58.2,0,116.4C321.89,248.36,323.56,253.85,316.77,255.16Z"/><path class="cls-2" d="M140.91,116.44c.46,10.81,4.89,22.93-12.45,26.12-4.22.77-7.28,7.83-11.85,13.14-13.36-25.11-36.86-15.09-57-16.32s-17.47,2.05-17.61-18c-.11-15.28.28-30.56-.15-45.82-.21-7.11,1.88-10.12,9.33-9.66,9.67.6,19.4.41,29.1.57,12.67,9.89,30.14,13,39.2,28-2.71,3.75-5.09,7.77-1,11.78s8.09,2,11.81-1ZM91.38,94.13c-4.5-.13-7.14,2.74-7.42,6.5-.34,4.59,2.37,7.62,7.5,7.62,4.71,0,6.77-3.32,6.72-7S96,94.22,91.38,94.13ZM59.87,108.29c4.49.11,6.86-2.41,7.07-6.56s-1.69-7.14-6.14-7.47c-5-.37-7.91,2.63-7.93,7.23C52.86,105.43,55.51,108.11,59.87,108.29Z"/><path class="cls-3" d="M316.77,255.16c6.79-1.31,5.12-6.8,5.13-11.06q.17-58.2,0-116.4c-.05-14.35-5.56-19.58-20.44-19.6q-70-.07-140,.11c-2.49-12.72,0-18.63,15.68-18.23,47.95,1.21,95.94.7,143.91.24,11-.11,15.36,2.56,15.22,14.57-.61,52.58-.21,105.18-.3,157.76,0,10.56-8.73,17-16.6,11.59C313,269.72,317.26,261.63,316.77,255.16Z"/><path class="cls-2" d="M355.24,316c-2.12,3.26-5.46,3-8.68,3l-210.83-.47c.76-3.91,3.48-4.7,7.05-5,43.6-3.63,87.2-7.4,130.8-11.06,4.1-.34,8.59.49,9.54-5.3l72.26-.29-.15-.15Q355.25,306.4,355.24,316Z"/><path class="cls-2" d="M283.12,297.19c-.95,5.79-5.44,5-9.54,5.3-43.6,3.66-87.2,7.43-130.8,11.06-3.57.3-6.29,1.09-7.05,5-22-.67-44-1.11-65.94-2.07-15.59-.69-6.47-12.83-8.63-19.75l116.6.16c20.36,4.18,40.72,5.42,61.06-.11Z"/><path class="cls-4" d="M274.62,213.11c0-16.66.49-33.33-.22-50-.39-9,3.1-10.7,11.22-10.65,8.34,0,11.35,2.55,11.26,11.13-.37,33.77-.46,67.55.06,101.32.15,10.16-5.55,9.3-12.37,9.74-8,.52-10.33-2.43-10.09-10.23C275,247.36,274.63,230.23,274.62,213.11Z"/><path class="cls-4" d="M197,234.44c0-10.59.36-21.19-.1-31.75-.42-9.8,6.17-8.1,12-8.39,6.13-.3,10.52.08,10.32,8.43q-.75,31.74,0,63.51c.19,8.48-4.37,8.6-10.39,8.32-5.83-.27-12.43,1.51-12-8.37C197.43,255.63,197,245,197,234.44Z"/><path class="cls-3" d="M119.45,94.45c-9.06-15-26.53-18.11-39.2-28,17.86-.23,35.72-.28,53.57-.78,6.23-.17,7.81,2.46,7.64,8.17-.42,14.19-.39,28.4-.55,42.6l-10.6-11.21C131.05,97.25,127.67,93.41,119.45,94.45Z"/><path class="cls-4" d="M144.11,249.9c0,4.13-.21,8.27,0,12.38.46,7.48.38,12.82-10.32,12.65-10.4-.17-12.42-4.33-11.83-13.21A181.06,181.06,0,0,0,122,237c-.62-8.74.94-13,11.51-13.19,11.67-.18,11.1,6,10.66,13.74C143.92,241.63,144.11,245.77,144.11,249.9Z"/><path class="cls-3" d="M83.29,252.41c6.52,1,11.33,7.78,18.8,5.54-.39,5.54,3.51,12.53-2.5,16.09-3.31,2-10.14,1.93-13.14-.26C79.05,268.35,83,259.82,83.29,252.41Z"/><path class="cls-3" d="M177.76,296.89l-116.6-.16c1.06-.77,2.11-2.21,3.17-2.22q54.44-.22,108.86-.1C174.72,294.41,176.24,296,177.76,296.89Z"/><path class="cls-3" d="M283.12,297.19l-44.3-.41a516.28,516.28,0,0,1,116.56.12Z"/><path class="cls-3" d="M355.24,316q0-9.65,0-19.29C359.14,303.18,359.27,309.61,355.24,316Z"/><path class="cls-5" d="M91.38,94.13c4.65.09,6.75,3.44,6.8,7.1s-2,7-6.72,7c-5.13,0-7.84-3-7.5-7.62C84.24,96.87,86.88,94,91.38,94.13Z"/><path class="cls-5" d="M59.87,108.3c-4.36-.19-7-2.87-7-6.81,0-4.6,2.92-7.6,7.93-7.23,4.45.33,6.35,3.41,6.14,7.47S64.36,108.4,59.87,108.3Z"/><path class="cls-5" d="M119.45,94.45c8.22-1,11.6,2.8,10.86,10.78-3.72,3-7.79,4.88-11.81,1S116.74,98.2,119.45,94.45Z"/></svg>