<svg id="Capa_1" data-name="Capa 1" xmlns="http://www.w3.org/2000/svg" xmlns:xlink="http://www.w3.org/1999/xlink" viewBox="0 0 400 400"><defs><style>.cls-1{fill:none;}.cls-2{clip-path:url(#clip-path);}.cls-3{fill:#f1cd00;}.cls-4{fill:#090c0f;}</style><clipPath id="clip-path"><rect class="cls-1" x="-2.33" y="0.13" width="400" height="400"/></clipPath></defs><title>Polinizee Nova Marca 2021 Set Icons</title><g class="cls-2"><g class="cls-2"><path class="cls-3" d="M89.36,269.48A68.61,68.61,0,0,0,158,200.86V132.25H89.36a68.62,68.62,0,0,0,0,137.23"/><path class="cls-3" d="M298.85,269.48a68.62,68.62,0,0,1-68.62-68.62V132.25h68.62a68.62,68.62,0,0,1,0,137.23"/><polygon class="cls-4" points="208.31 211.5 222.95 213.5 222.95 229.35 172.19 229.35 172.19 213.5 189.04 211.5 189.04 150.11 172.19 147.9 172.19 132.25 208.31 132.25 208.31 211.5"/><path class="cls-4" d="M178,92.13c6,0,12.24,3.2,12.24,12,0,8.63-6.22,12-12.24,12-6.22,0-12.44-3.41-12.44-12,0-8.83,6.22-12,12.44-12"/><path class="cls-3" d="M208.22,92.13c6,0,12.24,3.2,12.24,12,0,8.63-6.22,12-12.24,12-6.22,0-12.44-3.41-12.44-12,0-8.83,6.22-12,12.44-12"/></g></g></svg>