<svg id="Capa_1" data-name="Capa 1" xmlns="http://www.w3.org/2000/svg" viewBox="0 0 400 400"><defs><style>.cls-1{fill:#f1cd00;}.cls-2{fill:#0c0c0c;}.cls-3{fill:#a28814;}</style></defs><title>Polinizee Nova Marca 2021 Set Icons</title><path class="cls-1" d="M270.19,92.68q-11.6,11.71-23.2,23.46c-28.06-20.22-59.1-24.23-91.93-16-60.87,15.27-96,77.79-79.66,141,14.9,57.55,78.17,93.54,136.63,79,71.74-17.88,110.82-100.42,69.23-169.71a130.51,130.51,0,0,1,22.61-22.75c16.66,22.85,24.84,48.74,26,76.69a144.5,144.5,0,0,1-159.07,150C81.64,345.58,24.89,264.68,42.06,181.06,63.72,75.58,181.17,31,270.19,92.68Z"/><path class="cls-2" d="M270.19,92.68C181.17,31,63.72,75.58,42.06,181.06,24.89,264.68,81.64,345.58,170.78,354.25A144.5,144.5,0,0,0,329.85,204.3c-1.14-28-9.32-53.84-26-76.69,17.14-20,17.82-20.33,30,2.35,52.73,98.52-1.56,225.7-118,246.52-108.19,19.33-203.61-62-200.69-169.78,1.79-65.78,32.31-116,91.1-146.67,55.93-29.16,112-25.61,166.66,4.73,16.68,9.25,16.42,9.74,2.72,23.15C273.85,89.58,272,91.09,270.19,92.68Z"/><path class="cls-2" d="M205.41,160.41c4.9,5.24,8.72,3.24,13.12-1.19q41.68-42,83.69-83.75c2.41-2.41,4.54-4.92,4.79-8.59C308.78,41,329,28.1,345,12c1,1.28,2,1.88,2,2.58,1.4,10.76-4.89,25.48,3.07,31.34C357.14,51.06,371,47,385,47c-18.19,17.86-30.3,38-55.54,40.17-5.23.45-8.7,3.39-12.18,6.88-26.81,27-53.51,54-80.75,80.57-6.19,6-6.53,10.89-1.62,17.12.67,4.25,1.56,8.47,2,12.74,2.74,29.05-16.19,53.36-44.58,57.39-27.79,4-53.86-14-59.12-40.76-5.69-29,11.19-55.62,39.53-62.66C183.85,155.63,194.58,158.35,205.41,160.41Z"/><path class="cls-2" d="M281.26,150.36c41.59,69.29,2.51,151.83-69.23,169.71-58.46,14.58-121.73-21.41-136.63-79-16.34-63.17,18.79-125.69,79.66-141,32.83-8.24,63.87-4.23,91.93,16-5.35,6.11-10.24,12.75-18.06,16.09-51-27.44-111.35-4.81-127.65,47.86-22.54,52.32,18.15,116.06,75.48,118.25,35.24,3.55,63-10,82.31-38.9,18.61-27.81,21.11-57.72,5.41-88.19C265,160.19,274.49,156.38,281.26,150.36Z"/><path class="cls-1" d="M264.48,171.25c15.7,30.47,13.2,60.38-5.41,88.19-19.32,28.87-47.07,42.45-82.31,38.9a22.47,22.47,0,0,0-3.4-2.59c-39-19.46-62.17-49.77-66.91-94-.75-7,.92-15.57-5.17-21.69,16.3-52.67,76.68-75.3,127.65-47.86-4.7,12-17.74,17.07-23.52,28.18-10.83-2.06-21.56-4.78-32.74-2-28.34,7-45.22,33.67-39.53,62.66,5.26,26.73,31.33,44.71,59.12,40.76,28.39-4,47.32-28.34,44.58-57.39-.4-4.27-1.29-8.49-2-12.74,8.13-.76,11.27-8.15,16.6-12.6C255.45,175.8,258.46,171.11,264.48,171.25Z"/><path class="cls-3" d="M101.28,180.09c6.09,6.12,4.42,14.71,5.17,21.69,4.74,44.2,27.93,74.51,66.91,94a22.47,22.47,0,0,1,3.4,2.59C119.43,296.15,78.74,232.41,101.28,180.09Z"/><path class="cls-1" d="M182.59,181.7a25.74,25.74,0,0,1,25.75,25.74v25.75H182.59a25.75,25.75,0,0,1,0-51.49Z"/></svg>