<svg id="Capa_1" data-name="Capa 1" xmlns="http://www.w3.org/2000/svg" viewBox="0 0 400 400"><defs><style>.cls-1{fill:#0c0c0c;}.cls-2{fill:#f1cd00;}</style></defs><title>Polinizee Nova Marca 2021 Set Icons</title><path class="cls-1" d="M207.66,168.43c-3.83,12.44,5.9,19.84,14.42,27,14.85,13.11,16.26,16,29.41,14.24,17.19-2.32,22.05-8.05,28.25-19.4,12.18-22.3,24.53-44.52,37.24-66.52,3.44-6,3.79-10.09-.49-16.23-10.34-14.84-8.88-31,2.43-44.2,9.81-11.42,28.05-15.52,41.2-9.26,15.39,7.34,24.5,23.87,21.6,39.19-3,15.6-16.79,28.54-33.42,29.54-6.72.4-9.8,3-12.79,8.44-15.19,27.63-30.7,55.09-46.23,82.53-3.15,5.56-4.26,10.14-1.31,16.91,7,16,2.34,31.42-10.71,41.71s-28,11-41.82,1.79c-14-9.42-20.13-24.24-14.48-40.51,2.69-7.73.77-10.88-4.61-16.43-2.1-2.17-19.18-26.42-21.89-24C189,198,177.54,202,164,202.67c-1.54.07-3.61,3.86-4.9,6.23-4.51,8.26-8.51,16.81-13.23,24.94-3.77,6.5-5.17,11.4,0,18.87,9.73,14.07,6.74,32.27-4.95,44.06-10.6,10.68-27.68,13.77-40.45,7.33-15.33-7.74-24-24.22-20.87-39.57,3.22-15.67,17.09-28.32,34.05-28.75,7.73-.2,10.83-3.52,13.6-9.38,2.42-5.1,5.07-10.11,8-15,6.61-11,11.64-20.83,2.8-34.36-7.17-11-1.35-27.67,9.14-37.12,11.12-10,24-12.94,38-7.35S208,152.48,207.66,168.43Zm45.41,59.24c-9.86,1-16.26,6.39-16.55,16s5.95,16.3,15.69,16.51,16.22-5.81,16.49-15.67S262.57,229.34,253.07,227.67Zm-140.8,27.55c-9,.38-15.14,5.73-15.39,15.47s5.47,15.88,15.54,16.26c10.27.38,16.12-5.91,16.35-15.4S123.74,255.69,112.27,255.22Zm40.67-89c1.11,8.83,5.86,15.4,15.85,15.66s15.9-5.78,16.25-15.61c.36-10-5.47-16.1-15.41-16.31S154.2,155.54,152.94,166.24Z"/><path class="cls-1" d="M333.9,357.88H320.36q-128.16,0-256.32,0c-18.9,0-20.23-1.23-20.24-19.88q-.06-124.62,0-249.24V73.14c-6.13-.68-6.87,4.81-9.95,7.12-4.6,3.46-8.77,3.27-12.85-.06s-5.21-8-1.71-12.48c9-11.51,17.85-23.19,27.6-34,4.94-5.51,11.14-4,15.88,1.64,7.31,8.65,14.5,17.4,21.83,26,4.87,5.73,9.48,12,1.89,18.22-6.74,5.52-12.18.85-16.7-4.66A30,30,0,0,0,66.59,72c-4.73,3-2.53,7.67-2.54,11.38-.15,80.72-.07,161.44-.2,242.16,0,7.66-.4,12.74,10.64,12.67,84.49-.55,169-.3,253.49-.31,1.68,0,3.37-.18,7-.38-3.63-3.26-5.5-5.12-7.55-6.75-5.2-4.15-6.87-9.52-3-14.82,4-5.51,9.79-5,15-1,10.52,8,21.08,15.93,31.32,24.26,7.06,5.73,6.47,12.16-.17,17.87-8.93,7.7-18.07,15.17-27.21,22.62-5.41,4.4-11.57,7.89-17.36,1.39-6.11-6.87-1.18-12.07,4.22-16.56,1.66-1.38,3.54-2.47,5.33-3.69Z"/><path class="cls-2" d="M253.07,227.67c9.5,1.67,15.9,7,15.63,16.87s-6.84,15.88-16.49,15.67-16-6.79-15.69-16.51S243.21,228.63,253.07,227.67Z"/><path class="cls-2" d="M112.27,255.22c11.47.47,16.73,6.92,16.5,16.33s-6.08,15.78-16.35,15.4c-10.07-.38-15.79-6.56-15.54-16.26S103.31,255.6,112.27,255.22Z"/><path class="cls-2" d="M152.94,166.24c1.26-10.7,6.85-16.46,16.69-16.26s15.77,6.3,15.41,16.31c-.35,9.83-6.27,15.88-16.25,15.61S154.05,175.07,152.94,166.24Z"/><path class="cls-2" d="M343.68,47.79a39.09,39.09,0,0,1,39.09,39.09V126H343.68a39.09,39.09,0,0,1,0-78.18Z"/></svg>