<svg id="Capa_1" data-name="Capa 1" xmlns="http://www.w3.org/2000/svg" viewBox="0 0 841.89 595.28"><defs><style>.cls-1{fill:#0c0c0c;}.cls-2{fill:#f1cd00;}</style></defs><title>Polinizee Nova Marca 2021 Set Icons</title><path class="cls-1" d="M382,284.22c0,19.48-12.35,30.72-27.87,30.72H333.57v25.35l13.3,1.42v12.67H306.64V341.71l11.72-1.42v-72.7l-11.72-1.9V253h47.52C369.68,253,382,266,382,284.22Zm-12.83.95c0-10.77-6.49-19.48-15.36-19.48H333.57V304h20.27C363.34,304,369.2,296.41,369.2,285.17Z"/><path class="cls-1" d="M465.67,315.89c0,22.81-12.36,40.08-38.49,40.08-26.29,0-38.49-17.27-38.49-40.08s12.2-39.75,38.49-39.75S465.67,292.93,465.67,315.89Zm-13.94,0c0-6.81-1.11-26.13-24.55-26.13-23.6,0-24.55,19.32-24.55,26.13S403.58,342,427.18,342C450.62,342,451.73,322.55,451.73,315.89Z"/><path class="cls-1" d="M500.36,340.29l11.72,1.58v12.51H471.85V341.87l13.3-1.58V260.93l-13.3-1.9V246.84h28.51Z"/><path class="cls-1" d="M327.43,556.56h28.3l1.33-12.51h11.32v24.72H308.82v-9.38l41.1-50.48H323l-1.33,12.5H310.31V496.7h58.07v9.38Z"/><path class="cls-1" d="M391.17,537.35c0,8.19,3.87,20.1,21.74,20.1a41.45,41.45,0,0,0,20.85-5.51l6.25,8.49c-6.7,6-19.06,9.83-28.29,9.83-20,0-34.55-14.15-34.55-38.27,0-23.53,14.44-36.78,32.91-36.78s33.36,13.85,29.93,42.14Zm.15-11.32h36.93c.15-7.44-3-18.32-18.32-18.32C395.93,507.71,391.32,518.29,391.32,526Z"/><path class="cls-1" d="M464.13,537.35c0,8.19,3.87,20.1,21.74,20.1a41.45,41.45,0,0,0,20.85-5.51l6.25,8.49c-6.7,6-19.06,9.83-28.29,9.83-19.95,0-34.54-14.15-34.54-38.27,0-23.53,14.44-36.78,32.9-36.78S516.4,509.06,513,537.35Zm.15-11.32h36.93c.15-7.44-3-18.32-18.31-18.32C468.9,507.71,464.28,518.29,464.28,526Z"/><path class="cls-2" d="M409.18,28.33A102.54,102.54,0,0,1,511.72,130.87V233.41H409.18a102.54,102.54,0,0,1,0-205.08Z"/><polygon class="cls-1" points="337.58 466.52 350.13 468.24 350.13 481.82 306.64 481.82 306.64 468.24 321.08 466.52 321.08 413.92 306.64 412.02 306.64 398.62 337.58 398.62 337.58 466.52"/><path class="cls-1" d="M329.33,364.23c5.16,0,10.49,2.75,10.49,10.32,0,7.39-5.33,10.31-10.49,10.31-5.33,0-10.66-2.92-10.66-10.31C318.67,367,324,364.23,329.33,364.23Z"/><path class="cls-1" d="M460.5,468.07v13.75H416.66V468.07l12.72-1.72V426.3c0-11.52-4.47-15.82-16.84-15.31-8.94.52-18.4,5.68-22.18,7.91v47.62l12.55,1.72v13.58H359.42V468.24l14.43-1.72v-52.6L359.42,412v-13.4h30.94v8.59c3.95-3.09,14.44-10.31,27-10.31s28.54,6.36,28.54,24.24v45.21Z"/><polygon class="cls-1" points="499.53 466.52 512.08 468.24 512.08 481.82 468.58 481.82 468.58 468.24 483.02 466.52 483.02 413.92 468.58 412.02 468.58 398.62 499.53 398.62 499.53 466.52"/><path class="cls-1" d="M473.53,364.23c5.16,0,10.49,2.75,10.49,10.32,0,7.39-5.33,10.31-10.49,10.31-5.33,0-10.66-2.92-10.66-10.31C462.87,367,468.2,364.23,473.53,364.23Z"/><path class="cls-2" d="M499.46,364.23c5.16,0,10.48,2.75,10.48,10.32,0,7.39-5.32,10.31-10.48,10.31-5.33,0-10.66-2.92-10.66-10.31C488.8,367,494.13,364.23,499.46,364.23Z"/></svg>