<svg id="Capa_1" data-name="Capa 1" xmlns="http://www.w3.org/2000/svg" viewBox="0 0 841.89 595.28"><defs><style>.cls-1{fill:#f1cd00;}.cls-2{fill:#0c0c0c;}</style></defs><title>Polinizee Nova Marca 2021 Set Icons</title><path class="cls-1" d="M305,51.93c137.34,0,248.68,111.34,248.68,248.68V549.29H305C167.7,549.29,56.36,438,56.36,300.61S167.7,51.93,305,51.93Z"/><polygon class="cls-2" points="736.15 484.58 789.22 491.85 789.22 549.29 605.26 549.29 605.26 491.85 666.34 484.58 666.34 262.07 605.26 254.07 605.26 197.36 736.15 197.36 736.15 484.58"/><path class="cls-2" d="M626.17,51.93c21.82,0,44.36,11.63,44.36,43.63,0,31.27-22.54,43.62-44.36,43.62-22.54,0-45.08-12.35-45.08-43.62C581.09,63.56,603.63,51.93,626.17,51.93Z"/><path class="cls-1" d="M735.84,51.93c21.82,0,44.36,11.63,44.36,43.63,0,31.27-22.54,43.62-44.36,43.62-22.54,0-45.08-12.35-45.08-43.62C690.76,63.56,713.3,51.93,735.84,51.93Z"/></svg>