<svg id="Capa_1" data-name="Capa 1" xmlns="http://www.w3.org/2000/svg" viewBox="0 0 841.89 595.28"><defs><style>.cls-1{fill:#080c0f;}.cls-2{fill:#0c0c0c;}.cls-3{fill:#f1cd00;}</style></defs><title>Polinizee Nova Marca 2021 Set Icons</title><path class="cls-1" d="M239.93,281.66c0,18.54-11.76,29.24-26.53,29.24H193.8V335l12.66,1.36v12.06H168.18V336.38L179.33,335V265.83L168.18,264V252H213.4C228.17,252,239.93,264.33,239.93,281.66Zm-12.21.9c0-10.25-6.18-18.54-14.62-18.54H193.8V300.5h19.3C222.14,300.5,227.72,293.27,227.72,282.56Z"/><path class="cls-1" d="M319.52,311.81c0,21.7-11.76,38.13-36.63,38.13s-36.63-16.43-36.63-38.13c0-21.86,11.61-37.84,36.63-37.84S319.52,290,319.52,311.81Zm-13.26,0c0-6.49-1.06-24.88-23.37-24.88s-23.36,18.39-23.36,24.88c0,6.33.9,24.87,23.36,24.87S306.26,318.14,306.26,311.81Z"/><path class="cls-1" d="M352.54,335l11.15,1.51v11.91H325.4V336.53L338.06,335V259.5l-12.66-1.81v-11.6h27.14Z"/><polygon class="cls-1" points="398.51 335.02 409.52 336.53 409.52 348.44 371.38 348.44 371.38 336.53 384.04 335.02 384.04 288.89 371.38 287.24 371.38 275.48 398.51 275.48 398.51 335.02"/><path class="cls-1" d="M391.28,245.33c4.52,0,9.19,2.41,9.19,9,0,6.48-4.67,9-9.19,9-4.68,0-9.35-2.56-9.35-9C381.93,247.74,386.6,245.33,391.28,245.33Z"/><path class="cls-1" d="M506.29,336.38v12.06H467.85V336.38L479,334.87V299.75c0-10.1-3.92-13.87-14.78-13.42-7.83.45-16.12,5-19.44,6.94V335l11,1.51v11.91H417.66V336.53L430.32,335V288.9l-12.66-1.66V275.48h27.13V283c3.47-2.72,12.66-9,23.67-9s25,5.58,25,21.26v39.64Z"/><polygon class="cls-1" points="540.51 335.02 551.52 336.53 551.52 348.44 513.38 348.44 513.38 336.53 526.04 335.02 526.04 288.89 513.38 287.24 513.38 275.48 540.51 275.48 540.51 335.02"/><path class="cls-2" d="M517.71,245.33c4.53,0,9.2,2.41,9.2,9,0,6.48-4.67,9-9.2,9s-9.34-2.56-9.34-9C508.37,247.74,513,245.33,517.71,245.33Z"/><path class="cls-1" d="M579.25,336.07h28.64l1.36-12.66h11.46v25h-60.3v-9.5l41.6-51.1H574.73l-1.36,12.66H561.92v-25h58.79V285Z"/><path class="cls-1" d="M643.77,316.63c0,8.29,3.92,20.35,22,20.35a41.92,41.92,0,0,0,21.1-5.58l6.33,8.59c-6.78,6-19.29,9.95-28.64,9.95-20.19,0-35-14.32-35-38.74,0-23.81,14.62-37.23,33.31-37.23s33.77,14,30.3,42.66Zm.15-11.46H681.3c.16-7.53-3-18.54-18.54-18.54C648.59,286.63,643.92,297.34,643.92,305.17Z"/><path class="cls-1" d="M717.63,316.63c0,8.29,3.92,20.35,22,20.35a41.92,41.92,0,0,0,21.1-5.58l6.33,8.59c-6.78,6-19.29,9.95-28.64,9.95-20.19,0-35-14.32-35-38.74,0-23.81,14.62-37.23,33.32-37.23,18.54,0,33.76,14,30.29,42.66Zm.15-11.46h37.38c.16-7.53-3-18.54-18.53-18.54C722.46,286.63,717.78,297.34,717.78,305.17Z"/><path class="cls-3" d="M107.9,252a49,49,0,0,1,49,49v49h-49a49,49,0,0,1,0-98Z"/><path class="cls-3" d="M540.45,245.33c4.52,0,9.2,2.41,9.2,9,0,6.48-4.68,9-9.2,9-4.67,0-9.35-2.56-9.35-9C531.1,247.74,535.78,245.33,540.45,245.33Z"/></svg>