<svg id="Capa_1" data-name="Capa 1" xmlns="http://www.w3.org/2000/svg" viewBox="0 0 841.89 595.28"><defs><style>.cls-1{fill:#f1cd00;}.cls-2{fill:#0c0c0c;}.cls-3{fill:#080c0f;}</style></defs><title>Polinizee Nova Marca 2021 v3</title><path class="cls-1" d="M219.82,349.15a85.52,85.52,0,0,1,85.52,85.52v85.52H219.82a85.52,85.52,0,0,1,0-171Z"/><polygon class="cls-2" points="368.07 497.93 386.32 500.43 386.32 520.19 323.06 520.19 323.06 500.43 344.06 497.93 344.06 421.42 323.06 418.66 323.06 399.16 368.07 399.16 368.07 497.93"/><path class="cls-2" d="M330.25,349.15c7.5,0,15.26,4,15.26,15,0,10.76-7.76,15-15.26,15-7.75,0-15.5-4.25-15.5-15C314.75,353.15,322.5,349.15,330.25,349.15Z"/><path class="cls-1" d="M368,349.15c7.5,0,15.25,4,15.25,15,0,10.76-7.75,15-15.25,15-7.76,0-15.51-4.25-15.51-15C352.46,353.15,360.21,349.15,368,349.15Z"/><path class="cls-2" d="M549.29,405.23c0,8-5.07,12.61-11.43,12.61h-8.45v10.4l5.46.58V434H518.36v-5.2l4.81-.58V398.41l-4.81-.78v-5.2h19.5C544.22,392.43,549.29,397.76,549.29,405.23Zm-5.26.39c0-4.42-2.67-8-6.3-8h-8.32v15.72h8.32C541.62,413.35,544,410.23,544,405.62Z"/><path class="cls-2" d="M583.61,418.23c0,9.36-5.07,16.44-15.79,16.44S552,427.59,552,418.23s5-16.31,15.8-16.31S583.61,408.8,583.61,418.23Zm-5.72,0c0-2.8-.46-10.72-10.07-10.72s-10.08,7.92-10.08,10.72S558.13,429,567.82,429,577.89,421,577.89,418.23Z"/><path class="cls-2" d="M597.84,428.24l4.81.65V434H586.14v-5.13l5.46-.65V395.68l-5.46-.78v-5h11.7Z"/><path class="cls-2" d="M526.89,517H538.5l.55-5.13h4.64V522H519.25v-3.85l16.87-20.71H525.06l-.55,5.13h-4.64V492.41h23.82v3.85Z"/><path class="cls-2" d="M553,509.09c0,3.36,1.59,8.24,8.92,8.24a17,17,0,0,0,8.55-2.26l2.57,3.49c-2.75,2.44-7.82,4-11.61,4-8.18,0-14.17-5.81-14.17-15.7,0-9.66,5.92-15.09,13.5-15.09s13.69,5.68,12.28,17.29Zm.06-4.65h15.15c.07-3.05-1.22-7.51-7.51-7.51C555,496.93,553.1,501.27,553.1,504.44Z"/><path class="cls-2" d="M583,509.09c0,3.36,1.59,8.24,8.92,8.24a17,17,0,0,0,8.55-2.26l2.57,3.49c-2.75,2.44-7.82,4-11.61,4-8.19,0-14.18-5.81-14.18-15.7,0-9.66,5.93-15.09,13.51-15.09s13.68,5.68,12.28,17.29Zm.06-4.65h15.15c.06-3.05-1.22-7.51-7.51-7.51C584.93,496.93,583,501.27,583,504.44Z"/><path class="cls-1" d="M560.43,300.24a42.08,42.08,0,0,1,42.07,42.07v42.07H560.43a42.07,42.07,0,1,1,0-84.14Z"/><polygon class="cls-2" points="531.06 480.03 536.2 480.73 536.2 486.31 518.36 486.31 518.36 480.73 524.28 480.03 524.28 458.44 518.36 457.67 518.36 452.17 531.06 452.17 531.06 480.03"/><path class="cls-2" d="M527.67,438.06c2.12,0,4.3,1.13,4.3,4.23a4,4,0,0,1-4.3,4.23c-2.19,0-4.37-1.19-4.37-4.23S525.48,438.06,527.67,438.06Z"/><path class="cls-2" d="M581.49,480.66v5.65h-18v-5.65l5.22-.7V463.52c0-4.72-1.83-6.49-6.91-6.27-3.67.21-7.55,2.32-9.1,3.24V480l5.15.7v5.58H540v-5.58l5.93-.7V458.45l-5.93-.78v-5.5h12.7v3.52c1.62-1.27,5.92-4.23,11.07-4.23s11.71,2.61,11.71,10V480Z"/><polygon class="cls-2" points="597.5 480.03 602.65 480.73 602.65 486.31 584.8 486.31 584.8 480.73 590.73 480.03 590.73 458.44 584.8 457.67 584.8 452.17 597.5 452.17 597.5 480.03"/><path class="cls-2" d="M586.83,438.06c2.12,0,4.31,1.13,4.31,4.23a4,4,0,0,1-4.31,4.23c-2.18,0-4.37-1.19-4.37-4.23S584.65,438.06,586.83,438.06Z"/><path class="cls-1" d="M597.47,438.06c2.12,0,4.3,1.13,4.3,4.23a4,4,0,0,1-4.3,4.23c-2.19,0-4.37-1.19-4.37-4.23S595.28,438.06,597.47,438.06Z"/><path class="cls-3" d="M254.36,124.74c0,18.54-11.75,29.24-26.52,29.24h-19.6V178.1l12.66,1.35v12.06H182.61V179.45l11.16-1.35V108.91l-11.16-1.81V95h45.23C242.61,95,254.36,107.4,254.36,124.74Zm-12.2.9c0-10.25-6.18-18.54-14.63-18.54H208.24v36.48h19.29C236.58,143.58,242.16,136.34,242.16,125.64Z"/><path class="cls-3" d="M334,154.88C334,176.59,322.2,193,297.33,193s-36.63-16.43-36.63-38.14,11.61-37.83,36.63-37.83S334,133,334,154.88Zm-13.27,0c0-6.48-1.05-24.87-23.36-24.87S274,148.4,274,154.88s.91,24.88,23.37,24.88S320.69,161.22,320.69,154.88Z"/><path class="cls-3" d="M367,178.1l11.16,1.51v11.9H339.84v-11.9l12.66-1.51V102.58l-12.66-1.81V89.16H367Z"/><polygon class="cls-3" points="412.95 178.1 423.95 179.61 423.95 191.51 385.82 191.51 385.82 179.61 398.48 178.1 398.48 131.97 385.82 130.31 385.82 118.56 412.95 118.56 412.95 178.1"/><path class="cls-3" d="M405.71,88.41c4.53,0,9.2,2.41,9.2,9s-4.67,9-9.2,9-9.34-2.56-9.34-9S401,88.41,405.71,88.41Z"/><path class="cls-3" d="M520.73,179.45v12.06H482.29V179.45l11.16-1.5V142.83c0-10.1-3.92-13.87-14.78-13.42-7.84.45-16.13,5-19.44,6.93V178.1l11,1.51v11.9H432.1v-11.9l12.66-1.51V132l-12.66-1.66V118.56h27.13v7.53c3.46-2.71,12.66-9,23.66-9s25,5.58,25,21.25V178Z"/><polygon class="cls-3" points="554.95 178.1 565.95 179.61 565.95 191.51 527.82 191.51 527.82 179.61 540.48 178.1 540.48 131.97 527.82 130.31 527.82 118.56 554.95 118.56 554.95 178.1"/><path class="cls-2" d="M532.15,88.41c4.53,0,9.2,2.41,9.2,9s-4.67,9-9.2,9-9.34-2.56-9.34-9S527.48,88.41,532.15,88.41Z"/><path class="cls-3" d="M593.69,179.15h28.64l1.36-12.66h11.45v25H574.85V182l41.6-51.1H589.17l-1.36,12.66H576.36v-25h58.78v9.49Z"/><path class="cls-3" d="M658.21,159.71c0,8.29,3.92,20.35,22,20.35a41.92,41.92,0,0,0,21.1-5.58l6.33,8.59c-6.78,6-19.29,10-28.64,10-20.2,0-35-14.32-35-38.74,0-23.81,14.62-37.23,33.31-37.23,18.54,0,33.77,14,30.3,42.66Zm.15-11.46h37.38c.15-7.53-3-18.54-18.54-18.54C663,129.71,658.36,140.41,658.36,148.25Z"/><path class="cls-3" d="M732.07,159.71c0,8.29,3.92,20.35,22,20.35a41.92,41.92,0,0,0,21.1-5.58l6.33,8.59c-6.78,6-19.29,10-28.64,10-20.2,0-35-14.32-35-38.74,0-23.81,14.62-37.23,33.31-37.23,18.54,0,33.77,14,30.3,42.66Zm.15-11.46H769.6c.15-7.53-3-18.54-18.54-18.54C736.89,129.71,732.22,140.41,732.22,148.25Z"/><path class="cls-1" d="M122.33,95a49,49,0,0,1,49,49v49h-49a49,49,0,0,1,0-98Z"/><path class="cls-1" d="M554.89,88.41c4.52,0,9.19,2.41,9.19,9s-4.67,9-9.19,9c-4.68,0-9.35-2.56-9.35-9S550.21,88.41,554.89,88.41Z"/></svg>