<svg id="Capa_1" data-name="Capa 1" xmlns="http://www.w3.org/2000/svg" viewBox="0 0 841.89 595.28"><defs><style>.cls-1{fill:#78227e;}.cls-2{fill:#355830;}.cls-3{fill:#535252;}.cls-4{fill:#080c0f;}.cls-5{fill:#f1cd00;}.cls-19,.cls-6{font-size:30.17px;font-family:GeosansLight;}.cls-22,.cls-6{fill:#fefefc;}.cls-7{letter-spacing:-0.16em;}.cls-8{letter-spacing:-0.14em;}.cls-9{letter-spacing:-0.05em;}.cls-10{letter-spacing:0em;}.cls-11{letter-spacing:-0.06em;}.cls-12{letter-spacing:-0.18em;}.cls-13{letter-spacing:-0.13em;}.cls-14{letter-spacing:-0.04em;}.cls-15{letter-spacing:-0.11em;}.cls-16{letter-spacing:-0.06em;}.cls-17{letter-spacing:-0.06em;}.cls-18{fill:#b8b8b8;}.cls-19{fill:#181115;}.cls-20{letter-spacing:-0.06em;}.cls-21{letter-spacing:-0.04em;}.cls-22{stroke:#c88b26;stroke-miterlimit:10;stroke-width:0.5px;}.cls-23{letter-spacing:-0.04em;}.cls-24{letter-spacing:-0.05em;}.cls-25{letter-spacing:0em;}</style></defs><title>Polinizee Nova Marca 2021 Set Icons</title><path class="cls-1" d="M407.31,398.17V336.08a29.24,29.24,0,0,0-14.62-25.33L338.92,279.7a29.29,29.29,0,0,0-29.26,0l-53.77,31.05a29.24,29.24,0,0,0-14.62,25.33v62.09a29.24,29.24,0,0,0,14.62,25.33l53.77,31.05a29.29,29.29,0,0,0,29.26,0l53.77-31.05A29.24,29.24,0,0,0,407.31,398.17Z"/><path class="cls-2" d="M498.49,245.78V183.69a29.25,29.25,0,0,0-14.63-25.33l-53.77-31.05a29.27,29.27,0,0,0-29.25,0l-53.77,31.05a29.25,29.25,0,0,0-14.63,25.33v62.09a29.27,29.27,0,0,0,14.63,25.34l53.77,31a29.23,29.23,0,0,0,29.25,0l53.77-31A29.27,29.27,0,0,0,498.49,245.78Z"/><path class="cls-3" d="M586.35,402.69V340.6a29.26,29.26,0,0,0-14.63-25.33l-53.77-31a29.23,29.23,0,0,0-29.25,0l-53.77,31A29.26,29.26,0,0,0,420.3,340.6v62.09A29.27,29.27,0,0,0,434.93,428l53.77,31a29.23,29.23,0,0,0,29.25,0l53.77-31A29.27,29.27,0,0,0,586.35,402.69Z"/><path class="cls-4" d="M228.28,398.17V336.08a29.25,29.25,0,0,0-14.63-25.33L159.88,279.7a29.27,29.27,0,0,0-29.25,0L76.86,310.75a29.25,29.25,0,0,0-14.63,25.33v62.09A29.25,29.25,0,0,0,76.86,423.5l53.77,31.05a29.27,29.27,0,0,0,29.25,0l53.77-31.05A29.25,29.25,0,0,0,228.28,398.17Z"/><path class="cls-5" d="M316.34,245.78V183.69a29.25,29.25,0,0,0-14.63-25.33l-53.77-31.05a29.27,29.27,0,0,0-29.25,0l-53.77,31.05a29.25,29.25,0,0,0-14.63,25.33v62.09a29.27,29.27,0,0,0,14.63,25.34l53.77,31a29.23,29.23,0,0,0,29.25,0l53.77-31A29.27,29.27,0,0,0,316.34,245.78Z"/><text class="cls-6" transform="translate(88.74 375.14)">#060B0F</text><text class="cls-6" transform="translate(171.32 220.69)">#<tspan class="cls-7" x="16.32" y="0">F</tspan><tspan class="cls-8" x="24.65" y="0">1</tspan><tspan class="cls-9" x="36.9" y="0">C</tspan><tspan class="cls-10" x="56.54" y="0">D00v</tspan></text><text class="cls-6" transform="translate(272.17 375.14)">#<tspan class="cls-11" x="16.32" y="0">7</tspan><tspan class="cls-12" x="31.02" y="0">9</tspan><tspan class="cls-13" x="42.06" y="0">1</tspan><tspan x="54.43" y="0">A7E</tspan></text><text class="cls-6" transform="translate(359.19 220.7)">#<tspan class="cls-14" x="16.32" y="0">3</tspan><tspan x="31.53" y="0">45</tspan><tspan class="cls-9" x="64.42" y="0">8</tspan><tspan class="cls-10" x="79.33" y="0">30</tspan></text><text class="cls-6" transform="translate(452.56 375.14)">#<tspan class="cls-15" x="16.32" y="0">5</tspan><tspan class="cls-16" x="29.51" y="0">2</tspan><tspan class="cls-15" x="44.11" y="0">5</tspan><tspan class="cls-17" x="57.3" y="0">2</tspan><tspan class="cls-15" x="71.9" y="0">5</tspan><tspan x="85.09" y="0">2</tspan></text><path class="cls-18" d="M683.8,251.74V189.65a29.25,29.25,0,0,0-14.63-25.33l-53.77-31a29.27,29.27,0,0,0-29.25,0l-53.77,31a29.25,29.25,0,0,0-14.63,25.33v62.09a29.25,29.25,0,0,0,14.63,25.33l53.77,31.05a29.27,29.27,0,0,0,29.25,0l53.77-31.05A29.25,29.25,0,0,0,683.8,251.74Z"/><text class="cls-19" transform="translate(538.42 220.69)">#B<tspan class="cls-20" x="33.19" y="0">8</tspan><tspan x="47.88" y="0">B</tspan><tspan class="cls-20" x="64.75" y="0">8</tspan><tspan x="79.45" y="0">B</tspan><tspan class="cls-21" x="96.31" y="0">8</tspan><tspan class="cls-10" x="111.58" y="0">v</tspan></text><path class="cls-22" d="M779.66,406.18V344.09A29.26,29.26,0,0,0,765,318.76l-53.77-31a29.23,29.23,0,0,0-29.25,0l-53.77,31a29.26,29.26,0,0,0-14.63,25.33v62.09a29.27,29.27,0,0,0,14.63,25.34l53.77,31a29.23,29.23,0,0,0,29.25,0l53.77-31A29.27,29.27,0,0,0,779.66,406.18Z"/><text class="cls-19" transform="translate(642.94 375.14)">#<tspan class="cls-23" x="16.32" y="0">F</tspan><tspan class="cls-24" x="28.3" y="0">D</tspan><tspan class="cls-23" x="47.43" y="0">F</tspan><tspan class="cls-24" x="59.41" y="0">D</tspan><tspan class="cls-23" x="78.54" y="0">F</tspan><tspan class="cls-25" x="90.52" y="0">B</tspan></text></svg>