<svg id="Capa_1" data-name="Capa 1" xmlns="http://www.w3.org/2000/svg" viewBox="0 0 841.89 595.28"><defs><style>.cls-1,.cls-5{fill:#fefefc;}.cls-1{stroke:#f1cd00;stroke-miterlimit:10;stroke-width:0.5px;}.cls-2{fill:#f1cd00;}.cls-3{fill:#080c0f;}.cls-4{fill:#355830;}.cls-6{fill:#545352;}.cls-7{fill:#78227e;}</style></defs><title>Polinizee Nova Marca 2021 v3</title><rect class="cls-1" x="114.2" y="21.59" width="648.99" height="108.76"/><rect class="cls-2" x="114.2" y="130.35" width="648.99" height="108.76"/><rect class="cls-3" x="114.2" y="456.62" width="648.99" height="108.76"/><rect class="cls-4" x="114.2" y="347.86" width="648.99" height="108.76"/><path class="cls-3" d="M256.23,62.62c0,11.89-7.54,18.76-17,18.76H226.64V96.85l8.12.87v7.74H210.2V97.72l7.16-.87V52.46L210.2,51.3V43.57h29C248.69,43.57,256.23,51.5,256.23,62.62Zm-7.83.58c0-6.58-4-11.9-9.38-11.9H226.64V74.7H239C244.82,74.7,248.4,70.06,248.4,63.2Z"/><path class="cls-3" d="M307.3,82c0,13.92-7.55,24.46-23.5,24.46S260.3,95.88,260.3,82s7.44-24.28,23.5-24.28S307.3,67.94,307.3,82Zm-8.51,0c0-4.16-.68-16-15-16s-15,11.8-15,16,.58,16,15,16S298.79,86,298.79,82Z"/><path class="cls-3" d="M328.48,96.85l7.15,1v7.64H311.07V97.82l8.12-1V48.4l-8.12-1.16V39.79h17.41Z"/><polygon class="cls-3" points="357.98 96.85 365.03 97.82 365.03 105.46 340.57 105.46 340.57 97.82 348.69 96.85 348.69 67.26 340.57 66.19 340.57 58.65 357.98 58.65 357.98 96.85"/><path class="cls-3" d="M353.33,39.31c2.9,0,5.9,1.55,5.9,5.8s-3,5.81-5.9,5.81-6-1.65-6-5.81S350.33,39.31,353.33,39.31Z"/><path class="cls-3" d="M427.12,97.72v7.74H402.46V97.72l7.16-1V74.22c0-6.48-2.52-8.9-9.48-8.61-5,.29-10.35,3.2-12.48,4.45V96.85l7.06,1v7.64H370.26V97.82l8.12-1V67.26l-8.12-1.07V58.65h17.4v4.84c2.23-1.74,8.13-5.81,15.19-5.81s16,3.58,16,13.64V96.75Z"/><polygon class="cls-3" points="449.07 96.85 456.13 97.82 456.13 105.46 431.67 105.46 431.67 97.82 439.79 96.85 439.79 67.26 431.67 66.19 431.67 58.65 449.07 58.65 449.07 96.85"/><path class="cls-3" d="M434.45,39.31c2.9,0,5.9,1.55,5.9,5.8s-3,5.81-5.9,5.81-6-1.65-6-5.81S431.45,39.31,434.45,39.31Z"/><path class="cls-3" d="M473.93,97.53H492.3l.87-8.13h7.35v16.06H461.84v-6.1l26.69-32.78H471l-.87,8.12h-7.35V58.65h37.71v6.09Z"/><path class="cls-3" d="M515.32,85.05c0,5.32,2.52,13.06,14.12,13.06A26.89,26.89,0,0,0,543,94.53L547,100c-4.35,3.87-12.38,6.38-18.37,6.38-13,0-22.44-9.18-22.44-24.85,0-15.28,9.38-23.89,21.37-23.89s21.67,9,19.44,27.37Zm.1-7.35h24c.1-4.83-1.93-11.89-11.89-11.89C518.42,65.81,515.42,72.67,515.42,77.7Z"/><path class="cls-3" d="M562.71,85.05c0,5.32,2.51,13.06,14.12,13.06a26.88,26.88,0,0,0,13.53-3.58l4.07,5.51c-4.35,3.87-12.38,6.38-18.38,6.38-13,0-22.43-9.18-22.43-24.85,0-15.28,9.38-23.89,21.37-23.89s21.66,9,19.44,27.37Zm.09-7.35h24c.09-4.83-1.94-11.89-11.9-11.89C565.8,65.81,562.8,72.67,562.8,77.7Z"/><path class="cls-2" d="M171.53,43.57A31.43,31.43,0,0,1,203,75v31.43H171.53a31.43,31.43,0,1,1,0-62.85Z"/><path class="cls-2" d="M449,39.31c2.91,0,5.9,1.55,5.9,5.8s-3,5.81-5.9,5.81-6-1.65-6-5.81S446,39.31,449,39.31Z"/><path class="cls-3" d="M256.68,171.65c0,11.89-7.54,18.76-17,18.76H227.09v15.47l8.12.87v7.74H210.65v-7.74l7.16-.87V161.49l-7.16-1.16v-7.74h29C249.14,152.59,256.68,160.53,256.68,171.65Zm-7.83.58c0-6.58-4-11.9-9.38-11.9H227.09v23.4h12.38C245.27,183.73,248.85,179.09,248.85,172.23Z"/><path class="cls-3" d="M307.75,191c0,13.92-7.55,24.46-23.5,24.46s-23.5-10.54-23.5-24.46,7.44-24.28,23.5-24.28S307.75,177,307.75,191Zm-8.52,0c0-4.16-.67-16-15-16s-15,11.8-15,16,.58,15.95,15,15.95S299.23,195.05,299.23,191Z"/><path class="cls-3" d="M328.93,205.88l7.15,1v7.64H311.52v-7.64l8.12-1V157.43l-8.12-1.16v-7.45h17.41Z"/><polygon class="cls-3" points="358.42 205.88 365.48 206.85 365.48 214.49 341.02 214.49 341.02 206.85 349.14 205.88 349.14 176.29 341.02 175.22 341.02 167.68 358.42 167.68 358.42 205.88"/><path class="cls-3" d="M353.78,148.34c2.9,0,5.9,1.55,5.9,5.8s-3,5.8-5.9,5.8-6-1.64-6-5.8S350.78,148.34,353.78,148.34Z"/><path class="cls-3" d="M427.57,206.75v7.74H402.91v-7.74l7.16-1V183.25c0-6.48-2.52-8.9-9.48-8.61-5,.29-10.35,3.19-12.48,4.45v26.79l7.06,1v7.64H370.71v-7.64l8.12-1V176.29l-8.12-1.07v-7.54h17.4v4.84c2.23-1.74,8.13-5.81,15.19-5.81s16.05,3.58,16.05,13.64v25.43Z"/><polygon class="cls-3" points="449.52 205.88 456.58 206.85 456.58 214.49 432.12 214.49 432.12 206.85 440.24 205.88 440.24 176.29 432.12 175.22 432.12 167.68 449.52 167.68 449.52 205.88"/><path class="cls-3" d="M434.9,148.34c2.9,0,5.9,1.55,5.9,5.8s-3,5.8-5.9,5.8-6-1.64-6-5.8S431.9,148.34,434.9,148.34Z"/><path class="cls-3" d="M474.38,206.56h18.37l.87-8.13H501v16.06H462.29v-6.1L489,175.61h-17.5l-.87,8.12h-7.35v-16H501v6.09Z"/><path class="cls-3" d="M515.77,194.08c0,5.32,2.51,13.06,14.12,13.06a26.89,26.89,0,0,0,13.54-3.58l4.06,5.51c-4.35,3.87-12.38,6.38-18.38,6.38-13,0-22.43-9.18-22.43-24.85,0-15.28,9.38-23.89,21.37-23.89s21.66,9,19.44,27.37Zm.1-7.35h24c.1-4.83-1.93-11.89-11.89-11.89C518.86,174.84,515.87,181.7,515.87,186.73Z"/><path class="cls-3" d="M563.16,194.08c0,5.32,2.51,13.06,14.11,13.06a26.89,26.89,0,0,0,13.54-3.58l4.06,5.51c-4.35,3.87-12.37,6.38-18.37,6.38-13,0-22.43-9.18-22.43-24.85,0-15.28,9.38-23.89,21.37-23.89s21.66,9,19.43,27.37Zm.09-7.35h24c.09-4.83-1.94-11.89-11.9-11.89C566.25,174.84,563.25,181.7,563.25,186.73Z"/><path class="cls-4" d="M172,152.59A31.44,31.44,0,0,1,203.41,184v31.43H172a31.43,31.43,0,1,1,0-62.86Z"/><path class="cls-4" d="M449.48,148.34c2.91,0,5.9,1.55,5.9,5.8s-3,5.8-5.9,5.8-6-1.64-6-5.8S446.49,148.34,449.48,148.34Z"/><path class="cls-3" d="M256.68,392c0,11.89-7.54,18.76-17,18.76H227.09v15.47l8.12.87v7.74H210.65v-7.74l7.16-.87V381.84l-7.16-1.16v-7.74h29C249.14,372.94,256.68,380.87,256.68,392Zm-7.83.58c0-6.58-4-11.89-9.38-11.89H227.09v23.4h12.38C245.27,404.08,248.85,399.44,248.85,392.57Z"/><path class="cls-3" d="M307.75,411.33c0,13.93-7.55,24.47-23.5,24.47s-23.5-10.54-23.5-24.47,7.44-24.27,23.5-24.27S307.75,397.31,307.75,411.33Zm-8.52,0c0-4.16-.67-16-15-16s-15,11.8-15,16,.58,16,15,16S299.23,415.39,299.23,411.33Z"/><path class="cls-3" d="M328.93,426.22l7.15,1v7.64H311.52v-7.64l8.12-1V377.77l-8.12-1.16v-7.44h17.41Z"/><polygon class="cls-3" points="358.42 426.22 365.48 427.19 365.48 434.83 341.02 434.83 341.02 427.19 349.14 426.22 349.14 396.63 341.02 395.57 341.02 388.02 358.42 388.02 358.42 426.22"/><path class="cls-3" d="M353.78,368.68c2.9,0,5.9,1.55,5.9,5.81s-3,5.8-5.9,5.8-6-1.65-6-5.8S350.78,368.68,353.78,368.68Z"/><path class="cls-3" d="M427.57,427.09v7.74H402.91v-7.74l7.16-1V403.6c0-6.48-2.52-8.9-9.48-8.61-5,.29-10.35,3.19-12.48,4.45v26.78l7.06,1v7.64H370.71v-7.64l8.12-1V396.63l-8.12-1.06V388h17.4v4.83c2.23-1.74,8.13-5.8,15.19-5.8s16.05,3.58,16.05,13.63v25.44Z"/><polygon class="cls-3" points="449.52 426.22 456.58 427.19 456.58 434.83 432.12 434.83 432.12 427.19 440.24 426.22 440.24 396.63 432.12 395.57 432.12 388.02 449.52 388.02 449.52 426.22"/><path class="cls-3" d="M434.9,368.68c2.9,0,5.9,1.55,5.9,5.81s-3,5.8-5.9,5.8-6-1.65-6-5.8S431.9,368.68,434.9,368.68Z"/><path class="cls-3" d="M474.38,426.9h18.37l.87-8.12H501v16.05H462.29v-6.09L489,396h-17.5l-.87,8.13h-7.35V388H501v6.09Z"/><path class="cls-3" d="M515.77,414.43c0,5.31,2.51,13.05,14.12,13.05a26.89,26.89,0,0,0,13.54-3.58l4.06,5.52c-4.35,3.86-12.38,6.38-18.38,6.38-13,0-22.43-9.19-22.43-24.86,0-15.28,9.38-23.88,21.37-23.88s21.66,9,19.44,27.37Zm.1-7.35h24c.1-4.84-1.93-11.9-11.89-11.9C518.86,395.18,515.87,402.05,515.87,407.08Z"/><path class="cls-3" d="M563.16,414.43c0,5.31,2.51,13.05,14.11,13.05a26.89,26.89,0,0,0,13.54-3.58l4.06,5.52c-4.35,3.86-12.37,6.38-18.37,6.38-13,0-22.43-9.19-22.43-24.86,0-15.28,9.38-23.88,21.37-23.88s21.66,9,19.43,27.37Zm.09-7.35h24c.09-4.84-1.94-11.9-11.9-11.9C566.25,395.18,563.25,402.05,563.25,407.08Z"/><path class="cls-2" d="M172,372.94a31.43,31.43,0,0,1,31.43,31.43V435.8H172a31.43,31.43,0,1,1,0-62.86Z"/><path class="cls-2" d="M449.48,368.68c2.91,0,5.9,1.55,5.9,5.81s-3,5.8-5.9,5.8-6-1.65-6-5.8S446.49,368.68,449.48,368.68Z"/><path class="cls-5" d="M257.13,498c0,11.9-7.54,18.77-17,18.77H227.54v15.47l8.12.87v7.74H211.1V533.1l7.15-.87V487.84l-7.15-1.16v-7.74h29C249.59,478.94,257.13,486.87,257.13,498Zm-7.83.58c0-6.57-4-11.89-9.38-11.89H227.54v23.4h12.38C245.72,510.08,249.3,505.44,249.3,498.57Z"/><path class="cls-5" d="M308.19,517.34c0,13.92-7.54,24.46-23.5,24.46s-23.49-10.54-23.49-24.46,7.44-24.28,23.49-24.28S308.19,503.31,308.19,517.34Zm-8.51,0c0-4.16-.67-16-15-16s-15,11.8-15,16,.58,15.95,15,15.95S299.68,521.4,299.68,517.34Z"/><path class="cls-5" d="M329.38,532.23l7.15,1v7.64H312V533.2l8.12-1V483.78L312,482.62v-7.45h17.41Z"/><polygon class="cls-5" points="358.87 532.23 365.93 533.2 365.93 540.84 341.46 540.84 341.46 533.2 349.59 532.23 349.59 502.64 341.46 501.57 341.46 494.03 358.87 494.03 358.87 532.23"/><path class="cls-5" d="M354.23,474.69c2.9,0,5.9,1.55,5.9,5.8s-3,5.8-5.9,5.8-6-1.64-6-5.8S351.23,474.69,354.23,474.69Z"/><path class="cls-5" d="M428,533.1v7.74H403.36V533.1l7.15-1V509.6c0-6.48-2.51-8.9-9.47-8.61-5,.29-10.35,3.19-12.48,4.45v26.79l7.06,1v7.64H371.15V533.2l8.13-1V502.64l-8.13-1.07V494h17.41v4.84c2.23-1.75,8.12-5.81,15.18-5.81s16.06,3.58,16.06,13.64v25.43Z"/><polygon class="cls-5" points="449.97 532.23 457.03 533.2 457.03 540.84 432.57 540.84 432.57 533.2 440.69 532.23 440.69 502.64 432.57 501.57 432.57 494.03 449.97 494.03 449.97 532.23"/><path class="cls-6" d="M435.35,474.69c2.9,0,5.9,1.55,5.9,5.8s-3,5.8-5.9,5.8-6-1.64-6-5.8S432.35,474.69,435.35,474.69Z"/><path class="cls-5" d="M474.83,532.91H493.2l.87-8.13h7.35v16.06H462.74v-6.1L489.43,502h-17.5l-.87,8.12h-7.35V494h37.71v6.09Z"/><path class="cls-5" d="M516.22,520.43c0,5.32,2.51,13.06,14.12,13.06a26.94,26.94,0,0,0,13.54-3.58l4.06,5.51c-4.35,3.87-12.38,6.38-18.38,6.38-12.95,0-22.43-9.18-22.43-24.85,0-15.28,9.38-23.89,21.37-23.89s21.66,9,19.44,27.37Zm.1-7.35h24c.1-4.83-1.94-11.89-11.9-11.89C519.31,501.19,516.32,508.05,516.32,513.08Z"/><path class="cls-5" d="M563.6,520.43c0,5.32,2.52,13.06,14.12,13.06a26.89,26.89,0,0,0,13.54-3.58l4.06,5.51C591,539.29,583,541.8,577,541.8c-13,0-22.44-9.18-22.44-24.85,0-15.28,9.38-23.89,21.38-23.89s21.66,9,19.43,27.37Zm.1-7.35h24c.1-4.83-1.93-11.89-11.89-11.89C566.7,501.19,563.7,508.05,563.7,513.08Z"/><path class="cls-6" d="M172.43,478.94a31.43,31.43,0,0,1,31.42,31.43V541.8H172.43a31.43,31.43,0,0,1,0-62.86Z"/><path class="cls-5" d="M449.93,474.69c2.9,0,5.9,1.55,5.9,5.8s-3,5.8-5.9,5.8-6-1.64-6-5.8S446.93,474.69,449.93,474.69Z"/><rect class="cls-2" x="114.2" y="239.11" width="648.99" height="108.76"/><path class="cls-3" d="M256.68,280.4c0,11.9-7.54,18.76-17,18.76H227.09v15.48l8.12.87v7.73H210.65v-7.73l7.16-.87V270.25l-7.16-1.16v-7.74h29C249.14,261.35,256.68,269.28,256.68,280.4Zm-7.83.58c0-6.57-4-11.89-9.38-11.89H227.09v23.4h12.38C245.27,292.49,248.85,287.85,248.85,281Z"/><path class="cls-3" d="M307.75,299.74c0,13.93-7.55,24.47-23.5,24.47s-23.5-10.54-23.5-24.47,7.44-24.27,23.5-24.27S307.75,285.72,307.75,299.74Zm-8.52,0c0-4.16-.67-15.95-15-15.95s-15,11.79-15,15.95.58,16,15,16S299.23,303.81,299.23,299.74Z"/><path class="cls-3" d="M328.93,314.64l7.15,1v7.64H311.52V315.6l8.12-1V266.19L311.52,265v-7.45h17.41Z"/><polygon class="cls-3" points="358.42 314.64 365.48 315.6 365.48 323.24 341.02 323.24 341.02 315.6 349.14 314.64 349.14 285.05 341.02 283.98 341.02 276.44 358.42 276.44 358.42 314.64"/><path class="cls-3" d="M353.78,257.1c2.9,0,5.9,1.54,5.9,5.8s-3,5.8-5.9,5.8-6-1.64-6-5.8S350.78,257.1,353.78,257.1Z"/><path class="cls-3" d="M427.57,315.51v7.73H402.91v-7.73l7.16-1V292c0-6.48-2.52-8.9-9.48-8.61-5,.29-10.35,3.19-12.48,4.45v26.79l7.06,1v7.64H370.71V315.6l8.12-1V285L370.71,284v-7.54h17.4v4.83c2.23-1.74,8.13-5.8,15.19-5.8s16.05,3.58,16.05,13.64v25.43Z"/><polygon class="cls-3" points="449.52 314.64 456.58 315.6 456.58 323.24 432.12 323.24 432.12 315.6 440.24 314.64 440.24 285.05 432.12 283.98 432.12 276.44 449.52 276.44 449.52 314.64"/><path class="cls-3" d="M434.9,257.1c2.9,0,5.9,1.54,5.9,5.8s-3,5.8-5.9,5.8-6-1.64-6-5.8S431.9,257.1,434.9,257.1Z"/><path class="cls-3" d="M474.38,315.31h18.37l.87-8.12H501v16.05H462.29v-6.09L489,284.37h-17.5l-.87,8.12h-7.35V276.44H501v6.09Z"/><path class="cls-3" d="M515.77,302.84c0,5.32,2.51,13.05,14.12,13.05a27,27,0,0,0,13.54-3.57l4.06,5.51c-4.35,3.87-12.38,6.38-18.38,6.38-13,0-22.43-9.19-22.43-24.85,0-15.28,9.38-23.89,21.37-23.89s21.66,9,19.44,27.37Zm.1-7.35h24c.1-4.84-1.93-11.9-11.89-11.9C518.86,283.59,515.87,290.46,515.87,295.49Z"/><path class="cls-3" d="M563.16,302.84c0,5.32,2.51,13.05,14.11,13.05a27,27,0,0,0,13.54-3.57l4.06,5.51c-4.35,3.87-12.37,6.38-18.37,6.38-13,0-22.43-9.19-22.43-24.85,0-15.28,9.38-23.89,21.37-23.89s21.66,9,19.43,27.37Zm.09-7.35h24c.09-4.84-1.94-11.9-11.9-11.9C566.25,283.59,563.25,290.46,563.25,295.49Z"/><path class="cls-7" d="M172,261.35a31.43,31.43,0,0,1,31.43,31.43v31.43H172a31.43,31.43,0,0,1,0-62.86Z"/><path class="cls-7" d="M449.48,257.1c2.91,0,5.9,1.54,5.9,5.8s-3,5.8-5.9,5.8-6-1.64-6-5.8S446.49,257.1,449.48,257.1Z"/></svg>