<svg id="Capa_1" data-name="Capa 1" xmlns="http://www.w3.org/2000/svg" xmlns:xlink="http://www.w3.org/1999/xlink" viewBox="0 0 400 400"><defs><style>.cls-1{fill:none;}.cls-2,.cls-6{fill:#fefefc;}.cls-2{stroke:#c88b26;stroke-miterlimit:10;stroke-width:0.5px;}.cls-3{clip-path:url(#clip-path);}.cls-4{fill:#f1cd00;}.cls-5{fill:#090c0f;}</style><clipPath id="clip-path"><rect class="cls-1" x="60.03" y="60.03" width="279.94" height="279.94"/></clipPath></defs><title>Polinizee Nova Marca 2021 Set Icons</title><circle class="cls-2" cx="200" cy="200" r="187.76"/><g class="cls-3"><g class="cls-3"><path class="cls-4" d="M190,78.94A116.52,116.52,0,0,1,306.47,195.46V312H190a116.52,116.52,0,1,1,0-233"/><polygon class="cls-5" points="209.65 266.53 230.16 269.34 230.16 291.53 159.08 291.53 159.08 269.34 182.68 266.53 182.68 180.57 159.08 177.47 159.08 155.56 209.65 155.56 209.65 266.53"/><path class="cls-5" d="M167.16,99.38c8.43,0,17.14,4.49,17.14,16.85,0,12.08-8.71,16.86-17.14,16.86-8.71,0-17.42-4.78-17.42-16.86,0-12.36,8.71-16.85,17.42-16.85"/><path class="cls-6" d="M209.53,99.38c8.43,0,17.14,4.49,17.14,16.85,0,12.08-8.71,16.86-17.14,16.86-8.71,0-17.41-4.78-17.41-16.86,0-12.36,8.7-16.85,17.41-16.85"/></g></g></svg>