<svg width="261" height="260" viewBox="0 0 261 260" fill="none" xmlns="http://www.w3.org/2000/svg">
<path d="M241.881 194.448L261 197.07V217.752H194.769V197.07L216.753 194.448V114.341L194.769 111.476V91.0544H241.881V194.448Z" fill="#080C0F"/>
<path d="M202.288 38.6982C210.154 38.6982 218.264 42.8833 218.264 54.3271C218.264 65.5799 210.154 69.9559 202.288 69.9559C194.421 69.9559 186.068 65.5104 186.068 54.3271C186.068 42.8833 194.109 38.6982 202.288 38.6982Z" fill="#0C0C0C"/>
<path d="M241.777 38.6982C249.626 38.6982 257.753 42.8833 257.753 54.3271C257.753 65.5799 249.626 69.9559 241.777 69.9559C233.667 69.9559 225.54 65.5104 225.54 54.3271C225.54 42.8833 233.667 38.6982 241.777 38.6982Z" fill="#F1CD00"/>
<path d="M85.3731 50.2808C107.94 50.2808 129.584 59.2456 145.541 75.2032C161.499 91.1607 170.463 112.804 170.463 135.371V220.462H85.3731C62.8057 220.462 41.1627 211.497 25.2051 195.539C9.24757 179.582 0.282715 157.939 0.282715 135.371C0.282715 112.804 9.24757 91.1607 25.2051 75.2032C41.1627 59.2456 62.8057 50.2808 85.3731 50.2808V50.2808Z" fill="#F1CD00"/>
</svg>
