<svg xmlns="http://www.w3.org/2000/svg" width="528.379" height="602.064" viewBox="0 0 528.379 602.064">
  <g id="Componente_6_2" data-name="Componente 6 – 2" transform="translate(0)">
    <path id="Caminho_124" data-name="Caminho 124" d="M1493.905,2561.458l-238.162-137.5a26.028,26.028,0,0,0-26.027,0l-238.162,137.5A26.031,26.031,0,0,0,978.54,2584V2859a26.028,26.028,0,0,0,13.014,22.54l238.162,137.5a26.029,26.029,0,0,0,26.027,0l238.162-137.5a26.03,26.03,0,0,0,13.014-22.54V2584A26.033,26.033,0,0,0,1493.905,2561.458Zm-64.085,279.689-177.379,102.41a19.426,19.426,0,0,1-19.423,0l-177.379-102.41a19.422,19.422,0,0,1-9.711-16.82v-204.84a19.391,19.391,0,0,1,9.694-16.792l177.413-102.429a19.391,19.391,0,0,1,19.389,0L1429.837,2602.7a19.393,19.393,0,0,1,9.694,16.792v204.839A19.422,19.422,0,0,1,1429.82,2841.147Z" transform="translate(-978.54 -2420.469)" fill="#355830"/>
  </g>
</svg>
