<svg id="Componente_8_2" data-name="Componente 8 – 2" xmlns="http://www.w3.org/2000/svg" width="459.509" height="523.591" viewBox="0 0 459.509 523.591">
  <path id="Caminho_125" data-name="Caminho 125" d="M1426.08,3668.663l-207.119-119.58a22.637,22.637,0,0,0-22.635,0l-207.119,119.58a22.637,22.637,0,0,0-11.318,19.6v239.161a22.637,22.637,0,0,0,11.318,19.6l207.119,119.58a22.636,22.636,0,0,0,22.635,0l207.119-119.58a22.637,22.637,0,0,0,11.318-19.6V3688.265A22.637,22.637,0,0,0,1426.08,3668.663ZM1370.348,3911.9l-154.259,89.061a16.892,16.892,0,0,1-16.891,0L1044.939,3911.9a16.891,16.891,0,0,1-8.446-14.628v-178.14a16.864,16.864,0,0,1,8.431-14.6l154.289-89.078a16.861,16.861,0,0,1,16.861,0l154.289,89.078a16.864,16.864,0,0,1,8.431,14.6v178.14A16.894,16.894,0,0,1,1370.348,3911.9Z" transform="translate(-977.889 -3546.051)" fill="#00677f"/>
</svg>
