<svg id="Componente_4_2" data-name="Componente 4 – 2" xmlns="http://www.w3.org/2000/svg" width="771.397" height="602.066" viewBox="0 0 771.397 602.066">
  <path id="Caminho_95" data-name="Caminho 95" d="M1208.365,1511.747,970.2,1374.245a26.03,26.03,0,0,0-26.028,0l-238.161,137.5A26.031,26.031,0,0,0,693,1534.288v275.006a26.029,26.029,0,0,0,13.014,22.541l238.161,137.5a26.031,26.031,0,0,0,26.028,0l238.162-137.5a26.03,26.03,0,0,0,13.013-22.541V1534.288A26.033,26.033,0,0,0,1208.365,1511.747Zm-64.085,279.689L966.9,1893.846a19.424,19.424,0,0,1-19.422,0L770.1,1791.436a19.421,19.421,0,0,1-9.712-16.82v-204.84a19.391,19.391,0,0,1,9.695-16.791l177.413-102.429a19.39,19.39,0,0,1,19.388,0L1144.3,1552.985a19.392,19.392,0,0,1,9.694,16.791v204.84A19.422,19.422,0,0,1,1144.28,1791.436Z" transform="translate(-693 -1370.758)" fill="#aa0061"/>
<path id="Caminho_96" data-name="Caminho 96" d="M1460.518,1622.557l-70.987-40.984a7.757,7.757,0,0,0-7.758,0l-70.986,40.984a7.759,7.759,0,0,0-3.879,6.718v81.969a7.758,7.758,0,0,0,3.879,6.718l70.986,40.984a7.757,7.757,0,0,0,7.758,0l70.987-40.984a7.758,7.758,0,0,0,3.879-6.718v-81.969A7.759,7.759,0,0,0,1460.518,1622.557Zm-16.25,78.427a5.793,5.793,0,0,1-2.9,5.017l-53,30.6a5.792,5.792,0,0,1-5.793,0l-53-30.6a5.792,5.792,0,0,1-2.9-5.017v-61.2a5.793,5.793,0,0,1,2.9-5.017l53-30.6a5.8,5.8,0,0,1,5.793,0l53,30.6a5.8,5.8,0,0,1,2.9,5.017Z" transform="translate(-693 -1370.758)" fill="#aa0061"/>

</svg>
