<svg xmlns="http://www.w3.org/2000/svg" width="868.443" height="647.695" viewBox="0 0 868.443 647.695">
  <g id="Componente_2_2" data-name="Componente 2 – 2" transform="translate(0)">
    <path id="Caminho_101" data-name="Caminho 101" d="M818.225,752.16l-66.392-38.331a7.257,7.257,0,0,0-7.256,0L678.185,752.16a7.256,7.256,0,0,0-3.628,6.284v76.663a7.256,7.256,0,0,0,3.628,6.284l66.392,38.331a7.257,7.257,0,0,0,7.256,0l66.392-38.331a7.257,7.257,0,0,0,3.628-6.284V758.444A7.257,7.257,0,0,0,818.225,752.16Zm-15.2,73.352a5.417,5.417,0,0,1-2.709,4.691l-49.572,28.621a5.417,5.417,0,0,1-5.418,0L695.756,830.2a5.417,5.417,0,0,1-2.709-4.691V768.27a5.418,5.418,0,0,1,2.709-4.691l49.572-28.621a5.417,5.417,0,0,1,5.418,0l49.572,28.621a5.418,5.418,0,0,1,2.709,4.691Z" transform="translate(-674.557 -232.999)" fill="#db8a06"/>
    <path id="Caminho_102" data-name="Caminho 102" d="M1530.829,364.863l-222.748-128.6a24.345,24.345,0,0,0-24.343,0l-222.747,128.6a24.345,24.345,0,0,0-12.171,21.081V643.151a24.345,24.345,0,0,0,12.171,21.082l222.747,128.6a24.345,24.345,0,0,0,24.343,0l222.748-128.6A24.345,24.345,0,0,0,1543,643.151V385.944A24.345,24.345,0,0,0,1530.829,364.863Zm-59.938,261.586-165.9,95.781a18.166,18.166,0,0,1-18.166,0l-165.9-95.781a18.166,18.166,0,0,1-9.082-15.731V419.135a18.135,18.135,0,0,1,9.066-15.7l165.931-95.8a18.14,18.14,0,0,1,18.134,0l165.93,95.8a18.134,18.134,0,0,1,9.067,15.7V610.717A18.165,18.165,0,0,1,1470.891,626.449Z" transform="translate(-674.557 -232.999)" fill="#db8a06"/>
  </g>
</svg>
