<?xml version="1.0" encoding="UTF-8"?>
<svg width="312px" height="141px" viewBox="0 0 312 141" version="1.1" xmlns="http://www.w3.org/2000/svg" xmlns:xlink="http://www.w3.org/1999/xlink">
    <title>logo</title>
    <defs>
        <polygon id="path-1" points="0 0 31.2126643 0 31.2126643 58.8037515 0 58.8037515"></polygon>
        <path d="M13.7740203,17.941084 C11.8682994,17.941084 11.0351598,16.4704318 11.0351598,14.7646886 L11.0351598,14.7646886 C11.0351598,9.35323149 17.0486809,7.05903349 17.0486809,3.88263807 L17.0486809,3.88263807 C17.0486809,1.88218273 15.4412808,0.764894242 13.4761901,0.764894242 L13.4761901,0.764894242 C9.7844691,0.764894242 5.19974807,4.23551704 5.19974807,6.41192714 L5.19974807,6.41192714 C5.19974807,7.47056404 5.79540853,8.35276146 5.79540853,9.05851939 L5.79540853,9.05851939 C5.79540853,9.41139835 5.02114806,12.3531874 4.90191784,13.1175969 L4.90191784,13.1175969 C4.66394805,14.1762338 3.47311779,13.8824912 2.63899689,13.8824912 L2.63899689,13.8824912 C-0.397693873,13.8824912 0.0193665803,14.5295975 0.0193665803,17.2944624 L0.0193665803,17.2944624 C0.0193665803,20.1766304 -0.099372984,20.3530699 2.87745733,20.3530699 L2.87745733,20.3530699 C4.48485739,20.3530699 4.66394805,20.1766304 4.96177828,21.7059342 L4.96177828,21.7059342 C6.0927481,27.2943155 10.8565598,32.059151 16.8107111,32.059151 L16.8107111,32.059151 C23.2417833,32.059151 26.9928741,26.4707697 28.8981043,21.1174794 L28.8981043,21.1174794 C31.2203951,14.7646886 31.5775951,14.2353702 33.3640858,14.2353702 L33.3640858,14.2353702 C35.3291765,14.2353702 35.9243463,17.2353261 35.9243463,18.5290541 L35.9243463,18.5290541 C35.9243463,27.6471945 27.5885345,26.8236486 27.5885345,30.8827262 L27.5885345,30.8827262 C27.5885345,32.41203 29.0173346,33 30.3872555,33 L30.3872555,33 C32.768916,33 38.0680371,31.8235752 39.616558,29.764953 L39.616558,29.764953 C40.866758,28.0592098 41.8784976,23.4708137 42.1768185,21.2352673 L42.1768185,21.2352673 C42.2955581,20.0588425 47,19.647312 47,16.9410987 L47,16.9410987 C47,14.0589307 42.2361883,14.0589307 42.1169581,12.6474148 L42.1169581,12.6474148 C41.7597581,8.35276146 37.5916068,0 29.791595,0 L29.791595,0 C16.0963111,0 19.4902018,17.941084 13.7740203,17.941084 L13.7740203,17.941084 Z" id="path-3"></path>
    </defs>
    <g id="Page-1" stroke="none" stroke-width="1" fill="none" fill-rule="evenodd">
        <g id="A4" transform="translate(-762.000000, -132.000000)">
            <g id="logo" transform="translate(762.000000, 132.000000)">
                <g id="Group-38">
                    <path d="M180.529096,10.868986 C180.59616,9.50823077 181.10351,8.2008766 182.102661,7.24888198 C182.611955,6.76293266 183.546472,6.05949553 184.409552,5.92405111 C183.764186,7.16489673 183.295227,8.46933811 183.040579,9.69804713 C182.515248,12.2248865 182.635282,14.8327983 183.42255,17.2673996 C183.157698,17.2722542 182.894303,17.2800216 182.63188,17.2936146 C181.433969,15.3231168 180.416837,13.1875613 180.529096,10.868986" id="Fill-1" fill="#050505"></path>
                    <path d="M183.422453,17.2672539 C183.1576,17.2721086 182.894692,17.2803615 182.631783,17.2939545 C181.433871,15.3234567 180.41674,13.1874157 180.528999,10.8688403 C180.596062,9.50857059 181.103413,8.20121643 182.102564,7.2492218 C182.611858,6.76327248 183.546375,6.05934989 184.409454,5.92390548 C183.764089,7.16475109 183.295129,8.46919248 183.040482,9.6979015 C182.515151,12.2247409 182.635185,14.8331382 183.422453,17.2672539" id="Fill-3" fill="#FFFFFF"></path>
                    <path d="M199.378779,24.4743047 C199.479375,24.3849794 200.513029,23.6194029 200.610709,23.5271647 C201.280373,22.8941199 201.8786,22.1843717 202.379147,21.3964639 C203.410371,19.7716163 204.267619,17.6816944 203.804005,15.7296443 C203.373438,13.9149804 201.693932,12.3648943 199.743256,12.61685 C199.656753,12.6270448 199.576083,12.6420941 199.494926,12.6595708 C199.95125,11.0211303 200.150497,9.32540508 199.930839,7.57579334 C199.557616,4.59844351 197.839718,1.90606096 195.07213,0.644340398 C191.499778,-0.982448985 188.313771,0.67104091 186.084635,3.37216181 C184.506697,2.83620971 182.725623,3.40420242 181.34353,4.3231855 C179.682491,5.42664485 178.439384,7.13596309 177.993266,9.08655686 C177.319228,12.0216713 178.165298,14.7533765 179.489561,17.2938088 C179.54642,17.4030382 180.340492,18.9414731 180.398808,19.0497316 C180.398808,19.0497316 184.369168,16.4908516 190.364556,18.1467688 C196.059131,19.7201572 199.378779,24.4743047 199.378779,24.4743047" id="Fill-5" fill="#050505"></path>
                    <path d="M198.262754,21.917318 C198.133972,21.8163416 198.002275,21.7168215 197.871549,21.6206996 C198.026573,21.4920517 198.182569,21.366802 198.340023,21.2386396 C198.488243,21.1211573 198.597586,20.9764891 198.665135,20.8041494 C198.765731,20.6458882 198.816757,20.467723 198.825019,20.2749938 C198.843,20.091003 198.815299,19.9147796 198.744348,19.7482655 C198.701097,19.5720422 198.61751,19.4171792 198.492617,19.2827057 C198.244773,19.0147296 197.903137,18.807922 197.52797,18.7986982 C197.159606,18.7914163 196.823316,18.8948201 196.532221,19.1292991 C196.150736,19.439996 195.769251,19.7502074 195.388252,20.0579915 C194.015392,19.3273684 192.552628,18.7457827 191.067995,18.3040106 C191.109303,18.2161416 191.149152,18.1253599 191.189973,18.0379764 C191.239542,17.9340871 191.291541,17.8316542 191.343053,17.7287359 C191.351315,17.7127156 191.448994,17.5161027 191.466489,17.4816348 C191.759042,16.9180112 192.068118,16.3602133 192.39323,15.8101827 C193.027905,14.7319675 193.722353,13.6906475 194.468314,12.6857373 C194.901312,12.1036662 194.732195,11.1439041 194.110642,10.7545621 C193.452155,10.3467725 192.641074,10.4865861 192.176975,11.1118635 C190.6661,13.1522681 189.387032,15.3509339 188.322275,17.6530035 C188.092412,17.6112536 187.863521,17.5748438 187.63706,17.5389195 C187.241482,17.4796929 186.836671,17.4311465 186.429915,17.3893967 C185.420074,15.0387807 185.200416,12.3692149 185.827315,9.8831545 C186.466849,7.35291688 187.976266,4.51246786 190.38035,3.2560874 C193.007008,1.88368108 195.831941,3.78475754 196.782495,6.30528588 C197.963883,9.43701322 196.788326,12.8702136 195.305638,15.6791075 C195.014057,16.2325363 194.961572,16.8636393 195.396028,17.3680362 C195.768765,17.8030119 196.537567,18.0316653 197.055609,17.7151429 C198.027059,17.1209351 198.681172,16.1645713 199.625894,15.5693927 C200.520562,15.0023709 201.138713,15.967473 201.153292,16.8228603 C201.183908,18.7452972 199.817366,20.6322952 198.262754,21.917318" id="Fill-7" fill="#050505"></path>
                    <path d="M198.262754,21.917318 C198.133972,21.8163416 198.002275,21.7168215 197.871549,21.6206996 C198.026573,21.4920517 198.182569,21.366802 198.340023,21.2386396 C198.488243,21.1211573 198.597586,20.9764891 198.665135,20.8041494 C198.765731,20.6458882 198.816757,20.467723 198.825019,20.2749938 C198.843,20.091003 198.815299,19.9147796 198.744348,19.7482655 C198.701097,19.5720422 198.61751,19.4171792 198.492617,19.2827057 C198.244773,19.0147296 197.903137,18.807922 197.52797,18.7986982 C197.159606,18.7914163 196.823316,18.8948201 196.532221,19.1292991 C196.150736,19.439996 195.769251,19.7502074 195.388252,20.0579915 C194.015392,19.3273684 192.552628,18.7457827 191.067995,18.3040106 C191.109303,18.2161416 191.149152,18.1253599 191.189973,18.0379764 C191.239542,17.9340871 191.291541,17.8316542 191.343053,17.7287359 C191.351315,17.7127156 191.448994,17.5161027 191.466489,17.4816348 C191.759042,16.9180112 192.068118,16.3602133 192.39323,15.8101827 C193.027905,14.7319675 193.722353,13.6906475 194.468314,12.6857373 C194.901312,12.1036662 194.732195,11.1439041 194.110642,10.7545621 C193.452155,10.3467725 192.641074,10.4865861 192.176975,11.1118635 C190.6661,13.1522681 189.387032,15.3509339 188.322275,17.6530035 C188.092412,17.6112536 187.863521,17.5748438 187.63706,17.5389195 C187.241482,17.4796929 186.836671,17.4311465 186.429915,17.3893967 C185.420074,15.0387807 185.200416,12.3692149 185.827315,9.8831545 C186.466849,7.35291688 187.976266,4.51246786 190.38035,3.2560874 C193.007008,1.88368108 195.831941,3.78475754 196.782495,6.30528588 C197.963883,9.43701322 196.788326,12.8702136 195.305638,15.6791075 C195.014057,16.2325363 194.961572,16.8636393 195.396028,17.3680362 C195.768765,17.8030119 196.537567,18.0316653 197.055609,17.7151429 C198.027059,17.1209351 198.681172,16.1645713 199.625894,15.5693927 C200.520562,15.0023709 201.138713,15.967473 201.153292,16.8228603 C201.183908,18.7452972 199.817366,20.6322952 198.262754,21.917318" id="Fill-9" fill="#FFFFFF"></path>
                    <g id="Group-13" transform="translate(0.000000, 72.156759)">
                        <mask id="mask-2" fill="white">
                            <use xlink:href="#path-1"></use>
                        </mask>
                        <g id="Clip-12"></g>
                        <path d="M25.8310532,15.4659075 C25.8310532,10.1728951 21.1118166,4.96241154 15.3992611,4.96241154 C10.4316948,4.96241154 5.38151396,8.84952064 5.38151396,15.4659075 L5.38151396,27.0451914 C5.38151396,29.5259117 9.68670569,35.2330248 15.5649763,35.2330248 C21.029202,35.2330248 25.8310532,29.939527 25.8310532,24.4809714 L25.8310532,15.4659075 Z M5.21579882,2.48120577 L5.21579882,6.28578601 C7.0372074,3.05987869 10.8457397,0 16.3099654,0 C24.506304,0 31.2126643,6.94747325 31.2126643,15.4659075 L31.2126643,24.4809714 C31.2126643,32.6692902 24.3410749,40.1949509 16.5582951,40.1949509 C11.5081143,40.1949509 7.20292254,37.2180866 5.38151396,33.8266361 L5.38151396,56.7366464 C5.38151396,57.7289345 4.22247995,58.8037515 2.64940109,58.8037515 C1.15893681,58.8037515 -9.71936274e-05,57.7289345 -9.71936274e-05,56.7366464 L-9.71936274e-05,2.48120577 C-9.71936274e-05,1.32337447 1.15893681,0.496144061 2.64940109,0.496144061 C4.05676482,0.496144061 5.21579882,1.32337447 5.21579882,2.48120577 L5.21579882,2.48120577 Z" id="Fill-11" fill="#000000" mask="url(#mask-2)"></path>
                    </g>
                    <path d="M64.5751545,87.6226664 C64.5751545,82.329654 59.9390185,77.1191704 54.1433625,77.1191704 C48.3481924,77.1191704 43.8772856,82.329654 43.8772856,87.6226664 L43.8772856,96.6377302 C43.8772856,102.178815 48.430807,107.389784 54.1433625,107.389784 C59.9390185,107.389784 64.5751545,102.178815 64.5751545,96.6377302 L64.5751545,87.6226664 Z M69.9567657,87.6226664 L69.9567657,96.6377302 C69.9567657,104.826049 62.5885168,112.35171 54.1433625,112.35171 C45.7817947,112.35171 38.4956744,104.908092 38.4956744,96.6377302 L38.4956744,87.6226664 C38.4956744,79.3523042 45.532979,72.1567589 54.1433625,72.1567589 C62.5885168,72.1567589 69.9567657,79.1042321 69.9567657,87.6226664 L69.9567657,87.6226664 Z" id="Fill-14" fill="#000000"></path>
                    <path d="M84.8562572,50.6532345 L84.8562572,109.622529 C84.8562572,110.697832 83.6972232,111.773134 82.1241443,111.773134 C80.634166,111.773134 79.474646,110.697832 79.474646,109.622529 L79.474646,50.6532345 C79.474646,49.4954032 80.634166,48.6686582 82.1241443,48.6686582 C83.6972232,48.6686582 84.8562572,49.4954032 84.8562572,50.6532345" id="Fill-16" fill="#000000"></path>
                    <path d="M101.329799,74.6379647 L101.329799,109.622432 C101.329799,110.697734 100.087665,111.773037 98.5976866,111.773037 C97.1077083,111.773037 95.9481883,110.697734 95.9481883,109.622432 L95.9481883,74.6379647 C95.9481883,73.4801334 97.1077083,72.6529029 98.5976866,72.6529029 C100.087665,72.6529029 101.329799,73.4801334 101.329799,74.6379647 M102.157889,57.6006106 C102.157889,59.4201291 100.58481,61.0741045 98.5976866,61.0741045 C96.5279483,61.0741045 94.8717689,59.4201291 94.8717689,57.6006106 C94.8717689,55.7810921 96.5279483,54.2096456 98.5976866,54.2096456 C100.58481,54.2096456 102.157889,55.7810921 102.157889,57.6006106" id="Fill-18" fill="#000000"></path>
                    <path d="M117.141793,109.622626 C117.141793,110.697929 115.899659,111.773231 114.40968,111.773231 C112.836602,111.773231 111.760668,110.697929 111.760668,109.622626 L111.760668,74.6381588 C111.760668,73.4798421 112.836602,72.6530971 114.40968,72.6530971 C115.73443,72.6530971 116.893464,73.4798421 116.893464,74.6381588 L116.893464,78.4422536 C118.631772,75.2168318 122.440304,72.1569531 127.987144,72.1569531 C135.935639,72.1569531 142.724614,79.1039409 142.724614,87.6228606 L142.724614,109.622626 C142.724614,111.02853 141.316764,111.773231 139.992501,111.773231 C138.750367,111.773231 137.343003,111.02853 137.343003,109.622626 L137.343003,87.6228606 C137.343003,82.3293627 132.706381,77.1188791 126.993825,77.1188791 C122.10936,77.1188791 117.141793,81.0064737 117.141793,87.6228606 L117.141793,109.622626 Z" id="Fill-20" fill="#000000"></path>
                    <path d="M158.203525,74.6379647 L158.203525,109.622432 C158.203525,110.697734 156.961391,111.773037 155.471412,111.773037 C153.981434,111.773037 152.8224,110.697734 152.8224,109.622432 L152.8224,74.6379647 C152.8224,73.4801334 153.981434,72.6529029 155.471412,72.6529029 C156.961391,72.6529029 158.203525,73.4801334 158.203525,74.6379647 M159.031615,57.6006106 C159.031615,59.4201291 157.458536,61.0741045 155.471412,61.0741045 C153.401674,61.0741045 151.745981,59.4201291 151.745981,57.6006106 C151.745981,55.7810921 153.401674,54.2096456 155.471412,54.2096456 C157.458536,54.2096456 159.031615,55.7810921 159.031615,57.6006106" id="Fill-22" fill="#000000"></path>
                    <path d="M192.726216,106.975829 C193.802635,106.975829 194.71334,108.051131 194.71334,109.457034 C194.71334,110.69788 193.885736,111.773183 192.726216,111.773183 L167.640541,111.773183 C166.232691,111.773183 165.405087,110.69788 165.405087,109.622578 C165.405087,108.96089 165.819132,108.134145 166.232691,107.554987 L186.517001,77.3673881 L168.219815,77.3673881 C167.143395,77.3673881 166.232691,76.2920857 166.232691,75.0517255 C166.232691,73.728351 167.060781,72.6530486 168.219815,72.6530486 L191.650282,72.6530486 C192.726216,72.6530486 193.720021,73.4797935 193.720021,74.8036535 C193.720021,75.5478696 193.471205,76.2095568 193.057646,76.7882297 L172.690721,106.975829 L192.726216,106.975829 Z" id="Fill-24" fill="#000000"></path>
                    <path d="M221.618091,89.8560914 C224.929964,89.8560914 225.758053,89.3599474 225.758053,87.0437993 C225.758053,81.7507869 221.535476,76.6228322 215.408876,76.6228322 C209.69632,76.6228322 205.060184,81.1716285 205.060184,86.712713 L205.060184,89.8560914 L221.618091,89.8560914 Z M230.973949,87.2093425 C230.973949,93.5776574 227.413747,93.8257294 223.77093,93.8257294 L205.060184,93.8257294 L205.060184,96.8856081 C205.060184,103.501995 210.358695,107.637662 217.644329,107.637662 C224.184974,107.637662 225.758053,104.329225 227.579462,104.329225 C228.903725,104.329225 229.89753,105.901157 229.89753,106.893445 C229.89753,108.878507 225.178293,112.352001 217.478614,112.352001 C207.047308,112.352001 199.678573,106.066215 199.678573,96.6380215 L199.678573,87.3748857 C199.678573,79.104038 206.798492,72.1570502 215.491976,72.1570502 C223.688315,72.1570502 230.973949,78.4423507 230.973949,87.2093425 L230.973949,87.2093425 Z" id="Fill-26" fill="#000000"></path>
                    <path d="M259.534491,89.8560914 C262.846364,89.8560914 263.674454,89.3599474 263.674454,87.0437993 C263.674454,81.7507869 259.451877,76.6228322 253.325276,76.6228322 C247.612721,76.6228322 242.976585,81.1716285 242.976585,86.712713 L242.976585,89.8560914 L259.534491,89.8560914 Z M268.89035,87.2093425 C268.89035,93.5776574 265.330147,93.8257294 261.68733,93.8257294 L242.976585,93.8257294 L242.976585,96.8856081 C242.976585,103.501995 248.275095,107.637662 255.56073,107.637662 C262.101375,107.637662 263.674454,104.329225 265.495862,104.329225 C266.820125,104.329225 267.81393,105.901157 267.81393,106.893445 C267.81393,108.878507 263.094694,112.352001 255.395015,112.352001 C244.963708,112.352001 237.594974,106.066215 237.594974,96.6380215 L237.594974,87.3748857 C237.594974,79.104038 244.714893,72.1570502 253.408377,72.1570502 C261.604715,72.1570502 268.89035,78.4423507 268.89035,87.2093425 L268.89035,87.2093425 Z" id="Fill-28" fill="#000000"></path>
                    <path d="M212.733038,32.7941843 C211.497221,32.6300975 210.819296,32.5485396 210.816866,32.5480541 L210.990356,31.1023428 C210.990356,31.1023428 211.675085,31.1843861 212.925481,31.3504148 L212.733038,32.7941843 Z" id="Fill-30" fill="#000000"></path>
                    <path d="M220.408856,33.9049741 C218.997605,33.6860299 217.711733,33.4947572 216.572138,33.329214 L216.782076,31.8883573 C217.925559,32.0539005 219.215804,32.2461441 220.631916,32.4655738 L220.408856,33.9049741 Z" id="Fill-32" fill="#000000"></path>
                    <path d="M228.073789,35.1641217 C226.739806,34.9325555 225.458794,34.7170095 224.240472,34.516513 L224.477138,33.0795399 C225.699834,33.280522 226.984734,33.4970389 228.323576,33.7290906 L228.073789,35.1641217 Z M235.719039,36.5632286 C234.417131,36.3122438 233.14195,36.0729101 231.900302,35.845713 L232.163211,34.4131092 C233.408747,34.6412772 234.688301,34.8810963 235.995555,35.1335375 L235.719039,36.5632286 Z M243.333188,38.1118583 C242.050232,37.8366003 240.780884,37.5720225 239.530973,37.3181249 L239.821582,35.8913466 C241.076352,36.1462151 242.351047,36.4117639 243.638862,36.6875073 L243.333188,38.1118583 Z M250.908459,39.8260312 C249.642027,39.5231017 248.379967,39.2298815 247.127141,38.9463707 L247.448852,37.5259034 C248.70751,37.8108707 249.974915,38.1050618 251.248637,38.4094476 L250.908459,39.8260312 Z M258.425415,41.7319623 C257.175991,41.3955358 255.923165,41.0688186 254.670339,40.7518107 L255.029469,39.3400818 C256.288613,39.6590316 257.547756,39.9876906 258.804956,40.3260589 L258.425415,41.7319623 Z M265.886969,43.8777125 C264.69003,43.5097309 263.439148,43.1383511 262.170285,42.7732822 L262.572667,41.3741754 C263.851249,41.7407006 265.110392,42.1149932 266.315593,42.4858876 L265.886969,43.8777125 Z M273.240153,46.3181393 C272.066054,45.8962712 270.834611,45.4714903 269.579355,45.0559333 L270.038109,43.6733322 C271.305028,44.0932585 272.548621,44.521923 273.733897,44.9476748 L273.240153,46.3181393 Z M280.434912,49.1532482 C279.296288,48.6580751 278.094975,48.161931 276.863046,47.6779236 L277.396153,46.3225085 C278.644605,46.812827 279.862441,47.3157675 281.016615,47.8177372 L280.434912,49.1532482 Z M287.34878,52.5495534 C286.286454,51.9529183 285.139569,51.3533704 283.939228,50.7669301 L284.579734,49.458605 C285.804859,50.0571819 286.977015,50.6698373 288.063153,51.2800654 L287.34878,52.5495534 Z M290.115397,55.0739654 C289.893795,55.0443521 289.670736,55.0161952 289.446219,54.9894947 C288.370285,54.8618177 287.32351,54.7933673 286.335051,54.7855999 L286.346228,53.3292083 C287.388144,53.3374612 288.488862,53.4093099 289.617765,53.5428124 C289.850058,53.5704839 290.080893,53.5996117 290.309784,53.6306814 L290.115397,55.0739654 Z M279.09364,56.1788812 L278.472086,54.8613323 C279.641326,54.3103308 280.945178,53.9030266 282.347196,53.6500999 L282.606217,55.0831892 C281.329579,55.3132991 280.14819,55.6822516 279.09364,56.1788812 L279.09364,56.1788812 Z M297.479272,56.8764927 C296.523373,56.5094821 295.500896,56.1842213 294.433224,55.9075069 L293.675113,56.812897 C292.765381,56.0536315 291.737073,55.2904823 290.619346,54.5452953 L291.428969,53.334063 C292.346963,53.9457474 293.207612,54.5705394 293.99731,55.1972732 L294.201417,54.3486824 C295.538315,54.6690886 296.817383,55.0623143 298.00266,55.5167085 L297.479272,56.8764927 Z M303.89065,60.6883549 C302.983833,59.8786012 301.967674,59.1416671 300.870844,58.4969711 L301.610001,57.2415615 C302.789446,57.9348039 303.88336,58.7290228 304.861614,59.6018868 L303.89065,60.6883549 Z M273.914677,61.1330398 L272.628805,60.4470794 C273.293124,59.2047774 274.120242,58.1037454 275.08829,57.175053 L276.098132,58.2251113 C275.24137,59.0479726 274.506586,60.0261822 273.914677,61.1330398 L273.914677,61.1330398 Z M298.450722,62.4690364 C297.939484,61.452475 297.240662,60.4300882 296.373695,59.4305181 L297.47587,58.4770671 C298.421564,59.5679043 299.187936,60.6907822 299.753117,61.8146311 L298.450722,62.4690364 Z M308.266307,66.6624731 C307.737087,65.5099819 307.104843,64.4269121 306.387068,63.4433623 L307.565055,62.5855477 C308.339688,63.6472571 309.021501,64.8147977 309.591056,66.0551579 L308.266307,66.6624731 Z M272.113193,68.2868352 L270.656261,68.2324633 C270.707287,66.8600569 270.890983,65.5177494 271.202003,64.2434067 L272.618114,64.5880861 C272.330907,65.7677633 272.160818,67.0124926 272.113193,68.2868352 L272.113193,68.2868352 Z M300.623486,69.8432323 L299.21515,69.4689397 C299.441611,68.6159797 299.557272,67.7610779 299.557272,66.9270509 C299.557272,66.5833425 299.537833,66.2347795 299.498956,65.8915565 L300.947141,65.7279552 C300.992336,66.1255501 301.015176,66.5284851 301.015176,66.9270509 C301.015176,67.8872985 300.883479,68.8684209 300.623486,69.8432323 L300.623486,69.8432323 Z M310.251973,73.9055939 C310.084314,72.6064926 309.84133,71.358365 309.529338,70.1961646 L310.93816,69.8189591 C311.266188,71.0442699 311.521807,72.3564787 311.697242,73.7196612 L310.251973,73.9055939 Z M273.028271,75.912016 C271.909087,74.3682409 271.205891,73.0230206 271.005672,72.3744409 L270.986719,72.3098742 L272.393111,71.9282996 C272.531612,72.3763827 273.124007,73.5614 274.209174,75.0575996 L273.028271,75.912016 Z M296.661388,76.812066 L295.541231,75.8794899 C295.905221,75.4435434 296.271155,74.9804109 296.628828,74.5036854 C297.047246,73.9468583 297.42533,73.3846912 297.753844,72.8341752 L299.00667,73.5793622 C298.651427,74.1740554 298.244672,74.7794288 297.795637,75.3770348 C297.4229,75.8736644 297.041415,76.3567009 296.661388,76.812066 L296.661388,76.812066 Z M278.793311,81.4691208 C277.71349,80.7948115 276.652136,79.947677 275.636948,78.9515052 L276.659425,77.9126126 C277.598316,78.8349939 278.576569,79.6156198 279.566972,80.2345862 L278.793311,81.4691208 Z M311.91204,81.6045652 L310.456565,81.5191235 C310.513423,80.5540214 310.542096,79.6039686 310.542096,78.6951803 C310.542096,78.3587538 310.538208,78.0266966 310.530918,77.6980375 L311.988823,77.6645405 C311.996112,78.0043652 312,78.3475882 312,78.6951803 C312,79.632611 311.970842,80.6113061 311.91204,81.6045652 L311.91204,81.6045652 Z M290.584842,82.0142967 L289.900599,80.7278175 C290.910441,80.1918654 291.928544,79.4733789 292.926723,78.5932329 L293.891855,79.6850411 C292.808146,80.6409194 291.695279,81.4244581 290.584842,82.0142967 L290.584842,82.0142967 Z M285.173587,83.4342785 C284.301274,83.4342785 283.418756,83.3235927 282.549845,83.105134 L282.904602,81.6929196 C284.091822,81.9909944 285.296537,82.0531338 286.47501,81.8832214 L286.68349,83.3245636 C286.184401,83.3968977 285.676564,83.433793 285.173587,83.4342785 L285.173587,83.4342785 Z M310.947393,89.4006293 L309.516217,89.1258567 C309.604663,88.6636951 309.68582,88.2039608 309.759201,87.745683 C309.889926,86.9257345 310.005587,86.1150099 310.10278,85.3368113 L311.549022,85.5169184 C311.449884,86.3111373 311.33228,87.1383677 311.199125,87.9748219 C311.123313,88.4486346 311.039727,88.9234183 310.947393,89.4006293 L310.947393,89.4006293 Z M308.86016,96.9869729 L307.486814,96.4995672 C307.920783,95.2791111 308.309072,94.0508875 308.641474,92.8479081 L310.04738,93.2357937 C309.705744,94.4717847 309.305793,95.7339907 308.86016,96.9869729 L308.86016,96.9869729 Z M305.749964,104.199995 L304.449513,103.542191 C305.032189,102.392613 305.580847,101.224101 306.080908,100.067241 L307.418778,100.643972 C306.908026,101.828019 306.345761,103.024687 305.749964,104.199995 L305.749964,104.199995 Z M301.801959,110.980954 L300.585094,110.179453 C301.291692,109.10852 301.973505,108.010401 302.612553,106.914709 L303.872183,107.647759 C303.220014,108.765782 302.523621,109.887689 301.801959,110.980954 L301.801959,110.980954 Z M297.131805,117.283731 L296.008247,116.356495 C296.823215,115.371489 297.620689,114.352501 298.379771,113.329143 L299.550954,114.195696 C298.776807,115.239928 297.96281,116.279307 297.131805,117.283731 L297.131805,117.283731 Z M291.821631,123.05444 L290.801098,122.014091 C291.716662,121.11841 292.617647,120.189718 293.479268,119.253258 L294.552772,120.239235 C293.673656,121.194143 292.755176,122.141283 291.821631,123.05444 L291.821631,123.05444 Z M285.934127,128.228514 L285.031198,127.085247 C286.030349,126.29831 287.023668,125.470594 287.983455,124.626858 L288.947129,125.720122 C287.966932,126.581335 286.953202,127.425557 285.934127,128.228514 L285.934127,128.228514 Z M279.516918,132.734589 L278.746172,131.498113 C279.823564,130.828658 280.901441,130.115512 281.949188,129.378578 L282.788455,130.569421 C281.718353,131.32189 280.617636,132.050085 279.516918,132.734589 L279.516918,132.734589 Z M272.631235,136.490138 L272.008224,135.173074 C273.156081,134.632268 274.307339,134.046798 275.430412,133.434143 L276.129234,134.712369 C274.980891,135.338618 273.804362,135.936709 272.631235,136.490138 L272.631235,136.490138 Z M265.341713,139.404863 L264.882959,138.022262 C266.089618,137.623696 267.303081,137.180467 268.490301,136.705198 L269.032155,138.057215 C267.817235,138.543165 266.575586,138.997073 265.341713,139.404863 L265.341713,139.404863 Z" id="Fill-34" fill="#000000"></path>
                    <path d="M259.614724,141 L259.290098,139.580504 C259.916025,139.437292 260.53855,139.285827 261.156701,139.124168 L261.526037,140.532984 C260.892821,140.698527 260.255716,140.853875 259.614724,141" id="Fill-36" fill="#000000"></path>
                </g>
                <g id="Group-45" transform="translate(159.000000, 16.000000)">
                    <mask id="mask-4" fill="white">
                        <use xlink:href="#path-3"></use>
                    </mask>
                    <g id="Clip-40"></g>
                    <polygon id="Fill-39" fill="#000000" mask="url(#mask-4)" points="-3.49179178 35.1982227 8.73347676 35.1982227 8.73347676 -2.1987074 -3.49179178 -2.1987074"></polygon>
                    <polygon id="Fill-41" fill="#000000" mask="url(#mask-4)" points="36.1603535 35.1982227 49.2889259 35.1982227 49.2889259 -2.1987074 36.1603535 -2.1987074"></polygon>
                    <polygon id="Fill-42" fill="#FEBF33" mask="url(#mask-4)" points="8.7329861 35.1982227 17.8754419 35.1982227 17.8754419 -2.1987074 8.7329861 -2.1987074"></polygon>
                    <polygon id="Fill-43" fill="#000000" mask="url(#mask-4)" points="17.8754419 35.1982227 27.0178977 35.1982227 27.0178977 -2.1987074 17.8754419 -2.1987074"></polygon>
                    <polygon id="Fill-44" fill="#FEBF33" mask="url(#mask-4)" points="27.0178977 35.1982227 36.1603535 35.1982227 36.1603535 -2.1987074 27.0178977 -2.1987074"></polygon>
                </g>
            </g>
        </g>
    </g>
</svg>