<svg xmlns="http://www.w3.org/2000/svg" width="270.804" height="40" viewBox="0 0 270.804 40"><g transform="translate(0)"><path d="M567.61,298.629h10.945l.52-4.838h4.379v9.554H560.41v-3.63l15.9-19.528H565.883l-.52,4.838h-4.376V275.47h22.467v3.642Z" transform="translate(-368.756 -263.952)" fill="#080c0f"/><path d="M634.99,290.273c0,3.168,1.5,7.777,8.407,7.777a16.02,16.02,0,0,0,8.063-2.132l2.419,3.283c-2.591,2.293-7.372,3.8-10.945,3.8-7.716,0-13.375-5.472-13.375-14.8,0-9.1,5.587-14.228,12.729-14.228s12.905,5.35,11.579,16.3Zm.057-4.38h14.285c.061-2.878-1.146-7.085-7.085-7.085C636.832,278.808,635.048,282.9,635.048,285.893Z" transform="translate(-411.48 -263.025)" fill="#080c0f"/><path d="M708.85,290.273c0,3.168,1.5,7.777,8.407,7.777a16.02,16.02,0,0,0,8.063-2.132l2.419,3.283c-2.591,2.293-7.372,3.8-10.945,3.8-7.716,0-13.375-5.472-13.375-14.8,0-9.1,5.587-14.228,12.733-14.228,7.085,0,12.9,5.35,11.575,16.3Zm.057-4.38h14.285c.061-2.878-1.146-7.085-7.081-7.085C710.7,278.808,708.908,282.9,708.908,285.893Z" transform="translate(-457.115 -263.025)" fill="#080c0f"/></g><g transform="translate(171.767)"><path d="M523.748,298.233l4.207.577v4.551H513.38V298.81l4.838-.577V280.6l-4.838-.631V275.48h10.368Z" transform="translate(-511.465 -263.958)" fill="#080c0f"/><path d="M511.939,245.33a3.44,3.44,0,1,1,0,6.879,3.3,3.3,0,0,1-3.569-3.439A3.24,3.24,0,0,1,511.939,245.33Z" transform="translate(-508.37 -245.33)" fill="#0c0c0c"/><path d="M534.673,245.33a3.44,3.44,0,1,1,0,6.879,3.442,3.442,0,1,1,0-6.879Z" transform="translate(-522.414 -245.33)" fill="#f1cd00"/></g><g transform="translate(0)"><path d="M195.6,263.335c0,7.085-4.494,11.174-10.139,11.174h-7.49v9.21l4.838.52v4.609H168.18v-4.6l4.261-.527V257.285l-4.261-.7V252h17.281C191.105,252,195.6,256.712,195.6,263.335Zm-4.666.344c0-3.917-2.362-7.085-5.587-7.085h-7.376v13.941h7.376C188.8,270.534,190.933,267.771,190.933,263.679Z" transform="translate(-126.418 -249.451)" fill="#080c0f"/><path d="M274.257,288.431c0,8.293-4.494,14.572-14,14.572s-14-6.279-14-14.572c0-8.354,4.437-14.461,14-14.461S274.257,280.1,274.257,288.431Zm-5.067,0c0-2.48-.405-9.508-8.931-9.508s-8.927,7.028-8.927,9.508c0,2.419.344,9.5,8.927,9.5S269.189,290.85,269.189,288.431Z" transform="translate(-174.66 -263.025)" fill="#080c0f"/><path d="M335.772,280.067l4.261.577V285.2H325.4v-4.544l4.838-.585V251.215l-4.838-.692V246.09h10.372Z" transform="translate(-223.556 -245.8)" fill="#080c0f"/><g transform="translate(119.415 0)"><path d="M381.748,298.233l4.207.577v4.551H371.38V298.81l4.838-.577V280.6l-4.838-.631V275.48h10.368Z" transform="translate(-371.38 -263.958)" fill="#080c0f"/><path d="M385.5,245.33a3.44,3.44,0,1,1,0,6.879,3.442,3.442,0,1,1,0-6.879Z" transform="translate(-377.898 -245.33)" fill="#080c0f"/></g><path d="M451.53,297.839v4.609H436.84v-4.609l4.261-.577V283.84c0-3.86-1.5-5.3-5.648-5.129-2.992.172-6.16,1.911-7.429,2.652v15.947l4.2.577v4.551H417.66V297.9l4.838-.585V279.694l-4.838-.634v-4.494h10.368v2.874A15.534,15.534,0,0,1,437.073,274c4.208,0,9.554,2.132,9.554,8.125v15.149Z" transform="translate(-280.559 -263.044)" fill="#080c0f"/></g><path d="M77.626,252a18.726,18.726,0,0,1,18.726,18.726v18.725H77.626a18.726,18.726,0,1,1,0-37.451Z" transform="translate(-58.9 -249.451)" fill="#f1cd00"/></svg>