<?xml version="1.0" encoding="UTF-8"?>
<svg width="105px" height="79px" viewBox="0 0 105 79" version="1.1" xmlns="http://www.w3.org/2000/svg" xmlns:xlink="http://www.w3.org/1999/xlink">
    <title>1-cor-man-busy</title>
    <g id="Page-1" stroke="none" stroke-width="1" fill="none" fill-rule="evenodd">
        <g id="A4" transform="translate(-247.000000, -759.000000)">
            <g id="man-busy" transform="translate(299.500000, 798.500000) scale(-1, 1) translate(-299.500000, -798.500000) translate(247.000000, 759.000000)">
                <g id="Group" transform="translate(8.000000, 0.000000)">
                    <path d="M3.52574446,0.701930804 L71.4080778,0.701930804 C72.9225783,0.701930804 74.1503235,1.92407296 74.1503235,3.43166171 L74.1503235,49.4861217 C74.1503235,50.9937104 72.9225783,52.2158526 71.4080778,52.2158526 L3.52574446,52.2158526 C2.01124399,52.2158526 0.783453935,50.9937104 0.783453935,49.4861217 L0.783453935,3.44726017 C0.779327273,2.72059166 1.06639901,2.02225993 1.58112267,1.50695746 C2.09584632,0.991654998 2.79573253,0.701930804 3.52574446,0.701930804 L3.52574446,0.701930804 Z" id="Path" fill="#FFFFFF"></path>
                    <path d="M71.3963254,52.64482 L3.52574446,52.64482 C1.79192241,52.6427365 0.38328253,51.2509636 0.368244422,49.5251178 L0.368244422,3.44726017 C0.370402869,1.71227017 1.78280018,0.306318612 3.52574446,0.304170015 L71.4080778,0.304170015 C73.1494921,0.308464781 74.5595078,1.71378926 74.5616604,3.44726017 L74.5616604,49.5017201 C74.5616604,50.3366725 74.2279234,51.137314 73.6340817,51.7269825 C73.0402399,52.3166509 72.2351031,52.6468821 71.3963254,52.64482 Z M3.52574446,1.09579198 C2.2276012,1.09579198 1.17524815,2.1433424 1.17524815,3.43556132 L1.17524815,49.4900213 C1.17524815,50.7822402 2.2276012,51.8297906 3.52574446,51.8297906 L71.4080778,51.8297906 C72.7062211,51.8297906 73.7585742,50.7822402 73.7585742,49.4900213 L73.7585742,3.44726017 C73.7585742,2.15504124 72.7062211,1.10749082 71.4080778,1.10749082 L3.52574446,1.09579198 Z" id="Shape" fill="#B0B0B0" fill-rule="nonzero"></path>
                </g>
                <path d="M53.6087413,12 L13.3912587,12 C13.1751725,12 13,11.7761424 13,11.5 C13,11.2238576 13.1751725,11 13.3912587,11 L53.6087413,11 C53.8248275,11 54,11.2238576 54,11.5 C54,11.7761424 53.8248275,12 53.6087413,12 Z" id="Path" fill="#DEDEDE" fill-rule="nonzero"></path>
                <path d="M40.6137398,18 L13.3862602,18 C13.1729346,18 13,17.7761424 13,17.5 C13,17.2238576 13.1729346,17 13.3862602,17 L40.6137398,17 C40.8270654,17 41,17.2238576 41,17.5 C41,17.7761424 40.8270654,18 40.6137398,18 Z" id="Path" fill="#DEDEDE" fill-rule="nonzero"></path>
                <path d="M53.6087413,23 L13.3912587,23 C13.1751725,23 13,22.7761424 13,22.5 C13,22.2238576 13.1751725,22 13.3912587,22 L53.6087413,22 C53.8248275,22 54,22.2238576 54,22.5 C54,22.7761424 53.8248275,23 53.6087413,23 Z" id="Path" fill="#DEDEDE" fill-rule="nonzero"></path>
                <path d="M53.6087413,29 L13.3912587,29 C13.1751725,29 13,28.7761424 13,28.5 C13,28.2238576 13.1751725,28 13.3912587,28 L53.6087413,28 C53.8248275,28 54,28.2238576 54,28.5 C54,28.7761424 53.8248275,29 53.6087413,29 Z" id="Path" fill="#DEDEDE" fill-rule="nonzero"></path>
                <path d="M52.6254682,35 L42.3745318,35 C42.1676836,35 42,34.7761424 42,34.5 C42,34.2238576 42.1676836,34 42.3745318,34 L52.6254682,34 C52.8323164,34 53,34.2238576 53,34.5 C53,34.7761424 52.8323164,35 52.6254682,35 Z" id="Path" fill="#DEDEDE" fill-rule="nonzero"></path>
                <path d="M53.6087413,40 L13.3912587,40 C13.1751725,40 13,39.7761424 13,39.5 C13,39.2238576 13.1751725,39 13.3912587,39 L53.6087413,39 C53.8248275,39 54,39.2238576 54,39.5 C54,39.7761424 53.8248275,40 53.6087413,40 Z" id="Path" fill="#DEDEDE" fill-rule="nonzero"></path>
                <path d="M53.6087413,12 L13.3912587,12 C13.1751725,12 13,11.7761424 13,11.5 C13,11.2238576 13.1751725,11 13.3912587,11 L53.6087413,11 C53.8248275,11 54,11.2238576 54,11.5 C54,11.7761424 53.8248275,12 53.6087413,12 Z" id="Path" fill="#DEDEDE" fill-rule="nonzero"></path>
                <path d="M53.6028881,18 L43.3971119,18 C43.1777931,18 43,17.7761424 43,17.5 C43,17.2238576 43.1777931,17 43.3971119,17 L53.6028881,17 C53.8222069,17 54,17.2238576 54,17.5 C54,17.7761424 53.8222069,18 53.6028881,18 Z" id="Path" fill="#DEDEDE" fill-rule="nonzero"></path>
                <path d="M53.6087413,23 L13.3912587,23 C13.1751725,23 13,22.7761424 13,22.5 C13,22.2238576 13.1751725,22 13.3912587,22 L53.6087413,22 C53.8248275,22 54,22.2238576 54,22.5 C54,22.7761424 53.8248275,23 53.6087413,23 Z" id="Path" fill="#DEDEDE" fill-rule="nonzero"></path>
                <path d="M53.6087413,29 L13.3912587,29 C13.1751725,29 13,28.7761424 13,28.5 C13,28.2238576 13.1751725,28 13.3912587,28 L53.6087413,28 C53.8248275,28 54,28.2238576 54,28.5 C54,28.7761424 53.8248275,29 53.6087413,29 Z" id="Path" fill="#DEDEDE" fill-rule="nonzero"></path>
                <path d="M37.6122829,35 L13.3877171,35 C13.1735869,35 13,34.7761424 13,34.5 C13,34.2238576 13.1735869,34 13.3877171,34 L37.6122829,34 C37.8264131,34 38,34.2238576 38,34.5 C38,34.7761424 37.8264131,35 37.6122829,35 Z" id="Path" fill="#DEDEDE" fill-rule="nonzero"></path>
                <path d="M53.6087413,40 L13.3912587,40 C13.1751725,40 13,39.7761424 13,39.5 C13,39.2238576 13.1751725,39 13.3912587,39 L53.6087413,39 C53.8248275,39 54,39.2238576 54,39.5 C54,39.7761424 53.8248275,40 53.6087413,40 Z" id="Path" fill="#DEDEDE" fill-rule="nonzero"></path>
                <path d="M92.6038133,6 L61.3961867,6 C61.1773788,6 61,5.77614237 61,5.5 C61,5.22385763 61.1773788,5 61.3961867,5 L92.6038133,5 C92.8226212,5 93,5.22385763 93,5.5 C93,5.77614237 92.8226212,6 92.6038133,6 Z" id="Path" fill="#B0B0B0" fill-rule="nonzero"></path>
                <g id="Group" transform="translate(9.000000, 5.000000)" fill="#B0B0B0" fill-rule="nonzero">
                    <path d="M47.613651,1 L0.386349002,1 C0.17297434,1 0,0.776142375 0,0.5 C0,0.223857625 0.17297434,0 0.386349002,0 L47.613651,0 C47.8270257,0 48,0.223857625 48,0.5 C48,0.776142375 47.8270257,1 47.613651,1 Z" id="Path"></path>
                </g>
                <polygon id="Path" fill="#F2F2F2" points="59 9 78 9 78 33 59.0156314 33"></polygon>
                <g id="Group" transform="translate(25.000000, 11.000000)" fill="#FFE380" fill-rule="nonzero">
                    <path d="M1.06321363,25.4437728 C0.833698121,25.4438533 0.6319511,25.2924082 0.568878144,25.0727015 C0.378982889,24.4426274 0.238628178,23.7987953 0.149085307,23.1470368 C0.139961798,23.0848706 0.139961798,23.0217143 0.149085307,22.9595481 C0.163874854,22.8231944 0.232620237,22.6983256 0.340115669,22.6125615 C0.4476111,22.5267974 0.584997634,22.487206 0.721886748,22.5025445 C0.981707761,22.5315566 1.18063259,22.7462478 1.18875916,23.0064203 C1.27323888,23.6080308 1.40440795,24.2022208 1.58108891,24.7836565 C1.6622062,25.056532 1.50592613,25.3432401 1.23191543,25.4242427 C1.17678702,25.4381007 1.12006503,25.4446672 1.06321363,25.4437728 Z" id="Path"></path>
                    <path d="M9.69446823,32.3027328 C8.64900027,32.3102403 7.6087018,32.1560689 6.61075636,31.8457292 C6.35095457,31.7495433 6.21328554,31.4667477 6.29841238,31.2041217 C6.38353923,30.9414957 6.66127641,30.792165 6.92854346,30.8653197 C7.91547396,31.1648527 8.94599769,31.296897 9.97694565,31.2559211 C10.1808661,31.2492463 10.3840668,31.2283631 10.5850568,31.1934249 C10.8655574,31.1410349 11.1357618,31.3244536 11.1892446,31.6035563 C11.2396152,31.8823473 11.0563707,32.149922 10.7772983,32.2050824 C10.5182875,32.2527109 10.2559374,32.2801363 9.99263884,32.2871087 L9.69446823,32.3027328 Z M12.8331063,31.1035866 C12.6837422,31.1085095 12.5399361,31.0469453 12.4407765,30.935628 C12.347533,30.8354455 12.2983885,30.7023071 12.3042835,30.5658519 C12.3101785,30.4293967 12.3706237,30.3009511 12.4721629,30.2091094 C13.363401,29.3251043 14.0736032,28.2770968 14.5632805,27.1233587 C14.688195,26.8719162 14.9921001,26.7660356 15.2472335,26.8850693 C15.5023668,27.004103 15.6151016,27.3043689 15.5009486,27.5608322 C14.954079,28.8374506 14.1625055,29.9956986 13.1705098,30.9707821 C13.0820652,31.0509769 12.9682924,31.0979431 12.8487994,31.1035866 L12.8331063,31.1035866 Z M4.52748536,30.7442402 C4.41887147,30.7447999 4.31295586,30.7105632 4.22539145,30.646583 C3.09988433,29.8066726 2.17868593,28.7253283 1.53008604,27.4827119 C1.44248226,27.320138 1.448649,27.1233833 1.5462633,26.9665635 C1.64387759,26.8097437 1.81810951,26.7166834 2.00332755,26.7224376 C2.18854559,26.7281918 2.3566107,26.8318862 2.44421437,26.9944602 C3.01737933,28.1015076 3.83409647,29.0655011 4.83350257,29.8146021 C5.01251412,29.9468576 5.08643359,30.1783213 5.01701013,30.3892186 C4.94758668,30.600116 4.75039912,30.7431209 4.52748536,30.7442402 L4.52748536,30.7442402 Z M46.546002,30.6739251 C45.1550068,30.3183907 43.9525529,29.4481123 43.183736,28.2404786 C43.1405798,28.1662643 43.0935002,28.088144 43.0503439,28.0061178 C42.9655435,27.8421484 42.9750485,27.6455932 43.0752783,27.4904928 C43.1755081,27.3353923 43.3512356,27.24531 43.5362658,27.2541789 C43.721296,27.2630479 43.8875185,27.3695207 43.9723188,27.5334901 C43.9997819,27.5881743 44.0311683,27.6389525 44.0625547,27.6897306 C44.6671031,28.6491359 45.6058218,29.3528547 46.6990106,29.6661735 C46.9430054,29.7420244 47.0949186,29.9837682 47.0567136,30.2353961 C47.0185085,30.487024 46.8016138,30.6732634 46.546002,30.6739251 L46.546002,30.6739251 Z M42.8973353,25.8773403 C42.6356374,25.8772876 42.4151043,25.6828667 42.3833833,25.4242427 C42.2303747,24.1938484 42.1754486,22.6900332 42.1440622,21.4244848 C42.1391563,21.2402808 42.2333296,21.0674636 42.3911079,20.9711318 C42.5488862,20.8748 42.7462992,20.8695886 42.9089833,20.9574608 C43.0716674,21.0453329 43.174907,21.2129387 43.1798127,21.3971427 C43.2111991,22.6587851 43.2661253,24.1313522 43.4112873,25.3031563 C43.4458958,25.5857371 43.2439253,25.8427707 42.9601081,25.8773403 L42.8973353,25.8773403 Z M15.9952841,25.5453292 C15.9349594,25.5463683 15.8750043,25.5357566 15.8187357,25.5140811 C15.6891076,25.4682646 15.5833364,25.3726266 15.5250859,25.2485638 C15.4668355,25.124501 15.4609676,24.9823684 15.5087952,24.8539648 C15.9717443,23.5806043 16.4072303,22.1900635 16.7289407,21.1159097 C16.8123617,20.8430199 17.1021875,20.6891272 17.3762848,20.7721806 C17.6503821,20.855234 17.8049559,21.1437829 17.721535,21.4166728 C17.391978,22.4986385 16.956492,23.9087095 16.481773,25.205506 C16.4095589,25.4040877 16.2230046,25.5387437 16.0109773,25.5453292 L15.9952841,25.5453292 Z M42.6109346,19.4246215 C42.328597,19.4267843 42.0973615,19.2017996 42.0930593,18.92073 C42.0695195,17.748926 42.0381332,16.3622911 41.9675138,14.9756563 C41.9534298,14.6909017 42.1738731,14.4486955 42.4598876,14.4346735 C42.7459022,14.4206515 42.9891802,14.6401235 43.0032644,14.9248781 C43.0738837,16.323231 43.1052701,17.7098658 43.1288099,18.897294 C43.1331937,19.1827226 42.9054342,19.4182002 42.6187812,19.4246215 L42.6109346,19.4246215 Z M17.9412397,19.3855457 C17.5214468,19.2800833 17.3645149,18.9949443 17.4469042,18.7215233 C17.7882311,17.5692493 18.1923307,16.2333927 18.6238934,14.9248781 C18.7205049,14.6662209 19.0045518,14.5291583 19.2683399,14.6139101 C19.5321281,14.698662 19.6821195,14.9751756 19.6086411,15.2412652 C19.184925,16.5419677 18.7847486,17.8700124 18.4316519,19.0144744 C18.3675912,19.225285 18.1778297,19.3736149 17.9569328,19.3855457 L17.9412397,19.3855457 Z M19.9342748,13.2335742 C19.8728358,13.2327306 19.8119208,13.2221833 19.7538031,13.2023261 C19.4862972,13.1018365 19.3498371,12.8057338 19.4477859,12.5383038 C19.9075086,11.2834175 20.431297,10.0527226 21.0171049,8.85102689 C21.0947167,8.67949797 21.2600064,8.56367109 21.4483783,8.54881184 C21.6367502,8.53395259 21.8182981,8.62242003 21.9220725,8.77964075 C22.0258469,8.93686147 22.0353724,9.137875 21.9469264,9.30412448 C21.3740037,10.4744483 20.8632704,11.6739475 20.4168404,12.897657 C20.3438914,13.0934178 20.1595547,13.226049 19.949968,13.2335742 L19.9342748,13.2335742 Z M42.2970708,12.9718713 C42.0299809,12.9709577 41.8073983,12.7679635 41.7831188,12.5031496 C41.6701401,11.2088422 41.477537,9.92265131 41.2063941,8.6518202 C41.1457243,8.3735373 41.3231328,8.09897855 41.6026471,8.03857606 C41.8821614,7.97817357 42.1579351,8.15480054 42.2186048,8.43308344 C42.4985119,9.74520056 42.6976631,11.0731134 42.8149461,12.4094053 C42.837754,12.6931599 42.6286012,12.9430376 42.3441504,12.9718713 L42.2970708,12.9718713 Z M22.6805831,7.40970786 C22.5835813,7.40919727 22.4885832,7.38217453 22.4059523,7.33158759 C22.2893514,7.25912569 22.2064678,7.14348637 22.1755604,7.01014433 C22.144653,6.87680229 22.1682574,6.73669708 22.2411738,6.62069311 C22.9542278,5.46081143 23.8066391,4.39179342 24.7795473,3.437292 C24.9872691,3.25316777 25.3039778,3.26526933 25.4969138,3.46470284 C25.6898497,3.66413636 25.6901133,3.9796819 25.4975107,4.17943459 C24.5856766,5.07530282 23.78725,6.07877729 23.1199924,7.16753502 C23.0349021,7.31267439 22.8841031,7.40741957 22.7158928,7.4214259 L22.6805831,7.40970786 Z M41.0219991,6.65975884 C40.8038263,6.66076448 40.608788,6.52452597 40.5355102,6.31993006 C40.132763,5.13442141 39.4995343,4.03944837 38.6719439,3.09746881 C38.5428435,2.96270085 38.4967745,2.76909375 38.5514258,2.5909863 C38.6060771,2.41287884 38.7529538,2.27795559 38.9356602,2.23802263 C39.1183665,2.19808968 39.308503,2.2593541 39.4330636,2.39829237 C40.3541641,3.44071313 41.0594607,4.65394779 41.508488,5.96838883 C41.605789,6.23587648 41.4670901,6.53127975 41.1985475,6.62850514 C41.1530324,6.64498925 41.1055525,6.65549385 41.0573088,6.65975884 L41.0219991,6.65975884 Z M27.0942928,2.78498817 C26.9166323,2.78521935 26.7510606,2.69543917 26.6548835,2.54672089 C26.5809006,2.43100378 26.5566821,2.29055829 26.5876627,2.15690036 C26.6186433,2.02324242 26.7022286,1.90756512 26.819662,1.83582641 C27.9894035,1.10294695 29.2826949,0.58685072 30.6370305,0.312481091 C30.9176282,0.255314449 31.1916453,0.435438982 31.2490649,0.714800495 C31.3064845,0.994162008 31.1255629,1.26697198 30.8449653,1.32413862 C29.6118758,1.57212538 28.4341539,2.04060941 27.3689237,2.70686745 C27.2970363,2.75256892 27.2147136,2.77944105 27.1296025,2.78498817 L27.0942928,2.78498817 Z M37.0673152,1.7850484 C36.9898822,1.78511018 36.913436,1.76775189 36.8436872,1.73427005 C36.070504,1.37494768 35.235665,1.16550036 34.3837797,1.1171199 C34.0346062,1.09368382 33.6854327,1.07805976 33.3480291,1.07805976 C32.9360829,1.07805976 32.7046083,0.855416986 32.700685,0.570277991 C32.698583,0.433221498 32.751802,0.301055753 32.8484155,0.203399405 C32.9450289,0.105743056 33.076958,0.0507781738 33.214637,0.0507781738 C33.7089725,0.0507781738 34.0816857,0.0507781738 34.454399,0.0898383136 C35.4369297,0.14659366 36.3996051,0.389184944 37.2909431,0.804638809 C37.4157422,0.863712051 37.5116519,0.969992235 37.5573346,1.09983429 C37.6030172,1.22967635 37.5946835,1.37231033 37.5341876,1.49600322 C37.4535344,1.66306012 37.2884446,1.77363129 37.1026249,1.7850484 L37.0673152,1.7850484 Z" id="Shape"></path>
                    <path d="M49.1196852,30.9668761 C48.8336706,30.9733478 48.5965404,30.7477549 48.5900401,30.4630003 C48.5835397,30.1782457 48.8101308,29.9421602 49.0961454,29.9356885 C49.710907,29.9140028 50.3213956,29.8249288 50.9165555,29.6700796 C51.0974259,29.6064614 51.2988018,29.6475924 51.4399025,29.7769731 C51.5810033,29.9063538 51.6387126,30.1027881 51.5898807,30.2874775 C51.5410489,30.4721669 51.3936759,30.6148541 51.2068795,30.658301 C50.5328244,30.8380255 49.8405699,30.9415372 49.143225,30.9668761 L49.1196852,30.9668761 Z" id="Path"></path>
                </g>
                <g id="Group" transform="translate(72.000000, 23.000000)">
                    <g>
                        <path d="M3.52396303,0.678197596 L25.3972363,0.678197596 C25.3972363,0.678197596 22.5448719,3.81437145 22.5448719,8.22069572 L22.5448719,28.9978475 C22.5448719,32.7063731 25.3972363,35.2505941 25.3972363,35.2505941 L3.52396303,35.2505941 C3.52396303,35.2505941 0.667738888,32.4201972 0.667738888,28.3823734 L0.667738888,7.33080639 C0.667738888,3.40666885 3.52396303,0.678197596 3.52396303,0.678197596 Z" id="Path" fill="#FFFFFF"></path>
                        <path d="M25.3972363,35.6426224 L3.52396303,35.6426224 C3.4213694,35.6432183 3.32276089,35.6023107 3.24991991,35.5289296 C3.13026727,35.411323 0.27790289,32.5378038 0.27790289,28.3784532 L0.27790289,7.33080639 C0.27790289,3.2812219 3.13412704,0.505708034 3.25377967,0.388101515 C3.32690242,0.318542144 3.42378989,0.280585928 3.52396303,0.282116832 L25.3972363,0.282116832 C25.5535124,0.278043819 25.6968568,0.369990996 25.7602704,0.515121076 C25.823684,0.660251157 25.7946419,0.829899455 25.6867185,0.944772374 C25.6597002,0.976134113 22.9347079,4.03782384 22.9347079,8.22069572 L22.9347079,28.9978475 C22.9347079,32.4868409 25.6365416,34.9291363 25.6365416,34.9526576 C25.7588311,35.0603446 25.8019819,35.2340862 25.7446149,35.3878017 C25.690139,35.536217 25.5530801,35.6367545 25.3972363,35.6426224 L25.3972363,35.6426224 Z M3.68993281,34.8585724 L24.4786129,34.8585724 C23.5947273,33.8275553 22.1627555,31.7223986 22.1627555,29.0017677 L22.1627555,8.23245637 C22.2172832,5.65120581 23.066269,3.152092 24.590546,1.0859002 L3.69379258,1.0859002 C3.19202347,1.61904975 1.06913317,4.06526536 1.06913317,7.35824791 L1.06913317,28.4058947 C1.06143465,31.7537603 3.18430395,34.2940611 3.68993281,34.850732 L3.68993281,34.8585724 Z" id="Shape" fill="#A9A9A9" fill-rule="nonzero"></path>
                    </g>
                    <path d="M19.8430383,10.7061135 L2.99517559,10.7061135 C2.7820068,10.7061135 2.60919935,10.5305994 2.60919935,10.3140918 C2.60919935,10.0975841 2.7820068,9.92207004 2.99517559,9.92207004 L19.8430383,9.92207004 C20.0562071,9.92207004 20.2290145,10.0975841 20.2290145,10.3140918 C20.2290145,10.5305994 20.0562071,10.7061135 19.8430383,10.7061135 Z" id="Path" fill="#A9A9A9" fill-rule="nonzero"></path>
                    <path d="M11.4364759,7.44841291 L3.0144744,7.44841291 C2.80130561,7.44841291 2.62849817,7.2728988 2.62849817,7.05639118 C2.62849817,6.83988355 2.80130561,6.66436944 3.0144744,6.66436944 L11.4364759,6.66436944 C11.6496447,6.66436944 11.8224521,6.83988355 11.8224521,7.05639118 C11.8224521,7.2728988 11.6496447,7.44841291 11.4364759,7.44841291 Z" id="Path" fill="#A9A9A9" fill-rule="nonzero"></path>
                    <path d="M16.3962705,14.1480643 L3.0144744,14.1480643 C2.80130561,14.1480643 2.62849817,13.9725502 2.62849817,13.7560426 C2.62849817,13.539535 2.80130561,13.3640208 3.0144744,13.3640208 L16.3962705,13.3640208 C16.6094393,13.3640208 16.7822467,13.539535 16.7822467,13.7560426 C16.7822467,13.9725502 16.6094393,14.1480643 16.3962705,14.1480643 Z" id="Path" fill="#A9A9A9" fill-rule="nonzero"></path>
                    <path d="M19.8430383,17.6174566 L2.99517559,17.6174566 C2.7820068,17.6174566 2.60919935,17.4419425 2.60919935,17.2254349 C2.60919935,17.0089273 2.7820068,16.8334132 2.99517559,16.8334132 L19.8430383,16.8334132 C20.0562071,16.8334132 20.2290145,17.0089273 20.2290145,17.2254349 C20.2290145,17.4419425 20.0562071,17.6174566 19.8430383,17.6174566 Z" id="Path" fill="#A9A9A9" fill-rule="nonzero"></path>
                    <path d="M20.8620155,4.33576036 L4.01415285,4.33576036 C3.80098406,4.33576036 3.62817662,4.16024625 3.62817662,3.94373862 C3.62817662,3.727231 3.80098406,3.55171689 4.01415285,3.55171689 L20.8620155,3.55171689 C21.0751843,3.55171689 21.2479918,3.727231 21.2479918,3.94373862 C21.2479918,4.16024625 21.0751843,4.33576036 20.8620155,4.33576036 Z" id="Path" fill="#A9A9A9" fill-rule="nonzero"></path>
                    <path d="M19.8430383,10.7061135 L2.99517559,10.7061135 C2.7820068,10.7061135 2.60919935,10.5305994 2.60919935,10.3140918 C2.60919935,10.0975841 2.7820068,9.92207004 2.99517559,9.92207004 L19.8430383,9.92207004 C20.0562071,9.92207004 20.2290145,10.0975841 20.2290145,10.3140918 C20.2290145,10.5305994 20.0562071,10.7061135 19.8430383,10.7061135 Z" id="Path" fill="#A9A9A9" fill-rule="nonzero"></path>
                    <path d="M19.8275992,7.44841291 L14.5281455,7.44841291 C14.3149767,7.44841291 14.1421693,7.2728988 14.1421693,7.05639118 C14.1421693,6.83988355 14.3149767,6.66436944 14.5281455,6.66436944 L19.8275992,6.66436944 C20.040768,6.66436944 20.2135755,6.83988355 20.2135755,7.05639118 C20.2135755,7.2728988 20.040768,7.44841291 19.8275992,7.44841291 Z" id="Path" fill="#A9A9A9" fill-rule="nonzero"></path>
                    <path d="M19.8275992,14.1480643 L17.9942121,14.1480643 C17.7810433,14.1480643 17.6082359,13.9725502 17.6082359,13.7560426 C17.6082359,13.539535 17.7810433,13.3640208 17.9942121,13.3640208 L19.8275992,13.3640208 C20.040768,13.3640208 20.2135755,13.539535 20.2135755,13.7560426 C20.2135755,13.9725502 20.040768,14.1480643 19.8275992,14.1480643 Z" id="Path" fill="#A9A9A9" fill-rule="nonzero"></path>
                    <path d="M19.8430383,17.6174566 L2.99517559,17.6174566 C2.7820068,17.6174566 2.60919935,17.4419425 2.60919935,17.2254349 C2.60919935,17.0089273 2.7820068,16.8334132 2.99517559,16.8334132 L19.8430383,16.8334132 C20.0562071,16.8334132 20.2290145,17.0089273 20.2290145,17.2254349 C20.2290145,17.4419425 20.0562071,17.6174566 19.8430383,17.6174566 Z" id="Path" fill="#A9A9A9" fill-rule="nonzero"></path>
                </g>
                <polygon id="Path" fill="#FFE380" fill-rule="nonzero" points="96 34.9981873 100 38 100 32"></polygon>
                <g id="Group" transform="translate(83.000000, 43.000000)">
                    <g>
                        <path d="M3.19960004,19.6661513 C4.94627996,21.6635565 9.91240856,25.0938828 11.7940592,21.0201236 C13.6757099,16.9463644 10.2855629,14.6252691 12.2823356,12.789709 C14.2791084,10.9541489 19.9240603,3.0000552 17.4429809,1.08159885 C14.9619014,-0.836857503 9.76155893,5.68826255 8.22130482,7.95804116 C6.68105071,10.2278198 2.80262733,10.7449345 1.09564468,13.2397173 C-0.611337973,15.7345 1.45292012,17.6687461 3.19960004,19.6661513 Z" id="Path" fill="#F2F2F2"></path>
                        <path d="M9.04700806,23.3255533 C6.74059661,23.3255533 4.10072809,21.3082868 2.89393105,19.9266824 L2.47710971,19.4569369 C0.857461053,17.6332192 -0.980522593,15.5687075 0.770127057,13.0147131 C1.6990432,11.6567934 3.19166059,10.8752001 4.63267152,10.1172914 C5.95062092,9.42254179 7.20108496,8.76331913 7.8957872,7.74882678 C9.18197878,5.85010764 13.135827,0.828962621 15.9821213,0.378954341 C16.5842865,0.256618595 17.2101886,0.400689961 17.6970434,0.773698446 C18.1944195,1.17868894 18.4769339,1.78858001 18.4632007,2.42767625 C18.6021412,5.67247279 14.0766523,11.688373 12.5522771,13.0857671 C11.8178776,13.7647269 11.9687272,14.4752663 12.3299724,15.7818693 C12.7269451,17.1832109 13.2033123,18.9398222 12.1592741,21.1898636 C11.5876334,22.4214652 10.7182632,23.1280571 9.56704231,23.2938496 C9.39463694,23.3162845 9.22087764,23.3268362 9.04700806,23.3255533 Z M16.4068821,1.13291558 C16.3071771,1.13325742 16.2076441,1.14117535 16.1091526,1.15660023 C13.8344989,1.51581736 10.2736537,5.65668303 8.56667108,8.1830453 C7.77272566,9.36727761 6.35950281,10.113344 4.99391669,10.8199359 C3.62833057,11.5265279 2.23892608,12.2725942 1.4211623,13.4647214 C0.0238183626,15.5055484 1.4211623,17.0884723 3.06859905,18.9279798 C3.2075395,19.0858775 3.35044967,19.2437751 3.48939012,19.4056202 C4.76367252,20.8582785 7.45911722,22.7806823 9.44398077,22.4964665 C10.3212905,22.3740959 10.9643862,21.8372439 11.4288443,20.8543311 C12.349821,18.8569259 11.9290299,17.3332137 11.5558756,15.9910837 C11.2065396,14.7279026 10.8770522,13.5357754 12.0084245,12.4936509 C13.6955585,10.9423066 17.7804077,5.25799148 17.6613159,2.45530833 C17.6795852,2.05185144 17.5114446,1.66221056 17.2047972,1.39739413 C16.9776722,1.2199734 16.6956356,1.12648897 16.4068821,1.13291558 L16.4068821,1.13291558 Z" id="Shape" fill="#A9A9A9" fill-rule="nonzero"></path>
                    </g>
                    <path d="M3.2670854,27.8136696 C3.04784343,27.8136696 2.87011269,27.6369367 2.87011269,27.4189255 C2.87011269,27.11892 2.87011269,20.0016838 5.70449784,15.9713465 C8.48330681,12.0239054 15.3985714,3.5961188 15.4660568,3.51322254 C15.5323728,3.42895865 15.6302481,3.37507455 15.7372649,3.36391202 C15.8442818,3.3527495 15.9512711,3.38526495 16.0337278,3.45401092 C16.1166822,3.52046076 16.1692995,3.61727442 16.179751,3.72268769 C16.1902025,3.82810096 16.1576113,3.9332683 16.0893039,4.01454755 C16.0218186,4.10139125 9.12243287,12.5094407 6.35950281,16.4292497 C3.66405811,20.2582675 3.67199757,27.3478716 3.67199757,27.4189255 C3.67199757,27.6369367 3.49426683,27.8136696 3.27502486,27.8136696 L3.2670854,27.8136696 Z" id="Path" fill="#A9A9A9" fill-rule="nonzero"></path>
                </g>
                <g id="Group" transform="translate(80.000000, 40.000000)">
                    <g>
                        <path d="M2.6074839,21.2087717 C5.45941943,23.1530411 9.36657109,17.9973613 6.66130654,13.926671 C4.57939361,10.7984168 6.10314201,6.10999528 5.0316291,2.81146899 C3.96011618,-0.487057303 0.847432269,0.0989953869 0.794467752,4.46667186 C0.741503235,8.83434832 -0.40741936,19.141748 2.6074839,21.2087717 Z" id="Path" fill="#F2F2F2"></path>
                        <path d="M3.93567102,22.0324133 C3.37372913,22.0306132 2.82653209,21.8574898 2.37118068,21.5374364 C-0.309638714,19.7080016 0.020370968,12.5130169 0.26074839,7.25834176 C0.309638714,6.16939251 0.354454843,5.23091624 0.36260323,4.46271204 C0.395196779,1.64728324 1.61745486,0.471218041 2.64822584,0.316785238 C3.55677101,0.182151512 4.75458393,0.736525678 5.40238071,2.69267452 C5.88313556,4.14196699 5.87906137,5.8605269 5.87498717,7.49989051 C5.87498717,9.71342736 5.87498717,12.0022007 7.00761299,13.712841 C8.55026149,16.0219902 8.23519689,19.0627831 6.24981298,21.0266202 C5.64306096,21.6425877 4.81255035,22.0035516 3.93567102,22.0324133 L3.93567102,22.0324133 Z M2.91304842,1.1008287 C2.00042906,1.22358298 1.21410969,2.30857242 1.18559034,4.47459149 C1.18559034,5.26655458 1.13262582,6.20107103 1.0837355,7.2939801 C0.863729043,12.0774372 0.533719362,19.3041004 2.84378713,20.8840668 C3.69936779,21.4661597 4.75865813,21.3038073 5.69572265,20.4445273 C7.40272704,18.7494018 7.66549487,16.1279374 6.32722266,14.1444609 C5.06014845,12.23187 5.06422265,9.82430219 5.06829684,7.49593069 C5.06829684,5.83280819 5.06829684,4.26076145 4.63235812,2.93422327 C4.24123554,1.79775623 3.58529037,1.1008287 2.91304842,1.1008287 L2.91304842,1.1008287 Z" id="Shape" fill="#A9A9A9" fill-rule="nonzero"></path>
                    </g>
                    <path d="M5.04385168,31.6112069 C4.81884018,31.6112069 4.63643232,31.43392 4.63643232,31.2152254 C4.63643232,31.1043506 4.29012586,19.913912 3.41417424,15.0314595 C2.57081616,10.279681 2.79489681,3.7618247 2.79489681,3.69450784 C2.80277226,3.47581331 2.99156438,3.30473143 3.21657584,3.31213859 C3.44158731,3.32004004 3.61761088,3.50353201 3.60973553,3.72222655 C3.60973553,3.78558359 3.38972908,10.2400828 4.21271618,14.8968258 C5.08866781,19.8347157 5.43497426,31.0805917 5.43497426,31.1914665 C5.43497426,31.4101611 5.2525664,31.587448 5.0275549,31.587448 L5.04385168,31.6112069 Z" id="Path" fill="#A9A9A9" fill-rule="nonzero"></path>
                </g>
                <g id="Group" transform="translate(73.000000, 46.000000)">
                    <path d="M1.40315228,0.83555914 C3.14853681,0.0079577061 4.8254749,2.79315484 6.39213815,5.17648782 C7.95880139,7.55982079 11.2670466,7.96168495 12.8337098,11.3556466 C14.6323305,15.2469649 11.9363008,16.842485 9.57109561,17.7814943 C5.87498717,19.2536699 3.95088134,18.1793796 2.94319746,15.1912609 C1.93551357,12.2031423 3.92426328,10.6474108 2.56293939,8.02932545 C1.2016155,5.41124015 -0.338429682,1.66316057 1.40315228,0.83555914 Z" id="Path" fill="#F2F2F2"></path>
                    <path d="M6.68873944,18.8438982 C6.08730715,18.8468943 5.49264193,18.7110359 4.94715748,18.4459627 C3.89384263,17.9326907 3.11811617,16.9061466 2.58195229,15.3066477 C2.04578841,13.7071488 2.28915358,12.5572602 2.48688777,11.4988853 C2.68462197,10.4405104 2.86714584,9.42590287 2.23591745,8.18450072 C0.574189685,4.92979893 -0.0456309683,2.7374509 0.368850327,1.47217563 C0.508307854,1.01549742 0.828089115,0.64323121 1.24724647,0.449610395 C3.1713523,-0.465525807 4.81406716,2.04115161 6.39974331,4.46029427 L6.70775234,4.92979893 C7.33898074,5.88472366 8.29723107,6.52134015 9.31252012,7.19376631 C10.6852518,8.10094481 12.2405073,9.12748889 13.1797447,11.1726194 C13.8528015,12.6249007 13.9820892,13.918028 13.5600028,15.0122126 C12.9249718,16.6873097 11.1643769,17.5706151 9.70418593,18.1515276 C8.7466151,18.5688743 7.72533539,18.8033513 6.68873944,18.8438982 Z M2.03057809,1.09418459 C1.86916439,1.09496689 1.70974698,1.13158314 1.56286067,1.20161362 C1.33922349,1.30527584 1.16984731,1.50574661 1.09894582,1.75069534 C0.870790979,2.45893118 1.00007872,4.08230323 2.91657939,7.82242509 C3.67709553,9.31847384 3.45654585,10.5161086 3.23979875,11.669976 C3.0534723,12.6766258 2.85954068,13.7190853 3.3082452,15.0599588 C3.75694973,16.4008323 4.41479619,17.3199473 5.27417942,17.7377269 C6.28186331,18.2271258 7.6431872,18.1356122 9.4342027,17.4074821 C10.7498956,16.8822735 12.324164,16.1063971 12.8565253,14.7217563 C13.1911524,13.8464086 13.0694698,12.7721183 12.4952802,11.5386738 C11.6511072,9.71238029 10.2555601,8.79326524 8.90944657,7.90200215 C7.82571107,7.18182975 6.80281686,6.50542473 6.08032653,5.415219 C5.98145943,5.26004373 5.87498717,5.10088961 5.77231749,4.94571434 C4.56309683,3.12339964 3.24740391,1.09418459 2.03057809,1.09418459 Z" id="Shape" fill="#A9A9A9" fill-rule="nonzero"></path>
                </g>
                <path d="M83.6187732,70.9884514 C83.4270011,70.9896472 83.2653333,70.8417594 83.2442415,70.6458434 C83.2442415,70.5804015 82.4652157,64.0785489 80.3753292,59.4822127 C78.8933512,56.3614933 77.1197171,53.3962427 75.0794518,50.6282987 C74.9964912,50.5182743 74.9769408,50.3711173 75.0281649,50.2422601 C75.0793891,50.1134029 75.1936056,50.0224222 75.3277903,50.0035893 C75.461975,49.9847565 75.5957419,50.0409328 75.6787024,50.1509572 C77.7522901,52.9708431 79.5559261,55.9900707 81.0644674,59.1665514 C83.203043,63.8783735 83.9670876,70.2955364 83.9970501,70.5688529 C84.0096784,70.6716845 83.9814287,70.7754056 83.9186916,70.8565524 C83.8559545,70.9376991 83.7640314,70.9894147 83.6637169,71 L83.6187732,70.9884514 Z" id="Path" fill="#A9A9A9" fill-rule="nonzero"></path>
                <g id="Group" transform="translate(78.000000, 67.000000)">
                    <path d="M1.97536659,0.754480706 L13.9500389,0.754480706 C14.3191862,0.753449491 14.6735178,0.897346336 14.9345454,1.15430212 C15.1955731,1.41125791 15.3417502,1.76006217 15.3407026,2.12345105 L15.3407026,5.38252061 C15.3407026,7.65069572 13.4728405,9.48941494 11.1687227,9.48941494 L4.75668276,9.48941494 C2.45256501,9.48941494 0.584708512,7.65069572 0.584708512,5.38252061 L0.584708512,2.12345105 C0.584708512,1.36739268 1.20732734,0.754480706 1.97536659,0.754480706 L1.97536659,0.754480706 Z" id="Path" fill="#F2F2F2"></path>
                    <path d="M11.1805749,9.88221449 L4.76853496,9.88221449 C2.24494515,9.88007015 0.199714986,7.86674416 0.197536659,5.38252061 L0.197536659,2.12345105 C0.197536659,1.14982436 0.998165922,0.359942165 1.98721879,0.357797613 L13.9618911,0.357797613 C14.9515858,0.359936492 15.7533512,1.14919491 15.755524,2.12345105 L15.755524,5.38252061 C15.751169,7.86737313 13.7048065,9.88007423 11.1805749,9.88221449 L11.1805749,9.88221449 Z M1.97536659,1.16673135 C1.42770224,1.16673135 0.983732564,1.6037754 0.983732564,2.14289657 L0.983732564,5.40196613 C0.988085618,7.45079652 2.67538215,9.11003315 4.75668276,9.11217181 L11.1687227,9.11217181 C13.2509237,9.11217181 14.9394926,7.45168508 14.9416729,5.40196613 L14.9416729,2.14289657 C14.9416729,1.88400146 14.8371975,1.63571001 14.65123,1.45264352 C14.4652626,1.26957703 14.2130366,1.16673135 13.9500389,1.16673135 L1.97536659,1.16673135 Z" id="Shape" fill="#A9A9A9" fill-rule="nonzero"></path>
                </g>
                <polygon id="Rectangle" fill="#A9A9A9" fill-rule="nonzero" transform="translate(77.711755, 2.536648) rotate(-45.000000) translate(-77.711755, -2.536648) " points="76.2781672 2.14364055 79.1462497 2.14034763 79.1453435 2.92965643 76.277261 2.93294934"></polygon>
                <polygon id="Rectangle" fill="#A9A9A9" fill-rule="nonzero" transform="translate(77.754688, 2.618800) rotate(-45.000000) translate(-77.754688, -2.618800) " points="77.3616802 1.18521144 78.150989 1.18430521 78.1476961 4.05238767 77.3583873 4.05329389"></polygon>
                <path d="M22.5330227,37.6579036 C22.2759376,36.9252381 21.9318341,36.2270704 21.5083149,35.5788263 C20.9765536,34.8897382 20.0139493,33.8738254 20.7902431,33.3934326 C21.5665369,32.9130397 22.5174968,33.2713655 23.5926638,34.8149229 C25.7158273,37.8665989 24.9589408,40.0126162 24.9589408,40.0126162 C24.9589408,40.0126162 25.4324801,40.114995 25.878849,41.3986677 C26.3252179,42.6823405 26.5619875,43.3044886 26.5619875,43.3044886 C26.5619875,43.3044886 27.5828139,47.3011997 28.9879057,49.714977 C30.3929975,52.1287542 31.5496752,53.9085704 31.5496752,53.9085704 C31.5496752,53.9085704 36.9837318,49.1007041 39.029266,47.6083361 C41.0748002,46.1159681 44.599174,43.4344309 47.4326464,43.556498 C48.9442384,43.6041718 50.451009,43.7541356 51.9429134,44.0053897 L53.3441237,43.0721675 L53.1733391,42.2058852 C53.1733391,42.2058852 50.3204594,43.0485416 48.7678718,40.4024432 C47.2152842,37.7563448 48.0498,33.8856384 48.0498,33.8856384 L48.2205846,31.0465953 C48.2205846,31.0465953 47.7315195,29.2982803 47.4442908,28.5501275 C47.1570621,27.8019747 46.8387817,26.3686714 47.4442908,26.6797454 C48.0498,26.9908195 48.4689986,27.2349536 48.4689986,27.2349536 C48.4689986,27.2349536 48.7212941,24.7660493 49.2452924,25.0180587 C49.7692908,25.270068 49.5907432,26.0379091 50.8832724,25.9512809 C52.1758015,25.8646526 59.504015,24.0690859 61.8484223,26.8530019 C64.1928296,29.6369179 64.6935391,33.042982 64.138489,34.9960547 C62.9740483,39.1108952 58.8441653,40.4024432 58.8441653,40.4024432 C58.5235635,41.0846905 58.474898,41.8661443 58.7083139,42.5838993 C58.998987,43.3298418 59.3909188,44.0309507 59.8727546,44.6669143 C59.8727546,44.6669143 67.464908,44.7929189 70.6981717,46.5018575 C73.9314354,48.210796 76.7183301,53.8888821 78.794916,59.6024071 C80.8715019,65.315932 83.0645319,70.9310158 82.998547,72.387945 C82.932562,73.8448742 82.2843567,75.9554526 78.4533468,76.5460996 C73.2793486,77.3336289 52.4475044,76.8571737 52.4475044,76.8571737 C52.4475044,76.8571737 44.8631139,75.9160762 43.0892826,74.5339623 C41.3154513,73.1518484 41.7424128,72.8525873 40.9001341,72.4233838 C40.0578553,71.9941804 38.3150757,71.4468475 38.5440824,70.3088677 C38.7730891,69.1708879 39.9879889,69.8324125 40.7293494,70.3443065 C41.47071,70.8562005 41.0709187,70.4112465 41.0709187,70.4112465 L41.2106516,68.1943516 C41.2106516,68.1943516 40.4071875,67.6706446 40.3877802,67.2926305 C40.3931894,66.9554337 40.4282618,66.6193999 40.4925798,66.2885307 C40.4925798,66.2885307 39.6697084,66.3121566 39.533857,65.8711402 C39.4866322,65.5110631 39.5590167,65.1452876 39.7395748,64.8316015 C39.7395748,64.8316015 38.4198754,65.2647426 38.5440824,64.5205275 C38.6682894,63.7763123 38.6954597,62.921843 39.6037234,62.9454689 C40.5119872,62.9690948 42.0296416,63.2211041 42.0296416,63.2211041 L42.0956265,59.5866565 C42.0956265,59.5866565 36.8051843,64.414211 32.7801009,65.4931261 C28.7550175,66.5720412 25.7391161,62.7367736 22.5679559,55.3064349 C19.3967958,47.8760961 17.7161197,44.9110483 17.7161197,44.9110483 C17.7161197,44.9110483 15.4105271,42.0838182 16.1441247,41.028529 C16.8777224,39.9732397 17.2037658,40.5087596 17.2037658,40.5087596 C17.2037658,40.5087596 17.106729,38.8982623 18.3992582,38.3627423 C19.1318687,38.0484569 19.8996361,37.8262978 20.6854435,37.7012177 L22.5330227,37.6579036 Z" id="Path" fill="#FFFFFF" opacity="0.98999995"></path>
                <path d="M57.1826658,35.4734317 C58.2755623,35.808744 59.3051577,36.3331854 60.2274061,37.0243202 C60.9932539,37.5867936 61.6836164,38.2511044 62.2805642,39 C62.2805642,39 65.7802656,34.0347521 62.7938537,29.3339968 C59.8074419,24.6332415 55.5378062,26.252257 54.4101246,26.3364137 C53.2824431,26.4205704 50.7471038,27.3623245 50.1327118,27.0777945 C49.5183198,26.7932646 49.3550004,26.0999733 48.9350362,26.2322196 C48.515072,26.364466 48.3517526,28.2359516 48.3517526,28.2359516 L47.0529746,27.8151679 C46.9570817,28.3792299 46.9917215,28.9586533 47.154077,29.5063177 C47.3412103,30.1503031 47.5818968,30.7764526 47.8734601,31.3778034 L49.0711357,30.2116314 L49.3122262,30.8808779 L51.0581884,30.0793851 L51.2953904,30.92496 L53.5896391,31.0652212 L53.247446,32.1953261 C53.247446,32.1953261 55.8177823,31.7665274 56.4632828,32.9968189 C56.8570766,33.7662871 57.1014346,34.6075359 57.1826658,35.4734317 L57.1826658,35.4734317 Z" id="Path" fill="#000000" fill-rule="nonzero"></path>
                <polygon id="Path" fill="#FFCE1E" points="52.5183624 48.3411026 54.205298 47 55 49.4840879 54.1402769 50.1203496 53.4178206 61.4854325 52.1462974 63.4285074 50.6183022 64 49 60.6815329 53.0999398 49.8498431"></polygon>
                <path d="M46.1484705,64.8967179 C46.1484705,64.8967179 46.3913206,53.9875523 47.6903755,50.2542614 C48.5494963,47.9134499 50.0403098,45.8519024 52,44.2947663 C52,44.2947663 45.0807013,43.0286604 41.515046,45.7444766 C37.9493907,48.4602927 32.0169112,53.9225257 32.0169112,53.9225257 C32.0169112,53.9225257 30.1781895,51.6733709 29.6423775,50.8624512 C29.1956724,50.1152166 28.7990581,49.3395935 28.4551107,48.5406196 C28.4551107,48.5406196 27.9539915,51.9832035 26.0111912,52.5148914 C24.0683909,53.0465793 21,51.6045192 21,51.6045192 C21,51.6045192 22.850286,55.3378101 24.08381,58.1071776 C25.317334,60.876545 29.3455608,65.2065504 31.955235,64.9923452 C34.5649092,64.77814 42.1626461,59.2547055 42.1626461,59.2547055 L41.823427,62.7584908 L46.1484705,64.8967179 Z" id="Path" fill="#FFCE1E"></path>
                <path d="M56.0309413,68.3248443 C56.0309413,68.3248443 56.0309413,58.0721223 56.9862535,53.3600326 C58.1465517,47.6152098 61.9213886,45 61.9213886,45 C61.9213886,45 72.1474837,45.7146669 73.6984157,48.1767338 C75.2493476,50.6388007 77.6086207,57.2907008 79.7899814,61.7593326 C81.971342,66.2279643 83.7001864,72.035615 82.7178006,74.1992495 C81.7354147,76.362884 79.2871855,76.5552944 77.5119292,76.7908989 C75.7366729,77.0265034 57.972507,76.9990162 57.972507,76.9990162 C57.972507,76.9990162 60.9428705,73.857623 60.2544268,71.8157174 C59.7936309,70.5545386 58.9463155,69.4768066 57.8371389,68.7410789 L56,68.6703975 L56.0309413,68.3248443 Z" id="Path" fill="#FFCE1E"></path>
                <g id="Group" transform="translate(15.106166, 25.153243)" fill="#000000" fill-rule="nonzero">
                    <path d="M43.7796894,16.4240232 C43.8429432,17.4627274 44.1737966,18.4674951 44.7401805,19.3409356 C46.6611628,19.590511 48.5157697,19.8985806 50.4445608,20.198851 C52.373352,20.4991214 54.2357677,20.7019015 55.8365863,21.3297396 C58.8703327,22.4996242 60.4945779,25.291749 61.849417,28.3490476 C63.1730207,31.3439524 64.2389316,34.7210195 65.4219755,37.8524108 C65.9959276,39.3693612 66.6479683,40.9448059 67.1750671,42.6216406 C67.7021659,44.2984753 68.3073534,46.1078969 68.1706981,48.1473959 C68.1280798,49.2900751 67.5495155,50.3460961 66.6089239,50.9980149 C64.4771021,52.4564711 60.4203936,52.4720696 56.7502242,52.4720696 C53.0800548,52.4720696 49.2107592,52.538363 45.5171632,52.538363 C41.9148278,52.5510574 38.3141815,52.3805534 34.7292078,52.0275134 C32.9761162,51.8442314 31.387011,51.6375518 29.9853186,51.0994049 C28.7054965,50.6001924 27.5297936,49.8676076 26.5181799,48.9390178 C26.5494154,49.3640759 26.6275041,49.972416 26.689975,50.6509491 C26.7368283,51.169598 26.96719,52.0977065 26.2995315,52.0938068 C25.6084464,51.9339226 25.7411972,50.9239222 25.6787262,50.2063929 C25.6123508,49.4264698 25.5108355,48.6465467 25.4756956,47.9407163 C24.8470815,47.3479747 23.2696895,47.3050789 22.7933484,46.38087 C22.4029048,45.6282442 22.6566931,44.6338422 23.3438738,44.3920661 C24.0310544,44.1502899 24.6987129,44.5207534 25.2687605,44.7001357 C25.2336206,44.2828768 25.4249379,43.9202126 25.3351359,43.6043437 C25.2882827,43.4249614 24.8978391,43.1714864 24.7885149,42.9492083 C24.6009479,42.6037931 24.5401778,42.2037572 24.6167198,41.8183198 C24.0700988,41.5765436 23.4727202,41.2294778 23.6523242,40.3793617 C22.0710278,40.254574 22.691833,38.5114458 23.6874641,38.0083954 C24.4136891,37.6457311 25.3234226,37.7276231 26.0574565,37.8719088 C26.1823984,37.1153834 26.2565827,36.3120626 26.3659069,35.5321395 C24.0466722,37.403955 21.7391508,39.3537628 18.603889,40.4027593 C16.9054596,40.9721032 14.79316,41.0695936 13.3446144,40.2662728 C12.0132019,39.5253458 11.0683285,38.3554612 10.185926,37.0763873 C8.46406996,34.5728341 7.10532639,31.6871185 5.78953162,28.7702061 C4.47373684,25.8532936 2.89244045,23.0845666 1.83824286,20.0545653 C0.608345665,19.5242175 -0.840199918,16.8373824 0.600536794,15.593405 C0.876303689,15.3639361 1.20746926,15.2106586 1.56102794,15.1488489 C1.70269422,14.4509159 2.09412493,13.8284498 2.66207876,13.3979215 C3.6225699,12.7427861 5.12577758,12.6842918 6.56651429,12.5049095 C6.28929937,11.1985383 4.46592797,10.9645614 4.57525217,9.35012051 C4.54791399,8.78546451 4.97191078,8.30001943 5.53574331,8.25042891 C6.31663042,8.18023583 7.09751752,8.71448317 7.59728527,9.14344088 C9.02240424,10.3679202 9.8306224,12.3294268 10.0375575,14.7354896 C10.0258432,14.9537114 10.0258432,15.1724033 10.0375575,15.390625 C10.0648885,15.5310112 10.2796325,15.7337912 10.3811478,15.9053743 C10.6516709,16.5066696 10.8812528,17.125515 11.0683285,17.7576917 C11.1229906,17.8941782 11.2440281,18.0072671 11.306499,18.1476532 C11.521243,18.5805106 11.638376,19.0952598 11.8218845,19.5515149 C13.0670216,22.662459 14.5729773,25.6628252 16.3236987,28.5206307 C19.2676431,26.3680429 21.7157242,23.5954162 24.6050065,21.4194307 C27.3849646,19.3214375 31.0004719,18.1593521 36.0450026,18.5688117 C36.6189546,18.6156071 37.0952957,18.830086 37.2827086,18.2958386 C37.4779304,18.2256456 37.7004832,18.1710509 37.5560191,17.9058771 C37.4466949,17.7147959 37.0250159,17.9058771 36.6267635,17.9058771 C34.2841021,17.9058771 32.9253586,16.4318224 32.265509,14.8173815 C31.7153321,13.2742039 31.6311558,11.603603 32.023434,10.0130552 C32.1366626,9.50220552 32.1913247,8.81977279 32.7106146,8.84317048 C33.4524574,8.87826702 33.0229695,9.74398168 32.8824098,10.4888083 C32.3162666,13.5032111 33.2455223,16.1081543 35.564757,16.771089 C37.2788042,17.2585409 38.4735615,16.537112 39.4691925,15.7727874 C39.8166873,15.5115131 40.2032264,15.0747562 40.5351034,15.1215516 C40.7387445,15.1646758 40.8942952,15.329356 40.925547,15.5349108 C40.9763047,16.0418608 40.10952,16.4942162 39.8284006,16.7047955 C39.3959086,17.0384051 38.9221731,17.3149557 38.4188994,17.5276144 C38.5282236,17.9760702 38.6102167,18.4596225 38.6922099,18.9353756 C40.3283295,18.8862517 41.8554367,18.1043069 42.8504337,16.8061855 C42.745014,15.8507797 42.5497922,15.1761462 42.8504337,14.6107019 C43.3033482,13.7605857 44.6347607,13.7644853 45.1189108,12.8597745 C45.6382007,11.8887702 44.9627333,11.0074571 43.8109249,11.4871098 C43.5083393,11.6246728 43.2301109,11.8103684 42.987089,12.0369556 C42.7606317,12.2436353 42.4912256,12.6023999 42.2062018,12.5868014 C41.6869119,12.5634037 41.7962361,12.033056 41.8157583,11.5222064 C41.893847,10.1690398 41.8782293,8.40251392 41.1285776,7.6459885 C40.2149397,6.74907692 37.4232683,7.79027428 37.8293296,5.96525419 C36.9781627,5.96525419 35.9552006,5.90286034 35.7677877,5.1424353 C35.2406889,5.32181762 34.4051396,5.85996457 33.8468054,5.38031185 C33.6007254,5.69980933 33.4455949,6.07974676 33.3977953,6.48000344 C33.3158021,6.90896116 33.3118977,7.45880695 32.9175497,7.50950196 C32.1874203,7.59919311 32.3396933,6.51120037 32.5271062,5.94965572 C32.1614428,5.3134475 31.8518276,4.64670478 31.6017549,3.95695216 C31.3674888,3.33691329 30.9575231,2.08123707 31.6329904,1.76146859 C32.0246422,1.63380535 32.4526122,1.68367354 32.8043211,1.89795514 C33.0659183,1.24671934 33.0112562,0.123630053 33.7296723,0.0105412008 C34.5417949,-0.110346882 34.6511191,0.845058934 35.2094534,1.00884279 C35.7677877,1.17262664 36.6814256,0.872356243 37.2358554,0.767066623 C39.1529333,0.400502759 41.3355127,0.0378385099 43.5219966,0.458996992 C45.8066459,0.892893673 47.7327391,2.41874981 48.6758515,4.5418945 C49.737858,6.72957884 49.8471822,9.88436784 48.6407116,12.0564537 C47.5943229,14.0569565 45.7748559,15.3048335 43.7796894,16.4240232 Z M33.2650445,3.14193251 C32.8355566,3.18092866 32.687188,2.81046519 32.2694134,2.73247287 C32.469856,3.4583455 32.7230138,4.16865813 33.0268739,4.85776336 C33.29628,4.72907605 33.565686,4.14803333 34.0576449,4.17143102 C34.3426687,4.17143102 34.4480884,4.40930757 34.6394058,4.61988681 C35.143078,4.45220334 36.1035691,3.8399637 36.5642925,4.34301411 C36.7009477,4.49509911 36.6619034,4.73297566 36.8063675,4.92795644 C37.4935482,5.33741608 39.078749,4.47560104 39.1490288,5.37251262 C39.1724554,5.73517687 38.864005,5.8443661 38.8054385,6.19923112 C40.0392401,6.30062113 41.0895333,6.31621959 41.7610962,6.91676039 C42.682543,7.74347889 42.8152938,9.20583473 42.8231027,10.968461 C44.1193753,9.97795862 46.3370946,10.4147156 46.3370946,12.1695426 C46.3370946,13.4993115 45.3883168,14.2324392 44.5176277,14.6379992 C44.2169861,14.7783854 43.713314,14.8797754 43.6898873,15.3594281 C46.3019547,13.7995819 48.8827866,12.083751 48.6407116,7.80977235 C48.4415854,4.34691372 45.9661733,1.46899743 42.3936148,1.28961511 C41.2442888,1.24487926 40.0933538,1.31411137 38.9577115,1.49629474 C37.9698893,1.64448013 36.9703538,1.97984707 35.8653985,2.04614053 C35.1621789,2.10119514 34.4743562,1.82062065 34.0107917,1.28961511 C33.7101501,1.88625629 33.960034,3.08733789 33.2650445,3.14193251 L33.2650445,3.14193251 Z M7.15608406,9.93896246 C6.7656405,9.58019783 6.04722436,8.99915511 5.53964774,9.21753358 C5.40337664,9.58465754 5.5145979,9.9977021 5.81686267,10.2470321 C6.29274242,10.6658824 6.71854911,11.1382715 7.08580422,11.6547933 C7.26256883,11.9367216 7.41287757,12.2343571 7.5348143,12.5439057 C7.7097902,12.8844457 7.80334253,13.2608627 7.80812479,13.6435973 C7.77298487,13.8346784 7.61290301,13.8736746 7.60118971,14.0335588 C7.91318749,14.0703525 8.2160332,14.1628111 8.49530544,14.3065319 C8.7764248,14.4313196 9.05754416,14.6340996 9.21762602,14.6146015 C9.11605154,12.8590942 8.38411049,11.1990299 7.15608406,9.93896246 L7.15608406,9.93896246 Z M4.61429652,14.02186 C3.18136868,15.13715 3.42344369,18.525916 5.81686267,18.1047575 C5.91065713,17.6588899 6.07263717,17.2301069 6.29710824,16.8334828 C5.05549774,17.1844482 3.5132457,16.5995059 4.02863119,15.4296212 C4.41907475,14.4976131 5.85590702,13.869775 7.15217962,13.9516669 C7.03895099,13.8151803 7.01161994,13.5890026 6.8749647,13.4720142 C5.97304009,13.4954119 5.2155796,13.5500065 4.61429652,14.02186 Z M3.75532071,18.5181167 C2.9744336,17.8590817 2.53713682,16.2914362 2.92758037,14.9811654 C3.01738239,14.6847946 3.20089086,14.4469181 3.16965538,14.2597365 C2.00222915,15.1761462 2.33410617,18.1320548 3.75532071,18.5181167 L3.75532071,18.5181167 Z M4.44250136,23.6968062 C6.46109453,24.5976174 9.0731619,24.1842582 10.2796325,22.8388908 C10.912151,22.13696 11.126895,20.8695849 10.9004377,19.6841018 C10.8184446,19.2512445 10.490472,18.8144875 10.3499123,18.3777306 C10.2093526,17.9409736 10.1507861,17.4964174 10.006322,17.1103555 C9.63505018,15.9037442 8.61053113,15.0119864 7.36301914,14.8095823 C6.36626581,14.5980363 5.34197419,15.0211976 4.78609169,15.8741774 C5.08982031,16.0740313 5.45943738,16.1481431 5.81686267,16.080857 C6.45328566,16.0145635 7.65194737,15.1410496 7.73784495,16.0106639 C7.77298487,16.3304324 7.2380772,16.9543709 7.0506643,17.2819386 C6.74401176,17.7432441 6.58847103,18.2883273 6.60555865,18.8417848 C6.68364736,19.4618237 7.19122398,19.843986 7.60118971,20.179353 C7.91744899,20.4367276 8.30008367,20.6161099 8.28837036,20.9319788 C8.25713488,21.8093923 7.08580422,20.9085811 6.84763365,20.6941022 C6.35709167,20.2512402 5.97959431,19.6977261 5.74658283,19.0796614 C5.1726308,19.032866 4.96569572,19.235646 4.50887676,19.3565341 C4.24727958,19.9375768 3.48591465,20.027268 2.86120497,20.2456464 C3.30831537,21.4309414 3.83666539,22.5840587 4.44250136,23.6968062 L4.44250136,23.6968062 Z M2.88072715,19.235646 C2.78702069,19.0367656 2.51761464,18.9080783 2.36534166,18.7208967 C1.82664018,18.0219585 1.52567574,17.1693677 1.50636584,16.2875366 C0.342844049,16.9621701 1.48293922,19.4306268 2.89634489,19.235646 L2.88072715,19.235646 Z M42.2530551,22.0160719 C42.5185567,21.7391992 42.8582426,21.4350292 43.1784063,21.0567665 C43.4478123,20.736998 43.892918,20.2183491 43.8655869,19.8205883 C43.7667769,19.5325465 43.6358038,19.2565344 43.4751434,18.9977694 C43.2994438,18.6351052 43.1705974,18.2178463 43.0612732,18.0345644 C42.1467847,18.9760776 40.9554673,19.6017375 39.6605099,19.8205883 C38.836674,19.9687737 37.7082921,20.2105499 37.6341078,19.4072291 C36.8118969,20.4418221 36.1836034,21.6162713 35.779501,22.8739873 C36.2519377,22.5152227 36.6736167,22.1954542 37.1850977,21.7742957 C37.4779304,21.5364192 38.200251,20.7058011 38.6648788,20.7447972 C39.1295066,20.7837934 39.4262437,21.8054927 39.62537,22.2227515 C39.9182026,22.8310916 40.1954175,23.2912462 40.4062571,23.8683893 C41.0231579,23.45503 41.56197,22.7491996 42.2686728,22.0160719 L42.2530551,22.0160719 Z M33.2494267,19.5125187 C28.8452234,19.7152987 26.3268625,21.1464576 23.8787814,23.25225 C21.5361201,25.2605521 19.3496362,27.4443368 16.9054596,29.3941446 C17.2100056,29.74511 17.4091318,30.1740677 17.7644354,30.6615196 C17.9713705,30.96179 18.6351245,31.5662304 18.5882713,32.0029874 C18.5377362,32.228251 18.3391344,32.3895166 18.1080257,32.392949 C17.8190975,32.392949 17.483316,31.8743001 17.3271386,31.6403231 C15.7938147,29.4637882 14.404771,27.1893504 13.1689148,24.8315943 C12.6730515,26.9763829 10.9785264,28.6103218 8.22199496,28.3997426 C7.61220887,28.3307792 7.01903842,28.1566103 6.4689034,27.8849933 C7.53090987,30.1974654 8.37426794,32.2408639 9.66273167,34.4714441 C10.7715914,36.3900549 12.1537615,38.8351139 14.2309212,39.6891297 C15.8981152,40.3715624 17.9088995,39.7632224 19.2832608,39.1743804 C21.7274375,38.1253839 23.6523242,36.6864257 25.569402,35.0212899 C25.8973746,34.7366179 26.4752311,34.299861 26.600173,33.9566948 C26.7468628,33.3829259 26.8396694,32.7967465 26.8773879,32.2057674 C27.0491831,30.9266935 27.1936472,29.9244923 27.3927734,28.6376192 C27.4825754,28.0487772 27.4825754,27.2064602 28.0448142,27.2298579 C28.7398037,27.2610549 28.4118311,28.243758 28.3181247,28.8442988 C27.8378791,31.9444932 27.3927734,35.1070814 27.0140432,38.1448819 C28.0132602,38.5324642 28.9884909,38.9791102 29.934561,39.4824501 C30.0868339,39.5721412 30.2273936,39.7710216 30.4148065,39.7242262 C31.019994,31.8743001 30.7857279,23.1859566 35.7404566,19.6841018 C35.8029276,19.6841018 36.0332893,19.5554145 35.8771118,19.5437156 C35.0087782,19.4613113 34.1351028,19.4508767 33.2650445,19.5125187 L33.2494267,19.5125187 Z M32.1874203,29.7022142 C31.7384102,33.0909801 31.4611953,36.8619084 31.2933045,40.4417555 C31.9185316,40.9671492 32.5701128,41.4604381 33.2455223,41.9197098 C33.5149283,42.130289 33.870232,42.3525671 34.2411534,42.6372391 C34.6120747,42.921911 34.8931941,43.3196718 35.2055489,43.3937645 C35.6181337,43.4283248 36.0332981,43.4165523 36.443255,43.358668 C37.7512409,43.3391699 38.9616159,43.2689768 40.2539841,43.2572779 C40.2813151,36.3432595 40.4609192,29.3005538 42.6239764,24.4884282 C43.2526755,23.1342783 44.1009356,21.8931048 45.1345285,20.8149903 C45.2594704,20.6785038 45.5249721,20.5030211 45.4429789,20.3704341 C45.2048083,20.3431368 44.9822555,20.3041407 44.7557983,20.2651445 C44.2404128,21.4350292 43.4634301,22.2149523 42.4873212,23.182057 C42.1749664,23.4979258 41.8508982,23.8449916 41.4565502,24.246652 C41.1324821,24.5781193 40.6756631,25.2137567 40.2539841,25.1747605 C39.832305,25.1357644 39.7698341,24.4923278 39.500428,24.2817486 C39.0201825,24.4728297 39.1529333,25.088969 39.1099845,25.5179267 C38.8835272,28.5908238 38.7195409,31.6364235 38.4930837,34.6781237 C38.5027253,35.200128 38.4674557,35.7219949 38.3876639,36.2379699 C38.2174331,36.5672623 37.9975164,36.8684525 37.7356232,37.1309819 C37.4818349,37.4273527 37.2202377,37.6769281 36.9781627,37.910905 C36.5408659,38.3515616 35.806832,39.1548824 34.9869005,39.0456931 C34.3192421,38.956002 33.9444163,37.9421019 33.6476792,37.3298623 C33.4680751,36.9399007 33.3509421,36.6708272 33.1986691,36.3003638 C33.0032898,35.9602689 32.8710189,35.5877253 32.8082255,35.2006722 C32.9188599,34.7000653 33.0920101,34.215319 33.323611,33.7578144 C34.4246618,30.8993962 35.4983816,28.1618661 36.6189546,25.3190463 C36.7868453,24.8939882 37.1772889,24.2544512 37.16948,23.9112851 C37.16948,23.6656093 36.9039784,23.4316324 36.9313094,23.1898562 C36.5802483,23.426122 36.246247,23.6867385 35.9317739,23.9697793 C35.6701768,24.1803585 35.2445933,24.6951078 34.8346276,24.6561116 C34.0537405,24.5781193 34.6003614,23.3107443 34.7994876,22.7063039 C34.9986139,22.1018634 35.2211667,21.4701257 35.3148731,21.2322492 C33.3782731,23.1742577 32.6481437,26.2978498 32.203038,29.7022142 L32.1874203,29.7022142 Z M45.7904737,21.5364192 C45.5015454,21.8444888 45.228235,22.13696 44.9666378,22.4606281 C41.3237994,27.0036802 41.3355127,35.060286 41.2222841,43.2221814 C44.8260781,43.1051929 48.4845342,43.0427991 52.0766149,42.9141118 C52.2132701,41.9743044 52.3304032,41.0851921 52.4670584,40.1843809 C52.5441206,39.8804634 52.5899098,39.569481 52.6037137,39.2562724 C52.5039556,38.9362587 52.3731889,38.6267242 52.2132701,38.3320635 C51.432383,36.4173522 50.7139669,34.6625252 49.9447931,32.7712117 C49.7925201,32.4046478 49.4137898,31.5584312 50.1517282,31.5701301 C50.5695028,31.5701301 50.8037689,32.3500532 50.9755641,32.7712117 L51.557325,34.2140694 C52.7520822,37.1231826 53.8999863,40.0634928 55.1298835,42.8244206 C55.9498149,42.8244206 56.6291867,42.8244206 57.5350158,42.7893241 C58.0425924,42.7893241 59.4872335,42.4773548 59.4599025,43.2377799 C59.4599025,43.7876257 58.5931178,43.7174326 57.8786061,43.7174326 C53.1308125,43.7174326 48.070664,44.0411007 43.588372,44.1073941 C44.3692591,44.7976261 45.2321394,45.6048465 45.3414636,47.0243066 C45.4781188,48.7869328 44.6152386,50.2141921 43.8968224,51.1734976 C43.7874982,51.321683 43.561041,51.4659687 43.6235119,51.5868568 C47.7036471,51.676548 51.7994,51.5517603 55.9888593,51.5517603 C58.0070181,51.5905709 60.0258208,51.5228832 62.0368299,51.3489803 C63.7938259,51.1539995 65.7811836,50.7679376 66.6401594,49.6994429 C67.6982614,48.3852724 67.030603,45.6009469 66.573784,43.9709076 C66.1169651,42.3408683 65.515682,40.8512151 64.9573477,39.4044578 C63.786017,36.3705568 62.7708638,33.2976598 61.6268642,30.3807473 C60.4828646,27.4638349 59.124121,24.4689301 56.7814597,22.8661881 C54.3372831,21.1971526 50.007264,21.3375388 46.7158249,20.5654149 C46.4073745,20.8773842 46.0911152,21.2322492 45.8060914,21.5364192 L45.7904737,21.5364192 Z M5.00864451,24.9329844 C5.26334328,25.3893156 5.49274916,25.8592775 5.69582517,26.3407456 C7.25759938,27.736808 10.2991547,27.9278891 11.6071406,26.0989694 C11.851573,25.7172552 12.0359245,25.3003461 12.1537615,24.8627913 C12.3517665,24.3837715 12.4577294,23.8718089 12.4661164,23.35364 C12.399741,22.8388908 11.9194954,22.4099331 11.7789357,21.8795854 C11.2401236,24.4143355 8.03848649,25.646614 5.02426225,24.9329844 L5.00864451,24.9329844 Z M37.7512409,22.5308212 C37.9074183,22.9675781 37.9542716,23.5174239 38.3017663,23.7669993 C38.5963327,23.707936 38.8763082,23.5913131 39.1256022,23.4238331 C38.9171578,22.9173258 38.6758726,22.42493 38.4032816,21.9497784 C38.2353909,22.1759561 37.9503671,22.3007438 37.7668586,22.5308212 L37.7512409,22.5308212 Z M33.7999521,35.1928729 C34.1903957,36.2223714 34.5378905,37.3142638 35.2094534,38.0746888 C35.6929166,37.8437229 36.1245651,37.5174015 36.4783949,37.1153834 C36.7712276,36.7995146 37.3568929,36.2613676 37.4779304,35.8792053 C37.5548398,35.425848 37.5888283,34.9662639 37.5794457,34.5065406 C37.7395276,32.1667712 37.9035139,29.7334111 38.0245514,27.4365376 C38.1344862,26.5309629 38.181452,25.6188675 38.1651111,24.7068066 C38.0596913,24.734104 38.0635957,24.6483124 37.958176,24.6756097 C36.5564836,28.1384684 35.23288,31.7105162 33.8155699,35.1928729 L33.7999521,35.1928729 Z M23.6484198,39.412257 C24.4293069,39.462952 24.6752863,38.9949981 25.1282008,38.7259246 C24.4293069,38.7181254 23.8826859,38.8936081 23.6796552,39.412257 L23.6484198,39.412257 Z M24.5776754,40.7186282 C24.6905612,40.8461755 24.8523422,40.9198793 25.0227811,40.9214082 C25.8950059,40.1453048 27.0173644,39.707987 28.1853738,39.6891297 C26.8969101,39.0495927 24.9212657,39.3810601 24.6089109,40.7186282 L24.5776754,40.7186282 Z M25.7802416,41.5414471 C25.5256141,41.8232307 25.4712706,42.2326296 25.6435863,42.5709456 C26.4713266,41.7208294 27.6192307,40.9838021 29.2825202,41.2996709 C29.6904248,41.4003174 30.117924,41.3895421 30.5202263,41.268474 C29.38794,40.508049 26.7134016,40.4729524 25.811477,41.5414471 L25.7802416,41.5414471 Z M53.0253927,42.9141118 C53.3701578,42.9134662 53.7145015,42.8900172 54.0561637,42.8439187 C53.763331,42.2667756 53.5720137,41.5882425 53.2752766,41.0266978 C53.2401367,41.6779336 53.1347169,42.2823741 53.0566282,42.9141118 L53.0253927,42.9141118 Z M37.6341078,45.2811784 C37.6341078,46.1117966 36.68533,45.5463523 36.290982,45.316275 C35.896634,45.0861977 35.6818901,44.9575103 35.4007707,44.7664292 C34.5456993,44.1931857 34.1357336,43.6745368 33.4056042,43.358668 C32.8355566,42.6372391 31.6134682,42.1575864 30.2820557,42.262876 C29.0131142,42.3603664 27.5879952,42.9570075 27.5997085,44.1502899 C28.2205138,43.8266218 28.7085682,43.2455791 29.7666702,43.2572779 C30.4697906,43.3029192 31.1521262,43.5140484 31.7579324,43.8734172 C32.1835158,44.1073941 33.1596247,44.6182438 33.1322937,45.1446919 C33.1137334,45.364169 32.9383379,45.5376953 32.7184235,45.5541515 C32.3943553,45.5814488 32.2225602,45.316275 31.9961029,45.1446919 C31.2994032,44.567918 30.4291822,44.2411298 29.5245952,44.2165834 C30.5007041,45.620445 29.8838033,47.780832 27.962821,47.2036889 C26.4947533,46.766932 25.2882827,45.3591707 23.6679419,45.316275 C23.3399693,46.3028777 24.3668359,46.3652716 24.9759278,46.58365 C25.5890502,46.8250934 26.1401019,47.2008919 26.5884597,47.6833416 C27.5016735,48.6269706 28.5717006,49.4054109 29.7510525,49.9841148 C31.7969767,50.9512195 35.0727981,51.1539995 37.8918006,51.3879764 C38.3232612,51.4648827 38.762559,51.4884576 39.1997865,51.4581695 C39.3754861,51.4074745 39.6644143,51.0214126 39.8166873,50.8420302 C40.4527314,50.1304512 40.8607177,49.2448556 40.988018,48.2994809 C41.0934534,47.3038481 40.7681297,46.3106365 40.0939022,45.56975 C39.7034587,45.1485915 38.711732,44.3998653 38.1026401,44.3023749 C37.5748278,44.2589153 37.0436528,44.281184 36.5213437,44.3686684 C36.8571252,44.6923365 37.6653433,44.6923365 37.6653433,45.2811784 L37.6341078,45.2811784 Z M26.3112448,43.3313706 C26.2839137,43.9709076 26.2331561,44.5831472 26.205825,45.2187846 C26.4947533,45.4020665 26.9164323,45.6087461 27.3771557,45.87392 C27.7402682,46.0650012 28.3142202,46.4705612 28.751517,46.3535727 C29.3567045,46.1897889 28.9506432,44.9887073 28.6812372,44.6728384 C28.3142202,44.7742284 28.087763,45.2382827 27.5489509,45.2187846 C26.9398589,45.1992865 26.6079819,44.4856569 26.6196952,43.916313 C26.6545286,43.4530613 26.8490836,43.0161974 27.1702206,42.6801348 C27.2248827,42.6138414 27.3693468,42.5358491 27.3068758,42.4422583 C26.9590655,42.7116978 26.6315153,43.0062594 26.3268625,43.3235714 L26.3112448,43.3313706 Z M44.3809724,47.0048085 C44.2677438,45.8973177 43.4517168,45.2070857 42.6981607,44.7040353 C42.4148385,44.4638906 42.0890854,44.2787315 41.7376696,44.1580891 C41.1399493,44.1499562 40.5423967,44.1838365 39.9494381,44.2594792 C41.3164309,45.1180085 42.0857434,46.6698 41.9407002,48.2760832 C41.8396694,49.3557201 41.4212755,50.381419 40.7381341,51.2241926 C40.6795676,51.3060845 40.4921546,51.3996753 40.5702434,51.5322622 C41.0817244,51.6024553 41.741574,51.5322622 42.2530551,51.6024553 C43.256495,50.5027637 44.6074297,49.0482071 44.4043991,46.9970093 L44.3809724,47.0048085 Z" id="Shape"></path>
                    <path d="M39.5550901,8.32452161 C39.7112675,8.66768778 40.4570147,9.06154895 40.3086462,9.69718629 C40.230775,9.92517415 39.9934609,10.0579732 39.7581208,10.0052559 C39.4223393,9.95456092 39.3676772,9.58019783 39.14122,9.28772666 C38.9637997,9.03027094 38.7284496,8.81791595 38.4540393,8.66768778 C37.8996095,8.44930931 37.1343401,8.78857586 37.1148179,8.15293853 C37.1148179,7.88386505 37.3022308,7.73567966 37.5599236,7.67328581 C38.5126058,7.43540926 39.1373155,7.96185736 39.5550901,8.32452161 Z" id="Path" transform="translate(38.721439, 8.815206) rotate(7.000000) translate(-38.721439, -8.815206) "></path>
                    <path d="M34.0888804,12.7856818 C34.3582864,13.0625545 34.8268187,14.0530569 34.0888804,14.0881534 C33.6711058,14.1115511 32.9448808,13.0820526 32.991734,12.6140987 C33.0385872,12.1461449 33.7726211,11.8341756 34.0576449,11.5144072 C34.4308319,11.1350627 34.6916408,10.6599777 34.8112009,10.1417425 C34.8776219,9.58008418 34.5903388,9.03569553 34.0888804,8.7729774 C33.8038566,8.63259124 32.2967445,8.70668394 32.8550787,7.87996544 C33.1010582,7.49000388 34.1318292,7.7200812 34.5730304,7.9462589 C35.3011503,8.36584903 35.7570949,9.13467536 35.7755965,9.974059 C35.7834054,11.4364148 34.8736719,11.8770714 34.0888804,12.7856818 Z" id="Path"></path>
                    <path d="M34.2958155,11.1556425 C34.1581782,11.3102478 33.9402884,11.3658105 33.74529,11.2960287 C33.2494267,11.1127467 33.3158021,9.47490821 33.987365,9.51000475 C34.4871328,9.55290052 34.6003614,10.7968779 34.2958155,11.1556425 Z" id="Path"></path>
                    <path d="M38.1573022,9.59579629 C38.7820119,9.49050667 38.6687833,10.2509317 38.6024078,10.6564917 C38.5516502,10.9840594 38.5087014,11.3818202 38.2119643,11.4364148 C37.9470333,11.509248 37.672545,11.3565572 37.5950635,11.0932487 C37.54616,10.5920188 37.6539153,10.0879652 37.9035139,9.65039091 C37.9835578,9.61528438 38.0698854,9.5967137 38.1573022,9.59579629 Z" id="Path"></path>
                    <path d="M43.8460648,11.8926699 C44.0373821,11.8497741 44.3692591,11.8419749 44.4317301,12.2007395 C44.4942011,12.5595041 44.0920442,12.8714734 43.8812047,13.0937515 C43.6703652,13.3160295 43.408768,13.7332884 43.0573688,13.7137903 C42.9360618,13.7103747 42.8218633,13.6558625 42.743009,13.5637316 C42.6641546,13.4716008 42.6280052,13.3504516 42.6434986,13.230238 C42.6513075,12.9182688 43.5727543,11.9550637 43.8460648,11.8926699 Z" id="Path"></path>
                    <path d="M37.8371383,13.9516669 C38.2510084,13.8307788 38.4735613,14.0569565 38.489179,14.3416284 C38.5126056,14.8017831 37.5989677,15.2736366 37.1148177,15.3360304 C36.4354459,15.421822 35.7131253,15.3360304 35.7404564,14.7861846 C35.7677874,14.2363388 36.5994322,14.478115 37.0445379,14.3962231 C37.4193637,14.275335 37.5443056,14.0686554 37.8371383,13.9516669 Z" id="Path" transform="translate(37.114663, 14.641520) rotate(166.000000) translate(-37.114663, -14.641520) "></path>
                </g>
                <g id="Group" transform="translate(9.000000, 73.000000)">
                    <path d="M1.15917379,0.449191568 L42.5818944,0.449191568 C42.7383838,0.448103775 42.8888246,0.511727647 42.9998513,0.625952346 C43.110878,0.740177045 43.1733096,0.895560866 43.1733096,1.05764196 L42.9012586,2.69106585 C42.6607498,3.50777779 42.112705,4.21423362 41.3241514,4.21423362 L2.44845893,4.21423362 C1.65990533,4.21423362 1.02511968,3.52002847 0.76883976,2.65839737 L0.563815822,1.05764196 C0.563815822,0.894845823 0.626777189,0.738833396 0.738661054,0.624489109 C0.85054492,0.510144822 1.00200465,0.447006384 1.15917379,0.449191568 Z" id="Path" fill="#F5F5F5"></path>
                    <path d="M41.3280942,4.62667315 L2.4524017,4.62667315 C1.53373675,4.62667315 0.725469312,3.90388308 0.390334032,2.78090416 C0.390334032,2.71556721 0.173481792,1.11072824 0.173481792,1.11072824 C0.161717669,0.831139914 0.259968718,0.55856931 0.445759517,0.355368326 C0.631550315,0.152167342 0.888984892,0.0357215385 1.15917379,0.0326684777 L42.5818944,0.0326684777 C43.127557,0.034906712 43.5693681,0.492494442 43.5715292,1.05764196 C43.5715292,1.12706248 43.2955354,2.76048636 43.2955354,2.76048636 C42.9761712,3.932468 42.2191598,4.62667315 41.3280942,4.62667315 Z M1.16311656,2.5848933 C1.35631219,3.20559437 1.82550158,3.80996121 2.4524017,3.80996121 L41.3280942,3.80996121 C42.0969339,3.80996121 42.4320692,2.91566163 42.5109246,2.5848933 L42.7711473,1.02497349 C42.7591574,0.926384152 42.6778338,0.852684992 42.5818944,0.853457861 L1.14340272,0.853457861 C1.04611971,0.852915995 0.964282214,0.928846668 0.954149856,1.02905705 L1.16311656,2.5848933 Z" id="Shape" fill="#000000" fill-rule="nonzero"></path>
                </g>
                <g id="Group" transform="translate(0.000000, 55.000000)">
                    <path d="M2.43244448,0.646828034 L28.6361488,0.646828034 C29.5678068,0.698460114 30.3950966,1.27000176 30.7861158,2.13216264 L37.3223295,18.3669441 C37.6518865,19.1894638 36.53767,20.7187115 35.666698,20.7187115 L9.45907037,20.7187115 C8.52623455,20.667216 7.69832096,20.0937058 7.30910332,19.2293919 L0.784659508,2.98662482 C0.439409325,2.16809797 1.56931902,0.642843044 2.43244448,0.646828034 Z" id="Path" fill="#F5F5F5"></path>
                    <path d="M35.666698,21.1140001 L9.45514708,21.1140001 C8.36287075,21.0616819 7.39153018,20.3908239 6.94031335,19.377126 L0.392329754,3.14234457 C0.220469716,2.53321017 0.352349961,1.87703811 0.745426533,1.38550644 C1.09067672,0.858454996 1.74194411,0.239568836 2.42067458,0.239568836 L28.6243789,0.239568836 C29.7166552,0.291887051 30.6879958,0.962745018 31.1392126,1.9764429 L37.6754263,18.1992459 C37.8715912,18.6823764 37.7421224,19.3252195 37.3223295,19.9640697 C36.9888492,20.4991068 36.3415051,21.1140001 35.666698,21.1140001 Z M2.43244448,1.05011007 C1.99908736,1.16034563 1.63070247,1.44985317 1.41631041,1.84867285 C1.18845291,2.12608738 1.0871839,2.48898661 1.13775629,2.84687634 L7.67789329,19.0736722 C8.00471565,19.7865571 8.68768526,20.2611651 9.45907037,20.3114445 L35.666698,20.3114445 C36.0967074,20.1983381 36.4616292,19.9093204 36.6749854,19.5128817 C36.9045718,19.2332558 37.0059195,18.8671691 36.9535395,18.5066926 L30.4173258,2.28388957 C30.086768,1.57485929 29.4055258,1.10297882 28.6361488,1.05011007 L2.43244448,1.05011007 L2.43244448,1.05011007 Z" id="Shape" fill="#000000" fill-rule="nonzero"></path>
                </g>
                <path d="M16.8218655,65 C15.2969751,65 14.5909299,66.1558442 15.2426639,67.5367965 C16.0497211,69.0132837 17.5413442,69.9468877 19.1781345,70 C20.7030249,70 21.4090701,68.8441558 20.7573361,67.4632035 C19.9502789,65.9867163 18.4586558,65.0531123 16.8218655,65 L16.8218655,65 Z" id="Path" fill="#D6D6D6"></path>
                <path d="M104.609571,78 L4.3904287,78 C4.17480088,78 4,77.7761424 4,77.5 C4,77.2238576 4.17480088,77 4.3904287,77 L104.609571,77 C104.825199,77 105,77.2238576 105,77.5 C105,77.7761424 104.825199,78 104.609571,78 Z" id="Path" fill="#000000" fill-rule="nonzero"></path>
                <g id="Group-2-Copy-2" transform="translate(38.547944, 22.009138) rotate(-7.000000) translate(-38.547944, -22.009138) translate(27.438509, 16.016288)">
                    <g id="Group" transform="translate(0.000000, -0.000000)">
                        <polygon id="Path" fill="#FFE380" points="0.297480803 0.294923757 21.9213603 0.294923757 21.9213603 11.6878285 0.297480803 11.6878285"></polygon>
                        <path d="M21.9213603,11.9857015 L0.297480803,11.9857015 C0.133186692,11.9857015 0,11.8536596 0,11.6907777 L0,0.294923757 C0,0.132041864 0.133186692,-2.27373675e-13 0.297480803,-2.27373675e-13 L21.9213603,-2.27373675e-13 C22.0856545,-2.27373675e-13 22.218856,0.132041864 22.218856,0.294923757 L22.218856,11.6878285 C22.2196353,11.7665569 22.1886446,11.8423318 22.1327698,11.8982802 C22.076895,11.9542287 22.0007753,11.9857015 21.9213603,11.9857015 Z M0.597936413,11.395854 L21.6209047,11.395854 L21.6209047,0.592796751 L0.597936413,0.592796751 L0.597936413,11.395854 Z" id="Shape" fill="#000000" fill-rule="nonzero"></path>
                    </g>
                    <path d="M2.3694874,10.8512725 C2.23086766,10.8582905 2.10687436,10.7578432 2.07288486,10.610994 C2.03889536,10.4641448 2.10430187,10.311472 2.22934282,10.2457878 L9.63072842,5.88948488 C9.72356438,5.83540515 9.83578152,5.83949144 9.92510872,5.90020447 C10.0144359,5.96091749 10.0673022,6.06903351 10.0637935,6.18382625 C10.0602847,6.298619 10.0009339,6.40264872 9.9080979,6.45672842 L2.50963198,10.8002843 C2.46769395,10.8301118 2.41943438,10.8476698 2.3694874,10.8512725 Z" id="Path" fill="#FFFFFF" fill-rule="nonzero"></path>
                    <path d="M12.0730876,6.60824586 L1.94521259,1.18666241 C1.79613115,1.10348856 1.74279319,0.915370857 1.82607893,0.766489729 C1.90936466,0.617608601 2.09773548,0.564342277 2.24681697,0.647516054 L12.0791197,5.91849996 L21.329326,0.78305564 C21.4767418,0.699881811 21.6637623,0.751799608 21.747048,0.899017286 C21.8303338,1.04623496 21.7783461,1.23300418 21.6309304,1.31617801 L12.0730876,6.60824586 Z" id="Path" fill="#FFFFFF" fill-rule="nonzero"></path>
                    <path d="M21.4584453,10.8476546 C21.4105455,10.8473924 21.363441,10.8342193 21.3212893,10.8092979 L13.9207004,6.4590032 C13.7772605,6.37073717 13.7263059,6.17181772 13.8068901,6.01470419 C13.8874743,5.85759065 14.0690818,5.80177872 14.2125217,5.89004475 L21.6101924,10.2403394 C21.6802336,10.2797544 21.7327597,10.3485006 21.75584,10.4309633 C21.7789204,10.5134259 21.7705959,10.6026053 21.7327574,10.6782456 C21.67937,10.7885457 21.5722406,10.8547064 21.4584453,10.8476546 L21.4584453,10.8476546 Z" id="Path" fill="#FFFFFF" fill-rule="nonzero"></path>
                </g>
                <g id="Group-2" transform="translate(18.000000, 29.500000) rotate(-20.000000) translate(-18.000000, -29.500000) translate(3.000000, 21.000000)">
                    <g id="Group">
                        <polygon id="Path" fill="#FFE380" points="0.737235033 0.424236481 28.9422953 0.424236481 28.9422953 15.3226503 0.737235033 15.3226503"></polygon>
                        <path d="M28.9422953,15.7121766 L0.737235033,15.7121766 C0.522938366,15.7121766 0.349216594,15.5395064 0.349216594,15.326507 L0.349216594,0.424236481 C0.349216594,0.211237082 0.522938366,0.0385669528 0.737235033,0.0385669528 L28.9422953,0.0385669528 C29.156592,0.0385669528 29.3303332,0.211237082 29.3303332,0.424236481 L29.3303332,15.3226503 C29.3313496,15.4256029 29.2909269,15.5246931 29.2180468,15.5978565 C29.1451666,15.6710198 29.04588,15.7121766 28.9422953,15.7121766 Z M1.12913366,14.9408375 L28.5503967,14.9408375 L28.5503967,0.813762704 L1.12913366,0.813762704 L1.12913366,14.9408375 Z" id="Shape" fill="#000000" fill-rule="nonzero"></path>
                    </g>
                    <path d="M2.42010312,13.9995849 C2.22950097,14.0080065 2.05901019,13.8874697 2.01227462,13.7112507 C1.96553906,13.5350316 2.05547301,13.3518244 2.22740432,13.2730033 L12.4043095,8.04543976 C12.531959,7.98054409 12.6862575,7.98544763 12.8090824,8.05830326 C12.9319073,8.1311589 13.0045985,8.26089812 12.999774,8.39864941 C12.9949494,8.5364007 12.913342,8.66123637 12.7856925,8.72613201 L2.61280191,13.9383991 C2.55513712,13.974192 2.48878021,13.9952617 2.42010312,13.9995849 Z" id="Path" fill="#FFFFFF" fill-rule="nonzero"></path>
                    <path d="M15.3722313,10 L2.20599376,2.77122207 C2.01218788,2.6603236 1.94284855,2.4095 2.05112,2.21099183 C2.15939146,2.01248366 2.40427352,1.94146189 2.59807945,2.05236026 L15.380073,9.08033881 L27.4053412,2.23307971 C27.5969817,2.12218127 27.8401084,2.191405 27.9483798,2.38769524 C28.0566513,2.58398548 27.9890674,2.8330111 27.7974269,2.94390954 L15.3722313,10 Z" id="Path" fill="#FFFFFF" fill-rule="nonzero"></path>
                    <path d="M28.5734586,13.9993847 C28.5075963,13.9990702 28.4428277,13.9832624 28.384869,13.9533566 L18.2090593,8.73300306 C18.0118294,8.62708382 17.9417668,8.38838049 18.0525702,8.19984424 C18.1633735,8.011308 18.4130837,7.94433368 18.6103137,8.05025292 L28.7821108,13.2706065 C28.8784175,13.3179045 28.9506408,13.4004 28.9823763,13.4993551 C29.0141118,13.5983103 29.0026656,13.7053256 28.9506376,13.796094 C28.87723,13.928454 28.7299271,14.0078469 28.5734586,13.9993847 L28.5734586,13.9993847 Z" id="Path" fill="#FFFFFF" fill-rule="nonzero"></path>
                </g>
                <g id="Group-2-Copy-3" transform="translate(60.547944, 14.009138) rotate(-17.000000) translate(-60.547944, -14.009138) translate(49.438509, 8.016288)">
                    <g id="Group" transform="translate(0.000000, -0.000000)">
                        <polygon id="Path" fill="#FFE380" points="0.297480803 0.294923757 21.9213603 0.294923757 21.9213603 11.6878285 0.297480803 11.6878285"></polygon>
                        <path d="M21.9213603,11.9857015 L0.297480803,11.9857015 C0.133186692,11.9857015 0,11.8536596 0,11.6907777 L0,0.294923757 C0,0.132041864 0.133186692,-2.27373675e-13 0.297480803,-2.27373675e-13 L21.9213603,-2.27373675e-13 C22.0856545,-2.27373675e-13 22.218856,0.132041864 22.218856,0.294923757 L22.218856,11.6878285 C22.2196353,11.7665569 22.1886446,11.8423318 22.1327698,11.8982802 C22.076895,11.9542287 22.0007753,11.9857015 21.9213603,11.9857015 Z M0.597936413,11.395854 L21.6209047,11.395854 L21.6209047,0.592796751 L0.597936413,0.592796751 L0.597936413,11.395854 Z" id="Shape" fill="#000000" fill-rule="nonzero"></path>
                    </g>
                    <path d="M2.3694874,10.8512725 C2.23086766,10.8582905 2.10687436,10.7578432 2.07288486,10.610994 C2.03889536,10.4641448 2.10430187,10.311472 2.22934282,10.2457878 L9.63072842,5.88948488 C9.72356438,5.83540515 9.83578152,5.83949144 9.92510872,5.90020447 C10.0144359,5.96091749 10.0673022,6.06903351 10.0637935,6.18382625 C10.0602847,6.298619 10.0009339,6.40264872 9.9080979,6.45672842 L2.50963198,10.8002843 C2.46769395,10.8301118 2.41943438,10.8476698 2.3694874,10.8512725 Z" id="Path" fill="#FFFFFF" fill-rule="nonzero"></path>
                    <path d="M12.0730876,6.60824586 L1.94521259,1.18666241 C1.79613115,1.10348856 1.74279319,0.915370857 1.82607893,0.766489729 C1.90936466,0.617608601 2.09773548,0.564342277 2.24681697,0.647516054 L12.0791197,5.91849996 L21.329326,0.78305564 C21.4767418,0.699881811 21.6637623,0.751799608 21.747048,0.899017286 C21.8303338,1.04623496 21.7783461,1.23300418 21.6309304,1.31617801 L12.0730876,6.60824586 Z" id="Path" fill="#FFFFFF" fill-rule="nonzero"></path>
                    <path d="M21.4584453,10.8476546 C21.4105455,10.8473924 21.363441,10.8342193 21.3212893,10.8092979 L13.9207004,6.4590032 C13.7772605,6.37073717 13.7263059,6.17181772 13.8068901,6.01470419 C13.8874743,5.85759065 14.0690818,5.80177872 14.2125217,5.89004475 L21.6101924,10.2403394 C21.6802336,10.2797544 21.7327597,10.3485006 21.75584,10.4309633 C21.7789204,10.5134259 21.7705959,10.6026053 21.7327574,10.6782456 C21.67937,10.7885457 21.5722406,10.8547064 21.4584453,10.8476546 L21.4584453,10.8476546 Z" id="Path" fill="#FFFFFF" fill-rule="nonzero"></path>
                </g>
                <g id="Group-2-Copy" transform="translate(44.547944, 15.009138) rotate(20.000000) translate(-44.547944, -15.009138) translate(33.438509, 9.016288)">
                    <g id="Group" transform="translate(0.000000, -0.000000)">
                        <polygon id="Path" fill="#FFE380" points="0.297480803 0.294923757 21.9213603 0.294923757 21.9213603 11.6878285 0.297480803 11.6878285"></polygon>
                        <path d="M21.9213603,11.9857015 L0.297480803,11.9857015 C0.133186692,11.9857015 0,11.8536596 0,11.6907777 L0,0.294923757 C0,0.132041864 0.133186692,-2.27373675e-13 0.297480803,-2.27373675e-13 L21.9213603,-2.27373675e-13 C22.0856545,-2.27373675e-13 22.218856,0.132041864 22.218856,0.294923757 L22.218856,11.6878285 C22.2196353,11.7665569 22.1886446,11.8423318 22.1327698,11.8982802 C22.076895,11.9542287 22.0007753,11.9857015 21.9213603,11.9857015 Z M0.597936413,11.395854 L21.6209047,11.395854 L21.6209047,0.592796751 L0.597936413,0.592796751 L0.597936413,11.395854 Z" id="Shape" fill="#000000" fill-rule="nonzero"></path>
                    </g>
                    <path d="M2.3694874,10.8512725 C2.23086766,10.8582905 2.10687436,10.7578432 2.07288486,10.610994 C2.03889536,10.4641448 2.10430187,10.311472 2.22934282,10.2457878 L9.63072842,5.88948488 C9.72356438,5.83540515 9.83578152,5.83949144 9.92510872,5.90020447 C10.0144359,5.96091749 10.0673022,6.06903351 10.0637935,6.18382625 C10.0602847,6.298619 10.0009339,6.40264872 9.9080979,6.45672842 L2.50963198,10.8002843 C2.46769395,10.8301118 2.41943438,10.8476698 2.3694874,10.8512725 Z" id="Path" fill="#FFFFFF" fill-rule="nonzero"></path>
                    <path d="M12.0730876,6.60824586 L1.94521259,1.18666241 C1.79613115,1.10348856 1.74279319,0.915370857 1.82607893,0.766489729 C1.90936466,0.617608601 2.09773548,0.564342277 2.24681697,0.647516054 L12.0791197,5.91849996 L21.329326,0.78305564 C21.4767418,0.699881811 21.6637623,0.751799608 21.747048,0.899017286 C21.8303338,1.04623496 21.7783461,1.23300418 21.6309304,1.31617801 L12.0730876,6.60824586 Z" id="Path" fill="#FFFFFF" fill-rule="nonzero"></path>
                    <path d="M21.4584453,10.8476546 C21.4105455,10.8473924 21.363441,10.8342193 21.3212893,10.8092979 L13.9207004,6.4590032 C13.7772605,6.37073717 13.7263059,6.17181772 13.8068901,6.01470419 C13.8874743,5.85759065 14.0690818,5.80177872 14.2125217,5.89004475 L21.6101924,10.2403394 C21.6802336,10.2797544 21.7327597,10.3485006 21.75584,10.4309633 C21.7789204,10.5134259 21.7705959,10.6026053 21.7327574,10.6782456 C21.67937,10.7885457 21.5722406,10.8547064 21.4584453,10.8476546 L21.4584453,10.8476546 Z" id="Path" fill="#FFFFFF" fill-rule="nonzero"></path>
                </g>
                <path d="M20.728294,36 L21.7978902,36 C21.5497159,35.6697739 21.28756,35.4072864 21.0778352,35.132098 C20.8072353,34.8614096 20.7076654,34.4129824 20.829661,34.0144095 C21.2840646,33.7773241 21.9377067,34.4081407 22.2767617,34.7976382 C22.5835099,35.1591263 22.8544796,35.5626281 23.084202,36 L24,36 C23.6808184,35.2306242 23.2416305,34.5434056 22.7066974,33.9763065 C22.2592846,33.510603 21.5532113,32.9305904 20.8611197,33.0067964 C20.3563534,33.060635 19.976774,33.5876648 20.0012482,34.2006909 C19.9791285,34.9101875 20.2521489,35.5858644 20.728294,36 Z" id="Path" fill="#737373"></path>
            </g>
        </g>
    </g>
</svg>