<?xml version="1.0" encoding="UTF-8"?>
<svg width="73px" height="64px" viewBox="0 0 73 64" version="1.1" xmlns="http://www.w3.org/2000/svg" xmlns:xlink="http://www.w3.org/1999/xlink">
    <title>1-cor-men-chart</title>
    <g id="Page-1" stroke="none" stroke-width="1" fill="none" fill-rule="evenodd">
        <g id="A4" transform="translate(-983.000000, -602.000000)">
            <g id="men-chart" transform="translate(983.054852, 602.005476)">
                <g id="Group" transform="translate(2.172903, 2.177899)" fill="#D6D6D6" fill-rule="nonzero">
                    <path d="M62.628504,51.1806152 L0.478038716,51.1806152 C0.307029976,51.1806152 0.168400002,51.0416663 0.168400002,50.8702645 L0.168400002,0.544474628 C0.168400002,0.373072759 0.307029976,0.23412409 0.478038716,0.23412409 L62.628504,0.23412409 C62.7995128,0.23412409 62.9384411,0.373072759 62.9384411,0.544474628 L62.9384411,50.8566526 C62.9418502,50.9412948 62.9108718,51.0237767 62.8523966,51.0849569 C62.7939214,51.1461371 62.7130334,51.1806152 62.628504,51.1806152 Z M0.78767743,50.5599139 L62.3188653,50.5599139 L62.3188653,0.849380419 L0.78767743,0.849380419 L0.78767743,50.5599139 Z" id="Shape"></path>
                    <path d="M62.628504,46.1306128 L0.478038716,46.1306128 C0.307029976,46.1306128 0.168400002,45.9916642 0.168400002,45.8202623 C0.168400002,45.6488604 0.307029976,45.5099118 0.478038716,45.5099118 L62.628504,45.5099118 C62.7995127,45.5099118 62.9381426,45.6488605 62.9381426,45.8202623 C62.9381426,45.9916641 62.7995127,46.1306128 62.628504,46.1306128 L62.628504,46.1306128 Z" id="Path"></path>
                    <path d="M62.628504,41.1078344 L0.478038716,41.1078344 C0.317503104,41.0927808 0.194779435,40.95773 0.194779435,40.7961227 C0.194779435,40.6345154 0.317503104,40.4994645 0.478038716,40.4844109 L62.628504,40.4844109 C62.7890396,40.4994645 62.9117633,40.6345154 62.9117633,40.7961227 C62.9117633,40.95773 62.7890396,41.0927808 62.628504,41.1078344 L62.628504,41.1078344 Z" id="Path"></path>
                    <path d="M62.628504,36.0714441 L0.478038716,36.0714441 C0.317503104,36.0563905 0.194779435,35.9213397 0.194779435,35.7597324 C0.194779435,35.5981251 0.317503104,35.4630742 0.478038716,35.4480206 L62.628504,35.4480206 C62.7890396,35.4630742 62.9117633,35.5981251 62.9117633,35.7597324 C62.9117633,35.9213397 62.7890396,36.0563905 62.628504,36.0714441 L62.628504,36.0714441 Z" id="Path"></path>
                    <path d="M62.628504,31.0350538 L0.478038716,31.0350538 C0.317503104,31.0200002 0.194779435,30.8849494 0.194779435,30.7233421 C0.194779435,30.5617348 0.317503104,30.4266839 0.478038716,30.4116303 L62.628504,30.4116303 C62.7890396,30.4266839 62.9117633,30.5617348 62.9117633,30.7233421 C62.9117633,30.8849494 62.7890396,31.0200002 62.628504,31.0350538 L62.628504,31.0350538 Z" id="Path"></path>
                    <path d="M62.628504,26.009553 L0.478038716,26.009553 C0.317503104,25.9944994 0.194779435,25.8594485 0.194779435,25.6978412 C0.194779435,25.5362339 0.317503104,25.4011831 0.478038716,25.3861295 L62.628504,25.3861295 C62.7890396,25.4011831 62.9117633,25.5362339 62.9117633,25.6978412 C62.9117633,25.8594485 62.7890396,25.9944994 62.628504,26.009553 L62.628504,26.009553 Z" id="Path"></path>
                    <path d="M62.628504,20.9622732 L0.478038716,20.9622732 C0.317503104,20.9472196 0.194779435,20.8121687 0.194779435,20.6505614 C0.194779435,20.4889541 0.317503104,20.3539033 0.478038716,20.3388497 L62.628504,20.3388497 C62.7890396,20.3539033 62.9117633,20.4889541 62.9117633,20.6505614 C62.9117633,20.8121687 62.7890396,20.9472196 62.628504,20.9622732 L62.628504,20.9622732 Z" id="Path"></path>
                    <path d="M62.628504,15.9476618 L0.478038716,15.9476618 C0.307029976,15.9476618 0.168400002,15.8087132 0.168400002,15.6373113 C0.168400002,15.4659094 0.307029976,15.3269608 0.478038716,15.3269608 L62.628504,15.3269608 C62.7995128,15.3269608 62.9381427,15.4659094 62.9381427,15.6373113 C62.9381427,15.8087132 62.7995128,15.9476618 62.628504,15.9476618 L62.628504,15.9476618 Z" id="Path"></path>
                    <path d="M62.628504,10.9112715 L0.478038716,10.9112715 C0.317503104,10.896218 0.194779435,10.7611671 0.194779435,10.5995598 C0.194779435,10.4379525 0.317503104,10.3029017 0.478038716,10.2878481 L62.628504,10.2878481 C62.7890396,10.3029017 62.9117633,10.4379525 62.9117633,10.5995598 C62.9117633,10.7611671 62.7890396,10.896218 62.628504,10.9112715 L62.628504,10.9112715 Z" id="Path"></path>
                    <path d="M62.628504,5.88577073 L0.478038716,5.88577073 C0.307030017,5.88577073 0.168400107,5.74682202 0.168400107,5.57542019 C0.168400107,5.40401836 0.307030017,5.26506965 0.478038716,5.26506965 L62.628504,5.26506965 C62.7995127,5.26506965 62.9381426,5.40401836 62.9381426,5.57542019 C62.9381426,5.74682202 62.7995127,5.88577073 62.628504,5.88577073 L62.628504,5.88577073 Z" id="Path"></path>
                    <path d="M56.4058523,51.1806151 C56.2348436,51.1806151 56.0962136,51.0416663 56.0962136,50.8702645 L56.0962136,0.544474628 C56.1112327,0.383569963 56.2459738,0.260564166 56.4072104,0.260564166 C56.568447,0.260564166 56.7031881,0.383569963 56.7182072,0.544474628 L56.7182072,50.8566526 C56.7211553,50.9415549 56.6895528,51.0240128 56.6306523,51.0851021 C56.5717518,51.1461914 56.4906112,51.1806151 56.4058523,51.1806151 L56.4058523,51.1806151 Z" id="Path"></path>
                    <path d="M50.1994974,51.1806297 C50.0284887,51.1806297 49.8898587,51.0416663 49.8898587,50.8702645 L49.8898587,0.544474628 C49.9048778,0.383569963 50.0396188,0.260564166 50.2008555,0.260564166 C50.3620921,0.260564166 50.4968332,0.383569963 50.5118523,0.544474628 L50.5118523,50.8566526 C50.5155845,50.9417697 50.4842406,51.0246815 50.42517,51.0859473 C50.3660993,51.1472132 50.2844972,51.1814445 50.1994974,51.1806297 Z" id="Path"></path>
                    <path d="M43.9795619,51.1806152 C43.8085531,51.1806152 43.6699231,51.0416663 43.6699231,50.8702645 L43.6699231,0.544474628 C43.6699231,0.373072759 43.8085531,0.23412409 43.9795619,0.23412409 C44.1505706,0.23412409 44.2892006,0.373072759 44.2892006,0.544474628 L44.2892006,50.8566526 C44.292908,50.9412948 44.2619296,51.0237767 44.2034544,51.0849569 C44.1449792,51.1461371 44.0640912,51.1806152 43.9795619,51.1806152 Z" id="Path"></path>
                    <path d="M37.7732069,51.1806151 C37.6021982,51.1806151 37.4635682,51.0416663 37.4635682,50.8702645 L37.4635682,0.544474628 C37.4785873,0.383569963 37.6133284,0.260564166 37.774565,0.260564166 C37.9358016,0.260564166 38.0705427,0.383569963 38.0855618,0.544474628 L38.0855618,50.8566526 C38.0885099,50.9415549 38.0569074,51.0240128 37.9980069,51.0851021 C37.9391064,51.1461914 37.8579658,51.1806151 37.7732069,51.1806151 L37.7732069,51.1806151 Z" id="Path"></path>
                    <path d="M31.5532714,51.1806152 C31.3822626,51.1806152 31.2436327,51.0416663 31.2436327,50.8702645 L31.2436327,0.544474628 C31.2436327,0.373072759 31.3822626,0.23412409 31.5532714,0.23412409 C31.7242801,0.23412409 31.8629101,0.373072759 31.8629101,0.544474628 L31.8629101,50.8566526 C31.8666176,50.9412948 31.8356392,51.0237767 31.777164,51.0849569 C31.7186887,51.1461371 31.6378007,51.1806152 31.5532714,51.1806152 Z" id="Path"></path>
                    <path d="M25.3306197,51.1806151 C25.1596109,51.1806151 25.020981,51.0416663 25.020981,50.8702645 L25.020981,0.544474628 C25.036,0.383569963 25.1707411,0.260564166 25.3319777,0.260564166 C25.4932144,0.260564166 25.6279555,0.383569963 25.6429745,0.544474628 L25.6429745,50.8566526 C25.6459227,50.9415549 25.6143201,51.0240128 25.5554196,51.0851021 C25.4965192,51.1461914 25.4153786,51.1806151 25.3306197,51.1806151 L25.3306197,51.1806151 Z" id="Path"></path>
                    <path d="M19.1269809,51.1806152 C18.9555272,51.1806152 18.816117,51.0421058 18.814626,50.8702645 L18.814626,0.544474628 C18.8296451,0.383569963 18.9643862,0.260564166 19.1256228,0.260564166 C19.2868595,0.260564166 19.4216006,0.383569963 19.4366196,0.544474628 L19.4366196,50.8566526 C19.4403271,50.9412948 19.4093487,51.0237767 19.3508735,51.0849569 C19.2923983,51.1461371 19.2115103,51.1806152 19.1269809,51.1806152 Z" id="Path"></path>
                    <path d="M12.9043292,51.1806151 C12.7333205,51.1806151 12.5946905,51.0416663 12.5946905,50.8702645 L12.5946905,0.544474628 C12.6097095,0.383569963 12.7444506,0.260564166 12.9056873,0.260564166 C13.0669239,0.260564166 13.201665,0.383569963 13.216684,0.544474628 L13.216684,50.8566526 C13.2196322,50.9415549 13.1880296,51.0240128 13.1291291,51.0851021 C13.0702287,51.1461914 12.9890881,51.1806151 12.9043292,51.1806151 L12.9043292,51.1806151 Z" id="Path"></path>
                    <path d="M6.69797428,51.1806151 C6.52696554,51.1806151 6.38833557,51.0416663 6.38833557,50.8702645 L6.38833557,0.544474628 C6.40335461,0.383569963 6.5380957,0.260564166 6.69933234,0.260564166 C6.86056899,0.260564166 6.99531008,0.383569963 7.01032912,0.544474628 L7.01032912,50.8566526 C7.01327727,50.9415549 6.9816747,51.0240128 6.92277423,51.0851021 C6.86387375,51.1461914 6.78273315,51.1806151 6.69797428,51.1806151 L6.69797428,51.1806151 Z" id="Path"></path>
                </g>
                <path d="M2.65094197,37.960771 C2.53159009,37.959042 2.4236566,37.8892877 2.37283161,37.7810363 C2.32200663,37.672785 2.33717769,37.5449659 2.41192261,37.4516873 L19.3306906,16.7317053 C19.4314047,16.6114333 19.6049834,16.5835969 19.7381099,16.6663684 L27.8457552,21.8007641 L32.3219359,18.5693072 C32.4438944,18.4816479 32.6110132,18.494268 32.7184907,18.5992533 L38.721136,24.3788515 L64.4700395,2.03361273 C64.5997962,1.92160011 64.7955806,1.93622629 64.9073363,2.06628121 C65.019092,2.19633614 65.0044994,2.39257066 64.8747428,2.50458329 L38.9085489,25.0458329 C38.7901933,25.1544902 38.6086206,25.1544902 38.490265,25.0458329 L32.471323,19.2471781 L28.0386004,22.4514113 C27.9334201,22.5220267 27.7961161,22.5220267 27.6909358,22.4514113 L19.6376132,17.349684 L2.88996133,37.8409866 C2.83325853,37.9160581 2.74488305,37.9603474 2.65094197,37.960771 Z" id="Path" fill="#FFBF1E" fill-rule="nonzero"></path>
                <path d="M30.7139875,28.8571553 L31.4038843,28.8571553 L33.9461811,30.1666167 L34.8588004,30.1666167 L36.216865,29.8943794 L37.9932134,29.6493659 L39.0036134,30.2945683 L40.3616779,32.7065909 L35.3775811,37.960771 L34.4296521,37.0242747 L33.2454198,35.3609047 L33.0254133,34.0514432 L33.4436972,32.7392594 L33.5170327,32.1185583 L32.702194,31.1085579 L30.5537359,29.5758618 C30.5537359,29.5758618 30.1218714,28.6012522 30.7139875,28.8571553 Z" id="Path" fill="#FFFFFF"></path>
                <path d="M27.9109423,46.5743597 L25.7244584,41.7884277 L26.7511552,38.0805555 L25.105181,32.5895288 L22.3510261,30.6838676 L20.4633164,31.2283423 C20.4633164,31.2283423 18.4506648,33.9507154 18.9775938,36.8527652 C19.5045228,39.7548149 19.8739164,41.8592094 20.2460261,44.7803158 C20.6181357,47.7014221 21.3949487,54.3222336 25.1595036,55.5445791 C28.9240584,56.7669247 31.5641359,55.6643636 34.0629746,53.7314786 C36.5618134,51.7985937 41.0814521,48.240452 41.0814521,48.240452 L42.887678,62.7398114 L64.774246,62.7398114 C64.774246,62.7398114 64.4428783,57.8830977 64.9100525,55.4084605 C65.3772266,52.9338233 65.637975,50.6497522 65.637975,50.6497522 C65.637975,50.6497522 70.225517,43.0434417 70.3613235,41.0179961 C70.4971299,38.9925505 69.2612912,35.3826837 66.2328073,33.8254862 C63.2043234,32.2682888 57.8644136,29.8644333 57.0577233,28.9823844 C56.251033,28.1003355 55.3981685,26.0204425 55.6996588,25.3861295 C56.0011491,24.7518166 58.1170137,21.2045644 57.872562,17.2435115 C57.6281104,13.2824585 56.6394394,11.8886035 52.8531555,11.374075 C51.1094007,11.1372285 48.7463684,11.286959 47.2117554,11.7797086 C45.4082457,12.359574 44.5662457,13.3205718 44.5662457,13.3205718 L42.5427296,12.8060432 L42.9745941,14.4394671 L41.3286199,14.2516234 C41.5688785,14.7276059 41.8782639,15.1652274 42.2466715,15.5501954 C42.5883632,15.903024 43.0321062,16.1392151 43.5151038,16.2253439 C42.9138844,17.054283 42.6251862,18.0699432 42.7002651,19.0920028 C42.8768135,20.698203 43.4716457,21.8851577 43.077807,22.500414 C42.6839683,23.1156703 42.2330909,23.7799294 42.2412393,24.1501721 C42.2493876,24.5204149 43.308678,24.7817627 43.4553489,25.2391214 C43.6020199,25.6964801 44.5227877,28.3399044 46.6929748,28.3235701 C48.8631619,28.3072359 49.137491,27.3761843 49.137491,27.3761843 C49.137491,27.3761843 50.0664071,29.1783953 49.4905877,29.6466435 C48.9147684,30.1148917 42.0239489,30.7355927 39.3159682,33.5695832 C36.6079876,36.4035736 27.9109423,46.5743597 27.9109423,46.5743597 Z" id="Path" fill="#FFFFFF"></path>
                <path d="M32.0937811,42.950881 C32.0937811,42.950881 32.0014327,45.7875938 32.8760262,47.6850879 C33.9407488,49.9909379 37.3820844,51.1207228 37.3820844,51.1207228 L42.4829747,47.5816377 L44.1126522,62.7561456 L64.7362202,62.7561456 C64.7362202,62.7561456 64.7362202,52.6125833 65.5510589,51.1261675 C71.1815945,40.6776994 72.5342267,37.7620378 64.3097879,32.7310922 C62.3201517,31.5754336 60.2002055,30.6615326 57.9947878,30.0087191 C57.9947878,30.0087191 56.3922717,29.7010909 52.9753813,30.1148917 C49.9686265,30.482412 42.6296457,31.802763 40.0493231,34.17395 C37.13053,36.8448605 34.4671069,39.783275 32.0937811,42.950881 L32.0937811,42.950881 Z" id="Path" fill="#FFCE1E"></path>
                <path d="M50.8758136,23.4886354 C50.8758136,23.4886354 51.3158265,25.9959411 52.0546136,26.1429493 C52.7934007,26.2899574 53.0432846,26.2110086 53.6652781,26.1973967 C54.2872717,26.1837848 55.4905168,26.0449438 55.4905168,26.0449438 C55.4388197,25.7089054 55.5272106,25.3663417 55.7349685,25.097558 C56.6218306,23.9679075 57.2521408,22.6579361 57.5819362,21.2590118 C58.1794846,18.9994421 58.7634524,14.5619739 57.0196975,13.1381728 C55.2759426,11.7143716 51.1012523,10.8377675 48.4992006,11.3604631 C47.3475619,11.5918648 46.1687619,11.9267167 45.4408393,12.3677412 C44.5255038,12.9258277 44.1887038,13.5764748 43.9877102,13.5301945 C43.6264651,13.4458009 42.5237167,12.7407063 42.5237167,12.7407063 L44.1316651,14.7824861 L42.0837038,14.3850197 C42.0837038,14.3850197 43.2136135,15.2316777 43.6753554,15.2888475 C44.1370973,15.3460174 44.4195748,15.5393059 45.3050328,15.4276886 C46.5381554,15.2697909 47.2850909,15.1554513 47.6083103,15.5583625 C47.9315297,15.9612737 48.0075813,17.9567732 48.2031426,19.5439168 C48.3959877,21.0820576 47.6599167,22.2662899 48.0754845,22.1492279 C48.5345103,22.0267211 48.9935361,21.2317881 48.9935361,21.2317881 C48.9935361,21.2317881 49.2488522,19.5738629 50.2076458,19.5983642 C51.1664394,19.6228656 51.8373232,20.6056423 51.8210265,21.4822464 C51.8047297,22.3588506 50.8758136,23.4886354 50.8758136,23.4886354 Z" id="Path" fill="#000000" fill-rule="nonzero"></path>
                <g id="Group" transform="translate(18.198065, 24.773596)">
                    <path d="M1.33090324,0.421967836 L7.99085172,0.626145822 C8.67544218,0.675803379 9.26999139,1.11690847 9.51731625,1.75865305 L13.1976711,13.0673911 C13.3959486,13.6717579 13.0319873,14.1563403 12.3828324,14.1263942 L5.72560007,13.9222162 C5.04100961,13.8725587 4.4464604,13.4314536 4.19913554,12.789709 L0.516064523,1.49458285 C0.323219359,0.876604151 0.687180654,0.400188851 1.33090324,0.421967836 Z" id="Path" fill="#F5F5F5"></path>
                    <path d="M12.1601098,14.4803027 L5.59794201,14.2788471 C4.79667121,14.2304377 4.09871523,13.7142985 3.81616134,12.9612185 L0.206425809,1.95466391 C0.0862076544,1.53283209 0.176202425,1.07878329 0.448161296,0.735040747 C0.678540221,0.392063362 1.06506929,0.187621327 1.47757421,0.190534734 L8.09949688,0.32940715 C8.90177636,0.376773472 9.60104175,0.893093853 9.88399368,1.64703575 L13.4638518,12.746151 C13.5742528,13.1457643 13.4863352,13.5742084 13.2275486,13.8977149 C12.9831308,14.2495674 12.587606,14.4654373 12.1601098,14.4803027 L12.1601098,14.4803027 Z M1.44769679,0.816711942 C1.24393932,0.83184386 1.05853543,0.940328466 0.945212915,1.11072824 C0.795629146,1.29389337 0.739428084,1.53631467 0.793109688,1.76682017 L4.40556135,12.7733748 C4.60805975,13.2765083 5.07731347,13.6213485 5.61695491,13.6635908 L12.1356647,13.862324 C12.3711816,13.8483944 12.5869121,13.7256985 12.7196324,13.5301945 C12.8573086,13.3689144 12.9097962,13.1513996 12.8608711,12.9448843 L9.28372915,1.84576899 C9.08123075,1.3426354 8.61197702,0.99779522 8.07233559,0.955552972 L1.45041292,0.816711942 L1.44769679,0.816711942 Z" id="Shape" fill="#000000" fill-rule="nonzero"></path>
                    <path d="M2.72970971,1.00183332 L7.89035494,1.15973096 C8.47151829,1.20085114 8.97701225,1.57395349 9.18866463,2.1180063 L12.3203614,11.6789808 C12.4138921,11.8951707 12.3829462,12.1452121 12.2395488,12.3319442 C12.0961513,12.5186762 11.8629128,12.6126556 11.6304647,12.5773639 L6.46981944,12.4194663 C5.88894505,12.3792901 5.38380673,12.0056686 5.17422587,11.4611909 L2.03981293,1.9056612 C1.94351117,1.68893588 1.97308925,1.43678668 2.11691702,1.24835915 C2.26074479,1.05993162 2.49581965,0.96536126 2.72970971,1.00183332 Z" id="Path" fill="#FFCE1E"></path>
                </g>
                <path d="M21.0825938,37.274733 C21.0825938,37.274733 22.1092906,33.3327367 23.7416842,34.0378314 C25.3740777,34.742926 22.9105487,35.6930342 23.1387035,37.3509595 C23.3668584,39.0088847 24.1979939,39.6132515 23.3668584,41.0506646 C22.5357229,42.4880776 20.7675228,40.1849499 20.7675228,40.1849499 L21.0825938,37.274733 Z" id="Path" fill="#FFFFFF"></path>
                <g id="Group" transform="translate(18.469678, 10.889493)" fill="#000000" fill-rule="nonzero">
                    <path d="M49.7051619,24.1066141 C47.2905232,21.7817075 43.751407,20.5675291 40.4703231,18.9667737 C39.709807,18.5965309 38.8542263,18.2099539 38.3653231,17.4803579 C38.1276016,17.083208 37.9448529,16.6555087 37.8220973,16.2090097 C37.6727102,15.7353167 37.4391231,15.1037262 37.5260392,14.5755858 C37.5993747,14.1454508 37.9524715,13.6989816 38.175194,13.2497901 C38.8631964,11.8244614 39.3268113,10.3009331 39.5495553,8.73337303 C39.9325295,6.31862805 39.921665,3.70242747 38.6043424,2.29496056 C37.9606198,1.60620015 37.1512134,1.2060113 36.1598263,0.808544822 C35.142429,0.402855246 34.0687223,0.156767436 32.976523,0.078948821 C31.772452,-0.00165292041 30.5631216,0.0983622539 29.3885165,0.375687493 C28.3020649,0.626145822 27.1585745,0.988221449 26.4007745,1.53814082 C26.2636426,1.63320177 26.1370722,1.74272233 26.0232326,1.8648256 C25.9173036,1.98461002 25.8684132,2.17245376 25.6728519,2.188788 C25.4338326,2.20784462 25.1296261,1.96555341 24.9177681,1.8648256 C24.6679644,1.7075626 24.3757846,1.63149728 24.0812003,1.64703575 C23.5379745,1.87571509 23.8883551,2.75504162 24.0268777,3.16067521 C23.6439035,3.1416186 22.7231358,2.45013582 22.4895487,3.02727893 C22.285839,3.52547321 23.0599358,4.30407193 23.3505616,4.59536586 C23.7816415,4.99779149 24.262751,5.34275401 24.7819616,5.62170053 C23.9857072,6.89415812 23.7240249,8.43067203 24.054039,9.89582636 C24.1762648,10.440301 24.5022003,11.0473902 24.3500971,11.6000319 C24.1979939,12.1526737 23.4564906,12.5338059 23.5135293,13.1408951 C23.570568,13.7479844 24.3609616,14.0011651 24.6733164,14.4666909 C24.9041874,14.8069875 25.0590068,15.226233 25.2681487,15.6019205 C25.8113745,16.5683629 26.7511552,17.8043203 28.2097165,17.8206546 C29.2174004,17.8206546 29.6275359,17.3877972 30.3826197,16.9821636 C30.4848464,17.2115764 30.5754985,17.4459965 30.6542327,17.6845359 C30.7221359,17.896881 30.8796714,18.2644014 30.787323,18.4685794 C30.6460843,18.7952641 29.5351875,18.9586065 28.9810971,19.0647791 C26.9521487,19.4540784 24.9503616,19.881491 23.3940197,20.6600897 C20.1726906,22.2935136 18.0378131,24.8961024 15.8947873,27.5585833 C14.1075744,29.7718726 12.3909808,32.006941 10.5494453,34.1821171 C10.3701808,34.3971846 10.1610388,34.5931955 9.98449045,34.8055406 C9.8395989,35.0338107 9.65571256,35.2347076 9.44126464,35.3990179 C9.13705818,34.7102575 8.80840657,33.9343812 8.46889043,33.1285587 C8.15381946,32.3744614 7.681213,31.5740837 7.58071623,30.8036521 C7.5318259,30.4361317 7.8115872,29.839932 7.98541946,29.3961852 C8.05603881,29.2137862 8.58568398,28.3072359 8.0641872,28.2065081 C7.60244526,28.1275593 7.44490977,29.02322 7.30910332,29.3689614 C7.11625816,29.8807676 6.8772388,30.3599052 6.90440009,30.8553772 C6.92884525,31.3045687 7.18959364,31.7728169 7.3634259,32.2165637 C7.71380655,33.0986126 8.0451743,33.9126022 8.41728398,34.7592602 C8.56962327,35.1733413 8.77799719,35.5644825 9.03656141,35.9217136 C8.7649485,36.2892339 8.30049043,36.7901506 7.93109688,37.2202856 C7.78714204,37.3863503 7.55083881,37.7974287 7.90393559,37.9226578 C8.25703236,38.047887 8.54765817,37.5170242 8.71877431,37.3291805 C10.2642517,35.5759722 11.6549098,33.7900954 13.1976711,32.0559437 C13.2194002,32.02872 13.2547098,31.8626552 13.3334776,31.9470488 C12.605555,36.6431424 15.025626,39.1123349 18.2225099,40.2230631 C18.134265,40.3656138 18.014353,40.4858015 17.8721293,40.5742493 C16.9079034,41.3174571 15.8784905,42.0933335 14.8490776,42.8202071 C13.678426,43.636919 12.3855485,44.4917442 10.774884,44.7667039 C6.75501299,45.4527419 4.46260006,43.0189403 3.44133553,40.2775106 C2.8859077,38.6607787 2.54082916,36.9789998 2.41463874,35.2737888 C2.24498394,33.5188304 1.97290499,31.7753401 1.59980002,30.0522771 C1.26300002,28.476023 0.72792259,26.760928 0.817554849,24.806264 C0.876296907,23.5831944 1.25776397,22.3976461 1.92301938,21.3706291 C2.02502807,21.2224697 2.11581976,21.066859 2.19463229,20.9051033 C2.0967619,20.7606479 2.0122131,20.6075635 1.94203228,20.4477446 C1.61338067,20.4477446 1.35806453,21.0085535 1.22497421,21.2372329 C0.553692325,22.3373662 0.190582643,23.598476 0.17383226,24.8879352 C0.153080788,25.0129536 0.143987781,25.1396369 0.146212275,25.2663451 C0.211858067,27.1937853 0.689896783,28.9007132 1.06472259,30.5940293 C1.44226453,32.3635719 1.59436776,34.1004459 1.81980648,36.085056 C2.23537422,39.7629821 3.32454198,42.9971614 5.83967749,44.548914 C7.19774203,45.3846826 9.12076141,45.7358687 10.9677292,45.387405 C12.6843227,45.0661649 14.0097937,44.2249516 15.2021744,43.3864607 C17.0382776,42.0987782 18.814626,40.7103679 20.517639,39.3301247 C21.0578141,38.8380775 21.625498,38.377251 22.2179358,37.9498816 C22.8317809,42.0715545 23.3913035,46.1469471 23.8476132,50.4183505 C23.8883551,50.8049275 23.8313164,52.0109388 24.390839,51.9074886 C24.6189939,51.8639307 24.643439,51.4964103 24.6054132,51.1479465 C24.138239,46.7268126 23.6004455,42.5289132 22.959439,38.3527928 C22.8859567,38.0519351 22.8413898,37.7447235 22.8263487,37.435353 C22.8888197,37.1631157 23.8394648,36.8636547 23.52711,36.3790723 C23.3152519,36.0496651 22.9485745,36.3926841 22.7448648,36.5696384 C21.4166777,37.7184798 20.2080003,38.7475369 18.8580841,39.7602597 C17.1768002,39.0742217 15.6584841,38.3419033 14.7295679,36.8936008 C13.8006518,35.4452983 13.7055873,33.0251085 14.1646131,30.9043799 C14.2270841,30.6185307 14.7377163,30.1448378 14.9794518,29.8508215 C15.7942905,28.8353763 16.625426,27.7110362 17.3805099,26.8208202 C19.5887228,24.2182314 21.9626196,21.5965861 25.5560584,20.5185263 C26.9602971,20.0992809 28.557381,19.925049 30.0077939,19.5466391 C30.5048456,19.4186876 30.8823875,19.1709516 31.3033875,19.0321106 C33.0348871,18.5148423 34.8413949,18.2957588 36.6460134,18.3841858 C37.2598585,18.4086872 38.047536,18.4141319 38.4821166,18.5720296 C38.717082,18.7094542 38.942165,18.86319 39.1557166,19.0321106 C39.4056005,19.1791188 39.6989424,19.2880137 39.9379618,19.4105205 C43.4933748,21.158284 47.6789296,22.5058587 50.0310974,25.4160756 C50.7508716,26.3062916 51.3294071,27.2536775 51.4597813,28.5794732 C51.5901555,29.9052689 51.1039684,31.212008 50.6449426,32.3118468 C49.7817592,34.427954 48.7347395,36.463951 47.5159619,38.3963507 C47.6897942,36.9181021 47.7875748,35.4452983 47.8663426,33.8799337 C47.89622,33.3708499 48.0102974,32.6085855 47.5702845,32.6085855 C47.1900264,32.6085855 47.2362006,33.2020628 47.2199038,33.583195 C47.079765,36.4447694 46.7914672,39.2971196 46.3561748,42.1287243 C45.9219727,45.0557837 45.7501704,48.0159365 45.8428264,50.9737146 C45.8247794,51.1899776 45.8339046,51.4076561 45.8699877,51.6216395 C45.9389991,51.7848707 46.0978286,51.8917128 46.2746909,51.8938768 C46.6386522,51.8421517 46.4946974,50.954658 46.4919812,50.5326902 C46.4919812,49.9882156 46.4919812,49.2368406 46.4919812,49.0435521 C46.5327232,47.8429855 46.5191425,46.8357075 46.5979103,45.8529308 C46.760878,43.8029838 47.0732329,41.9408806 47.3258329,39.9834943 C48.379692,38.3798364 49.3269577,36.7083068 50.1614716,34.9797725 C50.9980394,33.2347313 51.9405362,31.4406874 52.1578265,29.1402821 L52.1578265,28.8571553 C51.9459684,26.7228147 50.9084071,25.2636227 49.7051619,24.1066141 Z M31.4636391,18.2916251 C31.4029904,17.6883608 31.2090737,17.1062034 30.8959681,16.5874195 C31.0263423,16.5166378 31.3631423,15.9068262 30.8959681,15.8305998 C30.5727488,15.7761523 30.1218714,16.3505731 29.8095165,16.5601958 C29.3190056,16.9517075 28.7090722,17.1622145 28.0820584,17.1563955 C27.1124003,17.0856138 26.6696713,16.3723521 26.1128649,15.7761523 C26.2350907,15.5610849 26.5012713,15.3677964 26.6778197,15.0737801 C26.8543681,14.7797638 27.2210455,13.8786583 26.6778197,13.8568793 C26.3573165,13.840545 26.3002778,14.2570681 26.1943487,14.5048041 C26.1107719,14.7559357 25.9501039,14.9741461 25.7353229,15.1282275 C25.4258664,14.3102173 24.880253,13.6031751 24.1681164,13.0973372 C24.4261487,12.5528625 24.9829552,12.1744527 25.0318455,11.4203553 C25.0590068,10.900382 24.8335681,10.3912983 24.7086261,9.85226839 C24.347677,8.33180155 24.6954183,6.72931556 25.653839,5.49647137 C26.4686778,5.6353124 27.1585745,5.44474628 27.946252,5.41480017 C28.7203488,6.19884364 28.4894778,8.36313028 28.4894778,9.95844094 C28.4894778,10.6472013 28.4596004,11.6245333 29.0028262,11.7443177 C29.4917294,11.8504903 29.8638391,11.4121882 30.0892778,11.1753417 C30.3592752,10.8913969 30.6029216,10.5834052 30.8172004,10.2551796 C30.8172004,9.43846767 31.1702972,8.594532 31.9797036,8.98383136 C32.6309564,9.35950727 32.9614908,10.1170669 32.7945424,10.8513793 C32.6676086,11.2340738 32.4326844,11.5716671 32.1182262,11.8232665 C31.8466133,12.0655578 31.2544972,12.3160161 31.2544972,12.6100324 C31.2544972,13.0347226 31.8330327,12.9258277 31.9851359,12.7978761 C32.2350198,13.723483 32.4658907,14.6518122 33.1992456,15.1527289 C33.7913617,15.5556401 34.576323,15.2589014 35.5459811,15.2589014 C36.0511811,15.2589014 36.5699618,15.3133489 36.5699618,14.934939 C36.5699618,14.5565292 35.9099424,14.5619739 35.3558521,14.5837529 C34.6578069,14.6082543 34.1933488,14.8124322 33.7642004,14.6926478 C33.2427037,14.5429173 32.914052,13.679925 32.7402198,13.0946148 C32.6448616,12.8719998 32.5896832,12.6341872 32.577252,12.3922425 C32.6044133,12.220733 33.0335617,11.8069323 33.144923,11.6354228 C33.3407597,11.3549261 33.4614101,11.0287023 33.4953037,10.6880369 C33.557403,9.99350068 33.3213001,9.30534677 32.8461488,8.79598761 C32.5745359,8.50469369 31.8792069,8.03916788 31.2028907,8.25151298 C30.4695359,8.48563707 30.2848391,9.2533463 30.1164391,10.119061 C29.8448262,10.4103549 29.5732133,10.8758807 29.2255488,11.009277 C29.0001101,9.06278018 29.4971617,6.63714571 28.766523,5.33040661 C28.5572728,4.90738996 28.0998815,4.66772442 27.6338971,4.73692926 C27.3812971,4.7532635 27.0743745,4.84854656 26.7430068,4.87032555 C25.9417487,4.92477301 25.2681487,4.56814213 24.8009745,4.89754928 C24.4214288,4.63621771 24.0692527,4.33704639 23.7498326,4.00461089 C23.6656326,3.92021732 23.4782197,3.83582375 23.5325422,3.70787221 C23.8666261,3.81404477 24.7602326,4.08083733 24.8906068,3.65342475 C25.020981,3.22601217 24.4913358,2.90477214 24.5130648,2.43652396 C24.9720906,2.60258872 25.4066713,2.98099859 25.96891,2.81493383 C26.3518842,2.70331653 26.4089229,2.40385548 26.6452262,2.19423275 C27.1205487,1.76682017 28.0032907,1.459192 28.8018326,1.21962317 C30.6786778,0.675148538 33.0009682,0.528140389 34.9810263,1.11072824 C35.449963,1.25430973 35.9098251,1.4261317 36.3581037,1.62525676 C36.7976957,1.79684639 37.222019,2.00539764 37.626536,2.24868021 C40.0194457,3.89843833 39.1068263,8.80959948 38.2458134,11.4149106 C38.0905326,11.8817165 37.9017203,12.3366356 37.6808586,12.7760971 C37.3929489,13.358685 36.8497231,13.9630518 36.8442908,14.7498177 C36.8771891,15.323171 36.9952836,15.8883918 37.1946714,16.4267995 C37.3481226,16.91762 37.5558384,17.3897074 37.8139489,17.8342664 C35.5948714,17.5375278 33.2861617,17.8614902 31.4636391,18.2916251 L31.4636391,18.2916251 Z" id="Shape"></path>
                    <path d="M25.71631,7.20339932 C26.0058123,7.14608149 26.3056565,7.17348863 26.5800391,7.28234815 C26.9141229,7.44569053 27.5334004,8.03644551 27.4682133,8.39307639 C27.4311114,8.54023232 27.2963128,8.64127987 27.1449939,8.6353676 C26.7783165,8.6353676 26.8353552,8.40124351 26.6859681,8.229734 C26.5614237,8.06258094 26.3944817,7.93191638 26.2024971,7.85132413 C25.8059423,7.74242921 25.1160455,8.18617603 25.1160455,7.60903292 C25.1214777,7.25240204 25.5098842,7.23062306 25.71631,7.20339932 Z" id="Path"></path>
                    <path d="M26.4442326,10.5029156 C26.30571,10.6363119 26.0992842,10.761541 25.9010068,10.557363 C25.74571,10.1426639 25.6728176,9.70152942 25.6864326,9.25879104 C25.7229767,9.15246169 25.8060807,9.06875515 25.9119848,9.0316035 C26.0178889,8.99445185 26.1349348,9.0079449 26.2296584,9.06822492 C26.4713939,9.23701206 26.4333681,10.1408399 26.4442326,10.5029156 Z" id="Path"></path>
                    <path d="M31.5994456,9.60997718 C31.6850208,9.58174449 31.7786208,9.59226852 31.8558279,9.63880386 C31.933035,9.68533921 31.9861924,9.76327075 32.0014327,9.85226839 C32.0394585,10.0945596 31.8520456,10.2960152 31.7596972,10.5029156 C31.6673488,10.7098159 31.6347552,10.9711637 31.4093165,11.0147217 C30.7981875,11.1372285 31.0535036,10.4702471 31.1947423,10.1517294 C31.2843746,9.95027382 31.3577101,9.66170227 31.5994456,9.60997718 Z" id="Path"></path>
                    <path d="M4.75050974,22.6719235 C5.40781297,22.5575838 5.94832266,22.9686622 5.88313556,23.8098755 C5.82338072,24.5694176 5.06829684,25.0703342 4.99224523,25.783596 C4.93249039,26.287235 5.1579291,26.7963188 5.28830329,27.1883405 C5.45941943,27.7028691 5.6902904,28.1956186 5.63868394,28.8925461 C5.60009424,29.3117922 5.47128924,29.7176712 5.261142,30.0822232 C5.11718716,30.3544605 4.85372264,30.9179917 4.47889683,30.8390429 C3.93567102,30.7247032 4.51420651,30.0767784 4.64186458,29.839932 C4.7985368,29.5624369 4.90778464,29.2606245 4.96508394,28.9469936 C5.09002587,27.8172087 4.26703876,27.1801734 4.31864522,25.8652672 C4.33765812,25.3207926 4.61198716,24.8797681 4.88360006,24.4305765 C4.99496135,24.2481775 5.10632265,24.2100643 5.17965813,23.916048 C5.3725033,23.1701178 4.81841297,23.2871798 4.47889683,23.5376382 C3.66405811,24.1365602 3.29738069,25.0921132 3.07737423,26.2600113 C3.00403875,26.6493107 2.98502584,27.4524107 2.64550971,27.4769121 C2.18376777,27.5068582 2.28154842,26.7473161 2.3738968,26.2327876 C2.62106455,24.8607115 3.41145811,22.90877 4.75050974,22.6719235 Z" id="Path"></path>
                </g>
                <path d="M34.1363101,29.9842177 C34.3877531,29.8558209 34.6699214,29.8002003 34.9511488,29.8235977 C35.1013243,29.8553705 35.2540381,29.8735925 35.4074585,29.8780452 C35.5215359,29.8535438 35.586723,29.7174252 35.7062327,29.6602553 C36.0702821,29.5311916 36.4641567,29.5122573 36.8388585,29.6058079 C37.0289876,29.4125194 37.5233231,29.3090692 37.9714844,29.3335706 C39.1149747,29.4043523 39.8266005,30.5314147 40.2666134,31.5114691 C40.426865,31.8653776 40.9347812,32.8917123 40.2666134,32.8726556 C39.8917876,32.8563214 39.7396844,31.9606606 39.563136,31.6013074 C39.2127553,30.8853233 38.7482973,30.0141639 37.6618456,30.0304981 C37.6917231,30.1911181 38.0122263,30.3789619 37.985065,30.6539215 C37.9664901,30.830968 37.8119475,30.9618508 37.6346844,30.9506602 C37.2408456,30.934326 37.0398521,29.9951072 36.2304456,30.2482879 C36.2521747,30.4470212 36.7166327,30.68659 36.7166327,31.0051077 C36.7186242,31.1036976 36.6785194,31.1984485 36.6064057,31.265528 C36.5342921,31.3326074 36.4370327,31.3656315 36.3390908,31.3562938 C36.0267359,31.3290701 35.9343876,30.8308758 35.5840069,30.6539215 C35.305151,30.5271285 34.9942018,30.4891206 34.6931166,30.5450266 C34.6931166,30.7873178 35.7415424,31.4570216 35.4210392,31.9062132 C35.1494263,32.2955125 34.7881811,31.7755393 34.6062004,31.555027 C34.2124774,31.0517372 33.7693371,30.5893375 33.2834456,30.1747839 C32.5392262,29.5540828 31.8846391,29.0858346 30.8389294,29.0858346 C30.9665875,29.9542716 31.9824198,30.0767784 32.6207101,30.5994741 C33.6637037,31.4542992 34.0412456,32.9951624 34.7257101,34.2229527 C34.869665,34.49519 35.3096779,35.0396647 35.2390585,35.333681 C35.1868765,35.4787254 35.041296,35.5680843 34.8886779,35.5487484 C34.554594,35.5269695 34.2368069,34.7592602 34.1037166,34.5224138 C33.8619811,34.0841117 33.7071617,33.7057018 33.5116004,33.305513 C32.7429359,35.3854061 34.5980521,36.6649214 35.6166005,37.66131 C35.4943747,37.8545985 35.3151101,37.9907171 35.1847359,38.1758385 C34.323723,37.2856225 32.7918262,36.2701773 32.6478714,34.604085 C32.5999474,33.8604311 32.7688715,33.1188615 33.1340585,32.4697444 C32.965758,32.1188109 32.7666988,31.7835498 32.5392262,31.4679111 C31.9960004,30.8036521 30.9312778,30.5749727 30.4613875,29.9814954 C29.9181617,29.2900126 30.1001423,28.2636779 31.2762262,28.3834623 C32.4523101,28.5032468 33.4545617,29.3852957 34.1363101,29.9842177 Z" id="Path" fill="#000000" fill-rule="nonzero"></path>
                <path d="M2.17290325,36.1885061 C3.32796228,36.1885061 4.26432264,37.1270191 4.26432264,38.2847334 C4.26432264,39.4424478 3.32796228,40.3809608 2.17290325,40.3809608 C1.01784422,40.3809608 0.081483872,39.4424478 0.081483872,38.2847334 C0.081483872,37.7287794 0.30182921,37.1955958 0.694046427,36.8024769 C1.08626364,36.409358 1.61822435,36.1885061 2.17290325,36.1885061 L2.17290325,36.1885061 Z" id="Path" fill="#FFBF1E"></path>
                <path d="M19.5561293,15.9013815 C20.7111883,15.9013815 21.6475487,16.8398944 21.6475487,17.9976088 C21.6475487,19.1553232 20.7111883,20.0938361 19.5561293,20.0938361 C18.4010703,20.0938361 17.4647099,19.1553232 17.4647099,17.9976088 C17.4647099,16.8398944 18.4010703,15.9013815 19.5561293,15.9013815 Z" id="Path" fill="#FFBF1E"></path>
                <path d="M32.4305811,16.7670962 C33.2764812,16.7670962 34.0390886,17.2778255 34.3628006,18.061132 C34.6865126,18.8444385 34.5075796,19.7460632 33.9094379,20.34558 C33.3112961,20.9450968 32.4117394,21.1244412 31.6302295,20.799985 C30.8487197,20.4755288 30.3391617,19.7111683 30.3391617,18.8633235 C30.3391617,17.7056091 31.275522,16.7670962 32.4305811,16.7670962 L32.4305811,16.7670962 Z" id="Path" fill="#FFBF1E"></path>
                <path d="M64.2228718,0.185121373 C65.3779308,0.185121373 66.3142912,1.12363431 66.3142912,2.28134869 C66.3142912,3.43906307 65.3779308,4.37757601 64.2228718,4.37757601 C63.0678128,4.37757601 62.1314524,3.43906307 62.1314524,2.28134869 C62.1314524,1.72539464 62.3517978,1.19221102 62.744015,0.79909214 C63.1362322,0.40597326 63.6681929,0.185121373 64.2228718,0.185121373 L64.2228718,0.185121373 Z" id="Path" fill="#FFBF1E"></path>
                <path d="M27.7208133,20.4722434 C28.3000064,20.4711444 28.8227798,20.8199963 29.0451894,21.3560153 C29.267599,21.8920343 29.1458058,22.5095664 28.7366428,22.9204497 C28.3274798,23.331333 27.7115966,23.4545788 27.1763855,23.2326764 C26.6411744,23.010774 26.2921294,22.4874624 26.2921294,21.9069366 C26.2921294,21.1156408 26.9313338,20.4737475 27.7208133,20.4722434 Z" id="Path" fill="#FFCE1E"></path>
                <path d="M38.8134844,22.9332713 C39.6040248,22.9332713 40.2448844,23.5756042 40.2448844,24.367962 C40.2448844,25.1603197 39.6040248,25.8026526 38.8134844,25.8026526 C38.022944,25.8026526 37.3820844,25.1603197 37.3820844,24.367962 C37.3820844,23.5756042 38.022944,22.9332713 38.8134844,22.9332713 L38.8134844,22.9332713 Z" id="Path" fill="#FFCE1E"></path>
            </g>
        </g>
    </g>
</svg>