<?xml version="1.0" encoding="UTF-8"?>
<svg width="819px" height="645px" viewBox="0 0 819 645" version="1.1" xmlns="http://www.w3.org/2000/svg" xmlns:xlink="http://www.w3.org/1999/xlink">
    <title>1-cor-woman-doing-research</title>
    <g id="Page-1" stroke="none" stroke-width="1" fill="none" fill-rule="evenodd">
        <g id="woman-doing-research" transform="translate(-0.000000, 5.000000)">
            <path d="M576.31944,214.363149 L735.105531,148.952968 C735.105531,148.952968 766.897149,239.348761 721.116072,302.662644 C668.454933,375.523183 535.354406,406.004497 486.964639,363.31366 C439.578214,321.472674 382.158365,180.227476 471.369832,97.0270859 C540.62912,32.4667558 613.471773,60.2002193 613.471773,60.2002193 L576.31944,214.363149 Z" id="Path" fill="#FFE380"></path>
            <path d="M570.607245,390.140268 C502.531735,390.119967 440.625766,350.692657 411.834953,289.01974 C383.044139,227.346823 392.577037,154.585568 436.284292,102.406535 C479.991548,50.2275016 549.966065,28.0704188 615.750258,45.5795293 C617.515394,46.0536935 618.578557,47.8505163 618.144206,49.6254753 L578.245078,209.953208 L729.063783,148.152808 C730.779341,147.468106 732.72616,148.294989 733.424188,150.004825 C754.910537,203.986144 748.252088,265.103319 715.645413,313.194251 C683.038737,361.285182 628.719512,390.102755 570.607245,390.140268 L570.607245,390.140268 Z M570.607245,46.4058118 C496.987466,46.4805887 431.952595,94.3642306 410.03725,164.629714 C388.121906,234.895198 414.408318,311.24776 474.937957,353.142896 C535.467596,395.038032 616.203467,392.760141 674.273454,347.518823 C732.343442,302.277505 754.280953,224.564348 728.436797,155.646356 L574.768154,218.643444 C573.607399,219.142062 572.263894,218.935698 571.306389,218.111713 C570.348884,217.287729 569.944821,215.990216 570.265252,214.768454 L610.848365,51.2210596 C597.674223,48.0201292 584.164858,46.4058118 570.607245,46.4058118 L570.607245,46.4058118 Z" id="Shape" fill="#000000" fill-rule="nonzero"></path>
            <path d="M789.659698,623.783851 L277.589413,623.783851 C277.589413,623.783851 233.46369,527.711593 219.57597,490.978917 C205.688251,454.246241 189.280698,393.715329 191.084669,383.872674 C192.186033,377.948795 193.805204,372.130977 195.923895,366.484929 C195.923895,366.484929 192.745469,357.635048 193.890848,353.380298 C194.296882,351.44943 194.981597,349.586573 195.923895,347.849123 C195.923895,347.849123 193.060448,335.084873 195.923895,330.830123 C198.787343,326.575372 199.47457,326.802292 199.47457,326.802292 C199.47457,326.802292 196.611123,305.698732 212.445987,302.351662 C228.28085,299.004592 265.076148,302.096377 261.811818,314.690437 C258.547488,327.284497 247.809561,319.455757 242.741259,318.718267 C237.672957,317.980777 233.864572,314.832262 229.998919,317.470207 C227.510981,319.295535 225.433873,321.613913 223.899776,324.277807 C230.467382,328.618852 236.759715,333.355263 242.741259,338.460308 C255.712676,349.806308 251.64658,355.848053 251.64658,355.848053 L265.620203,354.855278 C265.620203,354.855278 267.510079,340.672778 271.977056,335.935823 C276.444034,331.198868 286.294293,325.894612 285.463893,331.907993 C283.922769,339.375066 283.155204,346.978482 283.173135,354.599993 C284.290077,362.555741 282.86841,370.658355 279.10704,377.774199 C275.81823,383.766865 271.713747,389.28345 266.908755,394.169169 C266.908755,394.169169 281.455067,432.149905 291.305326,449.849666 C301.155585,467.549426 320.569757,498.722562 320.569757,498.722562 C320.569757,498.722562 335.516952,417.059725 346.340783,399.445059 C357.164614,381.830394 382.534757,358.798013 404.354226,350.061593 C426.173695,341.325173 431.07019,339.481448 431.07019,339.481448 C431.07019,339.481448 429.638466,338.290118 424.713337,334.943048 C419.788207,331.595978 409.937948,323.341762 409.937948,323.341762 C409.937948,323.341762 398.484159,340.701143 389.092052,338.460308 C379.699945,336.219473 376.66469,334.716128 372.312251,327.624877 C369.309604,322.984083 365.70956,318.750454 361.602958,315.030817 C361.602958,315.030817 344.59408,324.249442 341.272482,311.258272 C337.950883,298.267102 351.981775,286.495626 352.955347,273.703011 C353.928919,260.910396 351.809968,227.382965 358.682241,211.470199 C370.594182,183.388848 421.878524,131.452532 485.361151,155.279133 C548.843778,179.105733 546.896634,209.314459 552.508991,225.31232 C558.121347,241.31018 575.416569,302.493487 613.586322,322.831192 C651.756075,343.168898 697.886211,331.822898 706.676994,340.984793 C715.467778,350.146688 729.355497,366.087819 722.196879,376.270854 C717.545373,382.630021 711.442657,387.810306 704.386237,391.389399 C704.386237,391.389399 721.853265,398.509014 720.163831,424.150975 C718.878395,440.301751 714.658661,456.089746 707.707835,470.754672 L789.659698,623.783851 Z" id="Path" fill="#FFFFFF"></path>
            <path d="M459.575959,273.376734 C463.206606,272.905899 466.553216,275.340036 467.076034,278.83187 L468.34187,287.974557 C468.822501,291.483866 466.25803,294.703943 462.613964,295.166802 C458.969897,295.62966 455.626168,293.160025 455.145534,289.650717 L453.848053,280.50803 C453.399661,277.019434 455.956982,273.835546 459.575959,273.376734 Z" id="Path" fill="#000000" fill-rule="nonzero"></path>
            <path d="M415.784806,273.37635 C419.423087,272.903802 422.768659,275.376816 423.260534,278.902334 L424.559283,288.112306 C424.910375,291.583784 422.362101,294.701352 418.794862,295.164521 C415.227623,295.62769 411.922497,293.270125 411.318375,289.831501 L410.051302,280.621529 C409.808828,278.922057 410.278722,277.199258 411.356039,275.837899 C412.433357,274.476541 414.028353,273.590027 415.784806,273.37635 L415.784806,273.37635 Z" id="Path" fill="#000000" fill-rule="nonzero"></path>
            <path d="M406.94004,419.345716 C406.363337,419.342985 405.798464,419.157973 405.307553,418.81103 L374.912198,396.621569 C373.986434,395.952983 373.442143,394.769013 373.484354,393.515651 C373.526565,392.262289 374.148865,391.12995 375.116841,390.545174 C376.084816,389.960399 377.251408,390.012029 378.177172,390.680616 L408.572527,412.870077 C409.717971,413.697049 410.24638,415.29431 409.867349,416.78403 C409.488318,418.27375 408.293701,419.294914 406.94004,419.286306 L406.94004,419.345716 Z" id="Path" fill="#000000" fill-rule="nonzero"></path>
            <path d="M515.340758,419.344925 C513.84571,419.364546 512.550991,418.28964 512.265261,416.791574 C511.97953,415.293508 512.784617,413.801308 514.177679,413.246977 L551.739864,397.678321 C552.764519,397.249351 553.93554,397.410956 554.811816,398.102259 C555.688091,398.793563 556.136492,399.909541 555.988112,401.029815 C555.839732,402.150088 555.117112,403.104461 554.092457,403.533431 L516.503838,419.129068 C516.134507,419.280821 515.738783,419.354264 515.340758,419.344925 Z" id="Path" fill="#000000" fill-rule="nonzero"></path>
            <path d="M464.599906,433.94844 C462.995669,433.968019 461.588605,432.858317 461.20115,431.267698 C460.813695,429.677079 461.547541,428.02302 462.97375,427.272327 L543.601479,383.260045 C544.694757,382.661084 546.01775,382.703523 547.072097,383.371377 C548.126445,384.03923 548.751967,385.231035 548.713036,386.49785 C548.674105,387.764665 547.976634,388.91403 546.883356,389.512991 L466.226061,433.525273 C465.725756,433.799305 465.16756,433.944472 464.599906,433.94844 L464.599906,433.94844 Z" id="Path" fill="#000000" fill-rule="nonzero"></path>
            <path d="M465.085711,499.659813 C463.978826,499.680025 462.936984,499.142255 462.317962,498.231176 L432.426273,453.613736 C431.783539,452.632192 431.717159,451.384837 432.252136,450.341538 C432.787114,449.298238 433.842174,448.617496 435.019885,448.555741 C436.197597,448.493986 437.319037,449.060599 437.961771,450.042143 L467.853459,494.659582 C468.525267,495.656941 468.581607,496.942672 467.999579,497.994167 C467.417551,499.045662 466.294038,499.687893 465.085711,499.659813 Z" id="Path" fill="#959595" fill-rule="nonzero"></path>
            <path d="M808.357494,631.085213 L70.0311522,631.085213 C68.2603673,631.085213 66.8248628,629.450747 66.8248628,627.434532 C66.8248628,625.418317 68.2603673,623.783851 70.0311522,623.783851 L808.357494,623.783851 C810.128279,623.783851 811.563784,625.418316 811.563784,627.434532 C811.563784,629.450747 810.128279,631.085213 808.357494,631.085213 L808.357494,631.085213 Z" id="Path" fill="#000000" fill-rule="nonzero"></path>
            <path d="M407.458526,317.40738 C407.458526,317.40738 393.097926,334.371238 382.930622,325.214774 C376.984984,319.941719 372.444822,313.273732 369.71887,305.811105 C369.71887,305.811105 358.977142,310.461097 353.807326,303.399998 C343.927234,289.880579 370.4369,277.107454 364.577776,248.14547 C358.718651,219.183485 382.356198,180.404852 415.557904,165.938212 C445.65772,152.878051 488.394865,132.211422 526.909992,174.319678 C541.672689,190.422427 549.886952,217.920525 562.237067,256.498232 C571.801226,286.579659 592.107114,309.255543 617.783866,324.956441 C660.434846,351.019356 686.714744,327.826806 705.412244,337.873084 C714.287095,342.580483 725.517083,357.592492 723.76509,368.873027 C722.013097,380.153562 707.566334,390.429469 707.566334,390.429469 C707.566334,390.429469 726.177671,405.872034 723.477878,426.538663 C720.778086,447.205292 708.65774,470.455249 708.65774,470.455249 C708.65774,470.455249 655.552243,378.603565 641.794788,366.174884 C628.037334,353.746203 578.091169,344.704553 558.991572,341.116596 C539.891974,337.52864 532.137251,334.457349 525.847308,326.018476 C519.557365,317.579602 514.789646,291.000021 514.789646,291.000021 C514.789646,291.000021 550.920915,270.907465 534.894486,252.192684 C514.789646,228.569579 509.045407,277.250972 509.045407,277.250972 C509.045407,277.250972 473.833217,278.57134 445.858769,263.501923 C417.884321,248.432506 393.815956,236.290862 393.815956,236.290862 C393.815956,236.290862 388.071716,246.796398 394.074447,269.443579 C400.077178,292.09076 407.458526,317.40738 407.458526,317.40738 Z" id="Path" fill="#FFCE1E"></path>
            <g id="Group" transform="translate(315.071170, 149.195323)" fill="#000000" fill-rule="nonzero">
                <path d="M393.089348,245.265287 C394.881938,247.774978 397.101335,249.828362 398.979287,252.509169 C405.393708,261.837993 408.490539,273.058423 407.771513,284.365137 C406.860991,300.507015 399.747539,313.968086 393.544609,324.520198 C421.20171,375.484043 449.200256,427.560137 473.926615,480.577366 C471.475835,480.072135 468.968407,479.899473 466.471718,480.06402 C435.599337,417.863603 405.21067,358.343992 370.838471,298.539189 C362.302329,283.50956 354.192994,269.078835 345.230044,254.904783 C336.267095,240.730731 326.13754,227.269659 312.906519,217.972394 C299.675499,208.675128 280.383818,204.482803 260.29543,201.374208 C241.060656,198.37969 217.273273,197.153364 207.143717,185.574561 C201.196872,178.815506 197.611692,168.919337 195.762195,156.656072 C195.250026,152.920054 194.339504,147.130653 195.762195,144.335769 C197.184885,141.540886 200.741611,141.312732 202.704923,140.057886 C210.814259,134.895908 219.919477,123.374143 214.086446,110.882725 C213.204378,109.057495 211.241066,105.920381 208.737131,105.777785 C204.525967,105.549631 201.623679,110.198264 200.200988,112.736474 C198.469439,116.288914 197.298384,120.089161 196.729624,124.001566 C196.245909,126.996084 196.359724,135.038504 194.880126,136.578542 C192.461553,139.088233 182.815712,136.26483 178.576095,135.494811 C139.793555,128.507603 108.949628,113.791685 81.3494352,96.4234808 C79.5852991,133.783658 85.8451367,160.078379 103.799489,178.074006 C112.335631,186.629772 123.717154,194.615153 140.789439,191.991385 C150.629017,190.408709 159.709049,185.723391 166.710857,178.615871 C169.328607,176.163218 173.710494,171.314951 175.787622,175.935064 C177.86475,180.555178 170.69439,184.262677 168.844893,185.831234 C165.905533,188.69395 162.582401,191.132036 158.971422,193.075115 C160.337204,196.126672 164.292284,199.320824 164.832906,204.482803 C165.288167,208.703648 162.812686,217.344971 157.890177,213.865626 C155.585419,212.211512 157.890177,207.50584 157.634093,205.024668 C156.951201,200.147882 153.906644,199.035632 151.744155,196.468902 C143.994704,199.39224 135.613807,200.218485 127.444603,198.864517 C124.991693,198.152571 122.490758,197.618828 119.961252,197.267441 C116.603702,197.267441 110.286957,200.119363 106.8725,201.545324 C78.418693,212.468185 51.3875761,227.212621 36.9045881,251.339881 C28.3684459,265.456894 24.4987281,284.507733 20.3444722,303.558571 C16.8446539,319.557853 14.0561808,335.671212 9.93037876,353.067936 C9.19057977,356.176531 7.79634321,357.830646 6.17447619,357.887684 C0.739798991,358.144357 3.32909546,349.132284 4.04044064,345.852574 C7.14190564,330.937022 10.0726478,317.333354 13.1172052,303.073745 C17.129192,284.422175 21.6533474,264.743914 29.4212368,250.313189 C45.924445,219.997258 76.796826,205.794687 110.343865,193.046596 C106.929408,189.681328 100.897201,186.658291 97.7957358,182.066697 C89.9993926,187.770541 82.1745956,199.548978 68.4314067,195.984076 C57.0498837,193.132154 52.2411903,182.408927 46.2374369,173.482412 C33.6608541,180.526659 18.6656976,172.769431 21.1411789,158.224629 C22.7061383,149.012921 28.4538073,142.339424 31.5552723,134.667754 C34.9697292,126.283104 34.998183,114.36207 34.7705526,104.408862 C34.4575607,92.1455979 34.7705526,82.3635056 37.1606724,73.3799515 C39.3864327,65.0318291 42.900193,57.0836372 47.5747659,49.8230763 C64.988496,22.872414 95.9462384,3.05155648 135.184039,0.541865169 C153.653729,-0.689877046 172.132076,2.81406311 188.876373,10.7232265 C202.810469,17.1343152 214.591555,27.4565571 222.793311,40.4402531 C238.869713,66.1075506 242.910153,103.03994 259.384908,131.188409 C274.067072,156.256803 297.285379,180.669255 330.718603,187.143118 C340.349297,188.676225 350.145997,188.858595 359.826848,187.684983 C370.212487,186.629772 380.114412,186.401618 387.597764,190.080597 C394.53982,193.467903 400.106355,199.147944 403.361173,206.165437 C406.661815,212.553742 409.848641,223.276969 407.088622,232.117927 C405.182217,238.734386 399.804447,242.413365 393.089348,245.265287 Z M400.5727,286.760751 C402.094908,275.21225 398.915825,263.535667 391.752019,254.362918 C389.504169,251.653592 383.215877,248.944266 383.471962,244.723422 C383.471962,241.415192 386.97178,240.445539 390.699229,238.848462 C397.072881,235.996541 401.17023,232.74535 401.369406,224.931083 C401.682398,213.067088 393.032441,199.263786 383.471962,195.47073 C376.073972,192.618808 366.399677,194.301442 358.887872,194.928865 C331.060048,197.324479 311.398468,190.536905 294.269276,179.157736 C273.232427,165.164306 256.93788,144.991711 245.385635,118.639953 C233.634212,91.8033673 229.337687,60.6603797 214.399438,40.2120994 C199.461189,19.763819 172.543888,5.98903607 137.744881,7.52907392 C113.494949,8.39832663 90.2466728,17.4416856 71.7605021,33.1963714 C55.5702857,47.1137505 41.6848278,65.3090124 41.5710125,93.9423087 C41.5710125,106.775957 43.2213333,121.349279 39.721515,132.500293 C38.0471808,137.55436 35.9926078,142.47379 33.5754927,147.216211 C31.8113566,150.752594 27.2587474,157.369053 27.8847312,162.502512 C28.6090825,165.946623 31.3639613,168.59467 34.8274602,169.176009 C40.6889445,170.003067 45.042377,164.727011 48.4568339,165.439992 C51.0176766,165.953338 51.9566522,169.404163 53.5216116,172.113489 C54.9780752,174.622617 56.5838757,177.041617 58.330305,179.357371 C61.1756858,183.178946 66.0697406,189.225021 72.215763,189.538732 C81.2925276,189.99504 87.6377266,181.553351 92.7878657,176.134699 C77.5081712,157.597206 71.8743173,126.140507 74.6343367,92.0885594 C73.7522686,89.8070219 65.5860259,88.1814264 66.0981945,83.5327936 C66.1906243,82.3631773 66.909952,81.336325 67.9761457,80.851987 C71.7035945,79.3404684 78.3048778,86.0995234 81.3209814,88.0958687 C113.566903,109.90864 150.245759,124.267125 188.70565,130.133198 C189.388542,119.638125 192.689183,108.087842 199.119744,102.555113 C201.31365,100.623692 203.987869,99.3229258 206.859179,98.790576 C216.87492,97.5642496 221.51289,107.346342 222.622589,115.132089 C225.211885,132.899562 212.407672,142.653135 202.050486,148.870325 C203.188638,162.702147 206.603095,177.218429 215.395322,183.663773 C223.447749,189.567251 234.772364,190.308751 245.584811,191.962866 C256.966334,193.702538 268.347857,195.157018 278.705043,197.324479 C300.72829,201.916073 316.320976,209.844416 329.722719,223.276969 C343.124463,236.709521 352.087412,252.623245 361.505622,268.53697 C370.923832,284.450694 380.114412,301.105918 389.817161,317.532989 C395.203787,307.959392 398.845857,297.500584 400.5727,286.646674 L400.5727,286.760751 Z" id="Shape"></path>
                <path d="M205.322674,116.643607 C206.574641,116.386934 208.850946,116.9288 209.334661,118.525876 C210.358998,121.976701 207.31444,124.914181 206.660003,126.283104 C205.692573,128.22241 204.554421,131.644717 202.107394,131.986947 C195.762195,132.728447 199.119744,125.6842 200.770065,122.37597 C202.022032,120.008875 202.961008,117.156953 205.322674,116.643607 Z" id="Path"></path>
                <path d="M136.151468,169.404163 C138.797672,168.77674 140.618716,170.117144 140.675623,172.256085 C140.675623,176.81916 130.289984,182.237812 124.65613,181.097043 C120.957135,180.327024 110.571495,174.366507 115.038743,170.117144 C118.567015,166.751876 122.379825,173.653527 125.708921,174.138354 C130.887514,174.936892 132.111027,170.345297 136.151468,169.404163 Z" id="Path"></path>
            </g>
            <path d="M295.038133,454.981115 C295.038133,454.981115 284.391035,492.770835 263.011663,500.466092 C241.632291,508.161349 242.05755,503.012106 242.05755,503.012106 L294.527072,631.085213 L789.659698,631.085213 C789.659698,631.085213 718.679047,499.951167 694.574018,458.785833 C670.46899,417.620499 658.430671,378.314614 630.265549,363.496238 C602.100427,348.677862 565.190489,346.332096 565.190489,346.332096 C565.190489,346.332096 552.754679,363.181562 551.306673,371.506171 C549.858668,379.83078 548.041564,394.391694 548.041564,394.391694 C553.28329,395.513981 557.733965,398.977225 560.136666,403.803365 C563.969621,411.841905 572.4873,429.206295 572.4873,429.206295 C572.4873,429.206295 584.497226,418.364279 599.9994,436.071952 C615.501574,453.779625 654.228617,519.031972 654.228617,519.031972 C654.228617,519.031972 658.061572,534.4797 646.647883,541.116502 C640.298851,545.04511 632.904795,546.912592 625.467257,546.465992 L447.391001,543.176199 L421.412083,510.135225 C421.412083,510.135225 360.425508,433.7834 359.857663,428.548336 C359.289818,423.313273 367.182866,422.455066 367.182866,422.455066 C366.654382,415.856808 368.841113,409.329773 373.230417,404.40411 C379.532087,398.461219 386.281247,393.01916 393.417314,388.126782 L433.762716,421.68268 C433.762716,421.68268 434.245385,393.390452 441.59898,378.486255 C447.037292,368.2159 453.640062,358.616065 461.274816,349.879352 C456.706944,350.941801 451.958874,350.941801 447.391001,349.879352 C440.46329,348.04851 446.36888,349.62189 446.36888,349.62189 C446.36888,349.62189 382.117195,370.59075 366.671805,394.363087 C351.226416,418.135424 332.601093,517.086703 332.601093,517.086703 L295.038133,454.981115 Z" id="Path" fill="#353535"></path>
            <g id="Group" transform="translate(220.153464, 441.249802)" fill="#000000" fill-rule="nonzero">
                <path d="M76.4927028,2.45752392 C76.424389,10.516389 74.4824423,18.4435901 70.8265767,25.5871608 C68.1688887,32.0547964 64.3222039,37.943239 59.4943244,42.9343885 C50.9951352,51.1454096 38.8412947,58.9805741 23.5710847,57.8819163 C18.8690233,57.3266664 14.3382192,55.7492549 10.2840189,53.2559889 C6.94100452,51.405618 0.764927028,48.6300616 1.24654775,44.5823751 C1.5962004,43.5801825 2.25156315,42.7188332 3.11636938,42.1248512 C5.60946488,41.1418416 9.972382,45.796681 12.1538406,47.010987 C15.4512167,48.9028864 19.046253,50.1943094 22.7778271,50.8273771 C38.3596739,52.4464517 50.938474,43.1367728 57.8794785,35.0703119 C64.159946,27.2016441 68.4502511,17.8790287 70.3732866,7.92190064 C71.109883,4.13442259 71.7048263,-1.61907458 76.4927028,2.45752392 Z" id="Path"></path>
                <path d="M436.745003,71.0947214 L436.745003,73.8124537 C435.719953,82.6635638 431.785078,90.898659 425.582734,97.173387 C419.384743,103.437973 411.018335,106.959163 402.294956,106.974571 C401.303384,105.037464 400.538457,104.488135 400.68011,103.158181 C401.076739,99.4574386 407.762767,99.9489434 410.794145,98.8213736 C420.549175,95.0183922 427.889791,86.621709 430.483933,76.2988897 C430.880562,74.2750465 429.88899,67.3939795 433.147013,66.7868265 C435.781761,66.2664097 436.518358,68.5215493 436.745003,71.0947214 Z" id="Path"></path>
            </g>
            <g id="Group" transform="translate(190.948016, 295.222562)" fill="#000000" fill-rule="nonzero">
                <path d="M38.434889,1.85726015 L50.4138574,1.85726015 C59.6393662,3.08590917 69.6029157,5.40034105 74.9395177,10.7149624 C80.2761197,16.0295838 81.0425466,26.8588391 73.0660297,29.7733089 C61.4560817,33.9735741 47.2062189,20.2869955 40.0245151,31.0876776 C46.7475022,33.4078474 52.9844698,36.9634807 58.4187604,41.5740541 C63.1024802,45.4314406 69.2906677,51.003221 70.3977287,58.4608349 C70.9476462,62.1621235 69.9963605,65.9305627 67.7578139,68.9186382 C66.8494561,70.2044337 64.9191958,71.4045095 64.5501755,72.947464 C64.4366179,74.7362291 64.4366179,76.5304668 64.5501755,78.3192319 C63.8972933,84.0338785 61.7115574,87.1483609 60.0083865,91.9772373 C59.2886708,95.1743451 58.12272,98.2527291 56.5452724,101.120672 C54.9868826,103.684376 52.895076,105.877699 50.4138574,107.549649 C42.7495885,112.407099 28.1590915,109.664069 31.7641365,97.8918965 C28.1874777,95.9774899 21.8573593,96.5203813 22.4534691,91.7200782 C22.9360342,87.8341185 27.4210508,88.8627549 30.9693234,90.1199771 C34.517596,91.3771994 37.7252345,92.9773004 38.6903646,95.4631717 C39.9109704,98.6633738 37.3562141,100.634927 39.2297021,102.177881 C42.0683202,104.492313 46.0423855,102.006442 48.0294182,100.292048 C65.0611267,85.8625654 34.4608237,67.4042568 17.9116802,72.6617317 C4.68371986,76.9191434 9.39582589,101.749283 12.234444,115.521581 C14.5053385,125.836518 17.9116802,138.723047 21.2896357,149.037984 C40.3083769,209.041773 64.5785616,262.530865 88.7068154,316.134251 C90.9209376,321.048847 94.5543687,325.591991 95.0937062,331.163771 C92.4602169,330.124361 89.6617815,329.572602 86.8333275,329.535097 C69.4609848,290.475487 51.2370566,250.501534 35.142092,208.841761 C22.9360342,177.154045 10.6164317,146.294953 4.22954096,110.406973 C2.63991483,101.377831 1.02190251,90.7485882 2.92377664,81.1765552 C3.46311407,78.3192319 5.53530528,75.0618833 5.56369146,72.8617443 C5.59207765,70.6616054 4.11599624,67.2899639 3.97406533,64.0040421 C3.79756658,60.7066045 4.3401351,57.4102366 5.56369146,54.3462893 C4.24344779,49.6197095 4.15546047,44.6304286 5.30821584,39.8596601 C6.24495981,36.3165792 9.42421207,33.4878292 9.85000479,31.2876902 C10.2879736,27.1957837 11.0859179,23.1510857 12.234444,19.2012126 C16.4355988,8.57196992 24.8946807,3.48593444 38.434889,1.85726015 Z M48.0294182,8.82912902 C30.1461242,7.94335879 18.0819973,13.6294322 17.1168671,28.8303922 C22.6587912,27.6508916 28.3939912,27.7485734 33.8931,29.1161245 C34.3756651,24.5444072 39.5703362,20.3441419 44.3108284,19.7155308 C52.8266827,18.5726015 63.1308664,24.9444325 71.4764036,22.4014147 C73.4350501,12.1721973 57.4536302,9.31487398 48.0294182,8.82912902 Z M57.0846099,49.6031326 C48.7664241,41.4701216 37.9851057,36.3708187 26.4559206,35.1165034 C16.4923711,34.4593191 10.6164317,37.9738268 11.5247895,47.7458725 C30.8841649,38.7453041 54.8137154,50.6031958 62.4212119,64.6326532 C65.2882162,59.3751783 60.718041,53.2605065 57.0846099,49.6031326 L57.0846099,49.6031326 Z M25.5475628,51.4318195 C15.7827166,51.4318195 8.31715102,56.6035747 11.3544724,67.8042821 C26.0585141,60.0609359 46.0423855,68.0614412 53.9337438,77.1763025 C54.8704878,78.2620854 55.9491626,80.9193961 56.7723619,80.4050779 C60.9735167,63.5754436 41.6992998,51.4318195 25.5475628,51.4318195 Z" id="Shape"></path>
                <path d="M83.1998963,100.292048 C103.325699,150.009474 129.015192,194.898023 155.953678,238.700789 C157.372987,241.015221 162.368955,248.529981 156.209154,248.901433 C153.370536,249.072873 151.298344,244.501155 149.538401,241.643832 C123.67859,199.184008 97.0807388,153.809714 77.8632943,105.406657 C75.9614202,106.035268 72.8105541,106.149561 72.015741,103.777983 C71.220928,101.406404 74.3434079,98.6633738 76.0181926,97.091846 C82.0947754,91.8794826 87.0747906,85.4968661 90.6654619,78.3192319 C92.9324636,72.230524 94.0212486,65.7614528 93.8731004,59.2608854 C94.1001898,52.3175898 95.689816,46.6029431 96.5414014,39.6882207 C87.2023479,38.4309985 84.874681,48.7459356 83.9947094,57.9179434 C83.6256891,61.7753299 83.6824614,64.8040926 80.5315953,64.8898123 C74.6272697,65.0612517 77.6929772,52.5461756 78.6581074,48.8030821 C80.5032091,41.431188 84.3353436,33.0306574 93.0499011,32.1734604 C96.2291534,31.8591549 100.912873,32.7449251 102.64443,35.916554 C105.1708,40.5168445 101.821231,49.2316806 101.31028,54.432009 C101.106634,60.9889145 100.490365,67.5262383 99.465178,74.0046737 C96.6549461,85.2339543 90.1545107,92.7487146 83.1998963,100.292048 Z" id="Path"></path>
                <path d="M531.389307,332.849592 C528.550689,333.106751 526.506884,333.992521 523.668266,334.192534 C505.614655,300.761851 486.510755,267.645474 465.845615,233.071862 C456.165928,216.899412 446.48624,199.926912 436.011739,183.440156 C431.157702,175.839676 425.877873,167.381999 420.825132,159.038615 C415.772392,150.695231 410.833197,141.208918 404.020513,136.180029 C392.89313,128.065231 375.634332,136.180029 364.27986,141.294638 C355.394985,145.323463 345.743684,149.26657 339.498724,154.695484 C336.073354,157.019793 334.137227,161.004665 334.417598,165.153287 C337.256216,168.153477 339.356793,165.981911 341.627688,164.610396 C355.514207,156.172236 370.364009,149.456345 385.853358,144.609133 C389.855809,143.35191 395.476273,142.180408 395.192411,147.466456 C394.936935,151.781014 383.355374,153.895433 379.721942,155.238375 C368.808502,159.270096 358.281315,164.291028 348.270054,170.239323 C344.721781,172.325169 335.780134,176.896886 335.751748,180.982858 C335.751748,184.497366 343.501176,187.754715 346.680428,187.411836 C348.270054,187.240396 350.029997,185.125977 352.357664,183.668742 C362.227911,177.734159 372.468198,172.446657 383.014739,167.839171 C386.733329,166.039057 398.428436,158.667163 398.740684,166.496229 C398.911001,171.239386 390.224829,173.353805 386.477854,175.068199 C377.165117,179.21931 368.086701,183.883818 359.283892,189.04051 C356.445274,190.697758 348.52553,195.012316 348.639074,198.955422 C348.752619,202.898528 353.379567,203.527139 356.615591,202.698515 C358.661375,201.70413 360.569828,200.445856 362.292827,198.955422 C371.773812,192.612164 382.447016,189.269096 394.823391,185.268843 C399.762586,183.668742 406.915904,180.63998 407.086221,186.611785 C407.086221,191.126356 400.10322,191.897833 395.873679,193.326495 C387.131674,195.789903 378.650887,199.110783 370.553206,203.241407 C367.430726,204.955801 361.242539,208.241723 361.498014,211.813377 C361.867035,216.585107 370.212572,213.927796 373.760844,212.89916 C383.071512,210.041836 390.139671,208.413162 399.876131,205.384399 C403.509562,204.24147 413.132477,199.955485 411.855099,207.813124 C411.344148,211.041899 405.496595,211.92767 401.465757,213.156319 C396.725265,214.613554 393.546013,215.470751 389.231313,216.642253 C376.54269,220.156761 354.91242,230.471698 353.237636,210.927607 C344.948871,210.298995 338.618752,203.870018 341.514143,194.583717 C332.260248,193.497934 322.836036,181.468603 331.124801,173.125219 C324.36889,168.839234 325.93013,157.809966 330.869325,151.92388 C337.00074,144.580559 346.538497,140.6946 357.523949,135.551418 C368.509401,130.408236 378.898743,125.379347 390.565464,124.579296 C398.390935,123.959185 406.115446,126.675395 411.855099,132.065483 C418.298762,138.008716 423.209572,147.409309 428.375857,155.695547 C433.542142,163.981785 438.963902,172.553755 443.846325,180.354247 C454.235667,197.041015 463.886969,214.156382 473.680201,230.528844 C494.685975,265.731068 513.789875,298.961738 531.389307,332.849592 Z" id="Path"></path>
                <path d="M90.835779,333.106751 C90.5519172,333.735362 89.1609943,333.106751 88.4513398,333.392484 C88.791974,332.335274 90.1261245,333.135324 90.835779,333.106751 Z" id="Path"></path>
            </g>
            <g id="Group" transform="translate(599.824287, -4.133279)">
                <path d="M3.90555451,178.756355 L163.548658,109.849311 C143.398935,58.7486455 100.416967,20.2731748 47.6648696,6.11550009 L3.90555451,178.756355 Z" id="Path" fill="#FFE380"></path>
                <path d="M3.90555451,182.144284 C3.1037187,182.139175 2.32826606,181.855179 1.71046183,181.340369 C0.741726752,180.496585 0.332793421,179.171975 0.655677034,177.923728 L44.329469,5.25416205 C44.5638172,4.38521731 45.1266177,3.64319917 45.8973924,3.18695075 C46.6628868,2.73367812 47.5772215,2.60951671 48.4345774,2.84241553 C102.189746,17.3128688 145.991635,56.5199983 166.570474,108.586016 C167.225284,110.28241 166.432246,112.196758 164.774489,112.921417 L5.13138548,181.82846 C4.7486069,182.017294 4.33134735,182.124798 3.90555451,182.144284 L3.90555451,182.144284 Z M49.9739931,10.2499227 L8.80887841,172.98539 L159.129965,108.01179 C139.271282,60.4941642 99.1515972,24.5623211 49.9739931,10.2499227 L49.9739931,10.2499227 Z" id="Shape" fill="#000000" fill-rule="nonzero"></path>
            </g>
            <path d="M428.690535,68.8803411 C427.830234,68.8739534 427.007501,68.5278174 426.402381,67.917681 L410.93666,52.4876144 C409.672947,51.2268147 409.672947,49.1826546 410.93666,47.9218549 C412.200373,46.6610553 414.249257,46.6610553 415.51297,47.9218549 L430.97869,63.3519215 C431.879809,64.2819269 432.141374,65.6569958 431.644419,66.8517171 C431.147464,68.0464385 429.986884,68.8326778 428.690535,68.8528365 L428.690535,68.8803411 Z" id="Path" fill="#959595" fill-rule="nonzero"></path>
            <path d="M413.19129,68.8803411 C411.894946,68.8601552 410.73437,68.0729301 410.237417,66.8767108 C409.740464,65.6804915 410.002027,64.3036985 410.903143,63.3725271 L426.368812,47.9231142 C427.186288,47.1064972 428.377786,46.787572 429.494479,47.0864745 C430.611172,47.3853771 431.483409,48.256697 431.782626,49.3722165 C432.081843,50.4877361 431.762582,51.6779812 430.945106,52.4945982 L415.479438,67.9440112 C414.869827,68.5448143 414.047648,68.8812566 413.19129,68.8803411 Z" id="Path" fill="#959595" fill-rule="nonzero"></path>
            <polygon id="Path" fill="#959595" fill-rule="nonzero" points="191.055918 229.510304 198.249378 244.113028 183.646654 244.113028"></polygon>
            <path d="M212.747166,229.511065 C215.70935,229.468438 218.403648,231.220049 219.566885,233.944685 C220.730122,236.669321 220.131673,239.826792 218.05211,241.936772 C215.972546,244.046752 212.824167,244.690913 210.083035,243.567251 C207.341902,242.44359 205.551478,239.774885 205.551171,236.812312 C205.530163,234.887727 206.278186,233.034363 207.62922,231.663568 C208.980253,230.292774 210.822531,229.51795 212.747166,229.511065 Z" id="Path" fill="#959595"></path>
            <path d="M744.193996,506.962059 C743.384517,506.961832 742.60108,506.688396 741.981653,506.189906 C741.258103,505.629925 740.797686,504.817197 740.7023,503.931592 C740.606913,503.045986 740.884423,502.160531 741.473412,501.471191 C742.059148,500.74169 742.924416,500.26529 743.878062,500.147236 C744.831708,500.029183 745.795249,500.27919 746.555821,500.842029 C747.282726,501.387073 747.747257,502.190985 747.843065,503.069718 C747.938872,503.948451 747.657751,504.826753 747.064062,505.503547 C746.402369,506.396573 745.337989,506.93747 744.193996,506.962059 Z M752.893883,496.066117 C751.355947,496.017812 750.018272,495.044129 749.55958,493.639103 C749.100887,492.234076 749.621578,490.705248 750.85746,489.828326 C752.093342,488.951405 753.773897,488.918336 755.046433,489.745899 C755.814694,490.24875 756.339365,491.025939 756.502423,491.902642 C756.665482,492.779346 756.453237,493.681948 755.913432,494.407417 C755.265596,495.413872 754.129133,496.038154 752.893883,496.066117 L752.893883,496.066117 Z M760.756668,484.626808 C760.114634,484.621121 759.485546,484.453414 758.93298,484.140637 C757.279644,483.16714 756.747478,481.105463 757.73712,479.507717 C758.202999,478.686353 758.99635,478.080145 759.936714,477.826984 C760.877078,477.573823 761.884504,477.695233 762.729838,478.163598 C764.386696,479.136717 764.908155,481.208716 763.895803,482.796518 C763.257167,483.890805 762.066103,484.585261 760.756668,484.626808 L760.756668,484.626808 Z M767.842144,472.729926 C766.631278,472.697811 765.523975,472.06871 764.915135,471.06698 C764.306296,470.065251 764.282597,468.833504 764.852491,467.811023 C765.259063,466.957472 766.013147,466.300307 766.939359,465.992371 C767.865571,465.684435 768.883183,465.752567 769.755521,466.180921 C770.584817,466.593617 771.204822,467.309089 771.474985,468.165144 C771.745149,469.021199 771.642588,469.945332 771.190554,470.728047 C770.593228,471.975723 769.276311,472.763054 767.842144,472.729926 L767.842144,472.729926 Z M774.239999,460.461267 C773.736025,460.466274 773.23669,460.368794 772.775069,460.175284 C771.930496,459.807564 771.273281,459.133893 770.948073,458.302543 C770.622865,457.471194 770.656319,456.550302 771.041071,455.742552 C771.38485,454.862535 772.093628,454.157602 772.99951,453.794736 C773.905393,453.43187 774.927789,453.443354 775.824515,453.826467 C776.67142,454.199288 777.327697,454.880087 777.64765,455.717721 C777.967603,456.555356 777.924754,457.480511 777.528616,458.287798 C776.981954,459.573531 775.690572,460.427014 774.239999,460.461267 L774.239999,460.461267 Z M779.890441,447.878026 C776.900789,446.99148 775.914204,445.018199 776.601824,443.302303 C776.906325,442.414706 777.575931,441.684209 778.456073,441.279439 C779.336214,440.874669 780.350821,440.83061 781.265681,441.157432 C782.136106,441.476141 782.835791,442.116573 783.206997,442.934349 C783.578203,443.752124 783.589684,444.678405 783.238852,445.50437 C782.77471,446.903589 781.424942,447.860427 779.890441,447.878026 L779.890441,447.878026 Z M784.823367,435.037402 C781.833715,434.265248 780.877027,432.349164 781.504854,430.604669 C781.761298,429.709098 782.386183,428.951158 783.236856,428.503874 C784.087529,428.056591 785.091374,427.958146 786.019228,428.231012 C786.906417,428.511288 787.639514,429.119438 788.055106,429.919901 C788.470699,430.720364 788.534242,431.646604 788.231571,432.492155 C787.808868,433.968151 786.422821,435.003251 784.823367,435.037402 L784.823367,435.037402 Z M789.068673,421.967991 C786.079021,421.31023 785.152229,419.451343 785.690366,417.67825 C785.902522,416.771735 786.489797,415.986219 787.318021,415.501163 C788.146245,415.016106 789.144657,414.872952 790.085155,415.104405 C790.983143,415.344139 791.743926,415.916871 792.198598,416.695446 C792.65327,417.474021 792.764205,418.394008 792.506773,419.251155 C792.149953,420.805148 790.731361,421.92614 789.068673,421.967991 L789.068673,421.967991 Z M792.626359,408.698392 C789.905776,408.183623 788.739812,406.353333 789.188259,404.551642 C789.324852,403.619735 789.858732,402.783525 790.663044,402.241705 C791.467356,401.699884 792.4703,401.500821 793.433565,401.691815 C795.317048,402.104183 796.503297,403.889162 796.094356,405.695573 C795.886888,407.390222 794.409417,408.681697 792.626359,408.72699 L792.626359,408.698392 Z M795.616011,395.285801 C794.591291,395.246134 793.631374,394.795624 792.971476,394.044663 C792.311577,393.293702 792.012677,392.311685 792.148015,391.33924 C792.29486,390.434877 792.813254,389.624086 793.587985,389.087065 C794.362716,388.550045 795.329596,388.331287 796.273735,388.479412 C798.174172,388.813093 799.440393,390.547073 799.113904,392.368778 C798.832074,394.065207 797.291983,395.307089 795.496425,395.285801 L795.616011,395.285801 Z M797.828354,381.758818 C796.820639,381.7333 795.870642,381.303403 795.210861,380.574338 C794.551079,379.845273 794.242396,378.884318 794.360357,377.926649 C794.376308,376.651712 795.142091,375.494231 796.339806,374.934715 C797.537521,374.375198 798.96264,374.509191 800.023551,375.281069 C801.084461,376.052947 801.599997,377.330901 801.356143,378.58441 C801.199388,380.394085 799.606949,381.780027 797.708768,381.758818 L797.828354,381.758818 Z M799.412869,368.14604 C797.911698,368.191442 796.53491,367.351959 795.944189,366.031047 C795.353468,364.710136 795.669604,363.177891 796.740661,362.17071 C797.811718,361.163528 799.41869,360.887355 800.789267,361.47492 C802.159844,362.062484 803.013774,363.393642 802.940659,364.82864 C802.917169,365.731319 802.519622,366.588064 801.83554,367.210258 C801.151457,367.832452 800.236925,368.169083 799.293283,368.14604 L799.412869,368.14604 Z M800.369558,354.504664 C799.418035,354.497474 798.509899,354.122893 797.85127,353.465941 C797.192641,352.808988 796.839379,351.925382 796.871665,351.015674 C796.85473,350.075452 797.241869,349.16977 797.942619,348.510262 C798.643369,347.850753 799.596334,347.4952 800.578834,347.526685 C801.506969,347.571044 802.378502,347.966872 803.001095,348.626814 C803.623688,349.286756 803.946161,350.156561 803.897348,351.044272 C803.848373,352.928462 802.220021,354.422266 800.249972,354.39027 L800.369558,354.504664 Z M800.728316,340.806091 C799.792678,340.798538 798.898501,340.435737 798.242512,339.797507 C797.586522,339.159278 797.222461,338.297904 797.230423,337.402896 C797.190036,336.482922 797.537822,335.586013 798.195612,334.913763 C798.853403,334.241513 799.766011,333.850321 800.728316,333.828112 C802.665045,333.828112 804.239693,335.32155 804.256106,337.17411 C804.316303,338.143824 803.944049,339.092515 803.231689,339.784844 C802.519328,340.477173 801.533604,340.848275 800.519041,340.806091 L800.728316,340.806091 Z M800.548937,327.136116 C798.635088,327.136708 797.069805,325.677463 797.021148,323.847314 C796.947236,322.924339 797.262992,322.011514 797.897838,321.312876 C798.532684,320.614237 799.433687,320.188037 800.399455,320.129539 C802.330892,320.080627 803.950089,321.515249 804.04683,323.361144 C804.13768,324.298204 803.825633,325.230243 803.1826,325.942475 C802.539566,326.654708 801.621017,327.085694 800.638627,327.136116 L800.548937,327.136116 Z M799.771628,313.437543 C797.917973,313.456842 796.370482,312.089454 796.243838,310.320331 C796.126596,309.400028 796.4036,308.473501 797.011797,307.751655 C797.619994,307.02981 798.507633,306.574065 799.472663,306.488162 C800.402814,306.409266 801.326922,306.692519 802.035917,307.273839 C802.744911,307.855159 803.178874,308.685417 803.239624,309.576776 C803.3655,310.50618 803.088553,311.444396 802.473093,312.173562 C801.857633,312.902728 800.957207,313.359403 799.980903,313.437543 L799.771628,313.437543 Z M798.426284,299.824765 C796.636734,299.807871 795.13885,298.521991 794.928391,296.821946 C794.773112,295.915484 795.000967,294.987158 795.56175,294.241518 C796.122533,293.495879 796.970226,292.994115 797.918043,292.846786 C799.807584,292.642255 801.526576,293.907135 801.804591,295.706613 C801.968228,296.614143 801.743687,297.546504 801.181452,298.294074 C800.619217,299.041644 799.766472,299.541685 798.814939,299.681773 L798.426284,299.824765 Z M796.542803,286.240585 C794.799729,286.256512 793.315163,285.032289 793.074807,283.380757 C792.884216,282.460266 793.095977,281.505268 793.660799,280.738049 C794.225621,279.97083 795.094234,279.458317 796.064459,279.319803 C796.993708,279.18105 797.942219,279.4061 798.695968,279.944173 C799.449717,280.482246 799.945192,281.288002 800.070593,282.17963 C800.27966,283.108583 800.076713,284.078875 799.510097,284.85937 C798.943481,285.639866 798.063922,286.160692 797.080941,286.297781 L796.542803,286.240585 Z M794.121185,272.7422 C792.394272,272.731487 790.933973,271.516804 790.683085,269.882372 C790.451064,268.982709 790.609237,268.031527 791.121635,267.245136 C791.634034,266.458746 792.457104,265.903989 793.403669,265.707024 C795.309567,265.357132 797.15301,266.545504 797.529389,268.366664 C797.76998,269.274432 797.612305,270.236823 797.092929,271.030659 C796.573552,271.824496 795.737593,272.380816 794.778909,272.57061 L794.121185,272.7422 Z M791.131533,259.329612 C789.50889,259.331705 788.097785,258.266052 787.72333,256.755765 C787.441577,255.852474 787.560652,254.878089 788.052606,254.061316 C788.54456,253.244543 789.366075,252.657301 790.324327,252.437425 C792.212742,252.046242 794.078752,253.180979 794.50984,254.982672 C794.773601,255.874297 794.649216,256.830061 794.164971,257.63261 C793.680727,258.435159 792.877783,259.016279 791.938739,259.243815 L791.131533,259.329612 Z M787.693433,246.031412 C786.116518,246.033753 784.73294,245.02649 784.315126,243.571961 C784.007911,242.688536 784.089107,241.723622 784.540087,240.898577 C784.991066,240.073532 785.773123,239.459169 786.706848,239.196425 C787.606943,238.960883 788.568113,239.079145 789.376596,239.52491 C790.18508,239.970675 790.773843,240.706983 791.011947,241.570082 C791.318511,242.449711 791.236595,243.410913 790.785139,244.23143 C790.333683,245.051948 789.55178,245.660734 788.620225,245.917019 C788.29932,246.002737 787.966661,246.041308 787.63364,246.031412 L787.693433,246.031412 Z M783.747093,232.876263 C782.206243,232.876825 780.84645,231.912881 780.398682,230.50255 C780.057024,229.627417 780.103083,228.656869 780.526228,227.814948 C780.949373,226.973026 781.713031,226.332497 782.640921,226.041219 C784.497893,225.501881 786.46156,226.49858 787.03571,228.271884 C787.377369,229.147018 787.331309,230.117565 786.908164,230.959486 C786.485019,231.801408 785.721361,232.441937 784.793471,232.733215 C784.433529,232.830024 784.061192,232.878155 783.6873,232.876263 L783.747093,232.876263 Z M779.292511,219.978444 C777.802584,219.986798 776.470622,219.091469 775.973997,217.74772 C775.605509,216.880436 775.6201,215.907341 776.014439,215.050523 C776.408778,214.193706 777.149213,213.526288 778.066754,213.200594 C778.95069,212.911067 779.918977,212.97185 780.755778,213.369396 C781.592579,213.766941 782.228336,214.468203 782.521335,215.316867 C782.880857,216.173155 782.864735,217.131862 782.476606,217.976646 C782.088477,218.821429 781.36105,219.4811 780.458475,219.806795 C780.081003,219.919551 779.687958,219.977393 779.292511,219.978444 L779.292511,219.978444 Z M774.389482,207.109162 C772.933432,207.118654 771.623527,206.26432 771.100864,204.964292 C770.703601,204.112393 770.682713,203.143155 771.042936,202.276319 C771.403159,201.409483 772.11398,200.718479 773.014242,200.35997 C774.231875,199.910414 775.607738,200.116398 776.623556,200.900331 C777.639373,201.684263 778.140819,202.927045 777.939003,204.160534 C777.737186,205.394022 776.862769,206.43082 775.645135,206.880376 C775.237694,206.993899 774.809655,207.023145 774.389482,206.966171 L774.389482,207.109162 Z M769.038004,194.411529 C767.635471,194.408846 766.367815,193.611668 765.80918,192.381051 C765.373924,191.538067 765.315994,190.561954 765.648715,189.677263 C765.981436,188.792573 766.676162,188.075475 767.573075,187.690934 C769.430606,186.940701 771.572226,187.772954 772.356517,189.549822 C773.140809,191.326691 772.270776,193.375312 770.413244,194.125546 C769.968631,194.257183 769.499698,194.296189 769.038004,194.239939 L769.038004,194.411529 Z M763.208183,181.885485 C761.855114,181.880988 760.623948,181.136591 760.039152,179.969401 C759.564725,179.148149 759.465813,178.175965 759.765794,177.282618 C760.065774,176.389272 760.738026,175.654037 761.623667,175.250685 C762.467601,174.87175 763.434755,174.830762 764.310415,175.136821 C765.186075,175.442879 765.897779,176.070658 766.287524,176.880787 C766.743265,177.700999 766.831963,178.662897 766.533358,179.546758 C766.234753,180.430619 765.574353,181.160943 764.703009,181.570904 C764.222062,181.724514 763.713468,181.782895 763.208183,181.742493 L763.208183,181.885485 Z M756.929913,169.559629 C755.655727,169.526831 754.505079,168.822395 753.940261,167.729339 C753.44318,166.926974 753.312133,165.96462 753.577751,165.067219 C753.843369,164.169819 754.482371,163.416023 755.345398,162.982026 C756.173399,162.573109 757.137743,162.49713 758.02453,162.770941 C758.911316,163.044753 759.647234,163.645719 760.069048,164.440538 C760.555169,165.248334 760.676888,166.210527 760.406225,167.105923 C760.135562,168.001319 759.495801,168.752887 758.634015,169.187851 C758.096516,169.404818 757.509083,169.483685 756.929913,169.416638 L756.929913,169.559629 Z M750.203196,157.462559 C748.960167,157.434535 747.824349,156.782637 747.213544,155.746663 C746.691139,154.958763 746.526615,154.00136 746.757863,153.094953 C746.989112,152.188546 747.596197,151.411275 748.439302,150.942153 C749.764285,150.220262 751.418887,150.362994 752.587482,151.299991 C753.756076,152.236987 754.192007,153.770474 753.680386,155.14453 C753.168764,156.518587 751.817578,157.443188 750.292886,157.462559 L750.203196,157.462559 Z M742.938342,145.651537 C741.716434,145.65874 740.5807,145.050347 739.94869,144.049969 C739.386792,143.290689 739.174317,142.344475 739.360694,141.431445 C739.547072,140.518414 740.116053,139.718165 740.935275,139.216861 C742.578238,138.245974 744.732874,138.732439 745.748615,140.303595 C746.320457,141.064794 746.538762,142.01791 746.35203,142.938094 C746.165297,143.858278 745.590063,144.664043 744.76203,145.165302 C744.206562,145.468079 743.577655,145.625875 742.938342,145.622874 L742.938342,145.651537 Z M734.955971,134.212163 C732.947349,134.125353 731.339553,132.587375 731.248802,130.665977 C731.248802,128.802239 732.828247,127.291381 734.776592,127.291381 C735.961668,127.284074 737.076578,127.827987 737.766244,128.749893 C738.355233,129.439233 738.632742,130.324687 738.537356,131.210293 C738.44197,132.095899 737.981553,132.908627 737.258003,133.468608 C736.599237,133.952696 735.78637,134.205153 734.955971,134.183565 L734.955971,134.212163 Z" id="Shape" fill="#959595" fill-rule="nonzero"></path>
            <g id="Group" transform="translate(103.331673, 10.469445)" fill="#959595" fill-rule="nonzero">
                <path d="M10.7354203,263.913466 C9.34653958,263.923231 8.10253422,263.061619 7.63154548,261.763689 C7.1068239,260.394919 7.54171058,258.846254 8.7039098,257.944917 C9.86610903,257.043579 11.4840707,257.000167 12.6935569,257.83787 C13.9030432,258.675574 14.4214551,260.198661 13.9718819,261.593571 C13.5223086,262.988482 12.2097939,263.929292 10.7354203,263.913466 L10.7354203,263.913466 Z" id="Path"></path>
                <path d="M7.34678632,250.901655 C5.75141131,250.891754 4.38299384,249.76884 4.07205598,248.214433 C3.84135512,247.332103 3.98078081,246.394553 4.45845114,245.61617 C4.93612148,244.837788 5.71118551,244.285139 6.60641251,244.084598 C7.47597099,243.892743 8.38667627,244.057872 9.13192305,244.542523 C9.87716983,245.027174 10.393784,245.790263 10.5645648,246.658673 C10.8032321,247.556473 10.6612127,248.512201 10.1715912,249.303213 C9.68196975,250.094225 8.88749841,250.651452 7.97325647,250.845082 L7.34678632,250.901655 Z M5.32499629,237.43726 C3.61156509,237.43025 2.18286869,236.133399 2.02179003,234.438886 C1.87599017,233.524082 2.11284234,232.589824 2.67743,231.852729 C3.24201767,231.115634 4.08530277,230.639724 5.01176121,230.535343 C6.84938163,230.37126 8.47645738,231.709721 8.65667846,233.533716 C8.94655688,235.384693 7.67214226,237.11903 5.80908686,237.408973 L5.32499629,237.43726 Z M4.69852614,223.831432 C2.84276207,223.831432 1.33836805,222.337042 1.33836805,220.493619 C1.29201652,219.571393 1.62274897,218.669686 2.25547275,217.993233 C2.88819654,217.316779 3.76922684,216.922973 4.69852614,216.901228 C5.58970555,216.908698 6.44139345,217.267544 7.06621194,217.898817 C7.69103043,218.53009 8.03779267,219.382074 8.0302083,220.267327 C8.08469714,221.184108 7.75972834,222.083199 7.13063371,222.75618 C6.50153908,223.429162 5.62294702,223.817593 4.69852614,223.831432 Z M5.46737587,210.225603 C4.52193817,210.197792 3.62958224,209.785132 2.99952278,209.084372 C2.36946332,208.383612 2.05710963,207.45638 2.1356937,206.520066 C2.17835818,205.600516 2.59827156,204.73844 3.29767203,204.134543 C3.9970725,203.530645 4.91493308,203.23762 5.83756277,203.323686 C7.62515026,203.572886 8.8878108,205.190886 8.68515437,206.972651 C8.60192325,208.712266 7.21690744,210.112421 5.46737587,210.225603 L5.46737587,210.225603 Z M7.74544914,196.789494 C5.18261671,196.280337 4.07205598,194.498284 4.49919472,192.716232 C4.62929673,191.794483 5.13780801,190.967388 5.90390142,190.431474 C6.66999482,189.895559 7.62528099,189.698666 8.54277479,189.887577 C9.40742004,190.076226 10.1596527,190.601735 10.6307607,191.34624 C11.1018687,192.090746 11.2524224,192.991937 11.0486554,193.847694 C10.8140856,195.495653 9.42011227,196.737111 7.74544914,196.789494 L7.74544914,196.789494 Z M11.6181737,183.721111 C8.77058212,182.872514 7.83087689,180.892456 8.45734704,179.251836 C8.72504238,178.373591 9.33928867,177.640422 10.1600931,177.219426 C10.9808975,176.798431 11.9383228,176.72548 12.8141622,177.017199 C13.6487593,177.305934 14.3336753,177.912231 14.7181898,178.702671 C15.1027043,179.49311 15.1553091,180.402922 14.8644281,181.231895 C14.4962052,182.731159 13.1706756,183.805321 11.6181737,183.862543 L11.6181737,183.721111 Z M17.0855496,171.218507 C16.5505682,171.221386 16.0228758,171.095194 15.5478501,170.850733 C14.7564312,170.451634 14.1580366,169.755346 13.8853969,168.916315 C13.6127571,168.077283 13.6884113,167.16487 14.0955784,166.381458 C14.4788207,165.540279 15.1879355,164.88859 16.0619383,164.574337 C16.935941,164.260084 17.9006852,164.309927 18.7371527,164.712552 C20.3622221,165.564909 20.9965213,167.555964 20.1609485,169.181826 C19.6201237,170.395664 18.4215257,171.189415 17.0855496,171.218507 L17.0855496,171.218507 Z M24.0906249,159.536114 C23.4229054,159.527863 22.7712289,159.331698 22.2112145,158.970384 C20.7680135,157.840445 20.4602558,155.789523 21.5089757,154.290608 C22.5576956,152.791693 24.6001228,152.363287 26.1693668,153.313075 C26.8965972,153.814842 27.3905836,154.585628 27.5404894,155.452491 C27.6903951,156.319353 27.4836683,157.209707 26.9666924,157.923781 C26.3583627,158.924416 25.2673938,159.536016 24.0906249,159.536114 L24.0906249,159.536114 Z M32.6333997,148.787227 C31.8191249,148.780819 31.0329899,148.490482 30.4122783,147.966918 C29.0345196,146.745393 28.9073451,144.648337 30.1275191,143.271351 C30.6979124,142.540519 31.5458622,142.074974 32.4722827,141.984018 C33.3987032,141.893062 34.3219927,142.184707 35.0253766,142.79048 C36.3997417,144.002039 36.5271437,146.090192 35.3101358,147.45776 C34.6438944,148.314333 33.6090104,148.807354 32.519496,148.787227 L32.6333997,148.787227 Z M42.2867352,139.056656 C40.9550961,139.018064 39.7746154,138.195192 39.2851919,136.964386 C38.7957685,135.733579 39.0915023,134.33148 40.0371379,133.399347 C40.6804369,132.742687 41.5636628,132.37226 42.4860666,132.37226 C43.4084705,132.37226 44.2916963,132.742687 44.9349954,133.399347 C46.1770901,134.753633 46.0881266,136.849308 44.735664,138.094913 C44.0397885,138.734344 43.1205061,139.079319 42.1728316,139.056656 L42.2867352,139.056656 Z M185.577544,138.575785 C184.642183,138.630097 183.725403,138.300507 183.041689,137.664122 C182.357976,137.027738 181.967314,136.140392 181.961103,135.209686 C181.992184,133.388394 183.487513,131.928185 185.321261,131.928446 C186.251833,131.882146 187.161084,132.21532 187.83847,132.850819 C188.515857,133.486318 188.902629,134.369026 188.909227,135.294545 C188.909755,136.192246 188.543147,137.051649 187.893479,137.675663 C187.24381,138.299677 186.366823,138.634762 185.463641,138.604071 L185.577544,138.575785 Z M171.966057,136.991738 C169.118465,136.510867 168.064856,134.757101 168.435043,132.946762 C168.750367,131.159501 170.40517,129.92008 172.221721,130.110599 C174.038272,130.301118 175.39602,131.856495 175.328649,133.669761 C175.261278,135.483027 173.791804,136.934752 171.966057,136.991738 Z M198.790369,136.737159 C197.156185,136.737347 195.763096,135.560125 195.501324,133.95777 C195.239552,132.355415 196.18638,130.800996 197.736761,130.287827 C198.255241,131.269562 198.693287,132.29118 199.046653,133.342774 L200.157213,136.48258 C199.681353,136.648782 199.180878,136.734827 198.676466,136.737159 L198.790369,136.737159 Z M158.667804,133.653926 C155.820212,132.918476 154.681176,131.07985 155.222218,129.326084 C155.460257,128.477324 156.031925,127.759321 156.808545,127.333691 C157.585165,126.90806 158.501476,126.810569 159.351226,127.063161 C160.257119,127.276338 161.037621,127.84458 161.51502,128.638507 C161.99242,129.432434 162.126085,130.384472 161.885582,131.277856 C161.446849,132.729378 160.078713,133.705097 158.5539,133.653926 L158.667804,133.653926 Z M53.1075833,130.825271 C51.6274503,130.839018 50.3156647,129.881072 49.8873111,128.473632 C49.4589574,127.066192 50.0167604,125.546781 51.2566487,124.743664 C51.9959866,124.194243 52.9276859,123.965413 53.8395868,124.109281 C54.7514877,124.253149 55.565966,124.757469 56.0975545,125.507401 C56.5957174,126.237797 56.7796788,127.135543 56.6085838,128.001263 C56.4374887,128.866982 55.925501,129.629009 55.1863252,130.118108 C54.5421298,130.555004 53.7729965,130.773295 52.9936796,130.740412 L53.1075833,130.825271 Z M210.522447,130.033248 C209.547532,130.03362 208.621368,129.609798 207.98809,128.8735 C206.789196,127.473953 206.95467,125.375025 208.358277,124.177933 C209.028117,123.546546 209.926687,123.211329 210.849336,123.248629 C211.771985,123.285929 212.64016,123.69257 213.256135,124.375939 C214.458925,125.758608 214.305954,127.847973 212.914424,129.043219 C212.230324,129.658672 211.330827,129.983586 210.408543,129.948388 L210.522447,130.033248 Z M145.568882,129.637236 C142.550435,128.845213 141.582254,126.978301 142.151773,125.224535 C142.722675,123.493264 144.58562,122.536514 146.337732,123.074758 C147.244168,123.317907 148.012933,123.915152 148.468905,124.730444 C148.924878,125.545736 149.029228,126.509646 148.758185,127.402599 C148.234666,128.748311 146.906054,129.612993 145.454979,129.552377 L145.568882,129.637236 Z M132.498437,125.535687 C129.650845,124.771951 128.511809,122.933325 129.052851,121.179559 C129.302647,120.334691 129.883811,119.625009 130.665674,119.210079 C131.447537,118.795149 132.36448,118.709795 133.210335,118.973209 C134.108831,119.186181 134.882253,119.751419 135.354345,120.540111 C135.826436,121.328803 135.956976,122.273754 135.716216,123.159617 C135.24634,124.577457 133.885912,125.513029 132.384533,125.450828 L132.498437,125.535687 Z M65.1528957,124.375939 C63.5537976,124.403678 62.1604611,123.298774 61.8334349,121.743634 C61.5064088,120.188495 62.3379683,118.621925 63.8145277,118.011466 C64.6461616,117.59886 65.611128,117.540625 66.4869301,117.850188 C67.3627322,118.15975 68.073772,118.81039 68.456102,119.652086 C68.8065739,120.461983 68.8172794,121.377308 68.4858443,122.195075 C68.1544092,123.012842 67.5082266,123.665464 66.6905952,124.008214 C66.1690696,124.226685 65.6040564,124.323453 65.0389921,124.291079 L65.1528957,124.375939 Z M119.257136,121.971583 C116.409544,121.405852 115.32746,119.623799 115.726123,117.81346 C115.928984,116.957615 116.466351,116.217134 117.219633,115.755434 C117.972915,115.293734 118.880188,115.148769 119.741227,115.352531 C121.428416,115.658973 122.612463,117.178487 122.488185,118.877762 C122.363907,120.577038 120.971197,121.910597 119.257136,121.971583 L119.257136,121.971583 Z M78.1948653,120.27439 C76.47456,120.143996 75.1332244,118.740592 75.0913492,117.027265 C75.049474,115.313937 76.320669,113.847528 78.0325773,113.63436 C79.7444857,113.421191 81.3407258,114.530545 81.7258788,116.201127 C82.114196,117.981197 80.9815577,119.738385 79.1915223,120.132957 C78.8249249,120.195685 78.4520955,120.214677 78.0809616,120.18953 L78.1948653,120.27439 Z M219.663216,119.934983 C218.406298,119.940423 217.253264,119.242753 216.681539,118.130821 C216.109815,117.018889 216.216726,115.681979 216.958004,114.673654 C217.458018,113.892213 218.257697,113.347594 219.171726,113.166003 C220.085755,112.984413 221.034792,113.181616 221.798909,113.711911 C223.275071,114.803658 223.592454,116.871841 222.510807,118.350905 C221.843965,119.317752 220.72871,119.882324 219.549312,119.850092 L219.663216,119.934983 Z M105.759552,119.482367 C103.253671,119.199501 101.943779,117.530595 102.171587,115.720256 C102.399625,113.822155 104.133503,112.467073 106.044311,112.693596 C107.955119,112.920118 109.319273,114.642465 109.091234,116.540566 C108.8452,118.226921 107.359931,119.458446 105.645648,119.397507 L105.759552,119.482367 Z M91.8063531,118.746916 C89.9945171,118.732244 88.5206759,117.29323 88.4746709,115.493964 C88.4517213,114.616142 88.7809103,113.765245 89.3897625,113.12861 C89.9986146,112.491975 90.8372118,112.121798 91.7209253,112.099578 C92.6446053,112.029743 93.5576858,112.332307 94.2541722,112.93901 C94.9506586,113.545714 95.3718754,114.405445 95.4227944,115.324244 C95.4534814,116.204185 95.126873,117.059458 94.5163911,117.697797 C93.9059092,118.336136 93.0627801,118.703977 92.17654,118.71863 L91.8063531,118.746916 Z M226.924574,108.394041 C226.364748,108.394041 225.814773,108.24775 225.329923,107.969743 C224.550685,107.550946 223.971464,106.841087 223.720314,105.997101 C223.469164,105.153115 223.56677,104.244518 223.991555,103.472182 C224.395204,102.635972 225.12317,101.99826 226.008843,101.704999 C226.894516,101.411738 227.862077,101.488033 228.690081,101.916422 C229.467218,102.344911 230.039778,103.064098 230.280424,103.914037 C230.521069,104.763976 230.409849,105.674197 229.971497,106.442269 C229.368211,107.617743 228.138458,108.344084 226.810671,108.309181 L226.924574,108.394041 Z M233.189276,96.259113 C232.694473,96.2582276 232.206791,96.1419621 231.76548,95.9196745 C230.963869,95.5457403 230.345114,94.8701656 230.045901,94.0421875 C229.746689,93.2142094 229.791641,92.3019653 230.170829,91.5069735 C230.525847,90.6401518 231.225377,89.9573789 232.104105,89.6200064 C232.982833,89.2826339 233.962793,89.3205958 234.812403,89.7249211 C236.455167,90.5456782 237.117902,92.5333203 236.293151,94.1659087 C235.728767,95.4207157 234.458358,96.213629 233.075372,96.1742534 L233.189276,96.259113 Z M239.055315,83.897913 C238.575615,83.8995142 238.100694,83.803236 237.659995,83.6150274 C235.992038,82.8354006 235.267809,80.8664793 236.036867,79.2023263 C236.376736,78.3423374 237.054814,77.657119 237.914605,77.3048137 C238.774396,76.9525084 239.741607,76.9635587 240.593014,77.3354144 C242.266237,78.1258482 242.979604,80.1125225 242.187665,81.7764019 C241.621899,83.0467548 240.339293,83.8514348 238.941411,83.8130332 L239.055315,83.897913 Z M244.978305,71.5932457 C244.456153,71.5923383 243.940703,71.4764086 243.469082,71.2538072 C241.735315,70.4649624 240.965779,68.4353065 241.744925,66.7063315 C242.524071,64.9773565 244.560603,64.1954651 246.307807,64.9544917 C248.055011,65.7135183 248.859669,67.7296895 248.110656,69.4717548 C247.542914,70.7273195 246.278364,71.5276917 244.892877,71.5083861 L244.978305,71.5932457 Z M251.271483,59.4866044 C250.108165,59.4490603 249.047259,58.8161642 248.46729,57.8137304 C247.887322,56.8112965 247.870903,55.5821126 248.423891,54.5647455 C248.820708,53.7296148 249.545501,53.093106 250.42853,52.8042864 C251.311558,52.5154667 252.27526,52.5997047 253.093941,53.0372721 C254.693348,53.9298839 255.276401,55.9318145 254.403833,57.5348328 C253.781993,58.7338217 252.513957,59.4630657 251.157579,59.4017447 L251.271483,59.4866044 Z M258.33351,47.8042715 C257.695084,47.8058654 257.070607,47.6187835 256.539527,47.2668169 C254.984173,46.2658971 254.538267,44.2030583 255.54287,42.65611 C256.015447,41.848544 256.799763,41.267925 257.7139,41.0489226 C258.628038,40.8299203 259.592568,40.991564 260.383776,41.4963617 C261.89975,42.5336179 262.29335,44.5894291 261.266529,46.1070685 C260.610606,47.1432355 259.451226,47.756742 258.219606,47.7194016 L258.33351,47.8042715 Z M266.506098,36.8573683 C265.711888,36.8627913 264.94276,36.5813129 264.341928,36.065345 C263.669547,35.4953327 263.252765,34.6832581 263.183336,33.8078949 C263.113906,32.9325317 263.39752,32.0656414 263.971741,31.3980651 C264.699144,30.4582246 265.876047,29.9752603 267.059123,30.1311001 C268.242199,30.2869399 269.25171,31.057908 269.707384,32.1535882 C270.163057,33.2492684 269.995664,34.5032008 269.268261,35.443041 C268.57812,36.3167663 267.509542,36.8107188 266.392194,36.7725087 L266.506098,36.8573683 Z M389.522055,32.2183749 C388.746018,32.225573 387.991398,31.9657111 387.386361,31.4829247 C386.644684,30.9418942 386.154015,30.1265936 386.025383,29.2215079 C385.896751,28.3164223 386.141028,27.3980547 386.702939,26.674212 C387.256402,25.9853945 388.063586,25.5443132 388.945577,25.4487359 C389.827567,25.3531586 390.711506,25.6109806 391.401465,26.1650542 C392.157761,26.7073424 392.660416,27.531043 392.79458,28.4479488 C392.928743,29.3648546 392.68295,30.2966179 392.113363,31.03034 C391.425978,31.7855309 390.431436,32.1911013 389.408151,32.1335153 L389.522055,32.2183749 Z M276.074005,27.1267968 C274.683642,27.1196429 273.441317,26.262616 272.948973,24.9709711 C272.45663,23.6793262 272.81597,22.2198763 273.852884,21.2997685 C274.521204,20.6507612 275.426267,20.2992875 276.360505,20.3259549 C277.294742,20.3526223 278.177994,20.7551426 278.807693,21.4412012 C280.013609,22.8332409 279.860913,24.9314906 278.465982,26.1367677 C277.777241,26.7445275 276.880968,27.0682775 275.960102,27.0419371 L276.074005,27.1267968 Z M378.387971,24.2981601 C377.740592,24.3002655 377.106855,24.1133761 376.565513,23.7606979 C375.762808,23.3117384 375.178703,22.5574994 374.947703,21.6716634 C374.716703,20.7858274 374.858719,19.8447476 375.341048,19.0651314 C375.815059,18.320356 376.568486,17.7940948 377.434397,17.6029499 C378.300307,17.4118051 379.207203,17.5715591 379.954147,18.0468158 C380.764896,18.4955868 381.354858,19.255047 381.586287,20.1478776 C381.817717,21.0407083 381.670356,21.9887554 381.178611,22.7706688 C380.524951,23.7129791 379.424288,24.2489319 378.274068,24.1849961 L378.387971,24.2981601 Z M287.26504,19.1782776 C285.761941,19.1655067 284.450234,18.1626437 284.053047,16.7225547 C283.655861,15.2824656 284.269832,13.7555282 285.556485,12.9835242 C286.330198,12.4832589 287.272541,12.3094708 288.175461,12.5005296 C289.078381,12.6915885 289.867616,13.2317808 290.368915,14.0018398 C290.825743,14.7586512 290.95939,15.6653487 290.740163,16.5204893 C290.520937,17.3756298 289.966993,18.108391 289.201403,18.5559736 C288.553277,18.9509535 287.794853,19.1293857 287.037233,19.0651314 L287.26504,19.1782776 Z M366.513514,17.6508042 C366.024314,17.6555117 365.539466,17.5591869 365.089719,17.3679387 C364.21982,17.0192347 363.53065,16.3332884 363.181338,15.4684847 C362.832026,14.6036811 362.852771,13.6347864 363.238784,12.7855184 C364.045014,11.134193 366.042117,10.4392235 367.709503,11.2297584 C368.56501,11.5784186 369.241741,12.2566097 369.58517,13.1094723 C369.928599,13.9623349 369.909402,14.9170462 369.531962,15.7556056 C368.907806,16.9427897 367.629717,17.6444053 366.285707,17.537658 L366.513514,17.6508042 Z M299.652064,13.4361089 C298.048955,13.4005724 296.694503,12.2447828 296.417418,10.6758996 C296.140332,9.1070164 297.017832,7.56226036 298.513027,6.98677664 C299.368933,6.62468862 300.335865,6.62178319 301.19396,6.978721 C302.052055,7.33565881 302.728388,8.0221053 303.069174,8.88197517 C303.68424,10.6072721 302.798803,12.5045845 301.07586,13.1532435 C300.543419,13.3243372 299.980681,13.3821643 299.424256,13.3229628 L299.652064,13.4361089 Z M353.756304,12.6157991 C350.709381,11.8237759 349.7412,9.95686388 350.310718,8.20309808 C350.578727,7.36655177 351.170352,6.67005566 351.955403,6.26687838 C352.740453,5.86370111 353.6546,5.78688021 354.496678,6.05332066 C356.219989,6.3648833 357.406137,7.94879699 357.211056,9.67794503 C357.015975,11.4070931 355.506293,12.6908971 353.756304,12.6157991 L353.756304,12.6157991 Z M312.836413,9.78714461 C311.148899,9.7285353 309.767273,8.43502212 309.608545,6.7651333 C309.449818,5.09524448 310.563295,3.56770885 312.209943,3.1963796 C313.105147,2.99421457 314.044555,3.15528476 314.819736,3.64385274 C315.594917,4.13242072 316.141766,4.90808378 316.338951,5.79874175 C316.514998,6.6542045 316.34054,7.54408858 315.854193,8.27141265 C315.367845,8.99873672 314.609723,9.50351022 313.747642,9.67399843 L312.836413,9.78714461 Z M340.429575,9.41941952 C337.809791,9.05169444 336.556851,7.35450173 336.84161,5.54416284 C336.961052,4.66225438 337.432984,3.86528074 338.150917,3.33307301 C338.86885,2.80086527 339.77229,2.57826791 340.657383,2.71550833 C341.584539,2.8072272 342.434777,3.26802928 343.014211,3.99283456 C343.593645,4.71763984 343.852873,5.64465223 343.732782,6.56247847 C343.457759,8.24439357 341.942069,9.4439854 340.230244,9.33455989 L340.429575,9.41941952 Z M326.476377,8.42939045 C324.747691,8.2708059 323.425218,6.83021831 323.425218,5.10572139 C323.425218,3.38122448 324.747691,1.94063689 326.476377,1.78205234 C327.40196,1.72017338 328.313093,2.03477031 329.00049,2.65358104 C329.687887,3.27239177 330.092465,4.14222833 330.121294,5.06329158 C330.136516,5.9459097 329.796139,6.79799278 329.175836,7.43010658 C328.555533,8.06222039 327.706714,8.42197511 326.818088,8.42939045 L326.476377,8.42939045 Z" id="Shape"></path>
                <path d="M399.574053,41.3832155 C398.617342,41.3933412 397.703212,40.9909093 397.068172,40.2800402 C395.822817,38.9162816 395.911626,36.8116372 397.267504,35.5561872 C397.912982,34.9667717 398.767878,34.6564497 399.643848,34.69359 C400.519817,34.7307303 401.344984,35.1122854 401.937554,35.754193 C402.568073,36.4013104 402.908593,37.2740614 402.881782,38.1742482 C402.854971,39.0744351 402.463105,39.925662 401.795174,40.5346192 C401.182425,41.0749178 400.393357,41.3763872 399.574053,41.3832155 Z" id="Path"></path>
            </g>
            <g id="Group" transform="translate(380.783428, 499.660697)">
                <g transform="translate(34.268731, 0.000000)">
                    <path d="M32.5838516,5.76676553 L186.935927,5.76676553 C194.045159,5.76676553 200.862798,8.47154166 205.887105,13.2852124 C210.911412,18.0988831 213.730231,24.6266258 213.722667,31.4305564 L213.722667,46.4625616 C213.730231,53.2664922 210.911412,59.7942349 205.887105,64.6079056 C200.862798,69.4215763 194.045159,72.1263525 186.935927,72.1263525 L32.5838516,72.1263525 C25.462106,72.1408116 18.6268521,69.443372 13.5856517,64.6289142 C8.54445121,59.8144563 5.71145515,53.278488 5.71145515,46.4625616 L5.71145515,31.4305564 C5.71145515,24.61463 8.54445121,18.0786617 13.5856517,13.2642038 C18.6268521,8.44974596 25.462106,5.75230641 32.5838516,5.76676553 L32.5838516,5.76676553 Z" id="Path" fill="#F6F6F6"></path>
                    <path d="M186.935927,75.3786735 L32.5838516,75.3786735 C24.57828,75.3714283 16.9036035,72.320847 11.2481651,66.8980233 C5.59272667,61.4751997 2.41979099,54.1243437 2.4273549,46.4625616 L2.4273549,31.4305564 C2.45879804,15.5032938 15.9419218,2.59918624 32.5838516,2.56910635 L186.935927,2.56910635 C203.555548,2.62921434 217.003997,15.5245593 217.035309,31.4305564 L217.035309,46.4625616 C217.051113,62.3960954 203.58435,75.3334578 186.935927,75.3786735 Z M32.5838516,8.99187222 C19.6417699,9.00693157 9.1540633,19.0442565 9.13832823,31.4305564 L9.13832823,46.4625616 C9.13832823,58.8595336 19.6306286,68.9134952 32.5838516,68.9285767 L186.935927,68.9285767 C199.882627,68.8984746 210.365757,58.8533087 210.38145,46.4625616 L210.38145,31.4305564 C210.365715,19.0442565 199.878009,9.00693157 186.935927,8.99187222 L32.5838516,8.99187222 Z" id="Shape" fill="#000000" fill-rule="nonzero"></path>
                </g>
                <g id="Path">
                    <path d="M185.622292,53.5139386 C187.194228,49.1818139 187.98605,44.6256621 187.964437,40.0397957 L187.964437,37.3067039 C187.964437,19.6782614 176.541079,5.65750015 162.633685,5.65750015 L13.4790341,5.65750015 C5.54011149,5.90347842 3.02707123,14.1300849 10.8517648,19.1043121 C9.05265641,22.7393243 16.2490899,30.3646506 16.2490899,39.7118247 C16.2490899,48.348395 10.7375357,54.4431898 10.3662911,57.9962093 C6.85374618,59.2807624 1.79910837,66.1954848 10.6233066,72.3449415 L183.137809,72.0989633 L185.622292,53.5139386 Z" fill="#F6F6F6"></path>
                    <path d="M10.7375357,75.6519827 C10.020773,75.6638439 9.31933095,75.4528578 8.73852637,75.0507025 C2.59871209,70.7324173 2.25602478,65.9768375 2.59871209,63.5443857 C3.07652093,60.4813746 4.86692818,57.7476658 7.53912079,56.0010522 C8.04503287,54.5855538 8.6558048,53.2063975 9.36678644,51.8740835 C11.5369779,48.1787185 12.7878113,44.0542732 13.0221177,39.8211484 C12.7501694,35.7452088 11.6133117,31.7650401 9.68091647,28.1235152 C8.40657313,25.7743362 7.61182289,23.2141983 7.33921986,20.5801817 C3.83737933,18.0299199 2.22712934,13.7490872 3.22697216,9.64781426 C4.6547891,5.40830759 8.82618643,2.57257846 13.4790341,2.67843002 L162.776472,2.67843002 C178.882775,2.67843002 191.477169,17.9837444 191.477169,37.5253512 L191.477169,40.2584431 C191.504102,45.2108478 190.634512,50.1303491 188.906379,54.7984918 C188.50848,55.8774578 187.539357,56.6713031 186.364068,56.8809937 C185.188779,57.0906843 183.985879,56.6843632 183.208488,55.8150877 C182.431098,54.9458123 182.197322,53.745646 182.595221,52.6666801 C184.061103,48.6813789 184.795386,44.4833726 184.765574,40.2584431 L184.765574,37.5253512 C184.765574,21.837404 174.913314,9.10119589 162.776472,9.10119589 L13.6218205,9.10119589 C11.9274436,8.94068056 10.3284881,9.87896079 9.70947375,11.3969931 C9.30967189,12.7088771 9.93793195,14.786027 12.8507741,16.6445294 C14.251273,17.5171808 14.7532988,19.2515494 14.0216224,20.6895054 C14.4113777,22.4353438 15.0352877,24.1256441 15.8778453,25.7183944 C18.1975326,30.1433776 19.5206681,34.9851705 19.7616348,39.9304721 C19.5584776,45.1323044 18.0814241,50.2157308 15.4494862,54.7711609 C14.7695128,55.9699603 14.2238913,57.2342108 13.8217215,58.5428276 C13.7255865,59.7755743 12.8895464,60.8424242 11.6799258,61.2759195 C10.3910871,61.9661378 9.50623731,63.1860066 9.28111461,64.5829606 C9.24441264,66.5172394 10.2331789,68.3378477 11.908384,69.4205332 L183.252038,69.147224 C184.985663,69.300451 186.311914,70.6923701 186.311914,72.358607 C186.311914,74.0248439 184.985663,75.4167629 183.252038,75.5699899 L10.7375357,75.8159682 L10.7375357,75.6519827 Z" fill="#000000" fill-rule="nonzero"></path>
                </g>
                <g transform="translate(5.711455, 13.665459)">
                    <path d="M150.068484,4.42760881 L8.8241982,4.42760881 C-0.79960372,4.42760881 10.6518638,14.7040342 10.6518638,26.2923437 C10.6518638,37.8806532 -0.771046445,46.4625616 8.8241982,46.4625616 L150.068484,46.4625616 C159.692286,46.4625616 167.488422,37.0333947 167.488422,25.4177543 C167.488422,13.8021139 159.692286,4.42760881 150.068484,4.42760881 Z" id="Path" fill="#F6F6F6"></path>
                    <path d="M150.068484,49.7149409 L8.8241982,49.7149409 C6.38278545,49.9394934 3.98468241,48.986609 2.42736844,47.1731655 C0.656817342,44.4400736 2.1132384,41.4610035 3.82667495,37.9079841 C5.84000738,34.3377084 7.02815927,30.3950427 7.31066259,26.3470055 C6.99466549,22.1581806 5.8409974,18.0664223 3.91234678,14.2940704 C2.1132384,10.1671017 0.571145515,6.6140823 2.57015482,3.77166677 C4.07326551,1.9663679 6.42139332,1.00177753 8.8241982,1.20256042 L150.068484,1.20256042 C161.491394,1.20256042 170.829623,12.1349279 170.829623,25.4724161 C170.829623,38.8099044 161.519952,49.7149409 150.068484,49.7149409 Z M8.56718272,43.319506 L149.982812,43.319506 C157.721834,43.319506 164.032992,35.3115468 164.032992,25.4724161 C164.032992,15.6332854 157.721834,7.62532629 149.982812,7.62532629 L8.73852637,7.62532629 C8.88109278,9.08547733 9.31746937,10.5054429 10.0236038,11.8069568 C12.3276012,16.3555184 13.6578039,21.2991529 13.9359506,26.3470055 C13.6801429,31.3344546 12.2759156,36.206181 9.82370285,40.613745 C9.50957282,41.4610035 8.99554186,42.4995784 8.56718272,43.319506 Z" id="Shape" fill="#000000" fill-rule="nonzero"></path>
                </g>
            </g>
            <g id="Group" transform="translate(380.783428, 572.674317)">
                <g>
                    <path d="M29.728124,3.78657454 L190.305685,3.78657454 C203.099531,4.24987345 213.241745,15.2126102 213.241745,28.5782023 C213.241745,41.9437945 203.099531,52.9065312 190.305685,53.3698301 L29.6138949,53.3698301 C16.8512054,52.9071025 6.7339593,41.9708961 6.7339593,28.6378334 C6.7339593,15.3047708 16.8512054,4.36856439 29.6138949,3.90583673 L29.728124,3.78657454 Z" id="Path" fill="#FFBF1E"></path>
                    <path d="M190.419915,56.8880647 L29.728124,56.738987 C19.8619119,57.0738549 10.6047409,51.7695143 5.57671551,42.9002778 C0.548690099,34.0310413 0.548690099,23.0061012 5.57671551,14.1368647 C10.6047409,5.26762821 19.8619119,-0.0367124117 29.728124,0.298155476 L190.305685,0.298155476 C205.288846,0.298155476 217.435097,12.979587 217.435097,28.6229257 C217.435097,44.2662643 205.288846,56.9476958 190.305685,56.9476958 L190.419915,56.8880647 Z M29.728124,7.2749936 C18.4986395,7.2749936 9.39534372,16.7793928 9.39534372,28.5036635 C9.39534372,40.2279341 18.4986395,49.7323333 29.728124,49.7323333 L190.419915,49.8814111 C201.391954,49.4527755 210.074893,40.0417006 210.074893,28.5782023 C210.074893,17.114704 201.391954,7.70362918 190.419915,7.2749936 L29.728124,7.2749936 Z" id="Shape" fill="#000000" fill-rule="nonzero"></path>
                </g>
                <g transform="translate(85.671827, 0.000000)" id="Path">
                    <path d="M6.19692883,41.1454556 C4.22897339,37.5607224 3.19512964,33.5001364 3.19794918,29.3683143 L3.19794918,27.4004882 C3.11926685,14.4032726 13.1387158,3.79558023 25.5873191,3.6971279 L157.721834,3.6971279 C164.718366,3.87602118 166.289017,10.1969173 159.292484,13.8940452 L124.795295,28.5931101 L159.7494,42.8151263 C162.833586,43.7692238 167.202849,48.9571291 159.520942,53.4890923 L3.56965947,53.2803835 L6.19692883,41.1454556 Z" fill="#FFBF1E"></path>
                    <path d="M159.520942,56.9775114 L3.56965947,56.738987 C1.83603451,56.5718303 0.50978356,55.0533731 0.50978356,53.2356602 C0.50978356,51.4179472 1.83603451,49.89949 3.56965947,49.7323333 L158.578552,49.9708577 C160.006416,48.9869446 160.49189,48.1521093 160.434775,47.7943227 C160.167905,47.0118505 159.565511,46.4049824 158.80701,46.1544676 L123.595889,31.8131892 C122.332326,31.2808653 121.504946,30.0007904 121.504946,28.5782023 C121.504946,27.1556143 122.332326,25.8755394 123.595889,25.3432154 L157.86462,10.7037816 C159.977859,9.54097522 160.463332,8.34835332 160.406218,8.10982894 C160.349103,7.87130456 159.606614,7.21536251 157.55049,7.18554696 L25.7015482,7.18554696 C20.6118499,7.23278118 15.7486077,9.38915117 12.1817824,13.1802344 C8.61495712,16.9713176 6.63675593,22.0865349 6.68240252,27.4004882 L6.68240252,29.3683143 C6.68431962,32.8905485 7.5599488,36.3522222 9.22400006,39.4161539 C9.82076561,41.0183419 9.21061218,42.8355965 7.78631728,43.6980862 C6.36202239,44.5605759 4.54823083,44.2111547 3.51254491,42.8747574 C1.26172251,38.7616322 0.0803442114,34.1054287 0.0852655064,29.3683143 L0.0852655064,27.4004882 C0.0065098184,12.4882529 11.5045132,0.323570478 25.78722,0.208708833 L157.921735,0.208708833 C163.775976,0.357786571 166.488918,3.60768125 167.174292,6.58923601 C167.859667,9.57079077 166.574589,14.0431229 161.005921,17.0246777 L134.047852,28.533479 L161.034478,39.5056005 C164.304502,40.5946209 166.724926,43.489266 167.317079,47.0191185 C167.545537,49.1062068 167.08862,53.1611213 161.377165,56.5302782 C160.810784,56.8580023 160.167598,57.0129699 159.520942,56.9775114 Z" fill="#000000" fill-rule="nonzero"></path>
                </g>
                <g transform="translate(97.094737, 11.926219)">
                    <path d="M21.2466131,3.54805016 L144.699716,3.54805016 C153.095555,3.54805016 143.071951,9.80931515 143.071951,16.9054155 C143.071951,24.0015158 153.095555,29.2192366 144.699716,29.2192366 L21.2466131,29.2192366 C12.6794304,29.2192366 5.9970279,23.4648359 5.9970279,16.3687356 C5.9970279,9.27263529 12.8222168,3.54805016 21.2466131,3.54805016 Z" id="Path" fill="#F6F6F6"></path>
                    <path d="M144.699716,32.7971023 L21.2466131,32.7971023 C10.9945512,32.7971023 2.65582664,25.4624776 2.65582664,16.4283667 C2.65582664,7.39425579 10.9945512,0.0894466427 21.2466131,0.0894466427 L144.699716,0.0894466427 C147.090063,-0.210229818 149.449014,0.861583451 150.868088,2.89210811 C152.295951,5.63513849 150.668187,8.22909113 149.097537,10.7634127 C147.720657,12.5606249 146.806465,14.6953583 146.44171,16.9650466 C146.770247,19.1803979 147.702075,21.2503671 149.126094,22.9281561 C150.582515,25.0450599 152.238837,27.4601193 150.95376,30.113703 C149.668682,32.7672868 146.156137,32.7971023 144.699716,32.7971023 Z M21.2466131,7.09610032 C14.6784397,7.09610032 9.36678644,11.270277 9.36678644,16.4283667 C9.36678644,21.5864564 14.6784397,25.7904486 21.2466131,25.7904486 L142.929165,25.7904486 C141.001873,23.2264652 139.884323,20.1011335 139.73075,16.8457844 C140.007028,13.2557118 141.277006,9.82692645 143.386081,6.97683813 L21.2466131,7.09610032 Z" id="Shape" fill="#000000" fill-rule="nonzero"></path>
                </g>
            </g>
            <path d="M497.706497,375.537544 C496.301723,375.536602 494.898176,375.457633 493.502851,375.30103 C481.656213,374.01334 473.876739,370.045155 470.3828,363.632988 C465.496745,354.566604 471.147099,344.343928 471.392767,343.923458 C471.938882,342.95642 472.979389,342.343334 474.122337,342.315143 C475.265285,342.286953 476.337034,342.847941 476.933867,343.786789 C477.530699,344.725636 477.561942,345.89971 477.015825,346.866748 C477.015825,346.866748 472.757587,354.75056 476.087748,360.794816 C478.544424,365.314868 484.658817,368.126761 494.212558,369.177936 C520.690066,372.016108 542.636371,340.717375 542.854743,340.402022 C543.488627,339.486623 544.58162,338.966332 545.722002,339.037138 C546.862383,339.107945 547.876903,339.759091 548.383401,340.745297 C548.889898,341.731504 548.811425,342.902941 548.177541,343.818341 C547.249463,345.184868 525.985567,375.537544 497.706497,375.537544 Z" id="Path" fill="#000000" fill-rule="nonzero"></path>
            <path d="M428.413432,295.222562 C427.304991,295.172891 426.266175,294.639104 425.546207,293.749263 C424.826238,292.859423 424.490088,291.693827 424.618402,290.532116 C425.308758,285.555623 428.948914,281.606986 433.647956,280.737361 C439.634942,279.771681 444.215151,284.979455 445.981802,288.221381 C446.490737,289.14947 446.628434,290.252902 446.364507,291.288172 C446.10058,292.323441 445.456724,293.205449 444.575024,293.739553 C443.70074,294.288381 442.654008,294.444095 441.669799,294.171741 C440.68559,293.899386 439.84636,293.22178 439.3405,292.291033 C438.849764,291.463307 436.755954,288.428313 434.793008,288.842176 C432.830061,289.256038 432.208462,291.87717 432.208462,291.911659 C431.862544,293.833281 430.268809,295.223705 428.413432,295.222562 L428.413432,295.222562 Z" id="Path" fill="#000000" fill-rule="nonzero"></path>
            <path d="M472.077555,264.382634 C480.12373,264.371838 487.383641,269.210412 490.470276,276.641004 C493.55691,284.071595 491.862022,292.62995 486.17634,298.323282 C480.490657,304.016615 471.934587,305.723011 464.499847,302.646375 C457.065108,299.569739 452.216765,292.316344 452.216765,284.270165 C452.216765,273.297026 461.104421,264.397401 472.077555,264.382634 L472.077555,264.382634 Z M472.077555,258.715766 C461.739341,258.704966 452.413081,264.924231 448.449322,274.47239 C444.485564,284.020548 446.665287,295.016326 453.971685,302.330372 C461.278084,309.644418 472.271579,311.835647 481.823884,307.881885 C491.376189,303.928123 497.605219,294.60838 497.605219,284.270165 C497.605219,270.167301 486.180417,258.730532 472.077555,258.715766 Z" id="Shape" fill="#FFFFFF" fill-rule="nonzero"></path>
            <path d="M497.605219,287.920786 C497.605219,299.735749 490.486486,310.386787 479.569763,314.905467 C468.653039,319.424146 456.089171,316.920173 447.738879,308.561588 C439.388586,300.203002 436.897086,287.636654 441.426598,276.724419 C445.95611,265.812184 456.614207,258.704046 468.429162,258.715752 C476.172152,258.715752 483.597587,261.793636 489.06999,267.271474 C494.542393,272.749312 497.612894,280.177799 497.605219,287.920786 Z" id="Path" fill="#A29A9A" style="mix-blend-mode: screen;"></path>
            <path d="M472.109063,317.126597 C458.812284,317.150074 446.812248,309.156846 441.710196,296.87785 C436.608144,284.598855 439.410094,270.455254 448.808185,261.048838 C458.206275,251.642423 472.347397,248.827942 484.630917,253.919108 C496.914438,259.010274 504.918301,271.003214 504.906568,284.299999 C504.906568,302.418251 490.22732,317.110497 472.109063,317.126597 Z M472.109063,258.277119 C461.57855,258.253653 452.071848,264.578966 448.025679,274.30114 C443.97951,284.023313 446.191536,295.225714 453.629419,302.680249 C461.067301,310.134784 472.264733,312.371865 481.995941,308.347459 C491.727148,304.323053 498.073744,294.830532 498.073744,284.299999 C497.994638,269.983532 486.425327,258.388318 472.109063,258.277119 L472.109063,258.277119 Z" id="Shape" fill="#000000" fill-rule="nonzero"></path>
            <path d="M430.351111,309.824631 C428.746677,309.804019 427.343627,308.860348 426.887778,307.495244 C426.43193,306.13014 427.029135,304.660594 428.361939,303.86777 C429.449767,303.261053 433.179464,299.317391 431.47002,291.540378 C426.714656,269.919181 407.724279,272.428785 406.916178,272.539097 C405.633654,272.726298 404.335997,272.292171 403.512023,271.400247 C402.688048,270.508323 402.462938,269.294106 402.921487,268.214981 C403.380037,267.135856 404.452583,266.355766 405.735107,266.168565 C405.983754,266.168565 432.526767,262.583418 438.618607,290.299366 C440.980748,301.082386 435.510525,307.452918 432.402444,309.300648 C431.793951,309.655032 431.078822,309.837702 430.351111,309.824631 Z" id="Path" fill="#000000" fill-rule="nonzero"></path>
            <path d="M431.892961,287.9212 C431.892961,304.050924 418.817237,317.126648 402.687513,317.126648 C386.55779,317.126648 373.482066,304.050924 373.482066,287.9212 C373.482066,271.791477 386.55779,258.715752 402.687513,258.715752 C418.817237,258.715752 431.892961,271.791477 431.892961,287.9212 Z" id="Path" fill="#A29A9A" style="mix-blend-mode: screen;"></path>
            <path d="M395.416794,265.487878 C404.49549,265.463489 412.693853,270.913532 416.185089,279.294141 C419.676325,287.67475 417.772021,297.333413 411.361059,303.761702 C404.950098,310.189992 395.296611,312.120358 386.906611,308.651754 C378.516611,305.18315 373.044428,296.999525 373.044428,287.920795 C373.044428,275.555058 383.051103,265.521291 395.416794,265.487878 L395.416794,265.487878 Z M395.416794,258.715768 C383.601728,258.703553 372.943247,265.811366 368.41334,276.723557 C363.883432,287.635748 366.37462,300.202299 374.724811,308.561144 C383.075001,316.919989 395.638964,319.424192 406.555839,314.905588 C417.472715,310.386984 424.591584,299.73587 424.591584,287.920795 C424.599592,280.177926 421.529372,272.749438 416.057171,267.271565 C410.584969,261.793692 403.159666,258.715768 395.416794,258.715768 L395.416794,258.715768 Z" id="Shape" fill="#FFFFFF" fill-rule="nonzero"></path>
            <path d="M399.066387,317.126635 C385.774877,317.138385 373.785594,309.140827 368.691001,296.864451 C363.596408,284.588075 366.400217,270.451512 375.794576,261.048835 C385.188935,251.646158 399.323014,248.829835 411.603899,253.913556 C423.884784,258.997277 431.892961,270.979471 431.892961,284.270982 C431.892961,302.405302 417.200706,317.110574 399.066387,317.126635 L399.066387,317.126635 Z M399.066387,258.248151 C388.453543,258.17756 378.849085,264.524049 374.752312,274.314547 C370.65554,284.105044 372.877885,295.400383 380.378269,302.909154 C387.878653,310.417926 399.171503,312.652896 408.966577,308.567072 C418.761651,304.481249 425.118876,294.883895 425.060553,284.270982 C424.980866,269.943263 413.394012,258.343452 399.066387,258.248151 L399.066387,258.248151 Z" id="Shape" fill="#000000" fill-rule="nonzero"></path>
            <g id="Group" style="mix-blend-mode: multiply;" transform="translate(1.112605, 273.318476)">
                <path d="M26.7687276,5.67915192 L304.576236,5.67915192 C316.400255,5.67915192 325.985517,15.2267761 325.985517,27.0043674 L325.985517,265.78431 C325.985517,271.440108 323.729902,276.86426 319.714884,280.863514 C315.699865,284.862768 310.25433,287.109525 304.576236,287.109525 L26.7687276,287.109525 C21.0906334,287.109525 15.6450991,284.862768 11.6300802,280.863514 C7.61506121,276.86426 5.35944706,271.440108 5.35944706,265.78431 L5.35944706,26.8623886 C5.43779977,15.1402812 15.0001503,5.67915192 26.7687276,5.67915192 L26.7687276,5.67915192 Z" id="Path" fill="#FFA780"></path>
                <path d="M304.576236,290.431829 L26.7687276,290.431829 C13.1026176,290.431829 2.0240465,279.396759 2.0240465,265.78431 L2.0240465,26.8623886 C2.0240465,13.2453385 13.0980075,2.20214328 26.7687276,2.18647349 L304.576236,2.18647349 C318.251578,2.20212157 329.333715,13.2407439 329.349425,26.8623886 L329.349425,265.78431 C329.333693,279.401351 318.246965,290.431829 304.576236,290.431829 Z M26.7687276,8.85947699 C16.7933085,8.87511234 8.71054461,16.9261386 8.69484762,26.8623886 L8.69484762,265.78431 C8.71054461,275.72056 16.7933085,283.771586 26.7687276,283.787221 L304.576236,283.787221 C314.551655,283.771586 322.634419,275.72056 322.650116,265.78431 L322.650116,26.8623886 C322.650116,22.0877195 320.745909,17.5086085 317.356399,14.1324077 C313.966889,10.7562069 309.369727,8.85947699 304.576236,8.85947699 L26.7687276,8.85947699 Z" id="Shape" fill="#000000" fill-rule="nonzero"></path>
            </g>
            <g id="Group" style="mix-blend-mode: screen;" transform="translate(1.112605, 273.318476)">
                <path d="M26.7687276,5.67915192 L304.576236,5.67915192 C316.400255,5.67915192 325.985517,15.2267761 325.985517,27.0043674 L325.985517,265.78431 C325.985517,271.440108 323.729902,276.86426 319.714884,280.863514 C315.699865,284.862768 310.25433,287.109525 304.576236,287.109525 L26.7687276,287.109525 C21.0906334,287.109525 15.6450991,284.862768 11.6300802,280.863514 C7.61506121,276.86426 5.35944706,271.440108 5.35944706,265.78431 L5.35944706,26.8623886 C5.43779977,15.1402812 15.0001503,5.67915192 26.7687276,5.67915192 L26.7687276,5.67915192 Z" id="Path" fill="#FFBF1E"></path>
                <path d="M304.576236,290.431829 L26.7687276,290.431829 C13.1026176,290.431829 2.0240465,279.396759 2.0240465,265.78431 L2.0240465,26.8623886 C2.0240465,13.2453385 13.0980075,2.20214328 26.7687276,2.18647349 L304.576236,2.18647349 C318.251578,2.20212157 329.333715,13.2407439 329.349425,26.8623886 L329.349425,265.78431 C329.333693,279.401351 318.246965,290.431829 304.576236,290.431829 Z M26.7687276,8.85947699 C16.7933085,8.87511234 8.71054461,16.9261386 8.69484762,26.8623886 L8.69484762,265.78431 C8.71054461,275.72056 16.7933085,283.771586 26.7687276,283.787221 L304.576236,283.787221 C314.551655,283.771586 322.634419,275.72056 322.650116,265.78431 L322.650116,26.8623886 C322.650116,22.0877195 320.745909,17.5086085 317.356399,14.1324077 C313.966889,10.7562069 309.369727,8.85947699 304.576236,8.85947699 L26.7687276,8.85947699 Z" id="Shape" fill="#000000" fill-rule="nonzero"></path>
            </g>
            <g id="Group" transform="translate(37.619415, 317.126648)" fill="#FFFFFF">
                <path d="M46.1874272,146.039392 C52.8749039,146.039392 58.2961748,151.518787 58.2961748,158.277964 C58.2961748,165.037141 52.8749039,170.516536 46.1874272,170.516536 C39.4999505,170.516536 34.0786796,165.037141 34.0786796,158.277964 C34.0786796,151.518787 39.4999505,146.039392 46.1874272,146.039392 Z" id="Path"></path>
                <path d="M82.401292,187.156418 C89.0887686,187.156418 94.5100396,192.635847 94.5100396,199.395024 C94.5100396,206.154201 89.0887686,211.633596 82.401292,211.633596 C75.7138153,211.633596 70.2925115,206.154201 70.2925115,199.395024 C70.2850618,196.14684 71.5583982,193.029515 73.830853,190.732696 C76.1033077,188.435877 79.1875644,187.148889 82.401292,187.156418 L82.401292,187.156418 Z" id="Path"></path>
                <path d="M138.815132,156.176678 C142.612988,156.176678 146.036345,158.490527 147.487083,162.03801 C148.937821,165.585494 148.129839,169.667029 145.440326,172.377239 C142.750813,175.087449 138.71017,175.891851 135.204683,174.414928 C131.699196,172.938006 129.420185,169.471023 129.431513,165.632466 C129.447039,160.405588 133.643678,156.176678 138.815132,156.176678 L138.815132,156.176678 Z" id="Path"></path>
                <path d="M232.145201,0.993851585 C238.832678,0.993851585 244.253949,6.47324708 244.253949,13.232424 C244.253949,19.9916008 238.832678,25.4709963 232.145201,25.4709963 C225.457725,25.4709963 220.036454,19.9916008 220.036454,13.232424 C220.036454,6.47324708 225.457725,0.993851585 232.145201,0.993851585 Z" id="Path"></path>
                <path d="M5.1413012,218.647364 C4.45500865,218.649479 3.78587353,218.430673 3.23087234,218.022642 C2.51600272,217.509305 2.0337109,216.728541 1.89125721,215.853989 C1.74880352,214.979438 1.95799919,214.083611 2.4723197,213.365737 L44.3893765,154.075391 C44.9994432,153.226865 45.9647817,152.712793 47.0021689,152.683999 C48.0370701,152.680838 49.0179768,153.15046 49.6711504,153.961808 L82.3731974,195.87395 L134.572857,166.399151 L230.71238,10.7052014 C231.696321,9.16511518 233.715792,8.69893278 235.263696,9.65455826 C236.008057,10.1226442 236.536578,10.8718699 236.731779,11.7356976 C236.92698,12.5995253 236.772686,13.5063747 236.303194,14.2546713 L139.714158,170.658515 C139.430659,171.138787 139.02262,171.531562 138.534187,171.794345 L83.1317501,203.029681 C81.7085833,203.81674 79.9317573,203.457565 78.9175687,202.177808 L47.1988307,161.51508 L7.86647179,217.199165 C7.24840583,218.104821 6.22983581,218.647364 5.1413012,218.647364 Z" id="Path" fill-rule="nonzero"></path>
            </g>
            <g id="Group" transform="translate(30.318053, 302.523924)" fill="#FFFFFF" fill-rule="nonzero">
                <path d="M66.893255,26.4165751 L5.42299782,26.4165751 C3.6718615,26.2494184 2.33221407,24.7309613 2.33221407,22.9132483 C2.33221407,21.0955353 3.6718615,19.5770781 5.42299782,19.4099215 L66.893255,19.4099215 C68.178816,19.2872068 69.4208917,19.9268117 70.1004189,21.0614453 C70.779946,22.196079 70.779946,23.6304176 70.1004189,24.7650513 C69.4208917,25.8996849 68.178816,26.5392898 66.893255,26.4165751 Z" id="Path"></path>
                <path d="M108.863797,9.36208193 L5.16338622,9.36208193 C3.87782517,9.48479661 2.6357495,8.84519174 1.95622233,7.71055806 C1.27669517,6.57592438 1.27669517,5.14158581 1.95622233,4.00695213 C2.6357495,2.87231845 3.87782517,2.23271358 5.16338622,2.35542826 L108.863797,2.35542826 C110.149358,2.23271358 111.391433,2.87231845 112.07096,4.00695213 C112.750488,5.14158581 112.750488,6.57592438 112.07096,7.71055806 C111.391433,8.84519174 110.149358,9.48479661 108.863797,9.36208193 Z" id="Path"></path>
                <path d="M109.152254,26.4165751 L81.25843,26.4165751 C79.972869,26.5392898 78.7307933,25.8996849 78.0512661,24.7650513 C77.371739,23.6304176 77.371739,22.196079 78.0512661,21.0614453 C78.7307933,19.9268117 79.972869,19.2872068 81.25843,19.4099215 L109.152254,19.4099215 C110.90339,19.5770781 112.243038,21.0955353 112.243038,22.9132483 C112.243038,24.7309613 110.90339,26.2494184 109.152254,26.4165751 Z" id="Path"></path>
                <path d="M109.008025,43.0834662 L5.16338622,43.0834662 C3.4122499,42.9163095 2.07260247,41.3978524 2.07260247,39.5801394 C2.07260247,37.7624264 3.4122499,36.2439692 5.16338622,36.0768125 L109.008025,36.0768125 C110.759162,36.2439692 112.098809,37.7624264 112.098809,39.5801394 C112.098809,41.3978524 110.759162,42.9163095 109.008025,43.0834662 Z" id="Path"></path>
            </g>
            <path d="M428.132692,419.345716 C427.118209,419.310892 426.16418,418.881514 425.49692,418.159423 C424.829659,417.437331 424.508624,416.486868 424.609971,415.533502 C426.691613,401.473133 429.889279,387.580207 434.175981,373.971971 C438.407971,361.358099 445.51921,349.773631 455.008627,340.034831 C456.383926,338.71301 458.634121,338.693761 460.034577,339.991838 C461.435034,341.289914 461.455429,343.413761 460.080131,344.735584 C451.452423,353.76368 444.94305,364.410459 440.978478,375.97839 C436.829704,389.244616 433.723706,402.7817 431.685782,416.479385 C431.415422,418.132705 429.905099,419.351097 428.132692,419.345716 Z" id="Path" fill="#000000" fill-rule="nonzero"></path>
            <path d="M544.608897,390.140268 C543.737993,390.141079 542.904565,389.778408 542.301757,389.136301 C541.69895,388.494194 541.379092,387.628391 541.416311,386.739541 C541.881771,378.588393 543.404973,370.536505 545.945963,362.795088 C548.809538,354.818139 552.710157,347.270772 557.542964,340.355874 C558.596135,338.910873 560.591241,338.60019 562.018043,339.659004 C563.436,340.745058 563.739596,342.791948 562.700219,344.258346 C553.697097,356.689283 548.511549,371.572007 547.801483,387.018289 C547.728352,388.764833 546.320178,390.141863 544.608897,390.140268 L544.608897,390.140268 Z" id="Path" fill="#000000" fill-rule="nonzero"></path>
            <g id="Group" transform="translate(351.577980, 375.537544)" fill="#000000" fill-rule="nonzero">
                <path d="M178.843545,1.51065441 L181.295432,1.51065441 C187.483145,3.46296159 193.396685,6.20645707 198.891329,9.67399843 C212.102675,18.5926697 217.756439,32.624325 225.429404,47.033644 C226.698616,49.4158298 228.775509,54.7031203 224.073654,54.9645797 C219.919869,55.167937 216.862221,45.6391938 214.871866,41.8625578 C208.15081,29.2544037 202.06436,18.825078 188.910706,12.1433374 C186.437668,10.5253991 183.674298,9.41020986 180.776209,8.86056913 C178.583933,9.00582436 173.53593,13.3344303 170.218671,15.3970546 C147.690153,29.5449141 128.623124,40.9619753 105.777303,55.2260391 C103.883411,56.1688589 102.069643,57.2668089 100.354305,58.5088073 C98.5947156,60.0775638 98.3927955,62.053035 94.4120843,61.2105546 C92.5659574,60.8619421 92.8832605,60.0194617 91.527511,57.9568374 C90.4898216,56.8331553 89.3060388,55.8559352 88.0083316,55.0517328 C72.1720241,40.8457712 55.2972703,25.3615635 39.8071116,12.7824604 C32.0699089,16.9841638 25.6850368,23.3237713 21.4035339,31.0555685 C20.0189387,33.6992138 19.124721,38.1149728 15.6343873,37.8535134 C9.86524071,37.3886966 14.3363293,29.3996589 15.3747757,27.4822898 C18.6816639,20.4946057 23.8303193,14.5556266 30.259174,10.3131214 C32.85529,8.45385448 37.9609847,4.50291218 40.8167123,4.50291218 C42.9801423,4.64816741 46.1243272,8.48290553 48.1146827,10.3131214 C60.2587364,20.9167534 71.1912692,30.8522112 82.7295624,40.8457712 C87.2139219,44.9678458 91.912798,48.8467973 96.8062802,52.4661897 C124.152035,35.519746 151.49779,18.5345676 178.843545,1.51065441 Z" id="Path"></path>
                <path d="M204.487402,44.0413862 C177.112801,51.0136374 150.805492,57.3467655 123.257817,64.2318635 C119.369122,64.9488061 115.518262,65.8601994 111.719524,66.9626618 C108.834951,68.0375505 107.01767,70.6811957 104.421554,71.8722886 C97.7870351,74.7773933 90.5467561,72.3661564 85.4699071,68.5895204 C84.0508462,67.2582423 82.5049317,66.0710925 80.8545898,65.0452927 C75.8354322,62.721209 69.3162965,61.8496777 62.999081,60.1356659 C51.2300219,56.8819487 39.0282768,54.3254567 26.9707604,51.1298416 C21.3285093,49.1429807 15.5421013,47.5986684 9.66332058,46.5107252 C8.85564005,48.9800641 11.0767615,51.0136374 12.3748195,52.7567001 C29.3361105,75.6779757 46.9896992,97.9020262 64.6432878,120.939506 C66.1432659,122.914977 74.4796828,132.559924 67.3547867,133.489558 C63.9509902,133.867222 60.518348,127.679349 57.8645405,124.222274 C41.5667013,102.840704 25.3842451,81.8077465 9.14409738,60.6876358 C5.99991248,56.6204893 0.980754924,51.1298416 2.62496171,44.8548155 C5.50953501,34.3673878 21.0573851,41.9497109 28.5861215,44.0413862 C40.9320952,47.4694097 54.2876696,50.2873612 66.5182604,53.5991805 C72.711714,54.8747572 78.7827558,56.6925082 84.6622265,59.0317262 C89.0179322,61.1815036 91.1813622,66.5849982 97.9312637,66.1201815 C100.421648,65.8634208 102.775688,64.8502603 104.681165,63.2150768 C106.613829,61.8787287 108.373419,59.4965429 110.104163,59.1188793 C111.464276,59.1381883 112.822207,59.2351809 114.171411,59.4093898 C118.018511,58.6909406 121.814978,57.720512 125.53663,56.5042851 C148.613217,50.6940759 170.96866,45.2905812 194.593315,39.6256272 C198.214902,38.3690887 201.927941,37.3977984 205.698922,36.7205226 C210.400777,36.4881142 212.016138,43.0827017 214.093031,47.643716 C215.391089,50.5488206 219.57372,57.9568374 214.352642,58.8283688 C210.487314,59.4384408 209.564251,55.0807839 208.410421,52.5533428 C206.823906,49.0381662 205.814305,46.6269294 204.487402,44.0413862 Z" id="Path"></path>
            </g>
        </g>
    </g>
</svg>