<?xml version="1.0" encoding="UTF-8"?>
<svg width="72px" height="64px" viewBox="0 0 72 64" version="1.1" xmlns="http://www.w3.org/2000/svg" xmlns:xlink="http://www.w3.org/1999/xlink">
    <title>1-cor-woman-pointing-presentation</title>
    <g id="Page-1" stroke="none" stroke-width="1" fill="none" fill-rule="evenodd">
        <g id="A4" transform="translate(-794.000000, -443.000000)">
            <g id="woman-pointing-presentation" transform="translate(794.555495, 443.835597)">
                <path d="M13.0129744,46.5280793 C12.8619792,46.5280632 12.7259634,46.4365927 12.6687008,46.2965556 C12.6114381,46.1565185 12.6442826,45.9956815 12.7518345,45.889456 C12.8593864,45.7832306 13.0203202,45.7526793 13.1591789,45.8121266 C13.2980377,45.871574 13.3872884,46.0092327 13.385084,46.1605589 C13.3821146,46.3644125 13.216382,46.528101 13.0129744,46.5280793 Z M11.6358969,46.3266237 C11.3262582,46.2612867 11.2040324,46.0543864 11.2529227,45.8583755 C11.2766735,45.7623343 11.3375274,45.6796888 11.4220895,45.6286307 C11.5066516,45.5775725 11.6079906,45.5622868 11.7038002,45.5861382 C11.8036659,45.6069798 11.8909896,45.6671638 11.946151,45.7531677 C12.0013124,45.8391715 12.0196855,45.9437828 11.9971421,46.0434969 C11.9559473,46.2098636 11.8069176,46.326666 11.6358969,46.3266237 L11.6358969,46.3266237 Z M10.3267227,45.8638258 C10.2713435,45.8641226 10.2165953,45.8520317 10.1664711,45.8284294 C10.0723344,45.7879011 9.99849742,45.7110136 9.96168448,45.6151824 C9.92487153,45.5193512 9.92819778,45.4126855 9.97090981,45.3193456 C10.0610712,45.1345898 10.2834376,45.0578614 10.4679614,45.1478361 C10.6297422,45.2170152 10.7211009,45.3902826 10.6869848,45.5632276 C10.6528688,45.7361727 10.5025969,45.8615553 10.3267227,45.8638258 L10.3267227,45.8638258 Z M9.16421947,45.1124453 C9.07490638,45.113095 8.98861597,45.0800543 8.92248399,45.0198846 C8.78995395,44.9020704 8.76040699,44.7061372 8.8522774,44.5543273 C8.94414781,44.4025175 9.13116332,44.3382442 9.29664536,44.4016074 C9.46212741,44.4649706 9.55875294,44.6378502 9.5262375,44.8123871 C9.49372206,44.986924 9.34136413,45.1132057 9.16421947,45.1124453 L9.16421947,45.1124453 Z M8.27332914,44.0534421 C8.14307918,44.0543739 8.02211262,43.9859794 7.95554204,43.8737655 C7.89461424,43.787345 7.87257286,43.6793023 7.89476477,43.5758469 C7.91695668,43.4723914 7.98135422,43.3829758 8.07233559,43.3292909 C8.21066573,43.2463695 8.3859904,43.2591336 8.51091317,43.3612205 C8.63583594,43.4633074 8.68361632,43.6328647 8.63043661,43.7853709 C8.57725689,43.9378772 8.43450051,44.0406875 8.27332914,44.0425526 L8.27332914,44.0534421 Z M7.75726462,42.7712044 C7.58544825,42.7709399 7.43615158,42.6528032 7.39601945,42.4853552 C7.36794757,42.3867443 7.38100706,42.2809365 7.43220812,42.192155 C7.48340919,42.1033735 7.56836727,42.0392211 7.66763236,42.0143846 C7.86797454,41.9778568 8.06180455,42.1048535 8.10880648,42.3034402 C8.15580841,42.5020269 8.039545,42.7027549 7.84418075,42.7603149 C7.81584909,42.7679485 7.78659926,42.7716131 7.75726462,42.7712044 L7.75726462,42.7712044 Z M7.60516139,41.3800717 C7.50719133,41.3807964 7.41294694,41.3424821 7.34316226,41.2735581 C7.27337758,41.2046341 7.23376943,41.1107466 7.23305171,41.0125513 C7.22787719,40.9098705 7.26460974,40.8094993 7.33479971,40.7345264 C7.40498968,40.6595534 7.50259429,40.6164333 7.60516139,40.6150849 C7.70360307,40.6150849 7.79797374,40.6544633 7.86732708,40.7244872 C7.93668042,40.7945111 7.97527878,40.8893847 7.97455494,40.98805 C7.97821484,41.0893456 7.94117619,41.1878783 7.87173828,41.2615698 C7.80230037,41.3352613 7.70626876,41.3779504 7.60516139,41.3800717 L7.60516139,41.3800717 Z M7.60516139,39.9916614 C7.39965089,39.9916614 7.23305171,39.8246792 7.23305171,39.6186963 C7.22939223,39.5166786 7.26671726,39.4174536 7.33666449,39.3432516 C7.40661173,39.2690497 7.50333392,39.2260738 7.60516139,39.2239522 C7.70407915,39.2239415 7.79886856,39.2636956 7.86830159,39.3343116 C7.93773461,39.4049277 7.97600962,39.5005052 7.97455494,39.5996397 C7.98205211,39.702965 7.94664739,39.8048073 7.87671101,39.8810895 C7.80677463,39.9573717 7.7085147,40.0013224 7.60516139,40.0025509 L7.60516139,39.9916614 Z M7.60516139,38.6005287 C7.40070694,38.6005342 7.23454407,38.435205 7.23305171,38.230286 C7.22937782,38.1287814 7.26686642,38.030111 7.33697191,37.956767 C7.4070774,37.883423 7.50382516,37.8416559 7.60516139,37.8409866 C7.8085864,37.8394496 7.97553829,38.0019349 7.9799872,38.2057846 C7.98668298,38.3089143 7.95100398,38.4103016 7.88123665,38.4863994 C7.81146933,38.5624972 7.71368483,38.6066835 7.61059365,38.6086959 L7.60516139,38.6005287 Z M7.58343236,37.2066737 C7.38256217,37.2067227 7.21846976,37.045881 7.2140388,36.8445981 C7.20659336,36.7419347 7.24119577,36.6406614 7.30986888,36.5641255 C7.37854198,36.4875895 7.47535906,36.4423963 7.5780001,36.4389645 C7.78951088,36.4389645 7.96097423,36.610822 7.96097423,36.8228191 C7.96097423,37.0348161 7.78951088,37.2066737 7.5780001,37.2066737 L7.58343236,37.2066737 Z M7.55355494,35.815541 C7.35268475,35.81559 7.18859234,35.6547484 7.18416138,35.4534654 C7.17979808,35.3024532 7.26675655,35.163719 7.40438595,35.1021174 C7.54201534,35.0405157 7.70312705,35.0682161 7.81240546,35.1722693 C7.92168388,35.2763224 7.95754112,35.4361727 7.90321484,35.5770942 C7.84888856,35.7180157 7.71511088,35.8121695 7.56441945,35.815541 L7.55355494,35.815541 Z M7.51552913,34.4244083 C7.31524291,34.4230284 7.15197876,34.2629987 7.14613558,34.0623327 C7.14177227,33.9113205 7.22873075,33.7725863 7.36636014,33.7109847 C7.50398953,33.6493831 7.66510124,33.6770835 7.77437966,33.7811366 C7.88365807,33.8851898 7.91951531,34.04504 7.86518903,34.1859615 C7.81086275,34.326883 7.67708507,34.4210368 7.52639365,34.4244083 L7.51552913,34.4244083 Z M7.47207106,33.0332757 C7.27222927,33.0333623 7.10855519,32.874137 7.10267751,32.6739224 C7.09446664,32.5721638 7.12762612,32.4713972 7.19462675,32.3945025 C7.26162738,32.3176079 7.35678404,32.2711099 7.45849042,32.2655664 C7.66300834,32.2594454 7.83408829,32.4199735 7.84146462,32.6249197 C7.84967549,32.7266783 7.816516,32.8274449 7.74951538,32.9043396 C7.68251475,32.9812342 7.58735809,33.0277322 7.48565171,33.0332757 L7.47207106,33.0332757 Z M7.42318074,31.642143 C7.23532655,31.6388485 7.07986622,31.4947464 7.06193557,31.3072911 C7.05294788,31.205807 7.08546827,31.1050161 7.15204157,31.0280241 C7.21861488,30.9510322 7.31353155,30.9044424 7.41503235,30.8989351 C7.51347914,30.8945143 7.60960715,30.9297038 7.6820383,30.9966777 C7.75446945,31.0636516 7.79719844,31.1568571 7.80072268,31.255566 C7.80970781,31.3577725 7.77689992,31.4592549 7.70981754,31.5367567 C7.64273515,31.6142584 7.5471293,31.6611352 7.44490977,31.6666443 L7.42318074,31.642143 Z M7.36885816,30.2510104 C7.17003574,30.251145 7.00677421,30.0935243 6.99946461,29.8943794 C6.99297033,29.7434768 7.07792304,29.6035469 7.21462395,29.5399796 C7.35132485,29.4764123 7.51278098,29.5017595 7.62354318,29.6041764 C7.73430537,29.7065934 7.77250251,29.8658567 7.7202849,30.0075421 C7.6680673,30.1492274 7.53574584,30.2453575 7.38515493,30.2510104 L7.36885816,30.2510104 Z M7.31453558,28.8626 C7.10302478,28.8671106 6.92791326,28.6989096 6.92341303,28.4869125 C6.9189128,28.2749155 7.08672801,28.0994014 7.2982388,28.0948908 C7.39687893,28.0897178 7.49342951,28.1246511 7.56602935,28.191781 C7.6386292,28.2589108 7.68113739,28.3525591 7.68392913,28.4515217 C7.69291682,28.5530057 7.66039644,28.6537967 7.59382313,28.7307886 C7.52724983,28.8077806 7.43233315,28.8543704 7.33083235,28.8598776 L7.31453558,28.8626 Z M7.25749687,27.4714673 C7.04839735,27.4782554 6.87255691,27.3156026 6.86256227,27.106152 C6.85256764,26.8967013 7.01211784,26.7179705 7.22090926,26.7047258 C7.42970068,26.6914811 7.61045949,26.8486242 7.62689042,27.0576666 C7.635876,27.1601497 7.6031448,27.2619212 7.53613582,27.3398508 C7.46912684,27.4177804 7.37353193,27.4652487 7.27107751,27.4714673 L7.25749687,27.4714673 Z M7.19774203,26.0803348 C6.99843117,26.0805263 6.8343612,25.9232813 6.82563235,25.7237038 C6.81664422,25.621943 6.849088,25.5208629 6.91558793,25.4434431 C6.98208785,25.3660233 7.07699353,25.318842 7.17872912,25.3126254 C7.27718084,25.3074491 7.3736121,25.3419331 7.44656064,25.4084024 C7.51950917,25.4748717 7.56292151,25.5678105 7.56713558,25.666534 C7.57612116,25.769017 7.54338996,25.8707885 7.47638098,25.9487181 C7.409372,26.0266477 7.31377709,26.0741161 7.21132267,26.0803348 L7.19774203,26.0803348 Z M7.13798719,24.689202 C7.00116369,24.6926061 6.87292164,24.6225894 6.80156858,24.5055264 C6.73021552,24.3884635 6.72659168,24.2421389 6.79206213,24.1216718 C6.85753257,24.0012047 6.98215078,23.9248969 7.11897429,23.9214928 C7.21742601,23.9163165 7.31385726,23.9508004 7.3868058,24.0172697 C7.45975433,24.083739 7.50316667,24.1766779 7.50738074,24.2754013 C7.51636632,24.3778844 7.48363512,24.4796558 7.41662614,24.5575854 C7.34961716,24.6355151 7.25402225,24.6829834 7.15156783,24.689202 L7.13798719,24.689202 Z M7.07551622,23.2980693 C6.87725728,23.2968093 6.71480173,23.1399667 6.70612267,22.9414384 C6.69713454,22.8396776 6.72957833,22.7385976 6.79607825,22.6611778 C6.86257817,22.583758 6.95748385,22.5365767 7.05921945,22.5303601 C7.26379076,22.5211135 7.43737064,22.6792762 7.4476259,22.8842686 C7.45661148,22.9867517 7.42388028,23.0885232 7.3568713,23.1664528 C7.28986232,23.2443824 7.19426741,23.2918507 7.09181299,23.2980693 L7.07551622,23.2980693 Z M7.01847751,21.9069368 C6.81916665,21.9071283 6.65509668,21.7498832 6.64636783,21.5503058 C6.63987356,21.3994032 6.72482626,21.2594733 6.86152717,21.1959059 C6.99822807,21.1323386 7.1596842,21.1576858 7.2704464,21.2601028 C7.38120859,21.3625197 7.41940573,21.5217831 7.36718813,21.6634684 C7.31497052,21.8051537 7.18264906,21.9012838 7.03205816,21.9069368 L7.01847751,21.9069368 Z M6.95872267,20.5158041 C6.75990025,20.5159387 6.59663872,20.3583179 6.58932912,20.1591731 C6.58033284,20.0578548 6.61241188,19.9571727 6.67833135,19.8798338 C6.74425083,19.8024948 6.83845932,19.7550122 6.93970977,19.7480947 C7.14428108,19.7388482 7.31786096,19.8970108 7.32811622,20.1020033 C7.33788255,20.2042095 7.30579322,20.3060061 7.23921155,20.3840344 C7.17262988,20.4620627 7.07727216,20.5096237 6.97501944,20.5158041 L6.95872267,20.5158041 Z M58.4836911,20.1128927 C58.3468676,20.1158106 58.2188844,20.0453445 58.1479515,19.9280384 C58.0770186,19.8107323 58.0739125,19.6644077 58.1398031,19.5441838 C58.2056937,19.4239598 58.3305708,19.3481014 58.4673943,19.3451835 C58.5657696,19.3392474 58.6623413,19.373551 58.7350328,19.4402526 C58.8077243,19.5069542 58.8503209,19.6003509 58.8530846,19.699092 C58.8620698,19.8012986 58.8292619,19.9027809 58.7621795,19.9802827 C58.6950971,20.0577844 58.5994912,20.1046612 58.4972717,20.1101704 L58.4836911,20.1128927 Z M6.89896783,19.1246715 C6.69965698,19.124863 6.535587,18.9676179 6.52685815,18.7680404 C6.518643,18.6660052 6.55172444,18.564947 6.61865277,18.4876232 C6.68558111,18.4102995 6.78072942,18.3632111 6.88267106,18.3569621 C7.08721407,18.349284 7.25954041,18.5086266 7.26836138,18.713593 C7.27734651,18.8157995 7.24453863,18.9172819 7.17745624,18.9947836 C7.11037385,19.0722853 7.014768,19.1191621 6.91254848,19.1246715 L6.89896783,19.1246715 Z M58.4266524,18.7190377 C58.2263661,18.7176578 58.063102,18.557628 58.0572588,18.3569621 C58.0572588,18.3379055 58.798762,18.3079594 58.798762,18.3079594 L58.4266524,18.3215712 L58.798762,18.3079594 C58.8069695,18.410889 58.7731582,18.5127516 58.705065,18.5902381 C58.6369719,18.6677246 58.5404249,18.714203 58.4375169,18.7190377 L58.4266524,18.7190377 Z M6.84736138,17.7335386 C6.64649119,17.7335876 6.48239878,17.572746 6.47796783,17.371463 C6.47052388,17.2701546 6.50403103,17.1701005 6.57095098,17.0938104 C6.63787094,17.0175204 6.73258352,16.9714015 6.83378073,16.9658294 C6.93222355,16.9621586 7.02805121,16.9980515 7.09996629,17.0655311 C7.17188136,17.1330106 7.21392565,17.226486 7.21675493,17.3251827 C7.22575246,17.4275675 7.19250595,17.5291765 7.12476153,17.6063358 C7.05701711,17.683495 6.96069088,17.7294663 6.85822589,17.7335386 L6.84736138,17.7335386 Z M58.377762,17.3251827 C58.1764207,17.3252687 58.0115309,17.1648252 58.0056524,16.963107 C57.9982084,16.8617986 58.0317156,16.7617445 58.0986355,16.6854545 C58.1655555,16.6091644 58.2602681,16.5630456 58.3614653,16.5574734 C58.4599121,16.5530527 58.5560401,16.5882421 58.6284712,16.655216 C58.7009024,16.7221899 58.7436314,16.8153954 58.7471556,16.9141043 C58.7553631,17.0170339 58.7215517,17.1188966 58.6534586,17.1963831 C58.5853654,17.2738696 58.4888185,17.320348 58.3859104,17.3251827 L58.377762,17.3251827 Z M6.82291622,16.342406 C6.72494696,16.342406 6.63099026,16.3033983 6.56171553,16.2339644 C6.4924408,16.1645304 6.45352266,16.0703577 6.45352266,15.9721632 C6.4475955,15.8702115 6.48333327,15.7702345 6.55250734,15.6952521 C6.62168141,15.6202696 6.71833014,15.5767439 6.82020009,15.5746967 C6.9188905,15.5739721 7.01382574,15.6125732 7.08411979,15.6820077 C7.15441383,15.7514423 7.19430816,15.8460221 7.1950259,15.9449395 C7.20326346,16.0485122 7.16864945,16.1509234 7.09930258,16.2281526 C7.02995572,16.3053818 6.93197742,16.350634 6.82834848,16.3532954 L6.82291622,16.342406 Z M58.3288717,15.9313277 C58.1300493,15.9314623 57.9667878,15.7738415 57.9594782,15.5746967 C57.9504908,15.4720413 57.9836621,15.3701521 58.0513291,15.2925673 C58.118996,15.2149825 58.215305,15.1684135 58.3180072,15.1636184 C58.529518,15.1561008 58.7070616,15.3218641 58.714562,15.5338611 C58.7220624,15.7458582 58.5566793,15.92381 58.3451685,15.9313277 L58.3288717,15.9313277 Z M6.85550977,14.9730523 C6.69920657,14.9774835 6.55591337,14.8862285 6.49351843,14.7425214 C6.4311235,14.5988143 6.46215964,14.4315204 6.5719228,14.3198988 C6.68168596,14.2082773 6.84812884,14.1747486 6.99239552,14.2351978 C7.13666219,14.295647 7.22977489,14.4379321 7.22761945,14.5946424 C7.22834243,14.6942817 7.18954367,14.7901276 7.11975901,14.8610938 C7.04997434,14.93206 6.95492057,14.9723329 6.85550977,14.9730523 L6.85550977,14.9730523 Z M58.293562,14.561974 C58.0922207,14.56206 57.9273309,14.4016165 57.9214524,14.1998983 C57.9140127,14.0976898 57.9482506,13.9968274 58.0163372,13.9203746 C58.0844239,13.8439217 58.1805364,13.7984166 58.2826975,13.7942647 C58.3818607,13.7905944 58.478379,13.8267743 58.5508033,13.8947643 C58.6232277,13.9627543 58.6655582,14.0569219 58.6683879,14.1563403 C58.6758271,14.2580971 58.6419542,14.3585531 58.574452,14.4349241 C58.5069497,14.511295 58.4115386,14.5571086 58.3098588,14.561974 L58.293562,14.561974 Z M6.95872267,13.5873643 C6.85334501,13.5848051 6.75375507,13.5385189 6.68372541,13.4595544 C6.61369576,13.3805899 6.57951025,13.2760328 6.58932912,13.1708412 C6.5961126,13.0685103 6.64433949,12.973407 6.72281867,12.9076003 C6.80129785,12.8417936 6.9032066,12.8110044 7.00489686,12.8223775 C7.10265995,12.8339428 7.19177329,12.8841419 7.25245746,12.9618326 C7.31314163,13.0395234 7.34037619,13.1382784 7.32811622,13.2361782 C7.30913083,13.4250552 7.15346206,13.5706025 6.96415493,13.5764748 L6.95872267,13.5873643 Z M58.250104,13.1681189 C58.0477547,13.16666 57.8836593,13.0033967 57.8807104,12.8005985 C57.8785139,12.649521 57.9674751,12.5120415 58.1059985,12.4524413 C58.244522,12.3928411 58.4052356,12.422897 58.5129947,12.5285558 C58.6207538,12.6342147 58.6542653,12.7945984 58.5978602,12.9347165 C58.5414551,13.0748346 58.4062791,13.167 58.2555362,13.1681189 L58.250104,13.1681189 Z M7.20045816,12.2180106 C6.91254848,12.1581184 6.79032267,11.9457733 6.83921299,11.7552072 C6.85867041,11.654941 6.91802211,11.5669382 7.00359724,11.5114689 C7.08917237,11.4559997 7.19359274,11.4378466 7.29280655,11.4611909 C7.38842027,11.4843775 7.4708573,11.5448319 7.52184391,11.6291532 C7.57283052,11.7134745 7.58815466,11.8146969 7.56441945,11.9103825 C7.52706333,12.0800728 7.37920123,12.2024517 7.20589042,12.2071212 L7.20045816,12.2180106 Z M58.2229427,11.7742638 C58.0220475,11.7758314 57.8567358,11.6161867 57.850833,11.4149106 C57.8433893,11.3115247 57.8782789,11.2095596 57.9474612,11.1325137 C58.0166435,11.0554678 58.1141502,11.0099877 58.2175104,11.0065546 C58.4290212,11.0020441 58.6041327,11.1702451 58.608633,11.3822421 C58.6131332,11.5942391 58.445318,11.7697532 58.2338072,11.7742638 L58.2229427,11.7742638 Z M7.65948397,10.8894926 C7.52828149,10.8924114 7.40538459,10.8253396 7.33663596,10.7132963 C7.26788733,10.6012529 7.26361023,10.4610623 7.32540009,10.3450179 C7.36583549,10.2506649 7.4425466,10.1766581 7.538158,10.1397605 C7.6337694,10.102863 7.74019043,10.1061968 7.83331623,10.1490071 C8.01645017,10.2404331 8.09260706,10.4621593 8.00443236,10.6472013 C7.94806591,10.789782 7.81243368,10.8850498 7.65948397,10.8894926 L7.65948397,10.8894926 Z M58.2120782,10.3667969 C58.0086705,10.3668186 57.8429379,10.2031301 57.8399685,9.99927654 C57.8340279,9.89613795 57.8704175,9.79504913 57.9406915,9.71947231 C58.0109654,9.64389549 58.1090132,9.60040244 58.2120782,9.59908769 C58.4160886,9.59908769 58.5814717,9.76485101 58.5814717,9.96933043 C58.5866294,10.0710861 58.5506297,10.1706271 58.4816167,10.2454349 C58.4126037,10.3202428 58.3164091,10.3639961 58.2147943,10.3667969 L58.2120782,10.3667969 Z M8.42000011,9.74337653 C8.32598025,9.74375944 8.23545904,9.70766283 8.16740011,9.64264566 C8.0949954,9.57571211 8.05226016,9.48256688 8.04869001,9.38390651 C8.04511987,9.28524614 8.08101052,9.18924264 8.1483872,9.11722764 C8.23314928,9.00811645 8.37118613,8.95496763 8.50703087,8.97913781 C8.64287561,9.00330799 8.75422731,9.10082928 8.7963419,9.23251501 C8.83845649,9.36420074 8.80442022,9.50843276 8.70790979,9.60725481 C8.63575035,9.69177237 8.53096518,9.74131297 8.42000011,9.74337653 L8.42000011,9.74337653 Z M58.209362,8.98383136 C58.1109204,8.98383136 58.0165497,8.94445294 57.9471963,8.87442904 C57.877843,8.80440514 57.8392447,8.70953156 57.8399685,8.61086624 C57.834793,8.50890772 57.8712388,8.40922863 57.9409195,8.33476591 C58.0106003,8.26030318 58.1075147,8.21746983 58.209362,8.21612213 C58.4148725,8.21612213 58.5814717,8.3831043 58.5814717,8.58908725 C58.5858874,8.69130836 58.5488157,8.79096506 58.4787086,8.86533655 C58.4086016,8.93970804 58.311435,8.98245494 58.209362,8.98383136 Z M9.52274851,8.91304966 C9.35299679,8.91029752 9.20662657,8.79273349 9.16695753,8.62727961 C9.12728849,8.46182573 9.20437998,8.29043814 9.35434851,8.21067739 C9.44294747,8.1595314 9.54845439,8.14658911 9.64674448,8.17480985 C9.74503456,8.20303059 9.82770233,8.27000101 9.87584529,8.36040791 C9.9690086,8.54313478 9.89739998,8.76696999 9.71559367,8.86132457 C9.65594222,8.89202117 9.58980205,8.90789395 9.52274851,8.90760491 L9.52274851,8.91304966 Z M10.8292066,8.46113571 C10.6344818,8.4688711 10.4672563,8.32365788 10.4471546,8.12937415 C10.4270528,7.93509042 10.5609903,7.75857368 10.753155,7.72609497 C10.8507959,7.69964268 10.9549434,7.71356502 11.0422545,7.76474153 C11.1295656,7.81591804 11.1927382,7.90006862 11.217613,7.99833228 C11.2576282,8.19970854 11.1277205,8.3956264 10.9269872,8.43663436 C10.8950448,8.44597471 10.8623136,8.45235372 10.8292066,8.45569097 L10.8292066,8.46113571 Z M16.372826,8.33590655 C16.1803327,8.31937765 16.0324788,8.15794522 16.0324788,7.96430262 C16.0324788,7.77066001 16.1803327,7.60922759 16.372826,7.59269868 C16.4748081,7.5875234 16.5745326,7.62397338 16.6492507,7.6937338 C16.7239688,7.76349421 16.7673076,7.86061505 16.7693809,7.96294143 C16.7693809,8.16892438 16.6027817,8.33590655 16.3972712,8.33590655 L16.372826,8.33590655 Z M15.0147615,8.33590655 C14.9125702,8.3411106 14.8126985,8.30421459 14.7383225,8.23378054 C14.6639465,8.1633465 14.6215324,8.06549792 14.6209228,7.96294143 C14.6209228,7.75846201 14.7863059,7.59269868 14.9903163,7.59269868 C15.0922984,7.5875234 15.1920229,7.62397338 15.266741,7.6937338 C15.3414591,7.76349421 15.3847979,7.86061505 15.3868712,7.96294143 C15.3854473,8.06234184 15.3444905,8.1570593 15.2730944,8.22606377 C15.2016983,8.29506825 15.1057717,8.33264893 15.0066131,8.3304618 L15.0147615,8.33590655 Z M13.6268195,8.33590655 C13.5241123,8.34033168 13.4239936,8.30288756 13.3492835,8.23210886 C13.2745735,8.16133015 13.2316384,8.06324825 13.2302647,7.96021906 C13.2332341,7.75636554 13.3989667,7.59267696 13.6023744,7.59269868 C13.7048275,7.58825993 13.8046743,7.62578447 13.8789581,7.69664469 C13.9532419,7.76750492 13.995571,7.86560368 13.9962131,7.96838618 C13.9873916,8.16924861 13.819173,8.32572406 13.6186711,8.31957231 L13.6268195,8.33590655 Z M17.7689164,8.33590655 C17.576423,8.31937765 17.4285691,8.15794522 17.4285691,7.96430262 C17.4285691,7.77066001 17.576423,7.60922759 17.7689164,7.59269868 C17.9071945,7.57618372 18.0431,7.63843719 18.1211376,7.75403868 C18.1991752,7.86964017 18.2062827,8.01923989 18.1395577,8.14175067 C18.0728328,8.26426146 17.9434442,8.33917703 17.804226,8.33590655 L17.7689164,8.33590655 Z M12.2144324,8.33590655 C12.0092892,8.32702281 11.8488425,8.15543904 11.8532752,7.94968036 C11.8577079,7.74392169 12.0253946,7.57943952 12.2307292,7.57943952 C12.4360638,7.57943952 12.6037504,7.74392169 12.6081831,7.94968036 C12.6126159,8.15543904 12.4521692,8.32702281 12.247026,8.33590655 L12.2144324,8.33590655 Z M19.1595744,8.31957231 C18.9526354,8.31141758 18.7902597,8.13878128 18.7943285,7.93124633 C18.7983973,7.72371138 18.9674142,7.55760206 19.1745132,7.55760206 C19.3816121,7.55760206 19.550629,7.72371138 19.5546978,7.93124633 C19.5587666,8.13878128 19.3963909,8.31141758 19.1894519,8.31957231 L19.1595744,8.31957231 Z M20.5475164,8.27873671 C20.355023,8.26220781 20.2071692,8.10077539 20.2071692,7.90713278 C20.2071692,7.71349017 20.355023,7.55205775 20.5475164,7.53552885 C20.6488686,7.52805978 20.7489865,7.56156441 20.8255309,7.62856683 C20.9020753,7.69556926 20.9486763,7.79049374 20.9549358,7.89215973 C20.9625962,8.09717296 20.8036191,8.26989547 20.5991228,8.27873671 L20.5475164,8.27873671 Z M21.9354583,8.21884451 C21.7420014,8.20799413 21.5892275,8.0501632 21.584261,7.85602202 C21.5792944,7.66188084 21.7237975,7.4964099 21.9164454,7.47563664 C22.0182572,7.46583635 22.1197153,7.49755809 22.1979108,7.56363919 C22.2761063,7.62972029 22.3244453,7.72458845 22.3320132,7.82682277 C22.3397458,8.03132131 22.1827575,8.20440545 21.9789164,8.21612213 L21.9354583,8.21884451 Z M23.3234003,8.13445094 C23.1252156,8.12215576 22.9715781,7.95606042 22.9743143,7.75705884 C22.9770505,7.55805725 23.1351962,7.39626851 23.3336437,7.38945193 C23.5320912,7.38263535 23.7009166,7.53319278 23.717239,7.73153971 C23.7247137,7.82979586 23.6928006,7.92698493 23.6285662,8.00158626 C23.5643319,8.0761876 23.4730765,8.12204571 23.3750068,8.12900619 L23.3234003,8.13445094 Z M24.7086261,8.02011127 C24.513415,8.01552541 24.3549445,7.86048084 24.3456567,7.66498869 C24.3363689,7.46949654 24.4794233,7.30006062 24.6733164,7.2769034 C24.7744404,7.26226045 24.8771678,7.28932328 24.9580389,7.35191161 C25.03891,7.41449994 25.0910186,7.50726889 25.1024648,7.60903292 C25.1213789,7.81333159 24.9721031,7.99457727 24.768381,8.01466652 L24.7086261,8.02011127 Z M26.0884197,7.864936 C25.8979701,7.85706945 25.7442464,7.70622948 25.7323564,7.5155521 C25.7204664,7.32487473 25.8542553,7.15602391 26.0422455,7.1244505 C26.1432778,7.10725363 26.2469584,7.13165757 26.3297925,7.1921322 C26.4126266,7.25260683 26.4676011,7.34403218 26.4822584,7.44569053 C26.4945184,7.54359035 26.4672838,7.64234536 26.4065996,7.7200361 C26.3459155,7.79772685 26.2568021,7.84792593 26.159039,7.85949125 L26.0884197,7.864936 Z M27.462781,7.65803564 C27.2744536,7.65223547 27.120172,7.50626104 27.1035507,7.31814782 C27.0869294,7.1300346 27.2132146,6.9591558 27.3975939,6.92027252 C27.4975298,6.89694668 27.6026334,6.91539575 27.6887128,6.97137327 C27.7747922,7.02735078 27.8344315,7.11603425 27.8539036,7.21701119 C27.8711869,7.31457485 27.8487303,7.41501106 27.7915579,7.4958505 C27.7343854,7.57668995 27.6472686,7.63118571 27.5496971,7.64714615 L27.462781,7.65803564 Z M58.1849169,7.614478 C57.9881066,7.61473913 57.8256531,7.46029302 57.8155233,7.26329153 C57.8057455,7.16124572 57.8373945,7.05955442 57.903324,6.98117916 C57.9692536,6.9028039 58.0639041,6.8543537 58.165904,6.84676844 C58.3774148,6.83549203 58.5579985,6.99820823 58.5692491,7.21020526 C58.5804997,7.42220229 58.4181567,7.60320121 58.2066459,7.614478 L58.1849169,7.614478 Z M28.8126971,7.35040747 C28.6087183,7.34949218 28.4396909,7.19160915 28.4244228,6.98773284 C28.4091546,6.78385653 28.552773,6.60245192 28.7543299,6.57102654 C28.9558868,6.53960117 29.1476961,6.66870819 29.194937,6.86759953 C29.2421779,7.06649087 29.1289861,7.26837558 28.934923,7.33135086 C28.8950378,7.34234677 28.8540301,7.34874041 28.8126971,7.35040747 Z M30.1273036,6.89849353 C29.9526056,6.89997924 29.8007572,6.77859354 29.7633451,6.60754976 C29.7259331,6.43650597 29.8131888,6.26258079 29.9724843,6.19067652 C30.1554936,6.09896148 30.3780312,6.17331121 30.4695359,6.35674128 C30.5610406,6.54017135 30.4868614,6.76322053 30.303852,6.85493556 C30.2478728,6.87765757 30.187625,6.88787679 30.1273036,6.88488167 L30.1273036,6.89849353 Z M58.0056524,6.22334499 C57.8345054,6.22281531 57.6861341,6.10452142 57.6471233,5.93749582 C57.6190514,5.83888492 57.6321109,5.7330771 57.683312,5.64429563 C57.7345131,5.55551416 57.8194711,5.49136176 57.9187362,5.46652526 C58.1165238,5.43690631 58.3037507,5.56480616 58.3485629,5.76015177 C58.3933751,5.95549737 58.2806842,6.15251494 58.0898524,6.2124555 C58.0617956,6.21546647 58.0334572,6.21455023 58.0056524,6.20973313 L58.0056524,6.22334499 Z M31.1920262,6.05455786 C31.0374179,6.04882779 30.9016873,5.94978111 30.8487612,5.80406723 C30.7958352,5.65835335 30.8362669,5.49502667 30.9510137,5.39101144 C31.0657605,5.28699622 31.2319425,5.26303242 31.3712907,5.33040661 C31.4594377,5.37415817 31.5263507,5.4515718 31.5569959,5.54525429 C31.587641,5.63893678 31.5794483,5.74103185 31.5342585,5.82860089 C31.469479,5.95860497 31.3370089,6.04079881 31.1920262,6.04094599 L31.1920262,6.05455786 Z M57.4651427,4.9656086 C57.2861629,4.97721285 57.123741,4.861006 57.0765391,4.68757711 C57.0293371,4.51414822 57.1103849,4.33137143 57.2704505,4.25027326 C57.4305162,4.16917509 57.6254144,4.21214225 57.7367556,4.35307465 C57.8034298,4.4326322 57.8342549,4.53631305 57.821904,4.63947348 C57.8095532,4.74263392 57.7551294,4.83606138 57.6715685,4.89754928 C57.6084469,4.93187112 57.5367127,4.94700776 57.4651427,4.94110725 L57.4651427,4.9656086 Z M31.7298198,4.84582419 C31.6247851,4.84328037 31.525885,4.7956992 31.4582069,4.71515028 C31.3248801,4.55872485 31.3431097,4.32363199 31.4989488,4.18973226 C31.5747441,4.12106309 31.6747729,4.08559654 31.7767891,4.09122032 C31.8788052,4.09684411 31.9743501,4.14309195 32.0421746,4.21967836 C32.171996,4.37874215 32.1502134,4.61283765 31.9932843,4.74509638 C31.9173011,4.80109962 31.8238909,4.82812539 31.7298198,4.82132283 L31.7298198,4.84582419 Z M32.9575101,4.21695599 C32.7989775,4.21816827 32.6576219,4.11712474 32.6071295,3.96649766 C32.5525197,3.82076743 32.5911301,3.65640967 32.7048752,3.55041088 C32.8186204,3.44441209 32.9849742,3.41776422 33.1260153,3.48294934 C33.2670564,3.54813446 33.354853,3.69224335 33.3482805,3.84777424 C33.341708,4.00330513 33.242068,4.13945677 33.0960327,4.19245463 C33.050188,4.20027418 33.0033548,4.20027418 32.9575101,4.19245463 L32.9575101,4.21695599 Z M56.4058523,4.09989395 C56.3484192,4.10027241 56.2916892,4.08722248 56.2401685,4.06178072 C56.1471892,4.02078782 56.0746127,3.9439717 56.0388346,3.8486858 C56.0030566,3.75339989 56.0070957,3.64768366 56.0500394,3.55541932 C56.1402008,3.37066346 56.3625672,3.29393511 56.5470911,3.38390981 C56.6414857,3.42483163 56.7151388,3.50257988 56.7510256,3.599183 C56.7869123,3.69578613 56.7819263,3.80288222 56.7372201,3.89571596 C56.6699389,4.01495034 56.542473,4.08720743 56.4058523,4.08355971 L56.4058523,4.09989395 Z M34.301994,3.86849223 C34.1123141,3.86644417 33.9545319,3.72171487 33.9357259,3.53252457 C33.9169199,3.34333427 34.0431104,3.17024745 34.2286585,3.13072911 C34.3281527,3.10634671 34.4332533,3.12322489 34.5201669,3.17754265 C34.6070805,3.2318604 34.6684566,3.319024 34.6904004,3.41930066 C34.7286109,3.62061059 34.5976225,3.81511367 34.3970585,3.85488036 C34.3650437,3.8551915 34.3331133,3.85153392 34.301994,3.84399087 L34.301994,3.86849223 Z M55.0966781,3.6588695 C54.7979039,3.60169966 54.6702459,3.40296642 54.7137039,3.20151081 C54.7619896,3.00584565 54.957564,2.88484318 55.1537168,2.9292735 C55.2539945,2.94636823 55.3430345,3.00357705 55.4003995,3.0877688 C55.4577644,3.17196054 55.4785276,3.27590462 55.4579233,3.37574269 C55.4076191,3.53238872 55.2608318,3.63747785 55.0966781,3.63436814 L55.0966781,3.6588695 Z M35.6817876,3.63981289 C35.4957188,3.63927003 35.3377883,3.50292957 35.3096779,3.31857286 C35.2805738,3.11638627 35.4203502,2.92877712 35.6220327,2.89932739 C35.8295392,2.86657216 36.0246417,3.00746608 36.0593295,3.21512268 C36.0740594,3.31233856 36.0493074,3.41141637 35.9906078,3.49020342 C35.9319083,3.56899046 35.8441572,3.62091531 35.7469747,3.63436814 L35.6817876,3.63981289 Z M37.0534327,3.48463762 C36.8494223,3.49441053 36.6761348,3.33656972 36.6663843,3.1320903 C36.6566338,2.92761087 36.8141126,2.75392504 37.0181231,2.74415212 C37.1552516,2.71560761 37.2967565,2.76665471 37.384283,2.87624227 C37.4718095,2.98582984 37.490531,3.13539423 37.432727,3.26325706 C37.374923,3.39111989 37.2503852,3.47562178 37.1104714,3.48191524 L37.0534327,3.48463762 Z M53.7277491,3.43835727 C53.6194185,3.44009223 53.5152885,3.3963964 53.4405038,3.3178212 C53.3657191,3.239246 53.3270777,3.13293392 53.3339104,3.02455656 C53.3566603,2.8202143 53.5401148,2.67286981 53.7440459,2.69514941 C53.9365964,2.71540449 54.0814793,2.88026598 54.0772253,3.0742723 C54.0729712,3.26827861 53.9210015,3.42660087 53.7277491,3.43835727 L53.7277491,3.43835727 Z M38.4495231,3.37574269 C38.2531252,3.37770403 38.0890238,3.22633608 38.0746973,3.0300013 C38.0656874,2.93229364 38.0963293,2.83506776 38.1597038,2.76027788 C38.2230782,2.68548799 38.313841,2.63944108 38.4114973,2.63253483 C38.5124404,2.62269985 38.6131208,2.65368923 38.6911583,2.71861433 C38.7691957,2.78353943 38.8181233,2.87701999 38.827065,2.97827621 C38.8345417,3.07581065 38.8029156,3.17230832 38.7391903,3.24639961 C38.675465,3.3204909 38.5848992,3.36606172 38.4875489,3.37302032 L38.4495231,3.37574269 Z M52.3452394,3.32673998 C52.2396555,3.33059209 52.1372325,3.29024143 52.062524,3.21536117 C51.9878155,3.14048091 51.9475574,3.03782246 51.9514007,2.93199587 C51.956997,2.83373938 52.0013934,2.74175925 52.074782,2.67637491 C52.1481707,2.61099056 52.2445121,2.57758293 52.3425233,2.58353211 C52.4825561,2.57150785 52.6174006,2.63958873 52.6911119,2.75952908 C52.7648232,2.87946944 52.7648232,3.03080265 52.6911119,3.150743 C52.6174006,3.27068336 52.4825561,3.33876423 52.3425233,3.32673998 L52.3452394,3.32673998 Z M39.8238844,3.29951624 C39.631391,3.28298734 39.4835372,3.12155492 39.4835372,2.92791231 C39.4835372,2.7342697 39.631391,2.57283728 39.8238844,2.55630838 C39.9252441,2.54806286 40.0256758,2.58085362 40.1027426,2.64735507 C40.1798095,2.71385652 40.2270894,2.80852704 40.2340199,2.91021689 C40.2417525,3.11471542 40.0847642,3.28779956 39.8809231,3.29951624 L39.8238844,3.29951624 Z M50.9600136,3.27501489 C50.8568399,3.27945286 50.7563025,3.24164108 50.6815096,3.17027041 C50.6067167,3.09889975 50.5641014,3.00010907 50.5634587,2.89660502 C50.5678902,2.69381846 50.7331984,2.53175838 50.9355684,2.53180702 C51.0389648,2.527326 51.1396632,2.56558411 51.2141162,2.63763503 C51.2885692,2.70968595 51.3302483,2.80921178 51.3294071,2.91293926 C51.3112424,3.10394933 51.1514485,3.2499787 50.9600136,3.25051353 L50.9600136,3.27501489 Z M49.5720716,3.25051353 C49.4691597,3.25571647 49.3685976,3.21853304 49.2937126,3.1475886 C49.2188275,3.07664416 49.1761272,2.9781039 49.1755168,2.87482603 C49.1784862,2.67097252 49.3442188,2.50728393 49.5476264,2.50730566 C49.6505494,2.50284853 49.7508197,2.54074013 49.8251875,2.61219457 C49.8995553,2.68364901 49.9415612,2.78245972 49.9414653,2.88571553 C49.9258647,3.07841683 49.7649618,3.22664552 49.5720716,3.22601217 L49.5720716,3.25051353 Z M41.2145425,3.25051353 C41.0220491,3.23398462 40.8741952,3.0725522 40.8741952,2.87890959 C40.8741952,2.68526699 41.0220491,2.52383456 41.2145425,2.50730566 C41.3163348,2.50061558 41.4165405,2.53519948 41.4926434,2.60328641 C41.5687463,2.67137334 41.6143638,2.76725296 41.6192457,2.86938129 C41.6221653,2.96804753 41.5856549,3.06379739 41.5178246,3.13536181 C41.4499944,3.20692623 41.3564607,3.24837949 41.2580005,3.25051353 L41.2145425,3.25051353 Z M48.1814135,3.22873454 C48.0301755,3.22869819 47.8940038,3.13691902 47.8369185,2.99654626 C47.7798332,2.8561735 47.8131915,2.69513437 47.9213102,2.58914013 C48.0294289,2.48314588 48.1907978,2.45328412 48.3295505,2.51359411 C48.4683033,2.5739041 48.556835,2.71238714 48.5535232,2.86393654 C48.536582,3.05706444 48.3748404,3.20497821 48.1814135,3.20423318 L48.1814135,3.22873454 Z M42.6024844,3.22873454 C42.3973412,3.2198508 42.2368945,3.04826703 42.2413272,2.84250835 C42.24576,2.63674968 42.4134466,2.47226751 42.6187812,2.47226751 C42.8241158,2.47226751 42.9918024,2.63674968 42.9962352,2.84250835 C43.0006679,3.04826703 42.8402212,3.2198508 42.635078,3.22873454 L42.6024844,3.22873454 Z M46.7934716,3.22873454 C46.6912803,3.2339386 46.5914086,3.19704258 46.5170326,3.12660853 C46.4426566,3.05617449 46.4002425,2.95832592 46.3996329,2.85576942 C46.3996329,2.65129 46.565016,2.48552668 46.7690264,2.48552668 C46.8722001,2.4810887 46.9727375,2.51890048 47.0475304,2.59027115 C47.1223233,2.66164181 47.1649386,2.76043249 47.1655813,2.86393654 C47.1409078,3.05058351 46.9813109,3.18953016 46.7934716,3.18789895 L46.7934716,3.22873454 Z M43.9931425,3.22873454 C43.8531096,3.2407588 43.7182651,3.17267792 43.6445538,3.05273757 C43.5708425,2.93279721 43.5708425,2.781464 43.6445538,2.66152365 C43.7182651,2.54158329 43.8531096,2.47350242 43.9931425,2.48552668 C44.0951246,2.48035139 44.1948491,2.51680138 44.2695672,2.58656179 C44.3442853,2.65632221 44.3876241,2.75344304 44.3896973,2.85576942 C44.3896973,3.06175237 44.2230982,3.22873454 44.0175877,3.22873454 L43.9931425,3.22873454 Z M45.4055296,3.22873454 C45.3035475,3.23390983 45.203823,3.19745984 45.1291049,3.12769943 C45.0543868,3.05793901 45.011048,2.96081818 45.0089748,2.8584918 C45.0089748,2.65250885 45.175574,2.48552668 45.3810845,2.48552668 C45.4835376,2.48108792 45.5833844,2.51861246 45.6576682,2.58947269 C45.731952,2.66033291 45.7742811,2.75843167 45.7749232,2.86121417 C45.7501595,3.04589444 45.5914182,3.18277258 45.4055296,3.17973183 L45.4055296,3.22873454 Z" id="Shape" fill="#FFE380" fill-rule="nonzero"></path>
                <g id="Group">
                    <path d="M4.97051619,17.0366111 L53.4697168,17.0366111 C55.0572372,17.0381136 56.3434135,18.3284336 56.3434135,19.9196043 L56.3434135,30.8635443 C56.3469943,31.6297953 56.0458298,32.3659052 55.5065211,32.9090083 C54.9672124,33.4521114 54.2342189,33.7574269 53.4697168,33.7574269 L4.97051619,33.7574269 C3.38343508,33.7574269 2.09681953,32.4678858 2.09681953,30.8771561 L2.09681953,19.9332161 C2.09324058,19.1667146 2.39431909,18.430326 2.9335492,17.8867913 C3.47277932,17.3432565 4.20576458,17.0373264 4.97051619,17.0366111 L4.97051619,17.0366111 Z" id="Path" fill="#F5F5F5"></path>
                    <path d="M22.1989229,29.7691503 C22.1416391,29.4409416 22.110757,29.1086505 22.1065745,28.7754841 L5.93202588,28.7754841 C5.56812685,28.7364365 5.213918,28.9090274 5.01977922,29.2199831 C4.82564043,29.5309387 4.82564043,29.9256906 5.01977922,30.2366463 C5.213918,30.5476019 5.56812685,30.7201928 5.93202588,30.6811453 L22.2288003,30.6811453 C22.2455245,30.3768568 22.2355269,30.0716837 22.1989229,29.7691503 L22.1989229,29.7691503 Z" id="Path" fill="#FFCE1E"></path>
                    <path d="M25.37951,28.7754841 L22.1065745,28.7754841 C22.110757,29.1086505 22.1416391,29.4409416 22.1989229,29.7691503 C22.2351009,30.0744629 22.2441902,30.38239 22.2260842,30.6893124 L25.37951,30.6893124 C25.865366,30.6371785 26.2338141,30.2262374 26.2338141,29.7364818 C26.2338141,29.2467262 25.865366,28.8357851 25.37951,28.7836512 L25.37951,28.7754841 Z" id="Path" fill="#FFE380"></path>
                    <path d="M5.94832266,22.6310879 C5.46246665,22.6832218 5.09401855,23.0941629 5.09401855,23.5839185 C5.09401855,24.0736741 5.46246665,24.4846152 5.94832266,24.5367491 L9.91930335,24.5367491 C9.89757432,23.8969914 9.88127755,23.2599561 9.83510335,22.6310879 L5.94832266,22.6310879 Z" id="Path" fill="#FFCE1E"></path>
                    <path d="M25.37951,22.6310879 L9.83510335,22.6310879 C9.88127755,23.2681232 9.89757432,23.9051585 9.91930335,24.5367491 L25.37951,24.5367491 C25.865366,24.4846152 26.2338141,24.0736741 26.2338141,23.5839185 C26.2338141,23.0941629 25.865366,22.6832218 25.37951,22.6310879 L25.37951,22.6310879 Z" id="Path" fill="#FFE380"></path>
                    <path d="M5.93474201,25.7073695 C5.56539108,25.6587952 5.20140178,25.829045 5.0012941,26.1439737 C4.80118643,26.4589025 4.80118643,26.8614978 5.0012941,27.1764266 C5.20140178,27.4913553 5.56539108,27.6616051 5.93474201,27.6130307 L16.9160518,27.6130307 C16.8019744,26.9787178 16.7911099,26.330793 16.666168,25.7073695 L5.93474201,25.7073695 Z" id="Path" fill="#FFCE1E"></path>
                    <path d="M25.3659294,25.7073695 L16.6743163,25.7073695 C16.7992583,26.3444049 16.8101228,26.9923297 16.9242002,27.6130307 L25.3740777,27.6130307 C25.8512981,27.5502702 26.2081362,27.1426174 26.2081362,26.6602001 C26.2081362,26.1777828 25.8512981,25.7701301 25.3740777,25.7073695 L25.3659294,25.7073695 Z" id="Path" fill="#FFE380"></path>
                    <path d="M21.9816325,27.9587721 C22.9551823,27.9587721 23.7444003,28.7498045 23.7444003,29.7255923 C23.7444003,30.7013801 22.9551823,31.4924125 21.9816325,31.4924125 C21.0080828,31.4924125 20.2188648,30.7013801 20.2188648,29.7255923 C20.2203604,28.7504261 21.008703,27.9602712 21.9816325,27.9587721 Z" id="Path" fill="#FFBF1E"></path>
                    <path d="M9.57163883,21.8170983 C10.2835133,21.8170983 10.925292,22.246907 11.1977145,22.9061051 C11.4701371,23.5653033 11.3195545,24.3240732 10.8161833,24.8286016 C10.312812,25.3331301 9.55578245,25.4840588 8.89809623,25.21101 C8.24041001,24.9379612 7.8115872,24.2947071 7.8115872,23.5811961 C7.8115872,22.6069118 8.59958916,21.8170983 9.57163883,21.8170983 L9.57163883,21.8170983 Z" id="Path" fill="#FFBF1E"></path>
                    <path d="M16.2750454,24.4795793 C17.1632823,24.4718566 17.9683512,25.0022034 18.3136169,25.8225076 C18.6588826,26.6428118 18.4760737,27.5908699 17.8507136,28.223152 C17.2253536,28.8554342 16.2810984,29.0469157 15.4596989,28.7080156 C14.6382994,28.3691156 14.1021755,27.5668468 14.1021421,26.6765344 C14.0970706,26.095625 14.32376,25.5367598 14.7318094,25.1241937 C15.1398588,24.7116276 15.6954462,24.479557 16.2750454,24.4795793 Z" id="Path" fill="#FFBF1E"></path>
                    <path d="M53.431691,33.3599604 L4.93520652,33.3599604 C3.19679717,33.3584622 1.78749083,31.9471338 1.7844968,30.20473 L1.7844968,19.2580676 C1.7859944,17.5146005 3.19573829,16.1016158 4.93520652,16.1001147 L53.431691,16.1001147 C55.1711592,16.1016158 56.5809031,17.5146005 56.5824007,19.2580676 L56.5824007,30.2183418 C56.5719518,31.9554266 55.1648225,33.3584958 53.431691,33.3599604 Z M4.93520652,16.6527565 C3.50025372,16.654257 2.33736808,17.819816 2.335871,19.2580676 L2.335871,30.2183418 C2.33736808,31.6565934 3.50025372,32.8221524 4.93520652,32.8236529 L53.431691,32.8236529 C54.8666438,32.8221524 56.0295294,31.6565934 56.0310265,30.2183418 L56.0310265,19.2580676 C56.0295294,17.819816 54.8666438,16.654257 53.431691,16.6527565 L4.93520652,16.6527565 Z" id="Shape" fill="#FFBF1E" fill-rule="nonzero"></path>
                    <rect id="Rectangle" fill="#FFCE1E" fill-rule="nonzero" x="0.108645163" y="20.1210599" width="43.2299102" height="1"></rect>
                    <path d="M40.6088457,7.77237531 L66.4962718,7.77237531 C68.0837929,7.77237531 69.3711534,9.0614762 69.3726525,10.6526461 L69.3726525,23.6628673 C69.3711534,25.2540372 68.0837929,26.5431381 66.4962718,26.5431381 L40.6088457,26.5431381 C39.0213246,26.5431381 37.7339641,25.2540372 37.732465,23.6628673 L37.732465,10.6526461 C37.7339641,9.0614762 39.0213246,7.77237531 40.6088457,7.77237531 L40.6088457,7.77237531 Z" id="Path" fill="#FFCE1E"></path>
                    <path d="M58.0273814,12.4766361 L64.6981944,12.4766361 C66.2857155,12.4766361 67.573076,13.765737 67.5745751,15.3569069 L67.5745751,21.9586617 C67.573076,23.5498316 66.2857155,24.8389325 64.6981944,24.8389325 L58.0273814,24.8389325 C56.4403003,24.8389325 55.1537168,23.5493914 55.1537168,21.9586617 L55.1537168,15.3569069 C55.1537168,13.7661772 56.4403003,12.4766361 58.0273814,12.4766361 L58.0273814,12.4766361 Z" id="Path" fill="#FFE380"></path>
                    <path d="M66.9878912,26.352572 L41.0977489,26.352572 C39.3593415,26.3495711 37.9512501,24.9370249 37.9497553,23.1946191 L37.9497553,10.1843979 C37.9512501,8.44199216 39.3593415,7.02944599 41.0977489,7.02644507 L66.9878912,7.02644507 C68.7273594,7.02794612 70.1371033,8.44093085 70.1386009,10.1843979 L70.1386009,23.1946191 C70.1371033,24.9380862 68.7273594,26.3510709 66.9878912,26.352572 Z M41.0977489,7.56819733 C39.6632364,7.56969974 38.5011295,8.73569732 38.5011295,10.1735084 L38.5011295,23.1946191 C38.5011295,24.6324302 39.6632364,25.7984278 41.0977489,25.7999302 L66.9878912,25.7999302 C68.422844,25.7984297 69.5857296,24.6328707 69.5872267,23.1946191 L69.5872267,10.1843979 C69.5857296,8.74614632 68.422844,7.58058734 66.9878912,7.57908682 L41.0977489,7.56819733 Z" id="Shape" fill="#FFBF1E" fill-rule="nonzero"></path>
                    <path d="M16.6281421,30.5994741 C16.1607195,29.6700118 15.7418693,28.7167998 15.3732905,27.7437047 C15.1016776,26.8698229 15.3732905,25.1275041 16.4597421,25.8924909 C17.5461938,26.6574778 19.3198261,29.8943794 19.6267486,32.3145692 C19.9173745,34.5877507 19.5615615,38.4017955 19.4909422,41.4590205 C19.4548639,43.003996 19.5156438,44.5497175 19.6729228,46.0870549 C19.6729228,46.0870549 22.0142261,46.234063 23.9834197,45.5153565 C25.9526132,44.79665 29.8421101,42.4962447 29.8421101,42.4962447 C29.8421101,42.4962447 28.4405875,39.0116071 30.6162068,37.4898005 C33.3323359,35.5841393 35.7469747,35.5487484 35.7469747,35.5487484 L35.586723,33.6730334 C35.586723,33.6730334 33.0688714,33.4144079 32.3273682,31.7074799 C31.5858649,30.000552 32.0992133,29.1702282 32.0992133,29.1702282 C31.8723096,28.8655126 31.680936,28.535776 31.5288262,28.1874515 C31.2979552,27.6429768 32.072052,27.8607667 32.4631746,27.5014134 C32.811873,27.1098504 33.1035759,26.6708319 33.3296198,26.1973967 C33.3296198,26.1973967 30.8851036,22.8924357 34.1281617,20.8724349 C37.3712198,18.852434 47.7576974,17.6763688 49.1537877,22.2662899 C50.5498781,26.856211 48.3226522,34.3318477 50.0202329,36.5070238 C51.7178136,38.6821999 51.8672007,38.5869169 51.8672007,38.5869169 C51.8672007,38.5869169 52.0681942,31.0786118 52.3914136,29.3063468 C52.7146329,27.5340819 52.6331491,25.3670729 54.420362,24.9859407 C56.2075749,24.6048084 58.861233,23.959606 59.7113814,23.8969914 C60.5615298,23.8343768 61.8082331,24.0467219 61.3980976,24.6510888 C61.1378954,25.0514616 60.9451924,25.4920184 60.8277105,25.9551055 C61.7013329,25.9569454 62.5726749,25.8656868 63.427046,25.6828682 C64.4809041,25.4106309 65.6135299,24.667423 65.8715621,25.2472885 C66.0304313,25.5478326 66.0304313,25.9077421 65.8715621,26.2082862 C65.8715621,26.2082862 67.5800073,25.8162645 67.1019686,26.5730842 C66.8036596,27.0419296 66.4685128,27.4861778 66.099717,27.9016023 C66.099717,27.9016023 66.2735492,28.7373709 65.1653686,29.249177 C64.0571879,29.7609832 61.4741492,30.1911181 60.376833,30.3680724 C59.6052489,30.5070069 58.8439061,30.6980075 58.0980007,30.9397707 L59.0540782,41.6849775 C59.0540782,41.6849775 65.385375,44.1187791 64.1169428,49.4110725 C62.8485105,54.7033658 58.3940588,57.1371674 58.3940588,57.1371674 C58.3940588,57.1371674 56.6991943,61.3867919 53.6055233,61.299676 C51.6688249,61.1997953 49.811534,60.4964757 48.2927748,59.2878422 C48.2927748,59.2878422 46.4892651,60.0528291 45.076878,59.6308612 C43.6644909,59.2088934 43.1755877,58.6453622 43.1755877,58.6453622 L32.3110714,58.6453622 C31.6619049,58.2581037 31.0959568,57.7454511 30.6460843,57.1371674 C29.9996455,56.2061158 29.8040843,54.5781367 29.8040843,54.5781367 C29.8040843,54.5781367 24.643439,55.3295117 19.6566261,54.8748754 C14.6698131,54.420239 10.8455034,53.0154945 10.8345728,48.4282958 C10.8237743,43.841097 12.1573937,37.1821723 12.1573937,37.1821723 C12.1573937,37.1821723 10.3511679,35.6385868 11.1768711,34.3699609 C12.0025743,33.101335 12.2008518,33.2946235 12.2008518,33.2946235 C12.2008518,33.2946235 12.4344389,31.9987739 12.8391421,31.8082078 C13.1053207,31.6941043 13.3954103,31.6473589 13.6838582,31.6720891 C13.6838582,31.6720891 13.8413937,30.2537327 14.7703099,30.1856734 C15.4120691,30.1881084 16.0457548,30.3292511 16.6281421,30.5994741 Z" id="Path" fill="#FFFFFF"></path>
                    <path d="M15.2103228,1.08894926 L39.4218973,1.08894926 C41.0094184,1.08894926 42.2967789,2.37805014 42.298278,3.96922004 L42.298278,16.2362334 C42.2967789,17.8274033 41.0094184,19.1165042 39.4218973,19.1165042 L15.2103228,19.1165042 C13.6232417,19.1165042 12.3366582,17.826963 12.3366582,16.2362334 L12.3366582,3.95560817 C12.3441336,2.37019689 13.6285301,1.08894926 15.2103228,1.08894926 Z" id="Path" fill="#F5F5F5"></path>
                    <rect id="Rectangle" fill="#FFE380" fill-rule="nonzero" x="12.8255615" y="3.99099902" width="29.9616197" height="1"></rect>
                    <g transform="translate(23.630323, 7.078170)" fill="#FFBF1E" fill-rule="nonzero" id="Path">
                        <path d="M15.9708389,6.27507008 L0.543225813,6.27507008 C0.393218147,6.27507008 0.271612907,6.15318529 0.271612907,6.00283277 C0.271612907,5.85248025 0.393218147,5.73059546 0.543225813,5.73059546 L15.9654067,5.73059546 C16.1154143,5.73059546 16.2370196,5.85248025 16.2370196,6.00283277 C16.2370196,6.15318529 16.1154143,6.27507008 15.9654067,6.27507008 L15.9708389,6.27507008 Z"></path>
                        <path d="M1.72202583,8.60269912 C1.60205103,8.60811227 1.49277141,8.53391074 1.453293,8.42022788 C1.41381458,8.30654502 1.4535102,8.18037103 1.5509097,8.10994958 L2.14845809,7.6417014 L1.53732905,7.20884407 C1.41282269,7.12013609 1.38363743,6.94705967 1.47214195,6.82226709 C1.56064648,6.6974745 1.73332592,6.66822215 1.85783228,6.75693013 L2.76773552,7.40485494 C2.83939594,7.45592227 2.88195935,7.53859932 2.88195935,7.62672835 C2.88195935,7.71485737 2.83939594,7.79753443 2.76773552,7.84860176 L1.87956131,8.54552928 C1.834372,8.58074846 1.77923621,8.60075731 1.72202583,8.60269912 L1.72202583,8.60269912 Z"></path>
                        <path d="M15.9708389,7.97927567 L4.23716134,7.97927567 C4.08715368,7.97927567 3.96554844,7.85739087 3.96554844,7.70703836 C3.96554844,7.55668584 4.08715368,7.43480104 4.23716134,7.43480104 L15.9708389,7.43480104 C16.1208466,7.43480104 16.2424518,7.55668584 16.2424518,7.70703836 C16.2424518,7.85739087 16.1208466,7.97927567 15.9708389,7.97927567 Z"></path>
                        <path d="M15.9708389,2.57808736 L13.553484,2.57808736 C13.4034764,2.57808736 13.2818711,2.45620257 13.2818711,2.30585005 C13.2818711,2.15549753 13.4034764,2.03361273 13.553484,2.03361273 L15.9708389,2.03361273 C16.1208466,2.03361273 16.2424518,2.15549753 16.2424518,2.30585005 C16.2424518,2.45620257 16.1208466,2.57808736 15.9708389,2.57808736 Z"></path>
                        <path d="M7.44490977,4.47558144 L0.543225813,4.47558144 C0.393218147,4.47558144 0.271612907,4.35369664 0.271612907,4.20334413 C0.271612907,4.05299161 0.393218147,3.93110681 0.543225813,3.93110681 L7.43947752,3.93110681 C7.58948518,3.93110681 7.71109042,4.05299161 7.71109042,4.20334413 C7.71109042,4.35369664 7.58948518,4.47558144 7.43947752,4.47558144 L7.44490977,4.47558144 Z"></path>
                        <path d="M15.9708389,6.27507008 L0.543225813,6.27507008 C0.393218147,6.27507008 0.271612907,6.15318529 0.271612907,6.00283277 C0.271612907,5.85248025 0.393218147,5.73059546 0.543225813,5.73059546 L15.9654067,5.73059546 C16.1154143,5.73059546 16.2370196,5.85248025 16.2370196,6.00283277 C16.2370196,6.15318529 16.1154143,6.27507008 15.9654067,6.27507008 L15.9708389,6.27507008 Z"></path>
                        <path d="M15.9463938,0.620701076 L0.52421291,0.620701076 C0.374205244,0.620701076 0.252600003,0.498816279 0.252600003,0.348463762 C0.252600003,0.198111245 0.374205244,0.0762264479 0.52421291,0.0762264479 L15.9463938,0.0762264479 C16.0964014,0.0762264479 16.2180067,0.198111245 16.2180067,0.348463762 C16.2180067,0.498816279 16.0964014,0.620701076 15.9463938,0.620701076 Z"></path>
                        <path d="M11.9238066,2.57808736 L0.543225813,2.57808736 C0.393218147,2.57808736 0.271612907,2.45620257 0.271612907,2.30585005 C0.271612907,2.15549753 0.393218147,2.03361273 0.543225813,2.03361273 L11.9183743,2.03361273 C12.068382,2.03361273 12.1899873,2.15549753 12.1899873,2.30585005 C12.1899873,2.45620257 12.068382,2.57808736 11.9183743,2.57808736 L11.9238066,2.57808736 Z"></path>
                        <path d="M15.9708389,4.47558144 L9.57707109,4.47558144 C9.42706343,4.47558144 9.30545818,4.35369664 9.30545818,4.20334413 C9.30545818,4.05299161 9.42706343,3.93110681 9.57707109,3.93110681 L15.9708389,3.93110681 C16.1208466,3.93110681 16.2424518,4.05299161 16.2424518,4.20334413 C16.2424518,4.35369664 16.1208466,4.47558144 15.9708389,4.47558144 Z"></path>
                        <path d="M15.9708389,6.27507008 L0.543225813,6.27507008 C0.393218147,6.27507008 0.271612907,6.15318529 0.271612907,6.00283277 C0.271612907,5.85248025 0.393218147,5.73059546 0.543225813,5.73059546 L15.9654067,5.73059546 C16.1154143,5.73059546 16.2370196,5.85248025 16.2370196,6.00283277 C16.2370196,6.15318529 16.1154143,6.27507008 15.9654067,6.27507008 L15.9708389,6.27507008 Z"></path>
                    </g>
                    <g transform="translate(38.569033, 0.905661)" fill="#FFE380" fill-rule="nonzero" id="Rectangle">
                        <polygon transform="translate(1.018196, 1.908209) rotate(-45.000000) translate(-1.018196, -1.908209) " points="0.137475561 1.63321621 1.89955028 1.63119313 1.8989165 2.18320111 0.136841788 2.18522418"></polygon>
                        <polygon transform="translate(0.996462, 1.884500) rotate(-45.000000) translate(-0.996462, -1.884500) " points="0.721469838 1.00377278 1.27347781 1.003139 1.27145472 2.76522709 0.719446743 2.76586086"></polygon>
                    </g>
                    <path d="M17.423968,6.11445007 L20.034168,6.11445007 C21.6170159,6.11445007 22.9018483,7.39735599 22.9078338,8.98383136 L22.9078338,13.5220274 C22.9085541,14.2861442 22.6060257,15.0191726 22.0669525,15.559485 C21.5278794,16.0997974 20.7965322,16.4030214 20.034168,16.4022995 L17.423968,16.4022995 C15.8368869,16.4022995 14.5503034,15.112757 14.5503034,13.5220274 L14.5503034,8.98383136 C14.5562877,7.39735599 15.8411201,6.11445007 17.423968,6.11445007 L17.423968,6.11445007 Z" id="Path" fill="#FFE380"></path>
                    <path d="M68.563246,11.2297892 L41.0379941,11.2297892 C40.8513179,11.2135192 40.7080434,11.0568862 40.7080434,10.8690748 C40.7080434,10.6812633 40.8513179,10.5246303 41.0379941,10.5083603 L68.563246,10.5083603 C68.6992857,10.4965036 68.830369,10.5625454 68.9020357,10.6790478 C68.9737024,10.7955502 68.9737024,10.9425993 68.9020357,11.0591017 C68.830369,11.1756041 68.6992857,11.2416459 68.563246,11.2297892 L68.563246,11.2297892 Z" id="Path" fill="#FFE380" fill-rule="nonzero"></path>
                    <path d="M52.8450071,14.6599794 L41.9017231,14.6599794 C41.703713,14.6599794 41.5431941,14.4990914 41.5431941,14.3006261 C41.5431941,14.1021608 41.703713,13.9412728 41.9017231,13.9412728 L52.8450071,13.9412728 C53.0430173,13.9412728 53.2035362,14.1021608 53.2035362,14.3006261 C53.2035362,14.4990914 53.0430173,14.6599794 52.8450071,14.6599794 L52.8450071,14.6599794 Z" id="Path" fill="#FFE380" fill-rule="nonzero"></path>
                    <path d="M52.8694523,16.7262606 L41.9261683,16.7262606 C41.7901286,16.7381173 41.6590453,16.6720754 41.5873786,16.5555731 C41.515712,16.4390707 41.515712,16.2920215 41.5873786,16.1755192 C41.6590453,16.0590168 41.7901286,15.992975 41.9261683,16.0048317 L52.8694523,16.0048317 C53.0054919,15.992975 53.1365753,16.0590168 53.2082419,16.1755192 C53.2799086,16.2920215 53.2799086,16.4390707 53.2082419,16.5555731 C53.1365753,16.6720754 53.0054919,16.7381173 52.8694523,16.7262606 Z" id="Path" fill="#FFE380" fill-rule="nonzero"></path>
                    <path d="M52.8694523,18.9096038 L41.9261683,18.9096038 C41.7980782,18.9096038 41.679718,18.8411115 41.615673,18.7299272 C41.5516279,18.6187429 41.5516279,18.4817582 41.615673,18.3705739 C41.679718,18.2593896 41.7980782,18.1908973 41.9261683,18.1908973 L52.8694523,18.1908973 C53.0674624,18.1908973 53.2279813,18.3517852 53.2279813,18.5502506 C53.2279813,18.7487159 53.0674624,18.9096038 52.8694523,18.9096038 Z" id="Path" fill="#FFE380" fill-rule="nonzero"></path>
                    <polygon id="Rectangle" fill="#FFE380" fill-rule="nonzero" transform="translate(66.341611, 9.200205) rotate(-45.000000) translate(-66.341611, -9.200205) " points="65.4608903 8.92521283 67.222965 8.92318975 67.2223312 9.47519772 65.4602565 9.4772208"></polygon>
                    <polygon id="Rectangle" fill="#FFE380" fill-rule="nonzero" transform="translate(66.387485, 9.251184) rotate(-44.990000) translate(-66.387485, -9.251184) " points="66.1124925 8.37046367 66.6645003 8.3698299 66.6624772 10.1319053 66.1104695 10.1325391"></polygon>
                    <path d="M63.8507621,8.3005157 C64.3472875,8.3005157 64.7498008,8.70395438 64.7498008,9.20162121 C64.7498008,9.69928804 64.3472875,10.1027267 63.8507621,10.1027267 C63.3542367,10.1027267 62.9517234,9.69928804 62.9517234,9.20162121 C62.9517234,8.70395438 63.3542367,8.3005157 63.8507621,8.3005157 Z" id="Path" fill="#FFE380"></path>
                    <path d="M39.9270973,18.7054258 L15.699226,18.7054258 C13.9612579,18.7039248 12.55273,17.2921589 12.5512324,15.5501954 L12.5512324,3.28318201 C12.5527272,1.54077625 13.9608186,0.128230082 15.699226,0.125229164 L39.9270973,0.125229164 C41.6655047,0.128230082 43.0735961,1.54077625 43.0750909,3.28318201 L43.0750909,15.5501954 C43.0735933,17.2921589 41.6650654,18.7039248 39.9270973,18.7054258 L39.9270973,18.7054258 Z M15.7128067,0.677870912 C14.2782941,0.679373326 13.1161873,1.8453709 13.1161873,3.28318201 L13.1161873,15.5501954 C13.1176843,16.9869434 14.2793539,18.1512836 15.7128067,18.1527841 L39.9270973,18.1527841 C41.3609916,18.151287 42.5234401,16.9873837 42.5264328,15.5501954 L42.5264328,3.28318201 C42.5249357,1.84493042 41.3620501,0.679371436 39.9270973,0.677870912 L15.7128067,0.677870912 Z" id="Shape" fill="#FFBF1E" fill-rule="nonzero"></path>
                    <path d="M5.55720007,17.8288217 C6.05372545,17.8288217 6.45623879,18.2322604 6.45623879,18.7299272 C6.45623879,19.227594 6.05372545,19.6310327 5.55720007,19.6310327 C5.0606747,19.6310327 4.65816135,19.227594 4.65816135,18.7299272 C4.65816135,18.2322604 5.0606747,17.8288217 5.55720007,17.8288217 Z" id="Path" fill="#FFCE1E"></path>
                    <polygon id="Rectangle" fill="#FFCE1E" fill-rule="nonzero" transform="translate(8.067783, 18.752864) rotate(-44.980000) translate(-8.067783, -18.752864) " points="7.18706311 18.477871 8.94913641 18.4758479 8.94850264 19.0278564 7.18642934 19.0298794"></polygon>
                    <polygon id="Rectangle" fill="#FFCE1E" fill-rule="nonzero" transform="translate(8.041680, 18.722521) rotate(-45.000000) translate(-8.041680, -18.722521) " points="7.76668723 17.8418001 8.31869521 17.8411664 8.31667213 19.6032411 7.76466415 19.6038748"></polygon>
                    <path d="M30.8823875,41.7884277 C30.588946,41.1243148 30.5569271,40.3735447 30.7927552,39.6867556 C31.1702972,38.5978064 33.1041811,37.3564042 34.5084198,37.0133852 C38.2186521,36.1041126 38.237665,36.2783444 39.1258392,35.3200691 C39.6383615,34.7759312 39.929055,34.0591814 39.9406779,33.3109577 C39.9406779,33.3109577 40.7555167,33.3109577 40.9212005,32.1212807 C41.0868844,30.9316036 40.1063618,30.7600941 40.1063618,30.7600941 C40.1063618,30.7600941 37.6944392,29.8208754 36.3906972,27.6266426 C35.0869553,25.4324099 34.975594,23.6274765 34.975594,23.6274765 L33.7451875,25.5031916 C33.7451875,25.5031916 32.6234262,22.8679344 35.0679424,21.6918692 C37.5124585,20.515804 44.846007,19.0321106 47.4697877,21.8742682 C49.0255244,23.5214197 49.7915472,25.7641829 49.5693555,28.0213867 C49.5693555,28.0213867 47.7984393,36.9861615 52.168691,38.9680491 C56.5389427,40.9499368 63.4759363,42.6731989 64.0924976,47.5843601 C64.880175,53.8458183 58.1170137,57.1834478 58.1170137,57.1834478 C58.1170137,57.1834478 56.4547427,61.5256329 53.7386136,61.5394874 C50.0799877,61.5719133 47.7875748,58.294176 47.7875748,58.294176 C47.7875748,58.294176 44.3217941,59.110888 42.2928457,56.2387843 C40.2638973,53.3666806 39.3594263,49.860264 39.4191812,46.2503973 C39.478936,42.6405305 40.9918199,37.726647 40.9918199,37.726647 L40.4214328,37.2910673 L39.1013941,40.6749771 C37.6727478,40.6013749 36.2412725,40.6013749 34.8126263,40.6749771 C33.2345553,40.805651 30.8823875,41.7884277 30.8823875,41.7884277 Z" id="Path" fill="#FFCE1E"></path>
                    <path d="M20.3954132,47.3883492 C20.3954132,47.3883492 24.9449294,47.1868936 27.9408197,45.3765155 C30.9367101,43.5661373 32.6288585,42.4989671 34.7311424,42.177727 C36.1899251,41.9867469 37.6645752,41.9484273 39.1312715,42.0633874 C39.1312715,42.0633874 37.2136844,49.8003718 39.5196779,53.6498074 C41.8256715,57.4992431 43.3222586,58.884931 43.3222586,58.884931 L34.3373037,58.884931 C34.3373037,58.884931 32.4740391,58.1635021 31.6021617,56.4837979 C31.2276836,55.8107942 30.8930219,55.1162974 30.5999101,54.4039048 L21.6828583,54.9756032 C21.6828583,54.9756032 18.9884583,53.4619637 19.1514261,51.0444963 C19.3143938,48.627029 20.3954132,47.3883492 20.3954132,47.3883492 Z" id="Path" fill="#353535"></path>
                    <path d="M35.7524069,27.9179365 C35.9868898,28.0542198 36.0670799,28.3550149 35.9316714,28.5903627 L35.6600585,29.0477214 C35.5178699,29.2684771 35.2278721,29.3385675 35.0009265,29.207029 C34.773981,29.0754904 34.6899396,28.7886053 34.8099101,28.5549719 L35.081523,28.0976132 C35.1463105,27.9841816 35.2536251,27.9013925 35.379609,27.8676514 C35.5055929,27.8339103 35.6398047,27.8520136 35.7524069,27.9179365 L35.7524069,27.9179365 Z" id="Path" fill="#000000" fill-rule="nonzero"></path>
                    <g transform="translate(10.321290, 18.784375)" fill="#000000" fill-rule="nonzero">
                        <path d="M41.3367683,19.0729462 C41.4617102,15.7843195 41.5133167,12.7842643 41.8799941,9.71342736 C42.0565425,8.27329197 42.2928457,6.84949082 43.3657167,6.30501619 C44.2077167,5.87760361 45.5630651,5.94021819 46.6468006,5.68159274 C47.7305361,5.42296729 48.5725361,4.8948269 49.8301039,4.98466522 C50.8459361,5.05816929 52.0518974,5.69520461 51.4597813,6.76237488 C52.1711437,6.71441627 52.8766475,6.60142196 53.5674975,6.42480061 C54.5453039,6.17978702 56.3488136,5.50736086 56.2483169,7.07272541 C56.6312911,7.29323764 57.1066136,7.43752341 57.1582201,7.93844007 C57.239704,8.69253743 56.4302975,9.08455916 55.9848523,9.42485581 C56.2320201,9.88493687 55.7838588,10.2769586 55.4579233,10.600921 C54.7707426,11.286959 53.8689878,11.6272557 52.7417942,11.8504903 C51.1881684,12.1581184 49.517749,12.2289001 48.2656135,12.6427009 C48.5779684,16.0865029 48.9364974,19.4867469 49.2705813,22.9142147 C50.7952836,23.5113007 52.1052155,24.5548249 53.0297039,25.9088252 C54.0904656,27.4851917 54.494038,29.4148726 54.1541813,31.2855121 C53.5023104,34.925325 50.9247039,37.2447869 48.1786974,38.799262 C47.3421296,40.7049232 46.3425941,42.5234684 44.1045038,42.9971614 C41.4752909,43.5579702 39.4870844,42.199506 38.0719811,41.0288856 C37.0338863,41.4400093 35.8918471,41.5077353 34.8126263,41.2221741 C33.9136213,40.9305173 33.088098,40.4476228 32.3925553,39.80654 C30.9917004,38.5997724 29.871733,37.0999522 29.1114713,35.4126298 C28.2076563,33.4402283 27.7344592,31.2971285 27.7235294,29.1266702 C27.7014974,26.8206516 27.9753552,24.5213624 28.5383681,22.2853465 C26.7935628,22.1576149 25.0395577,22.3036587 23.3396971,22.7182038 C21.8458261,23.1047808 20.5936906,23.8071531 19.4148906,24.4931911 C17.0926002,25.8380435 15.0989615,27.264567 11.9428195,27.7600389 C11.7401592,27.772556 11.5391568,27.8044621 11.342555,27.855322 C11.1089679,27.9478826 10.7857485,28.3997966 10.6010517,28.6720339 C9.97634206,29.5540828 9.38422593,30.6757005 9.40323883,32.0804451 C9.43040012,34.0732222 10.5901872,35.0478318 11.7499743,35.8727108 C14.9377134,35.809088 18.1195187,35.5691542 21.2808712,35.1540043 C21.718168,35.0968345 22.51671,34.881767 22.4297938,35.537859 C22.3781874,35.9353254 21.6801422,35.9298807 21.3433422,35.9679939 C20.8299938,36.0278861 20.4470196,36.0578322 20.0015745,36.1122797 C20.4415874,38.1486148 21.4329745,39.5887502 23.3288326,40.3374028 C23.6221745,40.4517425 24.3338003,40.5933059 23.9752713,41.009829 C23.7226311,41.1338651 23.4401819,41.1838792 23.1604326,41.1541147 C22.7584455,41.105112 21.9843487,40.6096401 21.67471,40.4081845 C20.8074526,39.7748339 20.1354221,38.9097518 19.7353938,37.9117683 C19.4606424,37.3841839 19.3057435,36.8022099 19.2818002,36.2075627 C16.3619615,36.4471316 13.1677937,36.8282638 10.0605421,36.6649214 C6.95329041,36.501579 4.30506457,35.9053793 2.32500648,34.5768612 C1.23855485,33.85271 0.559522588,33.1122245 0.266180649,31.7210918 C-0.0271612907,30.3299591 0.176548389,28.70198 0.339516133,27.1611168 C0.647535266,24.3246333 1.11088154,21.5072644 1.72745809,18.7217601 C1.27404775,18.3614574 0.898802477,17.9121659 0.624709685,17.4014091 C0.122225808,16.2961256 0.562238717,14.7988204 1.58350325,14.474858 C1.5047355,13.5002484 1.96919357,12.672647 2.9714452,12.6263666 C3.29738069,12.0546683 3.75369037,11.3468512 4.60112264,11.2815143 C5.07420361,11.2811059 5.54028589,11.3960257 5.95918717,11.6163662 C5.61695491,10.5954763 4.10407102,9.02194458 4.90804522,7.36946409 C5.07259219,6.99530413 5.43239538,6.74507084 5.83967749,6.72153928 C6.63821944,6.72153928 7.21675493,7.60358818 7.56441945,8.13717331 C7.98358987,8.79663229 8.33659723,9.49606292 8.61827753,10.2252335 C9.26331951,11.8388813 9.67490203,13.5366661 9.84053561,15.2670686 C10.0360969,17.2407891 9.79707755,19.2934584 9.67213561,21.1936749 C9.52980809,23.1777611 9.56981308,25.1707621 9.79164529,27.1475049 C14.0505357,27.125726 16.581968,25.1765068 19.3469873,23.5703066 C18.9151228,22.7917079 18.4968389,21.7354271 18.8037615,20.7390386 C19.0536454,19.9059924 19.7544067,19.1845635 20.3139293,18.6754797 C21.5443358,17.5429725 23.0816648,16.6037538 25.2708648,16.5139155 C25.1595036,16.072891 25.0155487,15.664535 24.9096197,15.2180658 C23.0246261,15.1500065 21.8105164,14.0474454 21.5334712,12.1227276 C21.4519874,11.556474 21.3161809,10.3776864 21.8920003,10.3695193 C22.3510261,10.3695193 22.3157164,10.900382 22.2994196,11.352296 C22.3564584,11.5455845 22.8589422,12.0328893 23.4483422,12.2670134 C23.9100842,12.44669 24.6923294,12.1363395 24.6950455,12.7216497 C24.6977616,13.3069599 23.6629164,13.2252887 23.1631487,13.0347226 C22.9114856,12.9050371 22.6777438,12.7430551 22.4678196,12.5528625 C22.7883229,14.0311112 24.1409552,14.5265831 25.9390326,14.4013539 C26.38991,14.3714078 27.0933874,14.1291166 27.0906713,14.7144268 C27.0906713,15.2589014 26.3138584,15.1554513 25.7733487,15.2180658 C25.7977939,15.5855862 25.9987874,15.9830527 26.0612584,16.394131 C26.9822414,16.2577609 27.8100754,15.756584 28.3591036,15.0029984 C28.030452,14.8369336 27.1694391,14.6000871 27.210181,14.0420006 C27.2160178,13.8552521 27.3588197,13.7016489 27.5442649,13.6826474 C27.7452584,13.6608684 27.9598326,13.8568793 28.0467487,13.9222162 C28.2656405,14.1228071 28.5423786,14.2486264 28.8371423,14.2815695 C29.4092379,14.253083 29.9088001,13.8842511 30.1055746,13.3450731 C30.2603939,12.7652076 29.9589036,12.1635632 29.2907359,12.2180106 C28.9865294,12.242512 28.2966326,12.6427009 28.1635423,12.1445066 C28.1276971,11.9706751 28.1818433,11.7904554 28.3074971,11.6653689 C27.2036462,10.8506845 26.2480797,9.85147952 25.4827229,8.71159404 C24.9394971,8.61903336 24.0513229,8.78509812 24.1246584,8.16711942 C24.1599681,7.81865565 24.6081293,7.77237531 25.0345616,7.87854786 C24.8688777,7.3476851 24.5673874,6.74604064 24.4587423,6.07905922 C24.1298348,6.44448086 23.8702619,6.8670258 23.6927939,7.32590612 C23.4211809,7.99288754 23.3288326,8.74426252 22.7340003,9.05461306 C22.3673229,9.24790155 21.3514906,9.32685037 21.2727229,8.83954558 C21.16951,8.16984179 21.84311,8.49652657 22.2804067,8.35768554 C22.5900455,8.2596801 22.5248584,8.04189025 22.6878261,7.7832648 C22.5493035,7.61992242 22.4678196,7.6008658 22.3999164,7.47019189 C22.1588194,6.91517436 22.012818,6.32338351 21.9680519,5.71970596 C21.6774261,3.48463762 22.93771,2.42018972 24.3392326,1.70965033 C25.9092724,0.949253885 27.5912838,0.447351241 29.3206133,0.223234597 C32.3816907,-0.223234597 35.480794,0.318517657 37.4391231,1.5408632 C39.0036134,2.52091753 39.9977166,3.99099902 40.0248779,6.48741519 C40.0493231,8.92393915 39.6093102,11.0718916 39.4979489,13.4948036 C39.3838715,16.0075541 39.8619102,17.9676627 41.3367683,19.0729462 Z M29.2907359,19.720871 C29.4238262,19.3288493 29.6193875,18.2208434 30.1517488,18.2589566 C30.8280649,18.3079594 30.2549617,19.4105205 30.1517488,19.699092 C29.5568582,21.3983777 29.1239641,23.1503425 28.8588713,24.9314932 C28.4758971,27.4387989 28.4487359,30.6266978 29.0517165,32.8263753 C29.610305,34.917049 30.660945,36.8429826 32.1155101,38.4426311 C32.8001084,39.2347788 33.6505184,39.8659192 34.6062004,40.2911225 C35.4885569,40.6217559 36.452741,40.6636905 37.3603553,40.4109069 C37.6374622,40.2961088 37.9275186,40.2156571 38.2240844,40.171338 C38.4440908,40.171338 38.680394,40.4599096 38.8216328,40.579694 C39.9787037,41.5651931 41.5893683,42.5751935 43.729678,42.2348969 C45.6499812,41.9299911 46.5408716,40.4762438 47.2036071,38.9952728 C47.2849294,38.7655222 47.3801711,38.5409623 47.4888006,38.3228467 C47.6836648,38.1325068 47.9108539,37.9785481 48.1596845,37.8682104 C50.5037039,36.4934119 52.6358652,34.4706887 53.3203297,31.459744 C53.5809666,30.2468073 53.5067825,28.9856025 53.1057555,27.811764 C52.3262265,25.7427604 50.8812458,24.4714121 48.8903232,23.6356436 C46.8994006,22.799875 44.8514393,22.1818963 42.9501489,21.1610064 C41.0488586,20.1401165 39.5278263,18.9232157 38.952007,16.7698185 C38.3272973,14.4313 38.8813876,11.5646411 39.0959618,9.06550255 C39.2018908,7.82682277 39.3051037,6.27779246 39.0715166,5.12895099 C38.8836986,4.09228129 38.3099011,3.16586683 37.4662844,2.53725177 C35.9561166,1.3475747 33.5469101,0.74593024 30.7139875,0.882048897 C29.159141,0.961277738 27.6252373,1.27610668 26.1644713,1.81582288 C24.9639423,2.25956971 23.4483422,2.87210366 22.9322777,3.97738716 C22.5574519,4.7940991 22.7394326,5.86399174 23.0517874,6.78415386 C23.1974781,6.44584041 23.3796357,6.12450616 23.5950132,5.82587852 C23.7281035,5.63259002 24.1979939,5.17795371 24.2170068,4.98466522 C24.2658971,4.46196957 23.7308197,3.22601217 24.5266455,3.28045963 C24.9666584,3.31312811 24.9096197,4.03183462 24.95851,4.45652483 C25.3306197,7.62808953 26.8136262,9.57458633 28.8860326,11.0582797 C29.0340384,11.1853384 29.1941557,11.2974957 29.3640713,11.3931316 C29.5976584,11.4530238 29.8366778,11.4094658 29.988781,11.4666357 C30.640652,11.7034821 31.0752327,12.4548571 30.9693036,13.336906 C30.8633746,14.2189549 30.0403875,14.8369336 29.3178972,15.0166102 C29.1087426,15.4535853 28.8064844,15.8392464 28.4324391,16.1463951 C28.0730634,16.4783804 27.6596843,16.7463134 27.210181,16.9386057 C26.2024971,17.349684 24.936781,17.2516786 23.7851422,17.5620291 C22.821685,17.8429346 21.9365028,18.3443241 21.1993874,19.0266659 C20.5719616,19.5711405 19.5697099,20.3415721 19.5479809,21.4250766 C19.5479809,22.1546726 19.8386067,22.6229208 20.0749099,23.1537835 C22.2885551,21.9450499 25.2355552,21.2481223 28.7420778,21.4740793 C28.9267746,20.8942138 29.0815939,20.3442945 29.2907359,19.720871 Z M49.390091,5.80137716 C48.4421619,5.86943649 47.72782,6.32135043 46.5897619,6.54458503 C45.6418328,6.7297064 44.3734006,6.65620232 43.667207,7.08905965 C42.9610135,7.52191698 42.8333554,8.86132457 42.7084135,9.87404737 C42.3227231,13.0401673 42.2629683,16.3587402 42.1353102,19.6909249 C43.9551167,20.9296047 46.2420974,21.7000363 48.4312974,22.5711957 C48.1270909,19.3315717 47.8083985,16.1073744 47.47522,12.8986039 C47.1655813,13.0047765 46.7472974,12.9312724 46.7554458,12.5365283 C46.7635942,12.1417842 47.1058264,12.1744527 47.4263296,12.0328893 C47.5567038,11.9757194 47.6463361,11.8886035 47.7386845,11.8641021 C47.8310329,11.8396008 47.9451103,11.8641021 48.0483232,11.8423232 C48.591549,11.7470401 49.1945297,11.5292502 49.8436845,11.4339672 C51.6037361,11.1753417 53.5892265,11.0991153 54.6811104,10.2088993 C54.7625943,10.1435623 54.9092652,10.097282 54.8984007,9.96933043 C54.2085039,10.3368508 53.1600781,10.5464735 52.168691,10.6907593 C51.6906523,10.7588186 50.8921103,10.9629966 50.8975426,10.3776864 C50.8975426,9.90671585 51.4407684,9.98021993 51.9052265,9.92032772 C53.1146077,9.78897575 54.2860637,9.4188736 55.3519943,8.83137846 C55.7159556,8.61903336 56.126091,8.40941063 56.3107878,8.01466652 C56.2102626,7.95196603 56.1059428,7.89559477 55.998433,7.84587939 C55.7566975,7.98472042 55.6860781,8.16439704 55.4715039,8.32501706 C54.6023426,8.9892761 52.9998265,9.28601478 51.4978071,9.38129784 C50.9219878,9.41941106 50.2212265,9.50380463 50.2511039,8.97294186 C50.2809813,8.4420791 51.2126136,8.57547539 51.641762,8.54280691 C52.1799325,8.50367915 52.7151439,8.43094129 53.2442781,8.32501706 C54.2791233,8.11267195 55.2080394,7.83226752 55.4497749,6.88488167 C54.6593814,6.88488167 53.9423233,7.20884407 53.1247684,7.36674171 C52.7336458,7.44024579 52.3099297,7.49197088 51.8807813,7.53552885 C51.4516329,7.57908682 50.949149,7.50286037 50.5227168,7.60631055 C50.316291,7.65531327 50.063691,7.87854786 49.8056587,7.9656638 C49.221691,8.19706552 48.7626651,8.26512485 48.2004264,8.51013843 C47.8581942,8.6653137 47.0868135,9.12539476 47.1003942,8.41485537 C47.1003942,8.06639161 47.6164587,7.87038074 47.9152329,7.74242921 C49.0016845,7.25512441 50.3190071,7.15711898 50.8133426,6.1825094 C50.4112267,5.85874234 49.8913556,5.72031868 49.3819426,5.80137716 L49.390091,5.80137716 Z M5.56806459,8.79598761 C5.68757427,9.42485581 6.1112904,9.97749755 6.4290775,10.5954763 C6.74236574,11.1923254 7.01461231,11.8099267 7.24391622,12.4439676 C7.48565171,12.7788195 8.13480656,12.9176605 8.1293743,13.4294667 C8.13581224,13.5375264 8.09403553,13.6428706 8.01534092,13.7170136 C7.93664631,13.7911566 7.82916287,13.8264394 7.72195494,13.8133213 C7.48293558,13.8133213 7.25206461,13.5002484 7.02934203,13.3069599 C6.80661944,13.1136714 6.56216783,12.9258277 6.35845815,12.7815419 C5.71745169,12.3269056 4.81026458,11.7824309 4.20185167,12.3241832 C4.09863876,12.4167439 3.91394199,12.5964205 3.96283231,12.6835365 C4.63971922,12.8657647 5.28528265,13.1493642 5.8777033,13.5247498 C6.14931621,13.6908145 6.99131622,14.131839 6.9804517,14.5565292 C6.98193045,14.6587809 6.94205653,14.7572794 6.86991188,14.8295898 C6.79776724,14.9019003 6.69949472,14.9418659 6.5974775,14.9403838 C6.3258646,14.9403838 5.97276782,14.5728634 5.73374846,14.4122434 C5.17310358,13.9956513 4.54049292,13.6864639 3.86776779,13.5002484 C3.00675488,13.2879033 2.32500648,13.4539681 2.38204519,14.3632407 C3.33255652,14.4966238 4.23661173,14.8590772 5.01669039,15.4195215 C5.28830329,15.5855862 5.62781943,15.7679852 5.61423878,16.0674463 C5.60721163,16.2764564 5.43979531,16.4442576 5.23126458,16.4513009 C5.00582587,16.4513009 4.70161942,16.1790636 4.48976135,16.0456673 C4.24983541,15.8967364 4.00233234,15.7604331 3.74825811,15.6373113 C3.25392262,15.3922977 2.56130971,15.0084431 1.90400648,15.204454 C1.45584518,15.3378503 1.22769034,15.977608 1.25756776,16.5003036 C1.28997404,16.8481027 1.43276769,17.176329 1.66498712,17.4368 C1.74647099,17.5402501 1.81980648,17.7417057 1.9528968,17.7090373 C2.17833551,17.2870694 2.02351616,16.3805192 2.55044519,16.3151822 C3.34355488,16.2226215 2.85465165,17.4286328 2.74057423,17.9241047 C2.62649681,18.4195767 2.51241939,19.0266659 2.40649035,19.5330273 C1.74103873,22.7454276 1.13534195,26.191952 0.969658077,29.7337594 C0.907187108,31.094946 1.09460001,32.1376149 1.66498712,32.9026018 C2.23537422,33.6675886 3.04749681,34.1358368 3.91665812,34.5360256 C5.58164523,35.2982901 7.77356139,35.7910397 10.332155,35.880878 C10.3783292,35.7556488 10.1583227,35.633142 10.0605421,35.5460261 C9.10017165,34.6374741 8.56997176,33.3628608 8.60198076,32.0396095 C8.62658769,30.7117899 9.07068535,29.4259977 9.87041303,28.3671281 C9.96276142,28.2364542 10.1202969,28.0676671 10.0849872,27.9587721 C9.25510428,28.0030392 8.42328296,27.9957656 7.59429687,27.9369931 C7.00218074,27.8907128 5.59250975,27.9369931 5.60609039,27.3353487 C5.61967104,26.8262649 6.18190976,26.9759954 6.61377428,27.0249981 C7.40799398,27.1190056 8.20694813,27.1671803 9.00668399,27.1692839 C8.80352151,25.3199026 8.75627463,23.4566462 8.86544528,21.5993085 C8.95236141,19.7263158 9.20496141,17.8778244 9.13705818,16.0320554 C9.05297665,14.3657138 8.71403558,12.7222022 8.13209043,11.1590075 C7.8907404,10.4571011 7.59467444,9.77531221 7.24663235,9.11995001 C6.95872267,8.59180963 6.43179363,7.72065022 5.8586904,7.53552885 C5.5599162,7.73970683 5.47300007,8.35496316 5.5599162,8.80143236 L5.56806459,8.79598761 Z" id="Shape"></path>
                        <path d="M29.0761617,12.5229164 C29.3178972,12.5229164 29.692723,12.7162049 29.5053101,13.1000595 C29.4238262,13.2688467 29.1766584,13.3178494 28.9322068,13.3722969 C28.7057623,13.4387405 28.4724612,13.4789313 28.2368778,13.4920813 C28.0880733,13.4730034 27.9604258,13.3764831 27.9012639,13.2383077 C27.842102,13.1001324 27.8602458,12.9409019 27.9489681,12.8196551 C28.1037875,12.60731 28.7447939,12.5229164 29.0761617,12.5229164 Z" id="Path"></path>
                    </g>
                </g>
            </g>
        </g>
    </g>
</svg>